<svg width="2516" height="2904" viewBox="0 0 2516 2904" fill="none" xmlns="http://www.w3.org/2000/svg">
<path d="M521.064 2739.49C939.051 2957.84 1616.73 2957.84 2034.72 2739.49C2452.7 2521.14 2452.77 2167.08 2034.72 1948.73C1616.67 1730.39 939.051 1730.32 521.064 1948.73C103.078 2167.14 103.207 2521.27 521.064 2739.49Z" fill="#FAFAFA"/>
<path d="M1499.33 2233.71C1379.42 2290.93 1185 2290.93 1065.09 2233.71C945.178 2176.5 945.114 2083.93 1065.09 2026.72C1185.07 1969.5 1379.42 1969.57 1499.33 2026.72C1619.25 2083.87 1619.05 2176.56 1499.33 2233.71Z" fill="#F0F0F0"/>
<path d="M1821.66 2479.67C1910.87 2522.24 2055.55 2522.24 2144.76 2479.67C2233.97 2437.09 2233.97 2368.2 2144.76 2325.69C2055.55 2283.19 1910.87 2283.19 1821.66 2325.69C1732.45 2368.2 1732.45 2437.16 1821.66 2479.67Z" fill="#F0F0F0"/>
<path d="M406.763 2487.08C494.23 2528.75 636.01 2528.75 723.478 2487.08C810.945 2445.41 810.945 2377.81 723.478 2336.08C636.01 2294.35 494.23 2294.41 406.763 2336.08C319.295 2377.75 319.295 2445.41 406.763 2487.08Z" fill="#F0F0F0"/>
<path d="M2204.43 473.783L2229.13 483.329V428.823C2229.13 385.605 2263.64 375.285 2301.05 396.571C2338.47 418.116 2368.78 470.686 2368.78 513.84V521.774C2374.05 520.155 2379.61 519.75 2385.05 520.588C2390.49 521.426 2395.67 523.485 2400.2 526.611V526.611C2414.39 535.867 2426.19 548.334 2434.67 563.004C2443.14 577.673 2448.04 594.132 2448.96 611.047V614.66L2483.41 634.527C2492.78 640.602 2500.59 648.804 2506.19 658.466C2511.8 668.128 2515.04 678.977 2515.66 690.129C2515.66 710.642 2501.28 718.898 2483.41 708.706L2204.43 547.446C2195.06 541.377 2187.26 533.185 2181.66 523.535C2176.05 513.885 2172.81 503.05 2172.18 491.908C2172.3 471.847 2186.69 463.591 2204.43 473.783Z" fill="#F0F0F0"/>
<path d="M335.034 472.17L277.948 505.132C278.28 502.63 278.453 500.109 278.464 497.585V481.072C278.464 451.658 257.758 439.725 232.279 454.432C221.317 461.158 211.942 470.181 204.8 480.878C200.608 443.853 171.581 430.049 136.362 450.432C98.1752 472.428 67.2778 525.967 67.2778 570.023V594.728C67.0342 604.617 69.0413 614.433 73.1476 623.432L25.8016 650.782C18.3182 655.618 12.0814 662.152 7.59815 669.852C3.11488 677.552 0.511634 686.201 0 695.096C0 711.416 11.4817 718.06 25.8016 709.868L335.099 531.32C342.582 526.484 348.819 519.951 353.302 512.251C357.786 504.551 360.389 495.902 360.9 487.006C360.642 470.687 349.161 464.043 335.034 472.17Z" fill="#F0F0F0"/>
<path d="M1648.02 991.944C1687.27 991.944 1719.1 960.119 1719.1 920.861C1719.1 881.603 1687.27 849.777 1648.02 849.777C1608.76 849.777 1576.93 881.603 1576.93 920.861C1576.93 960.119 1608.76 991.944 1648.02 991.944Z" fill="#B03A2E"/>
<path d="M1202.03 1154.11C1259.6 1154.11 1306.27 1107.44 1306.27 1049.87C1306.27 992.299 1259.6 945.63 1202.03 945.63C1144.46 945.63 1097.8 992.299 1097.8 1049.87C1097.8 1107.44 1144.46 1154.11 1202.03 1154.11Z" fill="#B03A2E"/>
<path d="M1035.85 954.992C1099.61 891.235 1099.61 787.865 1035.85 724.108C972.096 660.351 868.726 660.351 804.969 724.108C741.212 787.865 741.212 891.235 804.969 954.992C868.726 1018.75 972.096 1018.75 1035.85 954.992Z" fill="#B03A2E"/>
<path d="M1100.05 691.161C1160.01 691.161 1208.61 642.557 1208.61 582.6C1208.61 522.644 1160.01 474.04 1100.05 474.04C1040.1 474.04 991.493 522.644 991.493 582.6C991.493 642.557 1040.1 691.161 1100.05 691.161Z" fill="#B03A2E"/>
<path d="M1427.73 629.495C1508.67 629.495 1574.29 563.881 1574.29 482.942C1574.29 402.003 1508.67 336.389 1427.73 336.389C1346.79 336.389 1281.18 402.003 1281.18 482.942C1281.18 563.881 1346.79 629.495 1427.73 629.495Z" fill="#B03A2E"/>
<path d="M1457.79 1217.84L1431.47 1259.96C1424.85 1270.58 1414.36 1278.21 1402.21 1281.24C1390.06 1284.26 1377.22 1282.43 1366.39 1276.15L1340.59 1261.18C1332.84 1255.87 1326.4 1248.85 1321.77 1240.67C1317.14 1232.48 1314.45 1223.35 1313.88 1213.97L1311.24 1111.21C1310.97 1108.58 1310.02 1106.07 1308.48 1103.92C1306.95 1101.77 1304.87 1100.06 1302.47 1098.96C1295.9 1095.65 1288.66 1093.93 1281.31 1093.93C1273.96 1093.93 1266.71 1095.65 1260.15 1098.96C1257.73 1100.03 1255.64 1101.74 1254.1 1103.89C1252.56 1106.05 1251.62 1108.57 1251.38 1111.21L1245.83 1324.98C1245.38 1342.78 1238.09 1353.23 1229.51 1348.33L1214.03 1339.36C1206.49 1335.03 1199.89 1329.25 1194.59 1322.36C1189.3 1315.46 1185.43 1307.58 1183.2 1299.18L1165.85 1234.67C1164.74 1230.53 1162.04 1227 1158.33 1224.85C1154.63 1222.71 1150.22 1222.12 1146.08 1223.22C1141.94 1224.33 1138.4 1227.03 1136.26 1230.74C1134.11 1234.45 1133.52 1238.85 1134.63 1242.99L1151.98 1307.5C1155.31 1319.99 1161.07 1331.69 1168.94 1341.95C1176.81 1352.2 1186.63 1360.79 1197.84 1367.23L1220.93 1380.58C1233.83 1387.93 1243.64 1408.32 1243.19 1426.12L1225.58 2107.8C1225.58 2115.99 1231 2124.25 1241.83 2130.51C1254.02 2136.68 1267.49 2139.89 1281.15 2139.89C1294.81 2139.89 1308.28 2136.68 1320.46 2130.51C1331.3 2124.06 1336.78 2115.99 1336.72 2107.74L1316.34 1316.21C1315.88 1298.4 1323.3 1288.47 1332.91 1294.02L1350.26 1304.08C1368.33 1314.54 1389.75 1317.57 1410.01 1312.53C1430.27 1307.49 1447.77 1294.76 1458.82 1277.05L1485.14 1234.93C1487.41 1231.3 1488.14 1226.93 1487.18 1222.76C1486.22 1218.59 1483.64 1214.98 1480.01 1212.71C1476.39 1210.44 1472.01 1209.71 1467.84 1210.67C1463.67 1211.63 1460.06 1214.21 1457.79 1217.84V1217.84Z" fill="#37474F"/>
<path d="M1911.87 511.511C1942.76 378.355 1859.85 245.371 1726.7 214.483C1593.54 183.594 1460.56 266.499 1429.67 399.655C1398.78 532.811 1481.68 665.795 1614.84 696.683C1748 727.572 1880.98 644.667 1911.87 511.511Z" fill="#B03A2E"/>
<path opacity="0.2" d="M1918.35 453.851V456.044C1918.4 494.339 1909.56 532.122 1892.53 566.422C1875.5 600.721 1850.74 630.601 1820.2 653.71C1789.67 676.819 1754.19 692.527 1716.55 699.597C1678.91 706.668 1640.15 704.909 1603.31 694.459C1566.47 684.008 1532.55 665.151 1504.23 639.372C1475.92 613.592 1453.97 581.593 1440.11 545.892C1426.26 510.191 1420.88 471.762 1424.39 433.629C1427.91 395.496 1440.22 358.699 1460.37 326.133C1449.33 384.827 1460.69 445.528 1492.22 496.253C1523.74 546.979 1573.14 584.04 1630.66 600.121C1688.18 616.202 1749.64 610.133 1802.9 583.113C1856.16 556.093 1897.36 510.085 1918.35 454.173V453.851Z" fill="black"/>
<path d="M1438.96 542.156C1450.54 573.199 1468.23 601.602 1490.99 625.679C1513.75 649.757 1541.11 669.02 1571.45 682.327C1601.79 695.633 1634.5 702.712 1667.63 703.144C1700.76 703.575 1733.64 697.351 1764.32 684.84C1757.4 650.698 1742.38 618.72 1720.51 591.603C1698.65 564.487 1670.58 543.029 1638.68 529.038C1606.77 515.048 1571.97 508.937 1537.22 511.22C1502.46 513.503 1468.75 524.114 1438.96 542.156V542.156Z" fill="#B03A2E"/>
<path opacity="0.1" d="M1438.96 542.156C1450.54 573.199 1468.23 601.602 1490.99 625.679C1513.75 649.757 1541.11 669.02 1571.45 682.327C1601.79 695.633 1634.5 702.712 1667.63 703.144C1700.76 703.575 1733.64 697.351 1764.32 684.84C1757.4 650.698 1742.38 618.72 1720.51 591.603C1698.65 564.487 1670.58 543.029 1638.68 529.038C1606.77 515.048 1571.97 508.937 1537.22 511.22C1502.46 513.503 1468.75 524.114 1438.96 542.156V542.156Z" fill="black"/>
<path d="M1682.07 353.676C1704.97 353.676 1707.88 353.676 1716.71 354.192C1722.15 354.275 1727.54 355.278 1732.64 357.159C1736.33 358.592 1739.68 360.778 1742.48 363.576C1745.28 366.375 1747.47 369.725 1748.9 373.415C1750.75 378.503 1751.73 383.868 1751.8 389.283C1752.25 398.313 1752.32 401.022 1752.32 423.921C1752.32 446.82 1752.32 449.723 1751.8 458.56C1751.73 463.975 1750.75 469.339 1748.9 474.428C1747.47 478.117 1745.28 481.468 1742.48 484.266C1739.68 487.065 1736.33 489.25 1732.64 490.683C1727.54 492.564 1722.15 493.568 1716.71 493.65C1707.68 494.037 1704.97 494.166 1682.07 494.166C1659.17 494.166 1656.27 494.166 1647.5 493.65C1642.06 493.575 1636.67 492.572 1631.57 490.683C1627.86 489.275 1624.5 487.098 1621.7 484.296C1618.9 481.495 1616.72 478.131 1615.31 474.428C1613.43 469.345 1612.43 463.979 1612.34 458.56C1611.96 449.529 1611.89 446.82 1611.89 423.921C1611.89 401.022 1611.89 398.12 1612.34 389.283C1612.43 383.863 1613.43 378.497 1615.31 373.415C1616.72 369.711 1618.9 366.348 1621.7 363.546C1624.5 360.744 1627.86 358.568 1631.57 357.159C1636.67 355.271 1642.06 354.267 1647.5 354.192C1656.53 353.805 1659.24 353.676 1682.07 353.676ZM1682.07 338.26C1658.85 338.26 1656.27 338.26 1646.79 338.776C1639.67 338.903 1632.62 340.256 1625.96 342.775C1620.27 344.972 1615.11 348.334 1610.8 352.644C1606.49 356.954 1603.12 362.117 1600.93 367.803C1598.44 374.454 1597.09 381.475 1596.93 388.573C1596.54 397.733 1596.41 400.635 1596.41 423.921C1596.41 447.207 1596.41 450.11 1596.93 459.269C1597.09 466.368 1598.44 473.388 1600.93 480.04C1603.12 485.725 1606.49 490.889 1610.8 495.199C1615.11 499.509 1620.27 502.87 1625.96 505.067C1632.62 507.587 1639.67 508.939 1646.79 509.067C1655.95 509.454 1658.85 509.583 1682.07 509.583C1705.3 509.583 1708.26 509.583 1717.42 509.067C1724.52 508.941 1731.55 507.588 1738.19 505.067C1743.93 502.932 1749.12 499.563 1753.42 495.198C1757.74 490.903 1761.11 485.736 1763.28 480.04C1765.77 473.392 1767.1 466.367 1767.22 459.269C1767.67 450.11 1767.73 447.207 1767.73 423.921C1767.73 400.635 1767.74 397.733 1767.22 388.573C1767.1 381.476 1765.77 374.45 1763.28 367.803C1761.08 362.176 1757.72 357.077 1753.42 352.838C1749.12 348.473 1743.93 345.104 1738.19 342.969C1731.55 340.448 1724.52 339.095 1717.42 338.969C1708.26 338.582 1705.36 338.453 1682.07 338.453" fill="white"/>
<path d="M1682.07 379.929C1673.37 379.929 1664.86 382.512 1657.62 387.352C1650.38 392.191 1644.74 399.07 1641.42 407.116C1638.09 415.162 1637.23 424.013 1638.94 432.551C1640.64 441.088 1644.85 448.926 1651.01 455.073C1657.18 461.22 1665.03 465.4 1673.57 467.083C1682.11 468.766 1690.96 467.876 1699 464.527C1707.03 461.177 1713.9 455.519 1718.71 448.267C1723.53 441.016 1726.09 432.498 1726.07 423.792C1726.07 412.124 1721.43 400.935 1713.18 392.685C1704.93 384.435 1693.74 379.8 1682.07 379.8V379.929ZM1682.07 452.367C1676.42 452.367 1670.9 450.691 1666.2 447.551C1661.5 444.411 1657.84 439.948 1655.67 434.727C1653.51 429.505 1652.94 423.76 1654.05 418.217C1655.15 412.674 1657.87 407.582 1661.87 403.586C1665.86 399.589 1670.96 396.868 1676.5 395.765C1682.04 394.663 1687.79 395.229 1693.01 397.391C1698.23 399.554 1702.69 403.217 1705.83 407.916C1708.97 412.615 1710.65 418.14 1710.65 423.792C1710.65 431.37 1707.64 438.638 1702.28 443.997C1696.92 449.356 1689.65 452.367 1682.07 452.367Z" fill="white"/>
<path d="M1738.13 378.188C1738.14 380.232 1737.55 382.233 1736.42 383.939C1735.29 385.645 1733.69 386.978 1731.8 387.769C1729.92 388.56 1727.84 388.773 1725.83 388.382C1723.83 387.992 1721.98 387.014 1720.53 385.573C1719.08 384.132 1718.09 382.293 1717.69 380.29C1717.29 378.286 1717.49 376.207 1718.27 374.318C1719.04 372.428 1720.37 370.813 1722.07 369.676C1723.76 368.539 1725.76 367.932 1727.81 367.932C1730.53 367.932 1733.15 369.01 1735.08 370.932C1737.02 372.853 1738.11 375.462 1738.13 378.188Z" fill="white"/>
<path d="M2014.75 873.164C2035.18 771.821 1969.59 673.1 1868.25 652.666C1766.91 632.232 1668.19 697.821 1647.75 799.164C1627.32 900.507 1692.91 999.227 1794.25 1019.66C1895.59 1040.1 1994.31 974.507 2014.75 873.164Z" fill="#B03A2E"/>
<path d="M2018.59 834.941V836.618C2018.51 865.493 2011.74 893.957 1998.82 919.78C1985.9 945.603 1967.18 968.085 1944.12 985.465C1921.06 1002.84 1894.29 1014.65 1865.91 1019.96C1837.52 1025.26 1808.3 1023.93 1780.52 1016.05C1752.74 1008.18 1727.16 993.978 1705.78 974.567C1684.4 955.155 1667.81 931.059 1657.3 904.164C1646.79 877.269 1642.65 848.307 1645.2 819.545C1647.75 790.782 1656.93 763.002 1672.01 738.378C1669.41 750.832 1668.09 763.519 1668.08 776.242C1668.09 818.849 1683.19 860.074 1710.72 892.6C1738.24 925.127 1776.39 946.852 1818.41 953.919C1860.42 960.986 1903.59 952.939 1940.23 931.205C1976.88 909.471 2004.64 875.457 2018.59 835.199V834.941Z" fill="#B03A2E"/>
<path opacity="0.1" d="M2018.59 834.941V836.618C2018.51 865.493 2011.74 893.957 1998.82 919.78C1985.9 945.603 1967.18 968.085 1944.12 985.465C1921.06 1002.84 1894.29 1014.65 1865.91 1019.96C1837.52 1025.26 1808.3 1023.93 1780.52 1016.05C1752.74 1008.18 1727.16 993.978 1705.78 974.567C1684.4 955.155 1667.81 931.059 1657.3 904.164C1646.79 877.269 1642.65 848.307 1645.2 819.545C1647.75 790.782 1656.93 763.002 1672.01 738.378C1669.41 750.832 1668.09 763.519 1668.08 776.242C1668.09 818.849 1683.19 860.074 1710.72 892.6C1738.24 925.127 1776.39 946.852 1818.41 953.919C1860.42 960.986 1903.59 952.939 1940.23 931.205C1976.88 909.471 2004.64 875.457 2018.59 835.199V834.941Z" fill="black"/>
<path d="M1644.27 836.618C1644.36 884.744 1663.06 930.971 1696.46 965.626C1738.2 931.001 1765.47 882 1772.88 828.274C1780.29 774.548 1767.32 719.994 1736.51 675.357C1708.43 691.875 1685.14 715.443 1668.96 743.727C1652.78 772.012 1644.27 804.033 1644.27 836.618V836.618Z" fill="#B03A2E"/>
<path opacity="0.1" d="M1644.27 836.618C1644.36 884.744 1663.06 930.971 1696.46 965.626C1738.2 931.001 1765.47 882 1772.88 828.274C1780.29 774.548 1767.32 719.994 1736.51 675.357C1708.43 691.875 1685.14 715.443 1668.96 743.727C1652.78 772.012 1644.27 804.033 1644.27 836.618V836.618Z" fill="black"/>
<path d="M1903.58 774.501C1885.58 773.92 1873.46 784.112 1867.07 804.947C1870.07 803.589 1873.32 802.865 1876.62 802.818C1883.07 802.818 1886.16 806.56 1885.39 813.978C1883.88 820.981 1880.89 827.579 1876.62 833.329C1871.2 841.908 1867.14 846.23 1864.43 846.23C1861.72 846.23 1857.98 839.779 1854.82 826.427C1853.85 822.557 1852.11 812.623 1849.59 796.755C1847.27 782.005 1841.05 775.103 1830.95 776.049C1823.58 778.137 1816.91 782.144 1811.6 787.66C1805.15 793.272 1799.08 798.948 1792.7 804.56L1798.83 812.429C1801.86 809.791 1805.28 807.618 1808.95 805.979C1813.4 805.979 1817.6 812.945 1821.47 826.943L1831.92 865.258C1837.16 879.277 1843.61 886.265 1851.27 886.222C1863.52 886.222 1878.45 874.762 1896.03 851.841C1913.23 829.91 1922.05 812.709 1922.48 800.238C1923.17 783.553 1916.87 774.974 1903.58 774.501Z" fill="white"/>
<path d="M1202.61 524.805C1347.54 524.805 1465.02 407.324 1465.02 262.403C1465.02 117.482 1347.54 0 1202.61 0C1057.69 0 940.211 117.482 940.211 262.403C940.211 407.324 1057.69 524.805 1202.61 524.805Z" fill="#B03A2E"/>
<path opacity="0.5" d="M1464.95 260.469V262.533C1464.93 303.09 1455.51 343.09 1437.43 379.393C1419.34 415.696 1393.09 447.313 1360.73 471.762C1328.37 496.211 1290.79 512.826 1250.92 520.303C1211.06 527.78 1170.01 525.915 1130.99 514.855C1091.97 503.794 1056.04 483.839 1026.04 456.557C996.026 429.274 972.749 395.407 958.032 357.614C943.315 319.821 937.559 279.131 941.216 238.739C944.873 198.347 957.843 159.352 979.108 124.816C975.389 142.268 973.508 160.06 973.496 177.903C973.479 237.663 994.644 295.494 1033.23 341.125C1071.82 386.756 1125.33 417.233 1184.27 427.141C1243.2 437.05 1303.74 425.749 1355.12 395.246C1406.51 364.743 1445.43 317.013 1464.95 260.533V260.469Z" fill="#B03A2E"/>
<path opacity="0.1" d="M1464.95 260.469V262.533C1464.93 303.09 1455.51 343.09 1437.43 379.393C1419.34 415.696 1393.09 447.313 1360.73 471.762C1328.37 496.211 1290.79 512.826 1250.92 520.303C1211.06 527.78 1170.01 525.915 1130.99 514.855C1091.97 503.794 1056.04 483.839 1026.04 456.557C996.026 429.274 972.749 395.407 958.032 357.614C943.315 319.821 937.559 279.131 941.216 238.739C944.873 198.347 957.843 159.352 979.108 124.816C975.389 142.268 973.508 160.06 973.496 177.903C973.479 237.663 994.644 295.494 1033.23 341.125C1071.82 386.756 1125.33 417.233 1184.27 427.141C1243.2 437.05 1303.74 425.749 1355.12 395.246C1406.51 364.743 1445.43 317.013 1464.95 260.533V260.469Z" fill="black"/>
<path d="M1423.41 404.442C1406.56 370.438 1378.71 343.132 1344.38 326.963C1310.05 310.794 1271.26 306.713 1234.31 315.383C1197.37 324.053 1164.44 344.965 1140.88 374.718C1117.33 404.472 1104.53 441.318 1104.57 479.266C1104.57 488.584 1105.37 497.885 1106.96 507.068C1163.43 529.233 1225.85 531.12 1283.55 512.405C1341.26 493.689 1390.69 455.532 1423.41 404.442V404.442Z" fill="#B03A2E"/>
<path opacity="0.1" d="M1423.41 404.442C1406.56 370.438 1378.71 343.132 1344.38 326.963C1310.05 310.794 1271.26 306.713 1234.31 315.383C1197.37 324.053 1164.44 344.965 1140.88 374.718C1117.33 404.472 1104.53 441.318 1104.57 479.266C1104.57 488.584 1105.37 497.885 1106.96 507.068C1163.43 529.233 1225.85 531.12 1283.55 512.405C1341.26 493.689 1390.69 455.532 1423.41 404.442V404.442Z" fill="black"/>
<path d="M1182.04 294.333H1220.09V199.06H1246.61L1249.44 167.195H1220.09V149.07C1220.09 141.523 1221.58 138.555 1228.87 138.555H1249.44V105.465H1223.13C1194.81 105.465 1182.04 117.914 1182.04 141.781V167.195H1162.3V199.447H1182.04V294.333Z" fill="white"/>
<path d="M1096.79 627.439C1120.43 479.84 1019.94 341.021 872.34 317.38C724.741 293.738 585.922 394.226 562.281 541.826C538.639 689.425 639.127 828.243 786.726 851.885C934.326 875.527 1073.14 775.039 1096.79 627.439Z" fill="#B03A2E"/>
<path opacity="0.7" d="M1100.05 582.601V584.665C1100.21 626.63 1090.61 668.057 1072.03 705.681C1053.44 743.304 1026.36 776.095 992.935 801.468C959.509 826.84 920.645 844.1 879.409 851.887C838.173 859.674 795.691 857.775 755.314 846.34C714.937 834.905 677.768 814.246 646.739 785.992C615.71 757.738 591.668 722.663 576.51 683.531C561.352 644.398 555.493 602.28 559.393 560.496C563.293 518.713 576.847 478.407 598.985 442.756C595.141 460.757 593.195 479.112 593.18 497.52C593.161 559.152 614.987 618.796 654.782 665.859C694.577 712.923 749.764 744.358 810.542 754.583C871.32 764.808 933.755 753.161 986.759 721.71C1039.76 690.259 1079.9 641.04 1100.05 582.794V582.601Z" fill="#B03A2E"/>
<path opacity="0.1" d="M1100.05 582.601V584.665C1100.21 626.63 1090.61 668.057 1072.03 705.681C1053.44 743.304 1026.36 776.095 992.935 801.468C959.509 826.84 920.645 844.1 879.409 851.887C838.173 859.674 795.691 857.775 755.314 846.34C714.937 834.905 677.768 814.246 646.739 785.992C615.71 757.738 591.668 722.663 576.51 683.531C561.352 644.398 555.493 602.28 559.393 560.496C563.293 518.713 576.847 478.407 598.985 442.756C595.141 460.757 593.195 479.112 593.18 497.52C593.161 559.152 614.987 618.796 654.782 665.859C694.577 712.923 749.764 744.358 810.542 754.583C871.32 764.808 933.755 753.161 986.759 721.71C1039.76 690.259 1079.9 641.04 1100.05 582.794V582.601Z" fill="black"/>
<path d="M704.772 675.874C664.037 675.916 624.84 691.433 595.115 719.285C621.744 765.958 661.715 803.606 709.896 827.398C758.077 851.19 812.269 860.039 865.516 852.809C866.032 847.649 866.29 842.359 866.29 837.07C866.282 815.877 862.096 794.893 853.972 775.318C845.848 755.744 833.945 737.963 818.944 722.992C803.943 708.021 786.138 696.154 766.548 688.069C746.957 679.984 725.965 675.84 704.772 675.874V675.874Z" fill="#B03A2E"/>
<path opacity="0.1" d="M704.772 675.874C664.037 675.916 624.84 691.433 595.115 719.285C621.744 765.958 661.715 803.606 709.896 827.398C758.077 851.19 812.269 860.039 865.516 852.809C866.032 847.649 866.29 842.359 866.29 837.07C866.282 815.877 862.096 794.893 853.972 775.318C845.848 755.744 833.945 737.963 818.944 722.992C803.943 708.021 786.138 696.154 766.548 688.069C746.957 679.984 725.965 675.84 704.772 675.874V675.874Z" fill="black"/>
<path d="M1100.05 587.761C1070.56 589.746 1041.86 598.246 1016.05 612.651C990.23 627.056 967.928 647.007 950.747 671.066C933.566 695.126 921.934 722.695 916.688 751.79C911.442 780.886 912.713 810.782 920.409 839.327C972.433 820.717 1017.52 786.645 1049.63 741.68C1081.74 696.716 1099.33 643.008 1100.05 587.761V587.761Z" fill="#B03A2E"/>
<path opacity="0.1" d="M1100.05 587.761C1070.56 589.746 1041.86 598.246 1016.05 612.651C990.23 627.056 967.928 647.007 950.747 671.066C933.566 695.126 921.934 722.695 916.688 751.79C911.442 780.886 912.713 810.782 920.409 839.327C972.433 820.717 1017.52 786.645 1049.63 741.68C1081.74 696.716 1099.33 643.008 1100.05 587.761V587.761Z" fill="black"/>
<path d="M746.248 615.369C761.245 624.979 778.595 630.282 796.402 630.696C814.209 631.111 831.787 626.622 847.215 617.719C862.643 608.817 875.326 595.844 883.877 580.22C892.429 564.595 896.52 546.92 895.704 529.127C902.372 524.278 908.136 518.296 912.733 511.453C906.589 514.201 900.065 516.006 893.382 516.806C900.516 512.551 905.84 505.826 908.347 497.907C901.654 501.905 894.322 504.72 886.673 506.228C881.507 500.827 874.713 497.268 867.332 496.095C859.95 494.923 852.388 496.201 845.802 499.736C839.217 503.27 833.971 508.865 830.868 515.664C827.764 522.464 826.975 530.093 828.62 537.383C815.042 536.715 801.757 533.193 789.632 527.047C777.506 520.901 766.812 512.268 758.246 501.713C753.886 509.23 752.547 518.123 754.499 526.591C756.452 535.058 761.549 542.467 768.76 547.317C763.331 547.12 758.025 545.639 753.279 542.995C753.194 550.955 755.884 558.696 760.887 564.888C765.89 571.08 772.893 575.336 780.693 576.924C775.67 578.318 770.39 578.517 765.277 577.505C767.448 584.304 771.696 590.251 777.424 594.509C783.152 598.767 790.07 601.122 797.206 601.242C790.07 606.853 781.891 610.991 773.144 613.416C764.396 615.841 755.254 616.504 746.248 615.369V615.369Z" fill="white"/>
<path d="M1062.21 1220.14C1145.17 1137.19 1145.17 1002.69 1062.21 919.741C979.262 836.789 844.771 836.79 761.819 919.742C678.866 1002.69 678.866 1137.19 761.819 1220.14C844.771 1303.09 979.262 1303.09 1062.21 1220.14Z" fill="#B03A2E"/>
<path opacity="0.3" d="M941.76 859.646C940.569 868.585 939.966 877.592 939.954 886.609C939.926 917.246 946.801 947.496 960.067 975.113C973.333 1002.73 992.651 1027 1016.58 1046.13C1004.98 1060.27 996.274 1076.57 990.966 1094.08C985.657 1111.59 983.85 1129.97 985.647 1148.18C987.444 1166.39 992.81 1184.07 1001.44 1200.2C1010.07 1216.34 1021.79 1230.62 1035.94 1242.22C1070.32 1217.47 1096.51 1183 1111.15 1143.24C1125.79 1103.49 1128.2 1060.26 1118.07 1019.12C1107.94 977.987 1085.74 940.819 1054.32 912.399C1022.9 883.98 983.703 865.608 941.76 859.646V859.646Z" fill="#B03A2E"/>
<path opacity="0.1" d="M941.76 859.646C940.569 868.585 939.966 877.592 939.954 886.609C939.926 917.246 946.801 947.496 960.067 975.113C973.333 1002.73 992.651 1027 1016.58 1046.13C1004.98 1060.27 996.274 1076.57 990.966 1094.08C985.657 1111.59 983.85 1129.97 985.647 1148.18C987.444 1166.39 992.81 1184.07 1001.44 1200.2C1010.07 1216.34 1021.79 1230.62 1035.94 1242.22C1070.32 1217.47 1096.51 1183 1111.15 1143.24C1125.79 1103.49 1128.2 1060.26 1118.07 1019.12C1107.94 977.987 1085.74 940.819 1054.32 912.399C1022.9 883.98 983.703 865.608 941.76 859.646V859.646Z" fill="black"/>
<path d="M1124.37 1068.32V1069.93C1124.31 1102.73 1116.65 1135.07 1102 1164.42C1087.34 1193.77 1066.09 1219.33 1039.9 1239.08C1013.72 1258.84 983.314 1272.27 951.072 1278.31C918.83 1284.35 885.627 1282.84 854.066 1273.9C822.505 1264.96 793.443 1248.83 769.159 1226.78C744.875 1204.72 726.028 1177.35 714.097 1146.79C702.165 1116.23 697.473 1083.33 700.387 1050.66C703.302 1017.98 713.744 986.428 730.896 958.466C719.638 1009.55 728.377 1063 755.316 1107.83C782.256 1152.67 825.348 1185.48 875.734 1199.52C926.12 1213.56 979.971 1207.77 1026.22 1183.33C1072.46 1158.89 1107.59 1117.66 1124.37 1068.12V1068.32Z" fill="#B03A2E"/>
<path d="M1124.37 1068.32V1069.93C1124.31 1102.73 1116.65 1135.07 1102 1164.42C1087.34 1193.77 1066.09 1219.33 1039.9 1239.08C1013.72 1258.84 983.314 1272.27 951.072 1278.31C918.83 1284.35 885.627 1282.84 854.066 1273.9C822.505 1264.96 793.443 1248.83 769.159 1226.78C744.875 1204.72 726.028 1177.35 714.097 1146.79C702.165 1116.23 697.473 1083.33 700.387 1050.66C703.302 1017.98 713.744 986.428 730.896 958.466C719.638 1009.55 728.377 1063 755.316 1107.83C782.256 1152.67 825.348 1185.48 875.734 1199.52C926.12 1213.56 979.971 1207.77 1026.22 1183.33C1072.46 1158.89 1107.59 1117.66 1124.37 1068.12V1068.32Z" fill="#B03A2E"/>
<g opacity="0.1">
<path opacity="0.1" d="M1124.37 1068.32V1069.93C1124.31 1102.73 1116.65 1135.07 1102 1164.42C1087.34 1193.77 1066.09 1219.33 1039.9 1239.08C1013.72 1258.84 983.314 1272.27 951.072 1278.31C918.83 1284.35 885.627 1282.84 854.066 1273.9C822.505 1264.96 793.443 1248.83 769.159 1226.78C744.875 1204.72 726.028 1177.35 714.097 1146.79C702.165 1116.23 697.473 1083.33 700.387 1050.66C703.302 1017.98 713.744 986.428 730.896 958.466C719.638 1009.55 728.377 1063 755.316 1107.83C782.256 1152.67 825.348 1185.48 875.734 1199.52C926.12 1213.56 979.971 1207.77 1026.22 1183.33C1072.46 1158.89 1107.59 1117.66 1124.37 1068.12V1068.32Z" fill="black"/>
<path opacity="0.1" d="M1124.37 1068.32V1069.93C1124.31 1102.73 1116.65 1135.07 1102 1164.42C1087.34 1193.77 1066.09 1219.33 1039.9 1239.08C1013.72 1258.84 983.314 1272.27 951.072 1278.31C918.83 1284.35 885.627 1282.84 854.066 1273.9C822.505 1264.96 793.443 1248.83 769.159 1226.78C744.875 1204.72 726.028 1177.35 714.097 1146.79C702.165 1116.23 697.473 1083.33 700.387 1050.66C703.302 1017.98 713.744 986.428 730.896 958.466C719.638 1009.55 728.377 1063 755.316 1107.83C782.256 1152.67 825.348 1185.48 875.734 1199.52C926.12 1213.56 979.971 1207.77 1026.22 1183.33C1072.46 1158.89 1107.59 1117.66 1124.37 1068.12V1068.32Z" fill="black"/>
</g>
<path d="M872.934 1106.18C876.951 1105.39 880.741 1103.72 884.029 1101.28C887.563 1098.5 890.416 1094.96 892.372 1090.91C894.328 1086.86 895.336 1082.42 895.317 1077.93C895.462 1072.87 894.14 1067.87 891.511 1063.54C888.796 1059.48 884.8 1056.44 880.158 1054.9C882.995 1053.56 885.538 1051.68 887.641 1049.35C890.818 1045.23 892.419 1040.1 892.156 1034.9C892.297 1029.57 890.739 1024.33 887.705 1019.94C884.595 1016.31 880.67 1013.48 876.253 1011.66C871.836 1009.85 867.051 1009.1 862.291 1009.49H814.945V1107.54H859.066C863.723 1107.57 868.371 1107.11 872.934 1106.18V1106.18ZM834.232 1026.52H855.518C859.446 1026.41 863.366 1026.93 867.129 1028.07C868.851 1028.81 870.289 1030.1 871.229 1031.72C872.17 1033.35 872.564 1035.23 872.354 1037.1C872.536 1038.76 872.267 1040.44 871.574 1041.96C870.882 1043.48 869.792 1044.79 868.419 1045.74C865.237 1047.46 861.647 1048.29 858.034 1048.13H834.232V1026.52ZM834.232 1090.51V1064.38H858.356C861.679 1064.25 864.993 1064.8 868.096 1066C870.142 1066.84 871.867 1068.32 873.025 1070.21C874.184 1072.1 874.716 1074.3 874.547 1076.51C874.824 1078.96 874.357 1081.44 873.207 1083.63C872.056 1085.81 870.276 1087.6 868.096 1088.77C864.977 1090.07 861.605 1090.67 858.227 1090.51H834.232Z" fill="white"/>
<path d="M911.894 1101.09C919.163 1107.03 928.311 1110.18 937.696 1109.99C942.726 1110.28 947.76 1109.48 952.457 1107.66C957.153 1105.83 961.403 1103.02 964.917 1099.41C968.587 1095.98 971.053 1091.45 971.948 1086.51H952.596C951.285 1089.17 949.211 1091.38 946.638 1092.87C944.065 1094.35 941.11 1095.03 938.147 1094.83C934.468 1094.94 930.835 1093.98 927.698 1092.05C925.219 1090.38 923.215 1088.09 921.881 1085.41C920.547 1082.73 919.929 1079.76 920.086 1076.77H972.915C973.063 1071.96 972.848 1067.15 972.27 1062.38C971.508 1057.03 969.545 1051.91 966.529 1047.42C963.456 1042.71 959.088 1038.99 953.951 1036.71C948.582 1034.37 942.777 1033.21 936.922 1033.29C932.163 1033.13 927.422 1033.94 922.986 1035.67C918.551 1037.4 914.513 1040.01 911.12 1043.35C907.618 1047.26 904.935 1051.83 903.228 1056.8C901.522 1061.76 900.828 1067.02 901.187 1072.25C900.684 1077.55 901.386 1082.9 903.24 1087.89C905.094 1092.89 908.053 1097.4 911.894 1101.09V1101.09ZM925.44 1052.9C926.936 1051.47 928.711 1050.37 930.654 1049.66C932.596 1048.95 934.664 1048.65 936.728 1048.77C940.838 1048.63 944.856 1050.01 948.017 1052.64C949.588 1054.12 950.844 1055.89 951.709 1057.87C952.574 1059.84 953.029 1061.97 953.048 1064.12H920.409C920.788 1059.93 922.558 1055.98 925.44 1052.9V1052.9Z" fill="white"/>
<path d="M956.79 1015.17H914.217V1025.03H956.79V1015.17Z" fill="white"/>
<path d="M1499.2 968.528C1619.05 968.528 1716.2 871.378 1716.2 751.537C1716.2 631.695 1619.05 534.545 1499.2 534.545C1379.36 534.545 1282.21 631.695 1282.21 751.537C1282.21 871.378 1379.36 968.528 1499.2 968.528Z" fill="#B03A2E"/>
<path opacity="0.2" d="M1716.13 749.925V751.537C1716.12 785.08 1708.33 818.162 1693.38 848.187C1678.42 878.212 1656.71 904.361 1629.95 924.581C1603.19 944.802 1572.1 958.543 1539.13 964.725C1506.17 970.907 1472.21 969.362 1439.94 960.212C1407.67 951.061 1377.96 934.554 1353.15 911.987C1328.33 889.42 1309.09 861.407 1296.92 830.149C1284.76 798.89 1280 765.237 1283.04 731.832C1286.07 698.427 1296.8 666.18 1314.4 637.623C1311.34 652.066 1309.78 666.787 1309.76 681.55C1309.74 730.963 1327.24 778.782 1359.14 816.515C1391.05 854.248 1435.29 879.451 1484.02 887.65C1532.75 895.849 1582.8 886.512 1625.3 861.297C1667.79 836.082 1699.98 796.622 1716.13 749.925V749.925Z" fill="black"/>
<path d="M1312.72 640.59C1285.78 685.868 1276.23 739.406 1285.87 791.207C1295.51 843.007 1323.67 889.529 1365.1 922.086C1380.53 900.298 1391.44 875.633 1397.17 849.554C1402.89 823.475 1403.33 796.511 1398.44 770.261C1393.56 744.01 1383.46 719.007 1368.73 696.733C1354.01 674.46 1334.96 655.368 1312.72 640.59V640.59Z" fill="#B03A2E"/>
<path opacity="0.1" d="M1312.72 640.59C1285.78 685.868 1276.23 739.406 1285.87 791.207C1295.51 843.007 1323.67 889.529 1365.1 922.086C1380.53 900.298 1391.44 875.633 1397.17 849.554C1402.89 823.475 1403.33 796.511 1398.44 770.261C1393.56 744.01 1383.46 719.007 1368.73 696.733C1354.01 674.46 1334.96 655.368 1312.72 640.59V640.59Z" fill="#B03A2E"/>
<g opacity="0.1">
<path opacity="0.1" d="M1312.72 640.59C1285.78 685.868 1276.23 739.406 1285.87 791.207C1295.51 843.007 1323.67 889.529 1365.1 922.086C1380.53 900.298 1391.44 875.633 1397.17 849.554C1402.89 823.475 1403.33 796.511 1398.44 770.261C1393.56 744.01 1383.46 719.007 1368.73 696.733C1354.01 674.46 1334.96 655.368 1312.72 640.59V640.59Z" fill="black"/>
<path opacity="0.1" d="M1312.72 640.59C1285.78 685.868 1276.23 739.406 1285.87 791.207C1295.51 843.007 1323.67 889.529 1365.1 922.086C1380.53 900.298 1391.44 875.633 1397.17 849.554C1402.89 823.475 1403.33 796.511 1398.44 770.261C1393.56 744.01 1383.46 719.007 1368.73 696.733C1354.01 674.46 1334.96 655.368 1312.72 640.59V640.59Z" fill="black"/>
</g>
<path d="M1474.24 745.667C1474.76 745.941 1475.33 746.088 1475.91 746.097C1476.5 746.106 1477.07 745.976 1477.6 745.717C1478.12 745.459 1478.57 745.08 1478.92 744.611C1479.27 744.142 1479.5 743.598 1479.59 743.022C1480.11 741.152 1481.27 736.572 1481.79 734.443C1482.2 733.419 1482.27 732.289 1481.99 731.221C1481.71 730.153 1481.1 729.202 1480.24 728.509C1475.4 722.647 1472.9 715.204 1473.21 707.609C1473.12 700.759 1474.44 693.964 1477.06 687.637C1479.69 681.31 1483.58 675.585 1488.49 670.811C1493.41 666.037 1499.24 662.313 1505.64 659.868C1512.04 657.422 1518.87 656.306 1525.72 656.587C1554.29 656.587 1570.03 674.067 1570.03 697.418C1570.03 728.186 1556.42 754.117 1536.23 754.117C1533.65 754.248 1531.07 753.77 1528.7 752.722C1526.34 751.673 1524.25 750.084 1522.61 748.082C1520.98 746.079 1519.83 743.72 1519.27 741.194C1518.71 738.669 1518.75 736.047 1519.39 733.54C1522.62 720.059 1528.81 705.481 1528.81 695.741C1529.06 693.717 1528.87 691.663 1528.26 689.718C1527.65 687.773 1526.63 685.982 1525.26 684.466C1523.9 682.949 1522.23 681.743 1520.36 680.928C1518.49 680.114 1516.47 679.71 1514.43 679.744C1503.07 679.744 1493.91 691.548 1493.91 707.351C1493.84 713.143 1495.01 718.884 1497.33 724.187L1483.59 782.241C1481.17 795.604 1481.06 809.284 1483.27 822.685C1483.32 822.956 1483.44 823.209 1483.63 823.412C1483.81 823.615 1484.05 823.759 1484.32 823.827C1484.59 823.896 1484.87 823.885 1485.13 823.797C1485.39 823.708 1485.62 823.546 1485.79 823.33C1494.26 812.941 1500.81 801.123 1505.14 788.433C1506.43 783.724 1512.62 759.148 1512.62 759.148C1515.47 763.34 1519.33 766.751 1523.83 769.072C1528.34 771.393 1533.35 772.55 1538.42 772.436C1572.74 772.436 1595.96 741.216 1595.96 699.417C1595.96 667.746 1569.19 638.332 1528.49 638.332C1477.85 638.332 1452.31 674.648 1452.31 704.9C1452.44 723.284 1459.4 739.861 1474.24 745.667Z" fill="white"/>
<path d="M1724.8 1232C1797.91 1158.9 1797.91 1040.38 1724.8 967.274C1651.7 894.171 1533.18 894.171 1460.08 967.274C1386.97 1040.38 1386.97 1158.9 1460.08 1232C1533.18 1305.1 1651.7 1305.1 1724.8 1232Z" fill="#B03A2E"/>
<path d="M1779.54 1098.25V1099.67C1779.46 1128.54 1772.69 1157 1759.77 1182.83C1746.85 1208.65 1728.13 1231.13 1705.07 1248.51C1682.01 1265.89 1655.24 1277.7 1626.85 1283C1598.47 1288.31 1569.24 1286.97 1541.46 1279.1C1513.68 1271.22 1488.1 1257.03 1466.73 1237.61C1445.35 1218.2 1428.76 1194.11 1418.25 1167.21C1407.74 1140.32 1403.6 1111.35 1406.15 1082.59C1408.7 1053.83 1417.88 1026.05 1432.96 1001.43C1430.31 1013.87 1428.97 1026.56 1428.96 1039.29C1428.93 1081.93 1444.01 1123.2 1471.54 1155.77C1499.07 1188.33 1537.25 1210.08 1579.29 1217.15C1621.34 1224.23 1664.54 1216.16 1701.2 1194.39C1737.87 1172.62 1765.62 1138.55 1779.54 1098.25V1098.25Z" fill="#B03A2E"/>
<path opacity="0.2" d="M1779.54 1098.25V1099.67C1779.46 1128.54 1772.69 1157 1759.77 1182.83C1746.85 1208.65 1728.13 1231.13 1705.07 1248.51C1682.01 1265.89 1655.24 1277.7 1626.85 1283C1598.47 1288.31 1569.24 1286.97 1541.46 1279.1C1513.68 1271.22 1488.1 1257.03 1466.73 1237.61C1445.35 1218.2 1428.76 1194.11 1418.25 1167.21C1407.74 1140.32 1403.6 1111.35 1406.15 1082.59C1408.7 1053.83 1417.88 1026.05 1432.96 1001.43C1430.31 1013.87 1428.97 1026.56 1428.96 1039.29C1428.93 1081.93 1444.01 1123.2 1471.54 1155.77C1499.07 1188.33 1537.25 1210.08 1579.29 1217.15C1621.34 1224.23 1664.54 1216.16 1701.2 1194.39C1737.87 1172.62 1765.62 1138.55 1779.54 1098.25V1098.25Z" fill="black"/>
<path d="M1405.16 1099.67C1405.02 1137.25 1416.26 1174 1437.41 1205.07C1464.17 1197.27 1488.34 1182.42 1507.38 1162.06C1526.43 1141.71 1539.64 1116.61 1545.65 1089.39C1551.65 1062.17 1550.22 1033.84 1541.5 1007.37C1532.79 980.893 1517.11 957.251 1496.11 938.922C1468.33 955.555 1445.35 979.111 1429.41 1007.29C1413.47 1035.46 1405.11 1067.29 1405.16 1099.67V1099.67Z" fill="#B03A2E"/>
<path opacity="0.1" d="M1405.16 1099.67C1405.02 1137.25 1416.26 1174 1437.41 1205.07C1464.17 1197.27 1488.34 1182.42 1507.38 1162.06C1526.43 1141.71 1539.64 1116.61 1545.65 1089.39C1551.65 1062.17 1550.22 1033.84 1541.5 1007.37C1532.79 980.893 1517.11 957.251 1496.11 938.922C1468.33 955.555 1445.35 979.111 1429.41 1007.29C1413.47 1035.46 1405.11 1067.29 1405.16 1099.67V1099.67Z" fill="black"/>
<path d="M1604.67 1058.71H1579.45V1140.24H1604.67V1058.71Z" fill="white"/>
<path d="M1591.9 1048.06C1594.87 1048.09 1597.79 1047.23 1600.28 1045.59C1602.77 1043.96 1604.72 1041.62 1605.87 1038.87C1607.03 1036.13 1607.35 1033.1 1606.78 1030.18C1606.22 1027.26 1604.8 1024.57 1602.7 1022.45C1600.6 1020.34 1597.92 1018.89 1595.01 1018.3C1592.09 1017.71 1589.06 1018 1586.3 1019.14C1583.55 1020.27 1581.2 1022.2 1579.54 1024.67C1577.88 1027.14 1577 1030.05 1577 1033.03C1577 1037 1578.56 1040.8 1581.35 1043.61C1584.14 1046.43 1587.93 1048.03 1591.9 1048.06V1048.06Z" fill="white"/>
<path d="M1644.85 1097.47C1644.85 1085.99 1650.14 1079.15 1660.27 1079.15C1670.4 1079.15 1673.95 1085.6 1673.95 1097.47V1140.24H1699.1V1088.64C1699.1 1066.83 1686.72 1056.38 1669.43 1056.38C1664.52 1056.32 1659.67 1057.52 1655.37 1059.89C1651.06 1062.25 1647.44 1065.69 1644.85 1069.86V1058.83H1620.67V1140.37H1644.85V1097.47Z" fill="white"/>
<path d="M1378.58 1181.26C1459.02 1181.26 1524.23 1116.05 1524.23 1035.61C1524.23 955.173 1459.02 889.963 1378.58 889.963C1298.14 889.963 1232.93 955.173 1232.93 1035.61C1232.93 1116.05 1298.14 1181.26 1378.58 1181.26Z" fill="#B03A2E"/>
<path d="M1524.23 1034.52V1035.61C1524.22 1058.12 1518.98 1080.32 1508.95 1100.47C1498.91 1120.62 1484.34 1138.16 1466.38 1151.73C1448.42 1165.3 1427.55 1174.52 1405.43 1178.67C1383.31 1182.82 1360.52 1181.78 1338.87 1175.65C1317.21 1169.51 1297.27 1158.43 1280.61 1143.29C1263.96 1128.15 1251.04 1109.36 1242.87 1088.38C1234.69 1067.41 1231.5 1044.83 1233.52 1022.41C1235.55 999.989 1242.74 978.346 1254.54 959.176C1252.48 968.867 1251.44 978.747 1251.44 988.654C1251.51 1021.78 1263.3 1053.82 1284.72 1079.09C1306.14 1104.36 1335.81 1121.24 1368.48 1126.73C1401.15 1132.22 1434.71 1125.98 1463.22 1109.1C1491.72 1092.22 1513.34 1065.8 1524.23 1034.52V1034.52Z" fill="#B03A2E"/>
<path opacity="0.2" d="M1524.23 1034.52V1035.61C1524.22 1058.12 1518.98 1080.32 1508.95 1100.47C1498.91 1120.62 1484.34 1138.16 1466.38 1151.73C1448.42 1165.3 1427.55 1174.52 1405.43 1178.67C1383.31 1182.82 1360.52 1181.78 1338.87 1175.65C1317.21 1169.51 1297.27 1158.43 1280.61 1143.29C1263.96 1128.15 1251.04 1109.36 1242.87 1088.38C1234.69 1067.41 1231.5 1044.83 1233.52 1022.41C1235.55 999.989 1242.74 978.346 1254.54 959.176C1252.48 968.867 1251.44 978.747 1251.44 988.654C1251.51 1021.78 1263.3 1053.82 1284.72 1079.09C1306.14 1104.36 1335.81 1121.24 1368.48 1126.73C1401.15 1132.22 1434.71 1125.98 1463.22 1109.1C1491.72 1092.22 1513.34 1065.8 1524.23 1034.52V1034.52Z" fill="black"/>
<path d="M1308.59 986.525L1343.62 1008.78L1378.58 986.525L1343.62 964.207L1308.59 986.525Z" fill="white"/>
<path d="M1378.52 986.525L1413.54 1008.78L1448.57 986.525L1413.54 964.207L1378.52 986.525Z" fill="white"/>
<path d="M1308.59 1030.78L1343.62 1053.09L1378.58 1030.78L1343.62 1008.46L1308.59 1030.78Z" fill="white"/>
<path d="M1413.54 1008.46L1378.52 1030.78L1413.54 1053.09L1448.57 1030.78L1413.54 1008.46Z" fill="white"/>
<path d="M1343.81 1060.45L1378.84 1082.77L1413.8 1060.45L1378.84 1038.19L1343.81 1060.45Z" fill="white"/>
<path d="M1297.01 960.491C1375 882.501 1375 756.055 1297.01 678.066C1219.02 600.076 1092.58 600.076 1014.59 678.066C936.597 756.055 936.598 882.501 1014.59 960.491C1092.58 1038.48 1219.02 1038.48 1297.01 960.491Z" fill="#B03A2E"/>
<path opacity="0.7" d="M1355.49 817.783V819.266C1355.62 850.252 1348.54 880.843 1334.82 908.626C1321.11 936.409 1301.12 960.624 1276.44 979.36C1251.76 998.096 1223.06 1010.84 1192.61 1016.59C1162.17 1022.33 1130.8 1020.93 1100.99 1012.47C1071.18 1004.02 1043.74 988.76 1020.84 967.888C997.935 947.017 980.197 921.109 969.022 892.209C957.848 863.308 953.542 832.206 956.445 801.357C959.348 770.508 969.381 740.755 985.752 714.447C975.454 762.34 983.825 812.358 1009.15 854.289C1034.48 896.22 1074.86 926.903 1122.04 940.073C1169.23 953.244 1219.66 947.909 1263.04 925.158C1306.43 902.408 1339.49 863.956 1355.49 817.654V817.783Z" fill="#B03A2E"/>
<g opacity="0.1">
<path opacity="0.7" d="M1355.49 817.783V819.266C1355.62 850.252 1348.54 880.843 1334.82 908.626C1321.11 936.409 1301.12 960.624 1276.44 979.36C1251.76 998.096 1223.06 1010.84 1192.61 1016.59C1162.17 1022.33 1130.8 1020.93 1100.99 1012.47C1071.18 1004.02 1043.74 988.76 1020.84 967.888C997.935 947.017 980.197 921.109 969.022 892.209C957.848 863.308 953.542 832.206 956.445 801.357C959.348 770.508 969.381 740.755 985.752 714.447C975.454 762.34 983.825 812.358 1009.15 854.289C1034.48 896.22 1074.86 926.903 1122.04 940.073C1169.23 953.244 1219.66 947.909 1263.04 925.158C1306.43 902.408 1339.49 863.956 1355.49 817.654V817.783Z" fill="black"/>
</g>
<path d="M1160.3 717.286C1142.22 717.234 1124.54 722.548 1109.49 732.553C1094.43 742.558 1082.68 756.805 1075.73 773.491C1068.78 790.176 1066.93 808.549 1070.43 826.284C1073.92 844.018 1082.6 860.317 1095.37 873.117C1108.13 885.917 1124.4 894.641 1142.13 898.187C1159.85 901.732 1178.23 899.938 1194.94 893.033C1211.64 886.127 1225.92 874.421 1235.97 859.395C1246.02 844.369 1251.38 826.699 1251.38 808.623C1251.38 784.444 1241.79 761.251 1224.72 744.129C1207.65 727.007 1184.48 717.354 1160.3 717.286V717.286ZM1202.29 849.519C1201.93 850.172 1201.43 850.744 1200.84 851.196C1200.24 851.649 1199.56 851.973 1198.83 852.149C1198.1 852.325 1197.35 852.348 1196.61 852.217C1195.88 852.086 1195.17 851.805 1194.55 851.389C1173.07 838.102 1146.17 835.393 1114.18 842.681C1112.74 843.018 1111.22 842.783 1109.94 842.026C1108.67 841.268 1107.74 840.047 1107.34 838.618C1107 837.166 1107.24 835.639 1107.99 834.354C1108.75 833.069 1109.97 832.124 1111.41 831.716C1146.17 823.975 1176.3 827.201 1200.03 841.778C1200.72 842.108 1201.33 842.578 1201.82 843.158C1202.31 843.738 1202.68 844.415 1202.89 845.145C1203.1 845.875 1203.16 846.642 1203.06 847.396C1202.95 848.149 1202.69 848.873 1202.29 849.519V849.519ZM1213.26 824.427C1212.83 825.256 1212.23 825.983 1211.5 826.558C1210.76 827.133 1209.91 827.542 1209 827.756C1208.1 827.971 1207.15 827.986 1206.24 827.801C1205.33 827.616 1204.46 827.235 1203.71 826.685C1190.01 819.006 1174.92 814.129 1159.32 812.335C1143.71 810.541 1127.91 811.866 1112.82 816.235C1111.94 816.561 1110.99 816.704 1110.05 816.654C1109.11 816.604 1108.18 816.363 1107.34 815.945C1106.49 815.527 1105.73 814.94 1105.12 814.222C1104.51 813.503 1104.05 812.667 1103.77 811.764C1103.48 810.862 1103.39 809.912 1103.49 808.972C1103.59 808.032 1103.88 807.122 1104.34 806.297C1104.8 805.472 1105.42 804.75 1106.17 804.174C1106.92 803.598 1107.78 803.18 1108.7 802.947C1125.78 798.077 1143.67 796.659 1161.31 798.774C1178.96 800.889 1196 806.496 1211.45 815.267C1212.87 816.213 1213.85 817.679 1214.19 819.346C1214.53 821.013 1214.19 822.747 1213.26 824.169V824.427ZM1214.16 798.625C1184.94 781.274 1136.11 779.274 1108.25 788.111C1107.19 788.454 1106.09 788.587 1104.99 788.502C1103.88 788.417 1102.81 788.116 1101.82 787.616C1100.84 787.115 1099.96 786.426 1099.24 785.587C1098.52 784.748 1097.98 783.775 1097.63 782.725C1097.29 781.675 1097.16 780.567 1097.24 779.465C1097.33 778.363 1097.63 777.289 1098.13 776.304C1098.63 775.319 1099.32 774.441 1100.16 773.723C1101 773.004 1101.97 772.457 1103.02 772.114C1135.27 762.503 1188.88 764.374 1222.68 784.434C1224.65 785.606 1226.09 787.5 1226.69 789.716C1227.29 791.931 1227.01 794.293 1225.9 796.303C1224.49 797.951 1222.56 799.076 1220.43 799.497C1218.3 799.918 1216.09 799.611 1214.16 798.625V798.625Z" fill="white"/>
<path d="M1150.17 1286.21C1225.38 1286.21 1286.34 1225.25 1286.34 1150.04C1286.34 1074.84 1225.38 1013.88 1150.17 1013.88C1074.97 1013.88 1014 1074.84 1014 1150.04C1014 1225.25 1074.97 1286.21 1150.17 1286.21Z" fill="#B03A2E"/>
<path d="M1286.34 1149.01V1150.04C1286.34 1171.09 1281.45 1191.86 1272.07 1210.7C1262.69 1229.55 1249.07 1245.96 1232.28 1258.66C1215.48 1271.35 1195.97 1279.98 1175.28 1283.86C1154.59 1287.74 1133.28 1286.77 1113.03 1281.03C1092.78 1275.29 1074.13 1264.93 1058.56 1250.77C1042.98 1236.6 1030.9 1219.02 1023.27 1199.4C1015.64 1179.78 1012.66 1158.66 1014.56 1137.7C1016.47 1116.73 1023.21 1096.49 1034.26 1078.57C1032.33 1087.63 1031.36 1096.86 1031.36 1106.12C1031.41 1137.09 1042.42 1167.04 1062.44 1190.67C1082.46 1214.3 1110.2 1230.08 1140.74 1235.22C1171.28 1240.36 1202.65 1234.52 1229.3 1218.74C1255.95 1202.96 1276.16 1178.26 1286.34 1149.01V1149.01Z" fill="#B03A2E"/>
<path opacity="0.2" d="M1286.34 1149.01V1150.04C1286.34 1171.09 1281.45 1191.86 1272.07 1210.7C1262.69 1229.55 1249.07 1245.96 1232.28 1258.66C1215.48 1271.35 1195.97 1279.98 1175.28 1283.86C1154.59 1287.74 1133.28 1286.77 1113.03 1281.03C1092.78 1275.29 1074.13 1264.93 1058.56 1250.77C1042.98 1236.6 1030.9 1219.02 1023.27 1199.4C1015.64 1179.78 1012.66 1158.66 1014.56 1137.7C1016.47 1116.73 1023.21 1096.49 1034.26 1078.57C1032.33 1087.63 1031.36 1096.86 1031.36 1106.12C1031.41 1137.09 1042.42 1167.04 1062.44 1190.67C1082.46 1214.3 1110.2 1230.08 1140.74 1235.22C1171.28 1240.36 1202.65 1234.52 1229.3 1218.74C1255.95 1202.96 1276.16 1178.26 1286.34 1149.01V1149.01Z" fill="#B03A2E"/>
<g opacity="0.1">
<path opacity="0.1" d="M1286.34 1149.01V1150.04C1286.34 1171.09 1281.45 1191.86 1272.07 1210.7C1262.69 1229.55 1249.07 1245.96 1232.28 1258.66C1215.48 1271.35 1195.97 1279.98 1175.28 1283.86C1154.59 1287.74 1133.28 1286.77 1113.03 1281.03C1092.78 1275.29 1074.13 1264.93 1058.56 1250.77C1042.98 1236.6 1030.9 1219.02 1023.27 1199.4C1015.64 1179.78 1012.66 1158.66 1014.56 1137.7C1016.47 1116.73 1023.21 1096.49 1034.26 1078.57C1032.33 1087.63 1031.36 1096.86 1031.36 1106.12C1031.41 1137.09 1042.42 1167.04 1062.44 1190.67C1082.46 1214.3 1110.2 1230.08 1140.74 1235.22C1171.28 1240.36 1202.65 1234.52 1229.3 1218.74C1255.95 1202.96 1276.16 1178.26 1286.34 1149.01V1149.01Z" fill="black"/>
<path opacity="0.2" d="M1286.34 1149.01V1150.04C1286.34 1171.09 1281.45 1191.86 1272.07 1210.7C1262.69 1229.55 1249.07 1245.96 1232.28 1258.66C1215.48 1271.35 1195.97 1279.98 1175.28 1283.86C1154.59 1287.74 1133.28 1286.77 1113.03 1281.03C1092.78 1275.29 1074.13 1264.93 1058.56 1250.77C1042.98 1236.6 1030.9 1219.02 1023.27 1199.4C1015.64 1179.78 1012.66 1158.66 1014.56 1137.7C1016.47 1116.73 1023.21 1096.49 1034.26 1078.57C1032.33 1087.63 1031.36 1096.86 1031.36 1106.12C1031.41 1137.09 1042.42 1167.04 1062.44 1190.67C1082.46 1214.3 1110.2 1230.08 1140.74 1235.22C1171.28 1240.36 1202.65 1234.52 1229.3 1218.74C1255.95 1202.96 1276.16 1178.26 1286.34 1149.01V1149.01Z" fill="black"/>
</g>
<path d="M1095.34 1139.79C1095.34 1147.82 1096.91 1155.78 1099.98 1163.2C1103.05 1170.62 1107.56 1177.37 1113.24 1183.05C1118.92 1188.73 1125.66 1193.23 1133.08 1196.3C1140.51 1199.37 1148.46 1200.95 1156.49 1200.94C1160.33 1200.94 1164.15 1200.57 1167.91 1199.84C1173.33 1203.11 1179.51 1204.89 1185.84 1204.98C1192.16 1205.07 1198.4 1203.48 1203.91 1200.37C1209.41 1197.26 1213.99 1192.74 1217.18 1187.27C1220.36 1181.81 1222.04 1175.59 1222.03 1169.27C1222.06 1162.63 1220.2 1156.12 1216.68 1150.5C1217.3 1146.96 1217.62 1143.38 1217.64 1139.79C1217.63 1123.57 1211.18 1108.03 1199.71 1096.57C1188.25 1085.1 1172.71 1078.65 1156.49 1078.64C1152.71 1078.64 1148.93 1079.01 1145.21 1079.73C1138.37 1075.74 1130.4 1074.12 1122.55 1075.15C1114.7 1076.18 1107.42 1079.79 1101.85 1085.41C1096.28 1091.04 1092.73 1098.35 1091.78 1106.21C1090.82 1114.07 1092.51 1122.03 1096.57 1128.82C1095.83 1132.43 1095.42 1136.1 1095.34 1139.79V1139.79ZM1157.14 1096.38C1176.88 1097.54 1188.42 1106.18 1189.39 1114.31C1189.56 1115.56 1189.45 1116.83 1189.06 1118.03C1188.67 1119.23 1188.01 1120.32 1187.13 1121.23C1186.26 1122.14 1185.19 1122.83 1184 1123.27C1182.82 1123.7 1181.55 1123.86 1180.3 1123.73C1171.39 1123.73 1170.49 1111.79 1155.14 1111.79C1148.24 1111.79 1142.24 1114.7 1142.24 1120.95C1142.24 1133.85 1191.46 1126.44 1191.46 1155.14C1191.46 1171.72 1178.17 1182.55 1158.36 1182.55C1140.95 1182.55 1123.47 1174.68 1123.53 1161.07C1123.48 1159.09 1124.19 1157.16 1125.53 1155.7C1126.86 1154.23 1128.71 1153.34 1130.69 1153.2C1140.95 1153.2 1140.88 1168.49 1157.2 1168.49C1168.69 1168.49 1172.56 1162.04 1172.56 1157.85C1172.56 1142.11 1123.08 1151.79 1123.08 1122.18C1123.34 1106.05 1136.5 1095.02 1157.14 1096.25V1096.38Z" fill="white"/>
<path d="M835.499 893.508C855.738 806.813 801.864 720.126 715.169 699.888C628.474 679.649 541.787 733.523 521.549 820.218C501.31 906.913 555.184 993.6 641.879 1013.84C728.574 1034.08 815.261 980.203 835.499 893.508Z" fill="#B03A2E"/>
<path opacity="0.5" d="M839.714 855.97V857.195C839.661 882.118 833.833 906.69 822.685 928.981C811.538 951.272 795.376 970.676 775.467 985.67C755.558 1000.66 732.445 1010.84 707.942 1015.4C683.439 1019.95 658.214 1018.77 634.246 1011.94C610.277 1005.1 588.219 992.809 569.802 976.016C551.385 959.224 537.112 938.391 528.101 915.154C519.091 891.917 515.589 866.907 517.871 842.089C520.153 817.271 528.157 793.319 541.254 772.114C538.992 782.847 537.847 793.785 537.835 804.753C537.819 841.463 550.817 876.991 574.519 905.023C598.221 933.056 631.093 951.779 667.295 957.867C703.497 963.955 740.684 957.013 772.252 938.274C803.819 919.536 827.722 890.214 839.714 855.518V855.97Z" fill="#B03A2E"/>
<path opacity="0.1" d="M839.714 855.97V857.195C839.661 882.118 833.833 906.69 822.685 928.981C811.538 951.272 795.376 970.676 775.467 985.67C755.558 1000.66 732.445 1010.84 707.942 1015.4C683.439 1019.95 658.214 1018.77 634.246 1011.94C610.277 1005.1 588.219 992.809 569.802 976.016C551.385 959.224 537.112 938.391 528.101 915.154C519.091 891.917 515.589 866.907 517.871 842.089C520.153 817.271 528.157 793.319 541.254 772.114C538.992 782.847 537.847 793.785 537.835 804.753C537.819 841.463 550.817 876.991 574.519 905.023C598.221 933.056 631.093 951.779 667.295 957.867C703.497 963.955 740.684 957.013 772.252 938.274C803.819 919.536 827.722 890.214 839.714 855.518V855.97Z" fill="black"/>
<path fill-rule="evenodd" clip-rule="evenodd" d="M740.249 867.903C738.986 867.237 737.642 866.738 736.25 866.419V866.419C729.693 864.182 723.962 860.024 719.801 854.486C717.474 851.512 715.605 848.207 714.254 844.681V844.681C713.915 844.034 713.738 843.315 713.738 842.585C713.738 841.854 713.915 841.135 714.254 840.488V840.488C715.737 838.782 717.688 837.548 719.866 836.941C722.636 836.141 725.223 834.804 727.477 833.006V833.006C727.952 832.655 728.329 832.188 728.574 831.651C728.583 831.458 728.583 831.264 728.574 831.071C728.702 830.764 728.767 830.435 728.767 830.103C728.767 829.771 728.702 829.442 728.574 829.136V829.136C727.965 828.027 727.015 827.145 725.865 826.62V826.62C725.174 826.233 724.41 825.993 723.622 825.915C722.834 825.837 722.038 825.924 721.285 826.168V826.168C719.958 826.663 718.6 827.072 717.221 827.394C715.702 827.821 714.095 827.821 712.577 827.394C712.6 827.072 712.6 826.749 712.577 826.426C712.577 823.653 712.577 820.75 712.577 817.783C712.96 813.168 712.96 808.529 712.577 803.914V803.914C710.942 796.038 706.318 789.102 699.676 784.563C694.998 781.173 689.496 779.101 683.743 778.564C681.853 778.469 679.958 778.469 678.067 778.564C670.282 778.429 662.667 780.854 656.394 785.466C651.791 789.091 648.175 793.816 645.88 799.206V799.206C644.099 804.628 643.505 810.369 644.138 816.041V816.041C644.424 819.712 644.424 823.4 644.138 827.072C642.327 827.423 640.466 827.423 638.655 827.072V827.072C637.235 826.772 635.835 826.384 634.462 825.91C633.76 825.758 633.033 825.76 632.331 825.916C631.63 826.072 630.97 826.378 630.399 826.813V826.813C629.787 827.135 629.266 827.604 628.883 828.179C628.499 828.753 628.267 829.415 628.205 830.103V830.103C628.424 830.988 628.922 831.78 629.625 832.361L631.044 833.393C633.73 834.945 636.587 836.178 639.558 837.07V837.07C640.428 837.371 641.224 837.855 641.891 838.489C642.559 839.123 643.083 839.893 643.428 840.746C643.627 843.008 643.083 845.272 641.88 847.197V847.197C638.889 853.126 634.452 858.206 628.979 861.968C626.067 863.958 622.84 865.441 619.433 866.354V866.354C618.095 866.561 616.88 867.249 616.014 868.29C616.042 868.417 616.042 868.549 616.014 868.677C615.874 869.126 615.848 869.602 615.938 870.064C616.028 870.526 616.232 870.958 616.53 871.321C616.927 871.819 617.435 872.217 618.014 872.482V872.482C620.782 873.912 623.734 874.953 626.786 875.579C628.647 875.885 630.48 876.338 632.269 876.933C632.269 876.933 632.269 877.578 632.85 878.417C633.43 879.255 633.559 881.835 634.14 883.771C634.23 884.038 634.393 884.276 634.609 884.457C634.825 884.639 635.086 884.759 635.365 884.803C636.032 885.044 636.763 885.044 637.43 884.803V884.803C641.971 883.706 646.687 883.53 651.298 884.287V884.287C655.888 886.053 660.226 888.417 664.199 891.318C667.283 893.49 670.889 894.803 674.648 895.123C677.591 895.318 680.543 895.318 683.485 895.123V895.123C685.937 894.859 688.297 894.043 690.387 892.737V892.737C694.746 889.888 699.245 887.262 703.869 884.867V884.867C705.635 884.397 707.46 884.18 709.287 884.222C713.081 884.092 716.879 884.286 720.64 884.803H721.027C721.535 884.705 721.992 884.431 722.317 884.029C722.431 883.933 722.523 883.814 722.59 883.681C722.657 883.548 722.695 883.403 722.704 883.255C722.704 882.867 722.704 882.674 722.704 883.255C722.738 883.15 722.738 883.037 722.704 882.932C723.094 880.945 723.837 879.045 724.897 877.32C725.583 876.808 726.429 876.557 727.284 876.611C730.376 876.102 733.404 875.259 736.314 874.095V874.095C737.746 873.639 739.02 872.79 739.991 871.644V871.644C740.194 871.35 740.334 871.018 740.405 870.668C740.476 870.318 740.475 869.957 740.403 869.608C740.33 869.258 740.188 868.927 739.984 868.634C739.78 868.341 739.52 868.092 739.217 867.903H740.249Z" fill="white"/>
<path d="M1421.47 580.795C1445.99 491.217 1393.26 398.721 1303.68 374.199C1214.1 349.676 1121.61 402.414 1097.08 491.991C1072.56 581.569 1125.3 674.065 1214.88 698.587C1304.45 723.11 1396.95 670.372 1421.47 580.795Z" fill="#B03A2E"/>
<path opacity="0.5" d="M1427.35 535.061V536.351C1427.31 562.33 1421.25 587.947 1409.65 611.192C1398.05 634.437 1381.22 654.678 1360.49 670.328C1339.75 685.977 1315.67 696.61 1290.13 701.391C1264.6 706.173 1238.3 704.973 1213.31 697.886C1188.32 690.799 1165.3 678.017 1146.08 660.544C1126.86 643.071 1111.94 621.381 1102.51 597.176C1093.07 572.971 1089.37 546.909 1091.7 521.035C1094.03 495.161 1102.32 470.177 1115.92 448.045C1107.36 488.331 1114.48 530.364 1135.81 565.593C1157.14 600.822 1191.1 626.601 1230.76 637.686C1270.43 648.771 1312.83 644.33 1349.33 625.266C1385.84 606.201 1413.71 573.946 1427.28 535.061H1427.35Z" fill="#B03A2E"/>
<path opacity="0.1" d="M1427.35 535.061V536.351C1427.31 562.33 1421.25 587.947 1409.65 611.192C1398.05 634.437 1381.22 654.678 1360.49 670.328C1339.75 685.977 1315.67 696.61 1290.13 701.391C1264.6 706.173 1238.3 704.973 1213.31 697.886C1188.32 690.799 1165.3 678.017 1146.08 660.544C1126.86 643.071 1111.94 621.381 1102.51 597.176C1093.07 572.971 1089.37 546.909 1091.7 521.035C1094.03 495.161 1102.32 470.177 1115.92 448.045C1107.36 488.331 1114.48 530.364 1135.81 565.593C1157.14 600.822 1191.1 626.601 1230.76 637.686C1270.43 648.771 1312.83 644.33 1349.33 625.266C1385.84 606.201 1413.71 573.946 1427.28 535.061H1427.35Z" fill="#B03A2E"/>
<g opacity="0.1">
<path opacity="0.5" d="M1427.35 535.061V536.351C1427.31 562.33 1421.25 587.947 1409.65 611.192C1398.05 634.437 1381.22 654.678 1360.49 670.328C1339.75 685.977 1315.67 696.61 1290.13 701.391C1264.6 706.173 1238.3 704.973 1213.31 697.886C1188.32 690.799 1165.3 678.017 1146.08 660.544C1126.86 643.071 1111.94 621.381 1102.51 597.176C1093.07 572.971 1089.37 546.909 1091.7 521.035C1094.03 495.161 1102.32 470.177 1115.92 448.045C1107.36 488.331 1114.48 530.364 1135.81 565.593C1157.14 600.822 1191.1 626.601 1230.76 637.686C1270.43 648.771 1312.83 644.33 1349.33 625.266C1385.84 606.201 1413.71 573.946 1427.28 535.061H1427.35Z" fill="black"/>
<path opacity="0.1" d="M1427.35 535.061V536.351C1427.31 562.33 1421.25 587.947 1409.65 611.192C1398.05 634.437 1381.22 654.678 1360.49 670.328C1339.75 685.977 1315.67 696.61 1290.13 701.391C1264.6 706.173 1238.3 704.973 1213.31 697.886C1188.32 690.799 1165.3 678.017 1146.08 660.544C1126.86 643.071 1111.94 621.381 1102.51 597.176C1093.07 572.971 1089.37 546.909 1091.7 521.035C1094.03 495.161 1102.32 470.177 1115.92 448.045C1107.36 488.331 1114.48 530.364 1135.81 565.593C1157.14 600.822 1191.1 626.601 1230.76 637.686C1270.43 648.771 1312.83 644.33 1349.33 625.266C1385.84 606.201 1413.71 573.946 1427.28 535.061H1427.35Z" fill="black"/>
</g>
<path fill-rule="evenodd" clip-rule="evenodd" d="M1319.62 516.42C1319.07 501.583 1312.82 487.53 1302.17 477.183C1291.52 466.835 1277.3 460.987 1262.45 460.854C1247.6 460.721 1233.28 466.313 1222.45 476.469C1211.62 486.625 1205.11 500.563 1204.29 515.388C1204.29 516.226 1204.29 517.065 1204.29 517.903C1204.28 528.322 1207.14 538.542 1212.55 547.446L1202.16 578.215L1234.09 568.023C1242.65 572.721 1252.26 575.183 1262.02 575.183C1269.57 575.208 1277.05 573.747 1284.03 570.882C1291.01 568.017 1297.36 563.805 1302.72 558.486C1308.07 553.168 1312.33 546.846 1315.24 539.883C1318.15 532.919 1319.66 525.451 1319.69 517.903L1319.62 516.42ZM1261.96 566.023C1252.46 566.054 1243.17 563.271 1235.25 558.025L1216.61 564.024L1222.68 546.092C1216.65 537.926 1213.4 528.049 1213.39 517.903C1213.39 516.291 1213.39 514.743 1213.39 513.195C1214.58 501.117 1220.24 489.922 1229.27 481.813C1238.3 473.705 1250.04 469.271 1262.18 469.384C1274.31 469.498 1285.97 474.15 1294.84 482.425C1303.72 490.701 1309.18 502 1310.14 514.098C1310.14 515.388 1310.14 516.613 1310.14 517.903C1310.06 530.651 1304.95 542.851 1295.93 551.859C1286.91 560.866 1274.71 565.956 1261.96 566.023V566.023Z" fill="white"/>
<path fill-rule="evenodd" clip-rule="evenodd" d="M1288.4 529.449C1286.99 528.74 1280.02 525.321 1278.73 524.869C1277.44 524.418 1276.47 524.16 1275.5 525.579C1274.54 526.998 1271.83 530.159 1271.05 531.062C1270.28 531.965 1269.38 532.094 1267.96 531.384C1263.78 529.783 1259.93 527.421 1256.6 524.418C1253.49 521.622 1250.84 518.357 1248.73 514.742C1248.58 514.52 1248.47 514.269 1248.42 514.003C1248.36 513.738 1248.36 513.464 1248.42 513.199C1248.47 512.933 1248.58 512.682 1248.73 512.459C1248.89 512.237 1249.09 512.048 1249.32 511.904C1250.02 511.259 1250.73 510.227 1251.51 509.388L1252.02 508.743C1252.35 508.227 1252.54 507.711 1252.86 507.066C1253.07 506.692 1253.18 506.27 1253.18 505.841C1253.18 505.412 1253.07 504.99 1252.86 504.615C1252.48 503.906 1249.64 497.004 1248.48 494.165C1247.32 491.327 1246.09 491.843 1245.25 491.843H1242.61C1241.89 491.867 1241.18 492.033 1240.53 492.332C1239.88 492.631 1239.29 493.057 1238.8 493.585C1237.21 495.092 1235.94 496.913 1235.09 498.934C1234.23 500.955 1233.81 503.131 1233.83 505.325C1233.87 506.944 1234.13 508.551 1234.61 510.098C1235.69 513.62 1237.39 516.919 1239.64 519.838C1245.52 529.041 1253.89 536.397 1263.76 541.06C1278.21 546.672 1278.21 544.801 1280.79 544.543C1282.75 544.211 1284.62 543.464 1286.26 542.351C1287.91 541.238 1289.3 539.787 1290.34 538.093C1291.2 536.06 1291.49 533.829 1291.18 531.642C1290.73 530.481 1290.08 530.159 1288.4 529.449Z" fill="white"/>
<path d="M2242.87 1211.39C2262.49 1165.27 2257.25 1118.88 2231.16 1107.78C2205.06 1096.67 2168 1125.06 2148.38 1171.18C2128.75 1217.31 2133.99 1263.7 2160.09 1274.8C2186.18 1285.9 2223.24 1257.51 2242.87 1211.39Z" fill="#B03A2E"/>
<path opacity="0.2" d="M2242.87 1211.39C2262.49 1165.27 2257.25 1118.88 2231.16 1107.78C2205.06 1096.67 2168 1125.06 2148.38 1171.18C2128.75 1217.31 2133.99 1263.7 2160.09 1274.8C2186.18 1285.9 2223.24 1257.51 2242.87 1211.39Z" fill="black"/>
<path d="M2188.3 1291.31L2157.27 1273.44L2234.81 1109.47L2266.03 1127.73L2188.3 1291.31Z" fill="#B03A2E"/>
<path opacity="0.2" d="M2188.3 1291.31L2157.27 1273.44L2234.81 1109.47L2266.03 1127.73L2188.3 1291.31Z" fill="black"/>
<path d="M2225.46 1320.4L2194.36 1302.47L2194.04 1285.76H2225.46V1320.4Z" fill="#B03A2E"/>
<path d="M2225.46 1320.4L2194.36 1302.47L2194.04 1285.76H2225.46V1320.4Z" fill="#B03A2E"/>
<path d="M2225.46 1320.4L2194.36 1302.47L2194.04 1285.76H2225.46V1320.4Z" fill="#B03A2E"/>
<path opacity="0.2" d="M2225.46 1320.4L2194.36 1302.47L2194.04 1285.76H2225.46V1320.4Z" fill="black"/>
<path d="M2213.33 1293.89L2224.88 1319.69C2225.02 1320.07 2225.27 1320.4 2225.61 1320.63C2225.94 1320.86 2226.34 1320.98 2226.75 1320.98C2227.15 1320.98 2227.55 1320.86 2227.88 1320.63C2228.22 1320.4 2228.47 1320.07 2228.62 1319.69L2240.87 1278.21V1262.34L2213.33 1278.21V1293.89Z" fill="#B03A2E"/>
<path d="M2181.92 1275.7L2193.46 1301.5C2193.61 1301.88 2193.86 1302.21 2194.2 1302.44C2194.53 1302.67 2194.93 1302.79 2195.33 1302.79C2195.74 1302.79 2196.14 1302.67 2196.47 1302.44C2196.8 1302.21 2197.06 1301.88 2197.2 1301.5L2209.39 1260.09V1244.22L2181.92 1260.09V1275.7Z" fill="#B03A2E"/>
<path opacity="0.2" d="M2181.92 1275.7L2193.46 1301.5C2193.61 1301.88 2193.86 1302.21 2194.2 1302.44C2194.53 1302.67 2194.93 1302.79 2195.33 1302.79C2195.74 1302.79 2196.14 1302.67 2196.47 1302.44C2196.8 1302.21 2197.06 1301.88 2197.2 1301.5L2209.39 1260.09V1244.22L2181.92 1260.09V1275.7Z" fill="black"/>
<path d="M2286.22 1175.33C2286.22 1218.87 2259.77 1269.44 2227.07 1288.28C2194.37 1307.11 2167.98 1287.12 2167.98 1243.58C2167.98 1200.03 2194.43 1149.53 2227.07 1130.63C2259.71 1111.73 2286.22 1131.79 2286.22 1175.33Z" fill="#B03A2E"/>
<path d="M2254.29 1190.55C2255.68 1189.31 2256.8 1187.81 2257.58 1186.12C2258.37 1184.44 2258.81 1182.61 2258.87 1180.75C2258.87 1176.68 2256.35 1174.81 2253.32 1176.56L2236.81 1186.1C2237.42 1185.12 2237.87 1184.06 2238.16 1182.94L2239.13 1179.14C2240.72 1172.92 2241.46 1166.52 2241.32 1160.11C2241.32 1157.08 2239.32 1155.72 2237 1157.08C2235.91 1157.82 2234.98 1158.77 2234.26 1159.88C2233.54 1160.99 2233.05 1162.23 2232.81 1163.53L2231.07 1172.56C2230.88 1173.37 2230.62 1174.17 2230.29 1174.94L2219.33 1200.1C2215.95 1204.51 2213.5 1209.56 2212.1 1214.94V1244.54C2212.1 1246.61 2215.26 1247.57 2216.81 1246.67L2237.26 1235.45L2251 1227.77C2252.45 1226.77 2253.65 1225.45 2254.5 1223.9C2255.35 1222.35 2255.83 1220.63 2255.9 1218.87C2255.9 1216.16 2254.68 1214.68 2252.81 1214.87C2254.03 1213.79 2255.02 1212.47 2255.72 1211C2256.42 1209.52 2256.81 1207.92 2256.87 1206.29C2256.95 1205.56 2256.84 1204.83 2256.56 1204.15C2256.27 1203.48 2255.83 1202.88 2255.26 1202.42C2257.06 1200.21 2258.1 1197.47 2258.22 1194.62C2258.22 1191.39 2256.55 1189.97 2254.29 1190.55Z" fill="white"/>
<path d="M2191.78 1265.38L2204.69 1257.51C2205.25 1257.01 2205.69 1256.4 2205.97 1255.7C2206.25 1255.01 2206.36 1254.25 2206.3 1253.51V1216.61C2206.3 1215.06 2205.14 1214.35 2203.98 1215L2191.59 1222.93C2190.43 1223.58 2190.82 1225.38 2190.82 1226.93V1263.76C2191.07 1265.31 2190.62 1266.02 2191.78 1265.38Z" fill="white"/>
<path d="M373.194 1274.87C399.288 1263.77 404.531 1217.38 384.906 1171.25C365.281 1125.13 328.218 1096.74 302.125 1107.85C276.032 1118.95 270.789 1165.34 290.414 1211.46C310.039 1257.58 347.101 1285.97 373.194 1274.87Z" fill="#B03A2E"/>
<g opacity="0.2">
<path opacity="0.2" d="M373.194 1274.87C399.288 1263.77 404.531 1217.38 384.906 1171.25C365.281 1125.13 328.218 1096.74 302.125 1107.85C276.032 1118.95 270.789 1165.34 290.414 1211.46C310.039 1257.58 347.101 1285.97 373.194 1274.87Z" fill="black"/>
</g>
<path d="M345.032 1291.31L376.059 1273.44L298.525 1109.47L267.305 1127.73L345.032 1291.31Z" fill="#B03A2E"/>
<path opacity="0.2" d="M345.032 1291.31L376.059 1273.44L298.525 1109.47L267.305 1127.73L345.032 1291.31Z" fill="black"/>
<path d="M307.878 1320.4L338.969 1302.47L339.292 1285.76H307.878V1320.4Z" fill="#B03A2E"/>
<path d="M307.878 1320.4L338.969 1302.47L339.292 1285.76H307.878V1320.4Z" fill="#B03A2E"/>
<path opacity="0.2" d="M307.878 1320.4L338.969 1302.47L339.292 1285.76H307.878V1320.4Z" fill="white"/>
<path d="M320.005 1293.89L308.458 1319.69C308.315 1320.07 308.059 1320.4 307.725 1320.63C307.391 1320.86 306.994 1320.98 306.588 1320.98C306.182 1320.98 305.785 1320.86 305.451 1320.63C305.117 1320.4 304.861 1320.07 304.717 1319.69L292.461 1278.21V1262.34L320.005 1278.21V1293.89Z" fill="#B03A2E"/>
<path d="M351.418 1275.7L339.872 1301.5C339.729 1301.88 339.473 1302.21 339.139 1302.44C338.804 1302.67 338.408 1302.79 338.002 1302.79C337.595 1302.79 337.199 1302.67 336.865 1302.44C336.53 1302.21 336.275 1301.88 336.131 1301.5L323.94 1260.09V1244.22L351.418 1260.09V1275.7Z" fill="#B03A2E"/>
<g opacity="0.2">
<path opacity="0.2" d="M351.418 1275.7L339.872 1301.5C339.729 1301.88 339.473 1302.21 339.139 1302.44C338.804 1302.67 338.408 1302.79 338.002 1302.79C337.595 1302.79 337.199 1302.67 336.865 1302.44C336.53 1302.21 336.275 1301.88 336.131 1301.5L323.94 1260.09V1244.22L351.418 1260.09V1275.7Z" fill="white"/>
</g>
<path d="M341.85 1293.19C368.009 1282.06 373.272 1235.57 353.605 1189.35C333.938 1143.13 296.788 1114.68 270.63 1125.81C244.471 1136.94 239.208 1183.43 258.875 1229.65C278.542 1275.87 315.692 1304.32 341.85 1293.19Z" fill="#B03A2E"/>
<path d="M346.709 1232.09C347.212 1242.25 344.206 1252.27 338.195 1260.47C330.712 1269.38 319.231 1271.5 305.943 1264.02C291.302 1254.14 280.046 1240 273.691 1223.51C268.369 1211.49 265.475 1198.54 265.176 1185.39L346.709 1232.09Z" fill="#B03A2E"/>
<path opacity="0.3" d="M346.709 1232.09C347.212 1242.25 344.206 1252.27 338.195 1260.47C330.712 1269.38 319.231 1271.5 305.943 1264.02C291.302 1254.14 280.046 1240 273.691 1223.51C268.369 1211.49 265.475 1198.54 265.176 1185.39L346.709 1232.09Z" fill="black"/>
<path d="M338.195 1260.47C330.713 1269.38 319.231 1271.5 305.943 1264.02C291.303 1254.14 280.046 1240 273.691 1223.51C281.947 1217.58 293.042 1217.51 305.943 1224.61C319.763 1233.4 330.917 1245.8 338.195 1260.47V1260.47Z" fill="#B03A2E"/>
<path opacity="0.2" d="M338.195 1260.47C330.713 1269.38 319.231 1271.5 305.943 1264.02C291.303 1254.14 280.046 1240 273.691 1223.51C281.947 1217.58 293.042 1217.51 305.943 1224.61C319.763 1233.4 330.917 1245.8 338.195 1260.47V1260.47Z" fill="white"/>
<path d="M343.807 1213.52C342.918 1213.5 342.067 1213.16 341.42 1212.55L320.392 1192.62C319.908 1192.17 319.566 1191.59 319.406 1190.94C319.245 1190.3 319.274 1189.63 319.489 1189C319.725 1188.39 320.128 1187.85 320.652 1187.45C321.176 1187.06 321.801 1186.81 322.456 1186.75L338.647 1185.26C339.551 1185.19 340.447 1185.47 341.146 1186.05C341.844 1186.63 342.29 1187.46 342.388 1188.36C342.432 1188.81 342.387 1189.26 342.255 1189.69C342.123 1190.13 341.907 1190.53 341.619 1190.88C341.332 1191.22 340.978 1191.51 340.578 1191.72C340.179 1191.93 339.741 1192.06 339.292 1192.1L330.584 1192.87L346.129 1207.58C346.636 1208.05 346.99 1208.66 347.145 1209.33C347.3 1210 347.249 1210.7 346.998 1211.34C346.747 1211.98 346.308 1212.54 345.738 1212.92C345.169 1213.31 344.496 1213.52 343.807 1213.52Z" fill="#B03A2E"/>
<g opacity="0.2">
<path opacity="0.2" d="M343.807 1213.52C342.918 1213.5 342.067 1213.16 341.42 1212.55L320.392 1192.62C319.908 1192.17 319.566 1191.59 319.406 1190.94C319.245 1190.3 319.274 1189.63 319.489 1189C319.725 1188.39 320.128 1187.85 320.652 1187.45C321.176 1187.06 321.801 1186.81 322.456 1186.75L338.647 1185.26C339.551 1185.19 340.447 1185.47 341.146 1186.05C341.844 1186.63 342.29 1187.46 342.388 1188.36C342.432 1188.81 342.387 1189.26 342.255 1189.69C342.123 1190.13 341.907 1190.53 341.619 1190.88C341.332 1191.22 340.978 1191.51 340.578 1191.72C340.179 1191.93 339.741 1192.06 339.292 1192.1L330.584 1192.87L346.129 1207.58C346.636 1208.05 346.99 1208.66 347.145 1209.33C347.3 1210 347.249 1210.7 346.998 1211.34C346.747 1211.98 346.308 1212.54 345.738 1212.92C345.169 1213.31 344.496 1213.52 343.807 1213.52Z" fill="black"/>
</g>
<path d="M290.268 1174.94H289.623L268.53 1170.56C268.007 1170.58 267.484 1170.48 267.004 1170.27C266.524 1170.06 266.098 1169.74 265.761 1169.34C265.423 1168.94 265.182 1168.47 265.057 1167.96C264.931 1167.45 264.925 1166.92 265.037 1166.41C265.15 1165.89 265.379 1165.41 265.707 1165.01C266.034 1164.6 266.451 1164.27 266.926 1164.04C267.401 1163.82 267.921 1163.71 268.445 1163.72C268.969 1163.73 269.484 1163.86 269.95 1164.11L281.625 1166.56L271.369 1153.66C270.796 1152.95 270.528 1152.04 270.625 1151.13C270.722 1150.22 271.175 1149.39 271.885 1148.82C272.595 1148.24 273.503 1147.98 274.41 1148.07C275.318 1148.17 276.149 1148.62 276.722 1149.33L292.978 1169.59C293.374 1170.17 293.586 1170.85 293.586 1171.56C293.586 1172.26 293.374 1172.94 292.978 1173.52C292.667 1173.95 292.261 1174.31 291.79 1174.55C291.32 1174.8 290.799 1174.93 290.268 1174.94V1174.94Z" fill="#B03A2E"/>
<g opacity="0.2">
<path opacity="0.2" d="M290.268 1174.94H289.623L268.53 1170.56C268.007 1170.58 267.484 1170.48 267.004 1170.27C266.524 1170.06 266.098 1169.74 265.761 1169.34C265.423 1168.94 265.182 1168.47 265.057 1167.96C264.931 1167.45 264.925 1166.92 265.037 1166.41C265.15 1165.89 265.379 1165.41 265.707 1165.01C266.034 1164.6 266.451 1164.27 266.926 1164.04C267.401 1163.82 267.921 1163.71 268.445 1163.72C268.969 1163.73 269.484 1163.86 269.95 1164.11L281.625 1166.56L271.369 1153.66C270.796 1152.95 270.528 1152.04 270.625 1151.13C270.722 1150.22 271.175 1149.39 271.885 1148.82C272.595 1148.24 273.503 1147.98 274.41 1148.07C275.318 1148.17 276.149 1148.62 276.722 1149.33L292.978 1169.59C293.374 1170.17 293.586 1170.85 293.586 1171.56C293.586 1172.26 293.374 1172.94 292.978 1173.52C292.667 1173.95 292.261 1174.31 291.79 1174.55C291.32 1174.8 290.799 1174.93 290.268 1174.94V1174.94Z" fill="black"/>
</g>
<path d="M2095.61 1662.91C2098.58 1670.33 2117.09 1709.49 2141.73 1690.78C2171.47 1668.2 2208.81 1566.16 2208.81 1566.16L2181.33 1553.26L2128.64 1638.85L2095.54 1662.91" fill="#F28F8F"/>
<path d="M2097.35 1498.3C2110.25 1542.42 2136.96 1640.66 2136.96 1640.66C2136.96 1640.66 2125.99 1700.65 2106.7 1680.01C2100.25 1673.04 2096.83 1666.59 2090 1649.82C2083.93 1634.73 2065.81 1573.19 2065.81 1573.19C2065.81 1573.19 2069.68 1484.75 2055.87 1473.08C2048.46 1466.46 2039.86 1461.29 2030.52 1457.86C2052.52 1459.6 2085.29 1457.86 2097.35 1498.3Z" fill="#F28F8F"/>
<path d="M2030.27 1457.66C2041.37 1456.99 2052.52 1457.6 2063.49 1459.47C2076.39 1462.57 2090.32 1474.56 2096.58 1495.98C2102.83 1517.39 2129.86 1614.47 2129.86 1614.47C2129.86 1614.47 2118.89 1633.82 2077.48 1634.21L2030.27 1457.66Z" fill="#37474F"/>
<path d="M2159.21 1504.62C2166.5 1491.08 2168.31 1490.43 2172.63 1487.46C2176.95 1484.5 2203.59 1480.56 2214.62 1479.59C2227.52 1478.5 2232.16 1480.88 2228.55 1492.04C2218.62 1520.19 2206.45 1547.5 2192.17 1573.71C2188.75 1578.29 2188.04 1582.54 2173.4 1583.96C2159.79 1585.32 2142.7 1586.09 2137.67 1586.35C2132.63 1586.61 2125.67 1587.9 2130.18 1573.13C2135.92 1556.37 2142.58 1539.94 2150.11 1523.91C2155.73 1511.72 2159.21 1504.62 2159.21 1504.62Z" fill="#263238"/>
<path d="M2208.81 1566.16C2214.23 1542.16 2230.16 1520.04 2221.2 1511.91L2216.36 1522.49C2216.36 1522.49 2186.5 1529.65 2172.11 1528.55C2157.73 1527.46 2145.86 1524.04 2141.92 1526.81C2133.54 1532.75 2131.15 1557.84 2155.15 1567C2175.53 1574.74 2208.81 1566.16 2208.81 1566.16Z" fill="#F28F8F"/>
<path d="M2014.98 1427.02H1989.82C1978.63 1427.03 1967.54 1424.83 1957.19 1420.56C1946.85 1416.28 1937.45 1410 1929.53 1402.09C1921.61 1394.18 1915.33 1384.78 1911.04 1374.44C1906.75 1364.09 1904.55 1353.01 1904.55 1341.81V1341.81C1904.55 1315.86 1914.86 1290.97 1933.21 1272.62C1951.56 1254.27 1976.45 1243.96 2002.4 1243.96V1243.96C2028.35 1243.96 2053.24 1254.27 2071.59 1272.62C2089.94 1290.97 2100.25 1315.86 2100.25 1341.81V1341.81C2100.25 1353.01 2098.05 1364.09 2093.76 1374.44C2089.47 1384.78 2083.19 1394.18 2075.27 1402.09C2067.35 1410 2057.95 1416.28 2047.61 1420.56C2037.26 1424.83 2026.17 1427.03 2014.98 1427.02V1427.02Z" fill="#263238"/>
<path d="M1857.72 1479.34C1873.58 1479.34 1888.8 1473.04 1900.02 1461.83C1911.25 1450.61 1917.56 1435.41 1917.58 1419.54V1306.01C1901.7 1306.01 1886.48 1312.32 1875.25 1323.55C1864.02 1334.77 1857.72 1350 1857.72 1365.87V1479.34Z" fill="#263238"/>
<path d="M2017.43 2323.89C2017.19 2328.65 2018.41 2333.38 2020.91 2337.43C2027.25 2347.99 2034.73 2357.81 2043.23 2366.72C2055.16 2379.62 2073.03 2394.71 2085.87 2405.94C2092.96 2412.39 2093.22 2421.55 2083.09 2424.84C2064.1 2429.46 2044.05 2426.67 2027.04 2417.03C2014.14 2410.19 1996.21 2378.33 1985.56 2373.81C1973.44 2368.33 1966.6 2365.56 1962.47 2359.95C1959.3 2356.78 1957.32 2352.62 1956.87 2348.16C1956.42 2343.7 1957.54 2339.23 1960.02 2335.5C1965.76 2324.86 1974.34 2308.41 1977.89 2310.21L1976.79 2313.63C1979.57 2322.34 2003.3 2332.47 2015.49 2330.02L2017.43 2323.89Z" fill="#263238"/>
<path d="M2028.14 2281.9C2023.48 2295.63 2019.92 2309.72 2017.49 2324.02C2017.14 2328.73 2018.32 2333.44 2020.85 2337.43C2027.26 2347.98 2034.76 2357.81 2043.23 2366.78C2049.04 2373.23 2056.13 2379.68 2063.68 2386.14C2064.31 2387.05 2064.67 2388.12 2064.71 2389.23C2064.71 2395.68 2048.52 2397.68 2038.91 2394.91C2027 2390.69 2016.72 2382.81 2009.56 2372.4C2004.08 2365.11 1991.76 2351.04 1983.76 2340.6C1981.07 2337.35 1978.77 2333.8 1976.92 2330.02C1974.77 2325.27 1974.42 2319.9 1975.95 2314.92L1976.41 2313.37C1980.65 2300.33 1983.25 2286.81 1984.15 2273.12" fill="#FFA8A7"/>
<path d="M1915.77 2338.4C1917.78 2350.66 1918.8 2363.07 1918.8 2375.49V2402.97H1959.51V2356.14C1959.62 2356.13 1959.73 2356.09 1959.83 2356.04C1959.93 2355.98 1960.02 2355.91 1960.09 2355.82C1960.09 2355.82 1960.8 2346.66 1961.89 2332.21" fill="#FFA8A7"/>
<path d="M2028.14 2281.9C2050.65 2209.14 2100.7 2078.9 2107.54 2056.13C2114.9 2031.81 2104.45 1818.76 2098.51 1750.58L1887.97 1739.67C1871.84 1808.82 1887.58 1902.03 1893.13 1960.21C1898.48 2016.91 1905.13 2083.09 1905.13 2083.09C1905.13 2083.09 1888.55 2140.83 1892.94 2186.82C1895.78 2215.78 1909.45 2301.38 1915.64 2338.72C1923.36 2340.86 1931.44 2341.39 1939.37 2340.28C1947.3 2339.17 1954.92 2336.45 1961.76 2332.27C1964.34 2299.51 1969.31 2239.65 1973.89 2200.56C1980.92 2141.86 1983.24 2099.03 1989.31 2064.71C1996.85 2021.94 1999.5 1854.3 1999.5 1854.3L2023.94 2044.46C2014.25 2062.3 2006.88 2081.31 2002.01 2101.03C1995.05 2128.05 1987.56 2229.52 1984.53 2273.45C1995.24 2280.8 2009.95 2283.51 2028.14 2281.9Z" fill="#37474F"/>
<path d="M1999.63 1854.23C1999.63 1854.23 2038.33 1840.62 2060.45 1820.37C2049.35 1837.64 2033.59 1851.42 2014.98 1860.1L2014.66 1971.44L1999.63 1854.23Z" fill="#263238"/>
<path d="M1968.6 1459.66C1968.6 1459.66 1911 1466.11 1904.1 1469.4C1939.19 1508.11 1917.58 1566.16 1917.58 1566.16L1935.12 1656.47C1912.09 1685.94 1892.36 1709.16 1886.81 1744.25C1911.51 1787.8 2049.42 1795.15 2100.25 1762.7C2095.8 1702 2077.42 1658.72 2080.9 1640.47C2105.09 1565.97 2106.7 1552.48 2102.32 1535.84C2090.19 1489.08 2042.52 1457.41 2030.72 1457.41L1968.6 1459.66Z" fill="#455A64"/>
<path d="M1800.24 1662.85C1796.25 1652.34 1813.15 1622.67 1825.27 1602.86L1874.62 1627.18L1857.72 1658.01C1867.51 1686.8 1879.41 1714.83 1893.32 1741.87C1895.72 1746.04 1899.58 1749.17 1904.16 1750.64C1914.26 1754.78 1923.7 1760.34 1932.22 1767.15C1940.03 1772.25 1945.77 1772.57 1945.12 1774.89C1944.46 1777.48 1942.85 1779.71 1940.62 1781.16C1938.38 1782.61 1935.68 1783.16 1933.06 1782.7C1927.22 1781.81 1921.51 1780.26 1916.03 1778.06C1921.97 1786.81 1929.29 1794.54 1937.7 1800.95C1957.05 1815.73 1960.21 1826.76 1930.16 1834.11C1911.39 1838.75 1893.58 1830.63 1869.59 1792.44C1862.68 1781.41 1853.65 1765.22 1846.37 1750.45C1829.47 1715.68 1809.6 1687.04 1800.24 1662.85Z" fill="#FFA8A7"/>
<path d="M1904.1 1469.4C1886.81 1471.34 1874.81 1488.75 1858.94 1518.68C1845.33 1544.49 1812.56 1612.92 1812.56 1612.92C1819.52 1622.01 1828.2 1629.63 1838.11 1635.35C1848.02 1641.07 1858.95 1644.78 1870.3 1646.27L1917.32 1566.48C1917.32 1566.48 1943.19 1502.88 1904.1 1469.4Z" fill="#455A64"/>
<path d="M1959.44 2382.85V2377.04C1964.44 2396.33 1974.48 2413.94 1988.53 2428.06C2001.43 2439.74 2018.91 2453.28 2023.36 2466.31C2027.81 2479.34 2002.66 2485.28 1986.02 2483.67C1969.9 2481.68 1955.04 2473.91 1944.22 2461.8C1933.7 2449.67 1933.83 2441.42 1928.93 2434.71C1924.03 2428 1912.61 2420.58 1909.97 2412.9C1909.14 2405.68 1909.93 2398.37 1912.29 2391.49C1914.16 2384.26 1916.22 2376.4 1918.74 2377.04V2381.49C1924.54 2386.06 1931.74 2388.49 1939.12 2388.39C1944.99 2388.59 1959.44 2387.43 1959.44 2382.85Z" fill="#263238"/>
<path d="M1918.67 2381.49C1924.48 2386.06 1931.67 2388.49 1939.06 2388.39C1944.99 2388.39 1959.44 2387.43 1959.44 2382.85V2377.04C1964.44 2396.33 1974.48 2413.94 1988.53 2428.06L1998.34 2436.71C2005.17 2444.32 2003.24 2450.96 1987.18 2452.38C1971.12 2453.8 1956.99 2444.06 1944.8 2429.09C1932.61 2414.13 1918.67 2381.49 1918.67 2381.49Z" fill="#FFA8A7"/>
<path d="M2068.07 1283.57C2078.45 1290.02 2091.16 1315.82 2089.93 1370.13C2088.84 1416.32 2073.87 1427.73 2066.39 1431.02C2058.91 1434.31 2044.39 1432.31 2030.27 1429.93V1457.66C2030.27 1457.66 2049.62 1480.3 2048.52 1493.01C2047.42 1505.72 2020.4 1508.69 2002.21 1496.3C1989.01 1486.08 1977.65 1473.69 1968.6 1459.66L1968.92 1395.93C1968.92 1395.93 1960.6 1404 1946.54 1391.74C1934.99 1381.55 1931.06 1364.45 1940.09 1355.3C1942.43 1353.09 1945.27 1351.48 1948.37 1350.59C1951.46 1349.71 1954.72 1349.58 1957.88 1350.21C1961.03 1350.84 1963.99 1352.22 1966.51 1354.22C1969.03 1356.23 1971.02 1358.81 1972.34 1361.75C1972.34 1361.75 1980.15 1340.01 2012.66 1329.49C2041.88 1319.75 2057.68 1308.72 2068.07 1283.57Z" fill="#FFA8A7"/>
<path d="M2038.33 1358.52C2038.37 1359.28 2038.25 1360.04 2038 1360.76C2037.74 1361.48 2037.35 1362.14 2036.83 1362.71C2036.32 1363.28 2035.7 1363.74 2035.01 1364.06C2034.32 1364.39 2033.58 1364.58 2032.81 1364.62C2032.05 1364.65 2031.29 1364.54 2030.57 1364.28C2029.85 1364.03 2029.19 1363.63 2028.62 1363.12C2028.06 1362.61 2027.6 1361.99 2027.27 1361.3C2026.94 1360.61 2026.76 1359.86 2026.72 1359.1C2026.64 1358.31 2026.72 1357.52 2026.95 1356.76C2027.19 1356.01 2027.57 1355.31 2028.09 1354.71C2028.6 1354.1 2029.23 1353.61 2029.93 1353.26C2030.64 1352.9 2031.41 1352.7 2032.2 1352.65C2032.99 1352.63 2033.77 1352.77 2034.51 1353.06C2035.24 1353.34 2035.91 1353.77 2036.48 1354.32C2037.05 1354.86 2037.51 1355.51 2037.82 1356.23C2038.14 1356.96 2038.31 1357.73 2038.33 1358.52Z" fill="#263238"/>
<path d="M2039.94 1397.8L2053.42 1402.12C2053.18 1403.03 2052.76 1403.87 2052.18 1404.61C2051.6 1405.34 2050.88 1405.95 2050.06 1406.4C2049.24 1406.86 2048.34 1407.14 2047.41 1407.23C2046.48 1407.33 2045.54 1407.24 2044.65 1406.96C2042.83 1406.34 2041.33 1405.04 2040.45 1403.33C2039.57 1401.62 2039.39 1399.64 2039.94 1397.8Z" fill="#F28F8F"/>
<path d="M2086 1340.72L2074.26 1332.59C2074.75 1331.8 2075.39 1331.11 2076.16 1330.58C2076.92 1330.05 2077.79 1329.68 2078.7 1329.49C2079.61 1329.3 2080.55 1329.3 2081.46 1329.49C2082.37 1329.68 2083.24 1330.06 2084 1330.59C2085.57 1331.7 2086.65 1333.37 2087.02 1335.25C2087.4 1337.14 2087.03 1339.1 2086 1340.72Z" fill="#263238"/>
<path d="M2021.49 1344.97L2033.23 1336.85C2032.74 1336.06 2032.1 1335.37 2031.33 1334.84C2030.57 1334.31 2029.71 1333.93 2028.79 1333.75C2027.88 1333.56 2026.94 1333.56 2026.03 1333.75C2025.12 1333.94 2024.26 1334.31 2023.49 1334.85C2021.92 1335.96 2020.84 1337.63 2020.47 1339.51C2020.1 1341.4 2020.46 1343.35 2021.49 1344.97V1344.97Z" fill="#263238"/>
<path d="M2083.48 1354.33C2083.56 1355.87 2083.02 1357.37 2081.99 1358.52C2080.95 1359.66 2079.51 1360.35 2077.97 1360.42C2077.2 1360.46 2076.44 1360.35 2075.72 1360.09C2075 1359.84 2074.34 1359.44 2073.78 1358.93C2072.63 1357.89 2071.95 1356.45 2071.87 1354.91C2071.79 1354.12 2071.87 1353.33 2072.11 1352.57C2072.34 1351.82 2072.73 1351.12 2073.24 1350.51C2073.75 1349.91 2074.38 1349.42 2075.09 1349.07C2075.79 1348.71 2076.56 1348.51 2077.35 1348.46C2078.14 1348.44 2078.93 1348.58 2079.66 1348.86C2080.39 1349.15 2081.06 1349.58 2081.63 1350.12C2082.2 1350.67 2082.66 1351.32 2082.98 1352.04C2083.29 1352.76 2083.47 1353.54 2083.48 1354.33V1354.33Z" fill="#263238"/>
<path d="M2055.87 1351.04L2056.78 1385.93L2075.23 1380.26L2055.87 1351.04Z" fill="#F28F8F"/>
<path d="M2030.27 1430.06C2015.43 1428.12 1985.11 1419.35 1980.15 1407.29C1982.05 1413.4 1985.79 1418.79 1990.85 1422.7C1999.95 1430.51 2030.27 1439.34 2030.27 1439.34V1430.06Z" fill="#F28F8F"/>
<path d="M1925 1604.8L1965.76 1676.59L1935.12 1656.92L1925 1604.8Z" fill="#37474F"/>
<path d="M475.782 1703.17C472.363 1711.81 450.884 1757.16 422.308 1735.42C387.863 1709.29 344.516 1590.93 344.516 1590.93L376.317 1576.16L437.402 1675.17L475.782 1703.1" fill="#F28F8F"/>
<path d="M473.718 1512.3C458.495 1563.45 427.791 1677.43 427.791 1677.43C427.791 1677.43 440.692 1746.9 462.882 1723.03C470.493 1714.91 474.363 1707.42 482.233 1688.01C489.328 1670.53 510.356 1599.19 510.356 1599.19C510.356 1599.19 505.777 1496.62 521.838 1483.08C530.459 1475.43 540.435 1469.45 551.252 1465.47C525.709 1467.4 487.716 1465.4 473.718 1512.3Z" fill="#F28F8F"/>
<path d="M402.054 1519.65C393.604 1503.91 391.475 1503.2 386.444 1499.78C381.413 1496.37 350.58 1491.72 337.808 1490.63C322.714 1489.34 317.425 1492.11 321.617 1505.07C330.519 1532.81 357.74 1591.64 363.803 1599.77C367.802 1605.06 368.641 1610.02 385.541 1611.7C401.344 1613.25 421.212 1614.09 427.017 1614.41C432.822 1614.73 440.95 1616.21 435.725 1599.06C429.053 1579.62 421.322 1560.56 412.568 1541.97C406.376 1527.84 402.054 1519.65 402.054 1519.65Z" fill="#263238"/>
<path d="M344.517 1591.32C338.066 1563.52 319.747 1537.84 330.197 1528.42L335.809 1540.75C335.809 1540.75 370.383 1549 387.412 1547.71C404.441 1546.42 417.793 1542.49 422.373 1545.71C432.049 1552.55 434.887 1581.71 407.086 1592.28C383.155 1600.93 344.517 1591.32 344.517 1591.32Z" fill="#F28F8F"/>
<path d="M553.639 1456.31C522.999 1456.63 489.135 1467.79 477.717 1491.79C466.3 1515.78 439.789 1620.41 439.789 1620.41C448.658 1628.6 459.15 1634.84 470.584 1638.72C482.019 1642.59 494.14 1644.03 506.164 1642.92L553.639 1456.31Z" fill="#37474F"/>
<path d="M686.517 2340.6H644.138V2402.26H686.517V2340.6Z" fill="#FFA8A7"/>
<path d="M537.542 2264.24L495.188 2265.7L497.308 2327.33L539.662 2325.87L537.542 2264.24Z" fill="#FFA8A7"/>
<path d="M683.743 1738.38C683.743 1778.83 688.968 2040.52 688.968 2040.52C689.936 2052.13 700.837 2073.61 698.515 2118.31C695.29 2179.08 690.065 2347.75 690.065 2347.75C690.065 2347.75 670.198 2367.43 642.138 2347.75C642.138 2347.75 603.436 2118.51 596.211 2058.33C589.761 2005.82 578.344 1863.14 578.344 1863.14L539.061 2030.85C539.061 2030.85 545.963 2070.32 547.511 2098.19C549.059 2126.05 540.286 2286.99 540.286 2286.99C533.434 2291.29 525.574 2293.71 517.491 2294.02C509.409 2294.32 501.387 2292.5 494.23 2288.73C494.23 2288.73 460.172 2053.62 455.528 2028.4C450.884 2003.17 485.329 1738.13 485.329 1738.13L683.743 1738.38Z" fill="#37474F"/>
<path d="M619.949 1458.24H620.529C638.678 1462.85 654.762 1473.4 666.219 1488.21C677.675 1503.03 683.844 1521.25 683.743 1539.97V1738.38C654.007 1770.64 550.478 1785.73 485.587 1738.38V1531.97C485.587 1498.95 503.906 1459.34 554.542 1456.37L619.949 1458.24Z" fill="#455A64"/>
<path d="M634.205 1289.37C637.608 1288.96 641.061 1289.32 644.302 1290.44C647.543 1291.56 650.487 1293.4 652.911 1295.82C660.909 1304.01 659.361 1319.17 652.911 1353.88L628.077 1356.71L634.205 1289.37Z" fill="#263238"/>
<path d="M489.651 1279.25C484.328 1279.27 479.058 1278.19 474.17 1276.08C466.558 1271.76 464.559 1280.41 468.751 1287.89C471.465 1293.33 475.542 1297.97 480.584 1301.36C485.626 1304.75 491.461 1306.78 497.52 1307.24C497.52 1306.21 504.616 1287.89 504.616 1287.89L489.651 1279.25Z" fill="#263238"/>
<path d="M622.594 1357.1C626.27 1359.3 631.495 1352.2 636.075 1347.43C637.859 1345.39 640.133 1343.84 642.683 1342.92C645.233 1342.01 647.973 1341.76 650.646 1342.2C653.319 1342.64 655.836 1343.75 657.959 1345.43C660.082 1347.11 661.741 1349.31 662.78 1351.81C670.327 1367.68 656.329 1388.64 644.589 1392.32C624.529 1398.77 621.497 1385.87 621.497 1385.87L619.949 1458.44C615.518 1468.17 608.736 1476.66 600.212 1483.12C591.688 1489.58 581.69 1493.82 571.119 1495.46C535.513 1500.3 542.867 1470.89 554.542 1456.76V1434.7C545.588 1436.14 536.503 1436.59 527.45 1436.06C512.679 1433.8 503.326 1422.12 498.875 1406.13C491.65 1380.32 488.941 1359.68 495.005 1309.37C501.455 1253.96 565.959 1253.38 600.985 1275.31C636.01 1297.24 622.594 1357.1 622.594 1357.1Z" fill="#FFA8A7"/>
<path d="M622.594 1363.29C624.464 1363.29 631.495 1351.62 636.075 1347.43C642.525 1341.69 634.204 1289.37 634.204 1289.37C634.204 1289.37 640.655 1269.51 628.076 1256.35C615.498 1243.19 591.245 1245.45 573.442 1244.8C551.605 1244.87 529.985 1240.48 509.905 1231.9C484.619 1220.93 482.749 1219.64 479.588 1230.74C476.427 1241.83 475.331 1267.18 490.36 1284.21L502.939 1288.86C502.939 1288.86 509.711 1294.86 533.255 1297.69C554.983 1299.36 576.82 1298.95 598.469 1296.47C605.307 1295.56 606.79 1302.14 610.467 1320.21C613.692 1336.27 616.337 1363.16 622.594 1363.29Z" fill="#263238"/>
<path d="M634.204 1293.44L656.458 1281.5C655.746 1280 654.736 1278.65 653.49 1277.55C652.243 1276.45 650.787 1275.61 649.207 1275.09C647.628 1274.56 645.959 1274.36 644.3 1274.5C642.642 1274.64 641.029 1275.11 639.558 1275.89C636.582 1277.57 634.365 1280.32 633.368 1283.59C632.371 1286.86 632.671 1290.38 634.204 1293.44Z" fill="#263238"/>
<path d="M554.735 1434.25C554.735 1434.25 587.762 1427.8 599.243 1421.35C606.043 1417.81 611.618 1412.3 615.24 1405.54C613.478 1412.3 610.386 1418.64 606.145 1424.19C597.695 1434.96 554.542 1442.89 554.542 1442.89L554.735 1434.25Z" fill="#F28F8F"/>
<path d="M562.54 1348.85C562.628 1350.1 563.08 1351.3 563.84 1352.3C564.6 1353.3 565.635 1354.05 566.819 1354.47C568.003 1354.89 569.283 1354.96 570.503 1354.66C571.723 1354.36 572.83 1353.72 573.687 1352.8C574.545 1351.88 575.116 1350.73 575.33 1349.5C575.545 1348.26 575.394 1346.98 574.895 1345.83C574.396 1344.68 573.572 1343.7 572.523 1343.01C571.474 1342.32 570.247 1341.95 568.991 1341.94C568.104 1341.94 567.227 1342.12 566.413 1342.47C565.6 1342.83 564.867 1343.34 564.262 1343.99C563.657 1344.64 563.192 1345.4 562.895 1346.24C562.599 1347.07 562.478 1347.96 562.54 1348.85V1348.85Z" fill="#263238"/>
<path d="M569.571 1323.82L583.698 1331.69C584.701 1329.76 584.933 1327.51 584.346 1325.42C583.759 1323.32 582.397 1321.53 580.537 1320.4C579.603 1319.86 578.566 1319.52 577.494 1319.4C576.421 1319.28 575.335 1319.38 574.304 1319.7C573.274 1320.02 572.321 1320.56 571.506 1321.26C570.692 1321.97 570.033 1322.84 569.571 1323.82V1323.82Z" fill="#263238"/>
<path d="M557.573 1394.51L542.479 1400.19C542.805 1401.2 543.333 1402.14 544.031 1402.95C544.73 1403.75 545.584 1404.41 546.543 1404.87C547.502 1405.34 548.546 1405.6 549.61 1405.65C550.675 1405.7 551.738 1405.53 552.736 1405.16C554.769 1404.36 556.412 1402.8 557.315 1400.82C558.218 1398.83 558.311 1396.57 557.573 1394.51V1394.51Z" fill="#F28F8F"/>
<path d="M503.583 1329.36L516.484 1319.43C515.882 1318.55 515.107 1317.81 514.206 1317.24C513.306 1316.68 512.299 1316.3 511.248 1316.14C510.197 1315.98 509.124 1316.03 508.094 1316.3C507.064 1316.56 506.1 1317.04 505.26 1317.69C503.528 1319.04 502.385 1321.01 502.073 1323.19C501.76 1325.37 502.302 1327.58 503.583 1329.36V1329.36Z" fill="#263238"/>
<path d="M507.518 1346.91C507.518 1348.62 508.198 1350.26 509.407 1351.47C510.617 1352.68 512.258 1353.36 513.968 1353.36C515.679 1353.36 517.32 1352.68 518.53 1351.47C519.739 1350.26 520.419 1348.62 520.419 1346.91C520.472 1346.03 520.344 1345.15 520.043 1344.32C519.743 1343.49 519.276 1342.74 518.672 1342.1C518.068 1341.46 517.339 1340.95 516.53 1340.6C515.721 1340.25 514.849 1340.07 513.968 1340.07C513.088 1340.07 512.216 1340.25 511.407 1340.6C510.598 1340.95 509.869 1341.46 509.265 1342.1C508.66 1342.74 508.194 1343.49 507.893 1344.32C507.593 1345.15 507.465 1346.03 507.518 1346.91Z" fill="#263238"/>
<path d="M541.254 1340.65L539.061 1380.45L518.291 1373.36L541.254 1340.65Z" fill="#F28F8F"/>
<path d="M644.138 2381.36V2375.3C640.074 2377.1 630.656 2413.03 613.885 2428.32C600.533 2440.51 582.278 2454.64 577.634 2468.18C572.99 2481.73 603.049 2490.12 615.498 2487.92C630.011 2485.34 655.168 2475.02 661.489 2465.67C667.811 2456.32 670.713 2442.25 675.874 2435.29C681.034 2428.32 692.838 2420.58 695.548 2412.58C696.409 2405.08 695.594 2397.48 693.161 2390.33C691.161 2382.85 689.033 2374.59 686.71 2375.3V2379.94C680.658 2384.68 673.171 2387.2 665.489 2387.1C659.103 2387.36 644.073 2386.14 644.138 2381.36Z" fill="#263238"/>
<path d="M496.681 2314.28C494.424 2314.28 492.682 2317.5 487.78 2322.73C480.536 2330.05 472.121 2336.11 462.881 2340.66C447.013 2348.59 416.18 2360.78 402.247 2367.11C393.539 2371.04 393.926 2381.56 402.957 2387.55C411.988 2393.55 433.725 2397.87 459.85 2392C474.04 2388.84 492.618 2375.69 504.357 2376.39C516.097 2377.1 538.029 2376.91 546.672 2370.98C555.316 2365.04 551.832 2352.27 549.381 2341.3C546.93 2330.34 542.931 2311.05 538.932 2311.89V2315.63C533.836 2323.37 507.905 2326.53 496.746 2320.86L496.681 2314.28Z" fill="#263238"/>
<path d="M761.6 1708.78C764.245 1695.88 735.798 1569.71 724.575 1529.71L675.1 1587.77L705.546 1712.45C699.856 1747.32 691.554 1781.71 680.712 1815.34C678.711 1820.55 674.882 1824.86 669.94 1827.47C657.039 1834.5 651.169 1842.24 640.977 1851.59C632.979 1858.88 626.528 1860.36 627.302 1862.94C628.602 1865.73 630.894 1867.94 633.732 1869.13C636.571 1870.33 639.751 1870.42 642.654 1869.39C649.156 1867.29 655.391 1864.43 661.231 1860.88C656.086 1872.02 649.182 1882.25 640.784 1891.2C621.432 1911.71 619.884 1925 655.62 1927.7C678.067 1929.45 696.838 1916.8 717.028 1868.55C722.897 1854.69 729.928 1834.43 735.669 1816.18C748.699 1772.83 755.537 1738.19 761.6 1708.78Z" fill="#FFA8A7"/>
<path d="M633.366 1462.76C658.522 1471.02 708.448 1475.27 724.575 1529.71C740.701 1584.16 748.764 1619.57 748.764 1619.57C739.281 1632.47 701.482 1646.85 683.743 1641.43L633.366 1462.76Z" fill="#455A64"/>
<path d="M683.744 1641.44L666.457 1580.29L683.744 1666.33V1641.44Z" fill="#37474F"/>
<path d="M578.344 1863.14C556.441 1856.31 536.297 1844.77 519.322 1829.34C519.322 1829.34 530.739 1850.62 564.475 1870.43L551.574 1978.79L578.344 1863.14Z" fill="#263238"/>
</svg>
