<svg width="2516" height="2307" viewBox="0 0 2516 2307" fill="none" xmlns="http://www.w3.org/2000/svg">
<path d="M368.406 2130.73C859.615 2364.82 1656.04 2364.82 2147.25 2130.73C2638.46 1896.64 2638.46 1517.04 2147.25 1282.9C1656.04 1048.75 859.615 1048.81 368.406 1282.9C-122.802 1516.99 -122.802 1896.58 368.406 2130.73Z" fill="#F0F0F0"/>
<path d="M1343.66 1987.78C1424.24 1987.78 1489.56 1956.65 1489.56 1918.24C1489.56 1879.84 1424.24 1848.7 1343.66 1848.7C1263.08 1848.7 1197.76 1879.84 1197.76 1918.24C1197.76 1956.65 1263.08 1987.78 1343.66 1987.78Z" fill="#E0E0E0"/>
<path d="M652.192 1307.69L388.876 1155.65L125.503 1307.69L388.876 1459.73L652.192 1307.69Z" fill="#F0F0F0"/>
<path d="M388.876 1662.49L652.192 1510.45V1307.69L388.876 1459.73V1662.49Z" fill="#EBEBEB"/>
<path d="M428.223 1615.47C427.702 1615.48 427.189 1615.34 426.744 1615.07C426.211 1614.72 425.782 1614.24 425.502 1613.67C425.222 1613.1 425.101 1612.46 425.152 1611.83V1608.13C425.152 1607.77 425.296 1607.42 425.552 1607.17C425.808 1606.91 426.155 1606.77 426.517 1606.77C426.693 1606.77 426.868 1606.8 427.031 1606.87C427.193 1606.94 427.34 1607.04 427.462 1607.17C427.584 1607.3 427.68 1607.45 427.742 1607.61C427.804 1607.78 427.832 1607.96 427.825 1608.13V1611.83C427.825 1612.4 427.825 1612.68 427.825 1612.74C427.825 1612.8 428.223 1612.74 428.734 1612.74C429.557 1611.95 430.204 1610.99 430.635 1609.93C431.066 1608.87 431.27 1607.74 431.236 1606.6V1582.6C431.236 1582.26 431.374 1581.92 431.619 1581.68C431.864 1581.43 432.197 1581.3 432.544 1581.3C432.72 1581.29 432.897 1581.32 433.062 1581.38C433.227 1581.44 433.378 1581.54 433.506 1581.66C433.633 1581.78 433.735 1581.93 433.804 1582.09C433.873 1582.25 433.909 1582.43 433.909 1582.6V1606.14C433.969 1607.75 433.656 1609.35 432.996 1610.82C432.335 1612.29 431.344 1613.59 430.099 1614.61C429.545 1615.04 428.904 1615.33 428.223 1615.47Z" fill="#E0E0E0"/>
<path d="M413.894 1594.77V1592.44C414.19 1586.46 415.888 1580.63 418.851 1575.42C421.814 1570.22 425.959 1565.78 430.952 1562.47C432.74 1560.9 434.977 1559.93 437.346 1559.7C439.715 1559.47 442.097 1559.99 444.157 1561.18C446.216 1562.37 447.85 1564.18 448.827 1566.35C449.804 1568.52 450.075 1570.94 449.602 1573.28V1574.02L413.894 1594.77ZM439.253 1562.76C436.869 1562.85 434.551 1563.57 432.544 1564.86C428.248 1567.66 424.609 1571.35 421.88 1575.69C419.151 1580.03 417.397 1584.91 416.737 1589.99L447.1 1572.48C447.204 1570.78 446.873 1569.07 446.137 1567.53C445.401 1565.99 444.284 1564.66 442.892 1563.67C441.815 1562.94 440.554 1562.52 439.253 1562.47V1562.76Z" fill="#E0E0E0"/>
<path d="M476.61 1587.78C476.263 1587.78 475.931 1587.64 475.685 1587.39C475.44 1587.15 475.302 1586.82 475.302 1586.47V1547.69C475.261 1547.49 475.265 1547.29 475.313 1547.09C475.361 1546.89 475.452 1546.71 475.58 1546.55C475.708 1546.4 475.87 1546.27 476.053 1546.18C476.236 1546.09 476.436 1546.05 476.639 1546.05C476.841 1546.05 477.041 1546.09 477.225 1546.18C477.408 1546.27 477.569 1546.4 477.697 1546.55C477.825 1546.71 477.916 1546.89 477.964 1547.09C478.012 1547.29 478.016 1547.49 477.975 1547.69V1586.47C477.975 1586.65 477.939 1586.82 477.87 1586.98C477.801 1587.15 477.699 1587.29 477.572 1587.41C477.444 1587.54 477.293 1587.63 477.128 1587.69C476.963 1587.76 476.787 1587.78 476.61 1587.78Z" fill="#E0E0E0"/>
<path d="M472.687 1558.15C472.501 1558.2 472.305 1558.2 472.118 1558.15C471.955 1558.09 471.808 1557.99 471.684 1557.86C471.561 1557.73 471.464 1557.58 471.401 1557.42C471.337 1557.25 471.307 1557.08 471.313 1556.9C471.319 1556.72 471.361 1556.55 471.436 1556.39L476.269 1545.02L481.614 1551.22C481.854 1551.47 481.988 1551.81 481.988 1552.15C481.988 1552.5 481.854 1552.84 481.614 1553.09C481.487 1553.22 481.336 1553.32 481.171 1553.39C481.005 1553.46 480.827 1553.49 480.647 1553.49C480.468 1553.49 480.29 1553.46 480.124 1553.39C479.958 1553.32 479.808 1553.22 479.681 1553.09L477.122 1550.14L474.052 1557.3C473.944 1557.57 473.754 1557.8 473.508 1557.95C473.263 1558.1 472.975 1558.17 472.687 1558.15Z" fill="#E0E0E0"/>
<path d="M489.119 1580.67C488.757 1580.67 488.41 1580.53 488.154 1580.27C487.898 1580.01 487.754 1579.67 487.754 1579.31V1540.58C487.754 1540.22 487.898 1539.87 488.154 1539.62C488.41 1539.36 488.757 1539.22 489.119 1539.22C489.481 1539.22 489.828 1539.36 490.084 1539.62C490.34 1539.87 490.484 1540.22 490.484 1540.58V1579.31C490.484 1579.67 490.34 1580.01 490.084 1580.27C489.828 1580.53 489.481 1580.67 489.119 1580.67Z" fill="#E0E0E0"/>
<path d="M485.082 1551.05H484.513C484.35 1550.98 484.203 1550.88 484.079 1550.75C483.956 1550.63 483.859 1550.47 483.796 1550.31C483.732 1550.15 483.702 1549.97 483.708 1549.79C483.714 1549.62 483.756 1549.44 483.831 1549.28L488.607 1537.91L494.293 1544.05C494.537 1544.31 494.672 1544.66 494.672 1545.02C494.672 1545.38 494.537 1545.72 494.293 1545.99C494.034 1546.21 493.7 1546.34 493.355 1546.34C493.01 1546.34 492.676 1546.21 492.417 1545.99L489.858 1543.03L486.731 1550.19C486.686 1550.36 486.607 1550.52 486.498 1550.66C486.388 1550.79 486.251 1550.91 486.096 1550.99C485.941 1551.07 485.77 1551.11 485.595 1551.12C485.421 1551.13 485.246 1551.11 485.082 1551.05Z" fill="#E0E0E0"/>
<path d="M388.876 1662.49L125.503 1510.45V1307.69L388.876 1459.73V1662.49Z" fill="#E0E0E0"/>
<path d="M247.239 1580.73L267.083 1592.21V1389.45L247.239 1377.97V1580.73Z" fill="#EBEBEB"/>
<path d="M539.44 1410.83L501.628 1432.61C497.85 1434.77 494.619 1437.77 492.184 1441.38C489.75 1444.99 488.176 1449.11 487.584 1453.42C487.584 1460.41 493.895 1462.46 501.628 1457.97L539.44 1436.19C543.207 1434.02 546.427 1431.02 548.852 1427.41C551.277 1423.8 552.842 1419.69 553.427 1415.38C553.313 1408.39 547.173 1406.34 539.44 1410.83Z" fill="#E0E0E0"/>
<path d="M267.083 1389.45L530.456 1237.41L510.612 1225.92L247.239 1377.97L267.083 1389.45Z" fill="#FAFAFA"/>
<path d="M510.612 1389.45L247.239 1237.41L267.083 1225.92L530.456 1377.97L510.612 1389.45Z" fill="#FAFAFA"/>
<g style="mix-blend-mode:multiply" opacity="0.8">
<g style="mix-blend-mode:multiply" opacity="0.8">
<path d="M136.989 1301.03L389.501 1446.65L641.161 1301.38L388.876 1155.65L136.989 1301.03Z" fill="#E0E0E0"/>
</g>
</g>
<path d="M510.612 1409.81V1389.45L530.456 1377.97V1398.32L510.612 1409.81Z" fill="#F0F0F0"/>
<path d="M640.365 1079.62L376.992 927.582L113.62 1079.62L376.992 1231.67L640.365 1079.62Z" fill="#F0F0F0"/>
<g style="mix-blend-mode:multiply" opacity="0.8">
<g style="mix-blend-mode:multiply" opacity="0.8">
<path d="M136.022 1081.96L386.147 1226.38L640.365 1079.62L390.24 935.201L136.022 1081.96Z" fill="#E0E0E0"/>
</g>
</g>
<path d="M376.993 1434.43L640.366 1282.33V1079.62L376.993 1231.67V1434.43Z" fill="#EBEBEB"/>
<path d="M416.282 1387.4C415.766 1387.39 415.26 1387.25 414.804 1387.01C414.271 1386.66 413.842 1386.18 413.562 1385.61C413.281 1385.03 413.161 1384.4 413.212 1383.77V1380.07C413.171 1379.87 413.174 1379.67 413.222 1379.47C413.271 1379.27 413.362 1379.09 413.49 1378.93C413.618 1378.77 413.779 1378.65 413.962 1378.56C414.145 1378.47 414.346 1378.43 414.548 1378.43C414.751 1378.43 414.951 1378.47 415.134 1378.56C415.317 1378.65 415.479 1378.77 415.607 1378.93C415.735 1379.09 415.826 1379.27 415.874 1379.47C415.922 1379.67 415.926 1379.87 415.884 1380.07V1383.77C415.884 1384.33 415.884 1384.62 415.884 1384.68C415.884 1384.73 416.282 1384.68 416.737 1384.39C417.57 1383.62 418.225 1382.67 418.657 1381.62C419.089 1380.57 419.287 1379.44 419.239 1378.31V1354.31C419.239 1353.95 419.383 1353.6 419.639 1353.35C419.895 1353.09 420.242 1352.95 420.604 1352.95C420.966 1352.95 421.313 1353.09 421.569 1353.35C421.825 1353.6 421.968 1353.95 421.968 1354.31V1378.31C422.04 1379.92 421.727 1381.52 421.054 1382.98C420.382 1384.45 419.37 1385.73 418.102 1386.72C417.563 1387.1 416.937 1387.34 416.282 1387.4Z" fill="#E0E0E0"/>
<path d="M402.067 1366.37V1364.04C402.372 1358.06 404.074 1352.25 407.037 1347.05C409.999 1341.86 414.14 1337.43 419.125 1334.13C420.913 1332.59 423.136 1331.64 425.486 1331.42C427.835 1331.2 430.195 1331.72 432.238 1332.9C434.282 1334.08 435.907 1335.87 436.889 1338.01C437.871 1340.16 438.16 1342.56 437.718 1344.87V1345.67L402.067 1366.37ZM427.427 1334.35C425.03 1334.48 422.703 1335.2 420.66 1336.46C416.378 1339.28 412.755 1342.99 410.037 1347.33C407.319 1351.68 405.57 1356.56 404.91 1361.65L435.273 1344.13C435.383 1342.43 435.054 1340.72 434.318 1339.18C433.581 1337.64 432.461 1336.31 431.066 1335.32C429.962 1334.68 428.705 1334.34 427.427 1334.35Z" fill="#E0E0E0"/>
<path d="M464.784 1359.71C464.422 1359.71 464.075 1359.57 463.819 1359.31C463.563 1359.06 463.419 1358.71 463.419 1358.35V1319.63C463.419 1319.27 463.563 1318.92 463.819 1318.66C464.075 1318.41 464.422 1318.26 464.784 1318.26C465.145 1318.26 465.493 1318.41 465.749 1318.66C466.004 1318.92 466.148 1319.27 466.148 1319.63V1358.35C466.148 1358.71 466.004 1359.06 465.749 1359.31C465.493 1359.57 465.145 1359.71 464.784 1359.71Z" fill="#E0E0E0"/>
<path d="M460.86 1330.09H460.291C460.128 1330.02 459.98 1329.92 459.857 1329.8C459.734 1329.67 459.637 1329.52 459.574 1329.35C459.51 1329.19 459.48 1329.01 459.486 1328.84C459.492 1328.66 459.534 1328.49 459.609 1328.33L464.385 1317.24L470.071 1323.38C470.315 1323.64 470.45 1323.99 470.45 1324.35C470.45 1324.71 470.315 1325.05 470.071 1325.31C469.812 1325.54 469.478 1325.67 469.133 1325.67C468.788 1325.67 468.454 1325.54 468.195 1325.31L465.636 1322.36L462.509 1329.52C462.352 1329.8 462.097 1330.02 461.793 1330.12C461.489 1330.23 461.157 1330.21 460.86 1330.09Z" fill="#E0E0E0"/>
<path d="M477.292 1352.61C476.93 1352.61 476.583 1352.46 476.327 1352.21C476.072 1351.95 475.928 1351.6 475.928 1351.24V1312.46C475.928 1312.1 476.072 1311.75 476.327 1311.5C476.583 1311.24 476.93 1311.1 477.292 1311.1C477.654 1311.1 478.001 1311.24 478.257 1311.5C478.513 1311.75 478.657 1312.1 478.657 1312.46V1351.24C478.657 1351.6 478.513 1351.95 478.257 1352.21C478.001 1352.46 477.654 1352.61 477.292 1352.61Z" fill="#E0E0E0"/>
<path d="M473.312 1322.98H472.8C472.467 1322.83 472.204 1322.56 472.066 1322.22C471.928 1321.88 471.927 1321.5 472.061 1321.16L476.894 1310.08L482.239 1316.27C482.366 1316.4 482.467 1316.55 482.536 1316.72C482.605 1316.88 482.64 1317.06 482.64 1317.24C482.64 1317.42 482.605 1317.6 482.536 1317.76C482.467 1317.93 482.366 1318.08 482.239 1318.21C481.976 1318.45 481.631 1318.59 481.272 1318.59C480.914 1318.59 480.569 1318.45 480.306 1318.21L477.804 1315.25L474.677 1322.41C474.523 1322.62 474.315 1322.79 474.074 1322.89C473.833 1322.99 473.57 1323.02 473.312 1322.98Z" fill="#E0E0E0"/>
<path d="M376.992 1434.43L113.62 1282.33V1079.62L376.992 1231.67V1434.43Z" fill="#E0E0E0"/>
<path d="M235.413 1352.66L255.257 1364.09V1161.39L235.413 1149.9V1352.66Z" fill="#EBEBEB"/>
<path d="M527.556 1182.77L489.802 1204.54C486.024 1206.71 482.793 1209.71 480.358 1213.32C477.923 1216.92 476.349 1221.04 475.757 1225.36C475.757 1232.35 482.069 1234.4 489.802 1229.9L527.556 1208.07C531.352 1205.94 534.599 1202.96 537.038 1199.36C539.476 1195.75 541.039 1191.63 541.601 1187.32C541.601 1180.32 535.346 1178.28 527.556 1182.77Z" fill="#E0E0E0"/>
<path d="M255.257 1161.39L518.629 1009.35L498.785 997.861L235.413 1149.9L255.257 1161.39Z" fill="#FAFAFA"/>
<path d="M498.785 1161.39L235.413 1009.35L255.257 997.861L518.629 1149.9L498.785 1161.39Z" fill="#FAFAFA"/>
<path d="M498.785 1181.74V1161.39L518.629 1149.9V1170.26L498.785 1181.74Z" fill="#F0F0F0"/>
<g style="mix-blend-mode:multiply" opacity="0.8">
<g style="mix-blend-mode:multiply" opacity="0.8">
<path d="M386.147 1226.38L409.857 1240.08L640.365 1106.97V1079.62L386.147 1226.38Z" fill="#E0E0E0"/>
</g>
</g>
<path d="M666.748 876.864L403.432 724.822L140.06 876.864L403.432 1028.91L666.748 876.864Z" fill="#F0F0F0"/>
<path d="M403.432 1231.67L666.748 1079.62V876.864L403.432 1028.91V1231.67Z" fill="#EBEBEB"/>
<path d="M442.665 1184.64C442.162 1184.66 441.665 1184.52 441.244 1184.25C440.696 1183.91 440.252 1183.43 439.961 1182.86C439.669 1182.29 439.543 1181.64 439.595 1181V1177.31C439.595 1176.95 439.739 1176.6 439.995 1176.34C440.251 1176.09 440.598 1175.94 440.96 1175.94C441.321 1175.94 441.669 1176.09 441.924 1176.34C442.18 1176.6 442.324 1176.95 442.324 1177.31V1181C442.324 1181.57 442.324 1181.86 442.324 1181.91C442.324 1181.97 442.722 1181.91 443.234 1181.91C444.066 1181.14 444.721 1180.2 445.153 1179.15C445.585 1178.1 445.784 1176.97 445.736 1175.83V1151.84C445.695 1151.64 445.698 1151.43 445.746 1151.24C445.794 1151.04 445.886 1150.85 446.014 1150.7C446.142 1150.54 446.303 1150.41 446.486 1150.33C446.669 1150.24 446.869 1150.19 447.072 1150.19C447.275 1150.19 447.475 1150.24 447.658 1150.33C447.841 1150.41 448.002 1150.54 448.13 1150.7C448.258 1150.85 448.35 1151.04 448.398 1151.24C448.446 1151.43 448.449 1151.64 448.408 1151.84V1175.83C448.468 1177.43 448.155 1179.03 447.494 1180.49C446.833 1181.95 445.842 1183.23 444.599 1184.25C443.99 1184.51 443.331 1184.65 442.665 1184.64Z" fill="#E0E0E0"/>
<path d="M428.223 1163.66V1161.33C428.532 1155.35 430.235 1149.53 433.197 1144.33C436.159 1139.12 440.297 1134.68 445.28 1131.37C447.069 1129.8 449.305 1128.83 451.674 1128.59C454.043 1128.36 456.425 1128.88 458.485 1130.07C460.545 1131.26 462.178 1133.07 463.155 1135.24C464.132 1137.41 464.403 1139.84 463.93 1142.17V1142.91L428.223 1163.66ZM453.582 1131.65C451.197 1131.74 448.88 1132.46 446.873 1133.75C442.584 1136.56 438.952 1140.26 436.224 1144.59C433.496 1148.93 431.736 1153.81 431.066 1158.89L461.429 1141.37C461.529 1139.67 461.201 1137.98 460.476 1136.44C459.751 1134.9 458.651 1133.57 457.278 1132.56C456.216 1131.97 455.023 1131.66 453.809 1131.65H453.582Z" fill="#E0E0E0"/>
<path d="M491.166 1156.95C490.99 1156.95 490.815 1156.92 490.652 1156.85C490.49 1156.78 490.343 1156.68 490.221 1156.55C490.099 1156.42 490.004 1156.27 489.941 1156.11C489.879 1155.94 489.851 1155.77 489.858 1155.59V1117.15C489.817 1116.95 489.821 1116.75 489.869 1116.55C489.917 1116.35 490.008 1116.17 490.136 1116.01C490.264 1115.86 490.426 1115.73 490.609 1115.64C490.792 1115.56 490.992 1115.51 491.195 1115.51C491.397 1115.51 491.598 1115.56 491.781 1115.64C491.964 1115.73 492.125 1115.86 492.253 1116.01C492.381 1116.17 492.472 1116.35 492.52 1116.55C492.568 1116.75 492.572 1116.95 492.531 1117.15V1155.93C492.454 1156.23 492.276 1156.49 492.028 1156.68C491.78 1156.87 491.476 1156.96 491.166 1156.95Z" fill="#E0E0E0"/>
<path d="M487.243 1127.33C487.076 1127.38 486.898 1127.38 486.731 1127.33C486.563 1127.27 486.409 1127.17 486.28 1127.05C486.151 1126.92 486.048 1126.77 485.979 1126.61C485.909 1126.44 485.875 1126.27 485.877 1126.09C485.879 1125.91 485.918 1125.73 485.992 1125.57L490.825 1114.19L496.17 1120.39C496.295 1120.51 496.395 1120.66 496.463 1120.82C496.531 1120.98 496.566 1121.16 496.566 1121.33C496.566 1121.51 496.531 1121.68 496.463 1121.84C496.395 1122 496.295 1122.15 496.17 1122.27C496.043 1122.4 495.892 1122.5 495.726 1122.57C495.561 1122.63 495.383 1122.67 495.203 1122.67C495.023 1122.67 494.846 1122.63 494.68 1122.57C494.514 1122.5 494.363 1122.4 494.236 1122.27L491.678 1119.31L488.607 1126.48C488.5 1126.75 488.309 1126.97 488.064 1127.13C487.819 1127.28 487.531 1127.35 487.243 1127.33Z" fill="#E0E0E0"/>
<path d="M503.675 1149.85C503.499 1149.85 503.323 1149.83 503.157 1149.76C502.992 1149.7 502.841 1149.61 502.713 1149.48C502.586 1149.36 502.485 1149.21 502.415 1149.05C502.346 1148.89 502.31 1148.71 502.311 1148.54V1109.76C502.311 1109.4 502.454 1109.05 502.71 1108.79C502.966 1108.54 503.313 1108.4 503.675 1108.4C504.037 1108.4 504.384 1108.54 504.64 1108.79C504.896 1109.05 505.04 1109.4 505.04 1109.76V1148.54C505.04 1148.71 505.004 1148.89 504.935 1149.05C504.866 1149.21 504.764 1149.36 504.637 1149.48C504.509 1149.61 504.358 1149.7 504.193 1149.76C504.028 1149.83 503.852 1149.85 503.675 1149.85Z" fill="#E0E0E0"/>
<path d="M499.752 1120.22H499.183C499.02 1120.15 498.873 1120.05 498.749 1119.93C498.626 1119.8 498.529 1119.65 498.466 1119.49C498.402 1119.32 498.372 1119.15 498.378 1118.97C498.384 1118.79 498.426 1118.62 498.501 1118.46L503.277 1107.09L508.963 1113.23C509.207 1113.49 509.342 1113.84 509.342 1114.19C509.342 1114.55 509.207 1114.9 508.963 1115.16C508.841 1115.29 508.695 1115.39 508.534 1115.46C508.373 1115.52 508.2 1115.56 508.025 1115.56C507.85 1115.56 507.677 1115.52 507.516 1115.46C507.355 1115.39 507.209 1115.29 507.087 1115.16L504.528 1112.2L501.401 1119.37C501.356 1119.54 501.277 1119.7 501.167 1119.83C501.058 1119.97 500.921 1120.08 500.766 1120.16C500.61 1120.24 500.44 1120.29 500.265 1120.3C500.091 1120.31 499.916 1120.28 499.752 1120.22Z" fill="#E0E0E0"/>
<path d="M403.432 1231.67L140.06 1079.62V876.864L403.432 1028.91V1231.67Z" fill="#E0E0E0"/>
<path d="M261.795 1149.9L281.639 1161.39V958.628L261.795 947.142V1149.9Z" fill="#EBEBEB"/>
<path d="M553.996 980.007L516.184 1001.84C512.401 1003.98 509.168 1006.96 506.74 1010.57C504.312 1014.17 502.757 1018.29 502.197 1022.59C502.197 1029.59 508.451 1031.64 516.184 1027.14L553.996 1005.37C557.774 1003.2 561.005 1000.2 563.439 996.595C565.874 992.987 567.448 988.868 568.04 984.555C568.04 977.562 561.729 975.515 553.996 980.007Z" fill="#E0E0E0"/>
<path d="M281.639 958.628L545.012 806.585L525.168 795.1L261.795 947.142L281.639 958.628Z" fill="#FAFAFA"/>
<path d="M525.168 958.628L261.795 806.585L281.639 795.1L545.012 947.142L525.168 958.628Z" fill="#FAFAFA"/>
<path d="M525.168 978.983V958.628L545.012 947.142V967.498L525.168 978.983Z" fill="#F0F0F0"/>
<path d="M773.473 1623.77V1534.84C769.239 1502.15 755.385 1471.45 733.672 1446.65C698.532 1408.61 667.032 1421.52 656.798 1439.6C646.563 1457.68 669.875 1491.91 684.772 1511.24C702.683 1534.44 773.359 1642.02 773.359 1690.52L773.473 1623.77Z" fill="#37474F"/>
<path d="M773.473 1609.72C772.958 1609.72 772.46 1609.54 772.066 1609.2C771.671 1608.87 771.405 1608.41 771.313 1607.91C755.278 1510.96 681.475 1444.43 680.736 1443.75C680.339 1443.34 680.118 1442.79 680.118 1442.22C680.118 1441.64 680.339 1441.09 680.736 1440.68C680.936 1440.48 681.176 1440.32 681.439 1440.21C681.703 1440.1 681.985 1440.04 682.271 1440.04C682.556 1440.04 682.839 1440.1 683.102 1440.21C683.366 1440.32 683.605 1440.48 683.806 1440.68C684.602 1441.31 759.486 1508.91 775.805 1607.34C775.887 1607.91 775.743 1608.49 775.403 1608.96C775.063 1609.42 774.554 1609.74 773.985 1609.84L773.473 1609.72Z" fill="#FAFAFA"/>
<path d="M773.473 1623.77C773.473 1623.77 776.999 1613.08 761.248 1610.35C745.498 1607.62 739.471 1594.54 738.05 1572.6C736.628 1550.65 729.919 1534.9 710.189 1531.66C690.458 1528.42 674.595 1538.37 661.801 1528.47C649.008 1518.58 615.859 1494.75 588.225 1505.73C560.592 1516.7 569.689 1540.19 584.074 1555.42C598.46 1570.66 602.554 1575.89 591.58 1600.91C580.606 1625.93 588.566 1649.01 613.983 1654.81C639.399 1660.61 653.784 1657.66 653.784 1685.46C653.784 1713.27 657.992 1725.72 671.922 1736.64C685.853 1747.55 729.578 1742.66 747.773 1746.87C753.236 1748.28 758.337 1750.83 762.739 1754.36C767.14 1757.89 770.741 1762.31 773.303 1767.34L773.473 1623.77Z" fill="#455A64"/>
<path d="M773.473 1738.45C773.02 1738.45 772.579 1738.31 772.211 1738.05C771.844 1737.78 771.569 1737.41 771.426 1736.98C725.2 1599.83 620.635 1544.39 619.555 1543.65C619.074 1543.36 618.723 1542.9 618.573 1542.35C618.422 1541.81 618.483 1541.23 618.743 1540.74C619.003 1540.24 619.444 1539.86 619.974 1539.67C620.505 1539.48 621.087 1539.5 621.602 1539.73C622.625 1540.3 728.725 1596.59 775.52 1735.38C775.617 1735.65 775.659 1735.94 775.643 1736.22C775.626 1736.51 775.552 1736.79 775.424 1737.04C775.296 1737.3 775.118 1737.52 774.9 1737.71C774.682 1737.89 774.429 1738.03 774.156 1738.11C773.963 1738.29 773.728 1738.41 773.473 1738.45Z" fill="#FAFAFA"/>
<path d="M707.175 1618.88H706.834C676.641 1612 628.368 1615.75 627.856 1615.75C627.572 1615.78 627.286 1615.74 627.015 1615.65C626.744 1615.57 626.493 1615.43 626.276 1615.24C626.06 1615.06 625.882 1614.83 625.753 1614.58C625.624 1614.32 625.546 1614.05 625.525 1613.76C625.493 1613.48 625.521 1613.19 625.605 1612.91C625.69 1612.64 625.83 1612.38 626.016 1612.17C626.202 1611.95 626.432 1611.77 626.689 1611.64C626.947 1611.52 627.228 1611.44 627.515 1611.43C629.562 1611.43 676.983 1607.62 707.8 1614.67C708.318 1614.79 708.773 1615.1 709.078 1615.54C709.383 1615.97 709.517 1616.5 709.454 1617.03C709.39 1617.56 709.134 1618.05 708.735 1618.4C708.335 1618.75 707.821 1618.94 707.289 1618.94L707.175 1618.88Z" fill="#FAFAFA"/>
<path d="M731.795 1684.84C717.978 1684.84 703.365 1683.93 702.455 1683.87C701.877 1683.83 701.339 1683.56 700.957 1683.12C700.574 1682.69 700.377 1682.12 700.409 1681.54C700.423 1681.25 700.495 1680.97 700.621 1680.71C700.747 1680.45 700.924 1680.21 701.141 1680.02C701.358 1679.83 701.612 1679.69 701.887 1679.59C702.161 1679.5 702.451 1679.47 702.74 1679.49C718.451 1680.6 734.221 1680.6 749.933 1679.49C750.498 1679.41 751.073 1679.56 751.531 1679.9C751.989 1680.24 752.294 1680.75 752.378 1681.31C752.427 1681.6 752.418 1681.89 752.352 1682.17C752.286 1682.45 752.165 1682.71 751.996 1682.95C751.826 1683.18 751.612 1683.38 751.365 1683.52C751.118 1683.67 750.844 1683.77 750.559 1683.81C744.336 1684.59 738.066 1684.93 731.795 1684.84Z" fill="#FAFAFA"/>
<path d="M693.017 1602.79C692.439 1602.74 691.901 1602.48 691.518 1602.04C691.135 1601.6 690.939 1601.04 690.97 1600.46C692.01 1584.76 695.283 1569.29 700.693 1554.51C700.908 1553.99 701.32 1553.57 701.842 1553.35C702.363 1553.12 702.951 1553.11 703.479 1553.32C703.749 1553.41 703.996 1553.56 704.207 1553.76C704.418 1553.95 704.587 1554.18 704.704 1554.44C704.821 1554.7 704.883 1554.99 704.888 1555.27C704.892 1555.56 704.839 1555.84 704.73 1556.11C699.552 1570.48 696.376 1585.5 695.291 1600.74C695.277 1601.02 695.206 1601.3 695.084 1601.56C694.962 1601.82 694.79 1602.05 694.579 1602.24C694.368 1602.43 694.121 1602.57 693.853 1602.67C693.585 1602.76 693.301 1602.8 693.017 1602.79Z" fill="#FAFAFA"/>
<path d="M772.791 743.926V1776.72C772.791 1786.16 779.386 1789.97 787.574 1785.25L2028.36 1068.82C2032.64 1066.01 2036.2 1062.22 2038.75 1057.78C2041.3 1053.33 2042.76 1048.35 2043.03 1043.23V10.5536C2043.03 1.11497 2036.43 -2.69461 2028.3 2.02472L787.517 718.453C783.239 721.25 779.678 725.012 777.12 729.436C774.563 733.861 773.079 738.824 772.791 743.926Z" fill="#B03A2E"/>
<path d="M2028.36 2.02472L787.574 718.453C783.271 721.255 779.689 725.032 777.12 729.478C774.552 733.924 773.068 738.913 772.791 744.04V808.632L2043.03 73.497V10.5536C2043.03 1.11497 2036.49 -2.69461 2028.36 2.02472Z" fill="#263238"/>
<path d="M1869.89 116.71C1865.66 119.467 1862.14 123.186 1859.62 127.564C1857.1 131.942 1855.65 136.854 1855.39 141.899C1855.39 151.167 1861.88 154.92 1869.95 150.314C1874.18 147.538 1877.7 143.808 1880.23 139.423C1882.76 135.038 1884.22 130.122 1884.51 125.068C1884.45 115.8 1878.14 112.048 1869.89 116.71Z" fill="white"/>
<path d="M1927.61 83.3337C1923.37 86.0976 1919.85 89.8174 1917.32 94.1928C1914.8 98.5683 1913.33 103.477 1913.05 108.522C1913.05 117.847 1919.59 121.6 1927.61 116.938C1931.85 114.187 1935.38 110.471 1937.91 106.092C1940.44 101.714 1941.9 96.7987 1942.16 91.7489C1942.16 82.3102 1935.68 78.7281 1927.61 83.3337Z" fill="white"/>
<path d="M1985.37 50.0141C1981.14 52.778 1977.62 56.4978 1975.09 60.8732C1972.57 65.2487 1971.1 70.1572 1970.82 75.2028C1970.82 84.4709 1977.36 88.2805 1985.37 83.618C1989.6 80.854 1993.13 77.1343 1995.66 72.7588C1998.18 68.3834 1999.65 63.4748 1999.93 58.4293C1999.93 49.1043 1993.39 45.3516 1985.37 50.0141Z" fill="white"/>
<path d="M1171.32 716.748V1023.79L905.501 1177.31V870.268L1171.32 716.748ZM1177 706.911L899.815 866.97V1187.03L1177 1026.97V706.911Z" fill="#FAFAFA"/>
<path d="M1266.56 978.528V651.928L1549.38 488.628V815.228L1266.56 978.528ZM1272.24 655.226V968.692L1543.69 811.93V498.464L1272.24 655.226Z" fill="#FAFAFA"/>
<path d="M1443.73 649.824L1458.63 617.642C1442.14 615.315 1425.36 618.727 1411.09 627.308V656.59C1420.95 650.852 1432.41 648.477 1443.73 649.824Z" fill="#B03A2E"/>
<path d="M1468.75 671.601L1492.86 648.857C1490.54 642 1486.69 635.763 1481.59 630.619C1476.5 625.476 1470.3 621.563 1463.46 619.177L1448.62 651.359C1453.24 653.079 1457.43 655.779 1460.91 659.274C1464.38 662.768 1467.06 666.974 1468.75 671.601Z" fill="#B03A2E"/>
<path d="M1372.09 817.332L1357.25 849.457C1373.7 851.891 1390.49 848.513 1404.73 839.905V810.679C1394.88 816.442 1383.4 818.781 1372.09 817.332Z" fill="#B03A2E"/>
<path d="M1448.85 768.774L1463.69 783.785C1476.89 764.317 1486.82 742.826 1493.09 720.159L1468.75 724.822C1464.45 740.421 1457.74 755.251 1448.85 768.774Z" fill="#B03A2E"/>
<path d="M1411.09 807.04V836.266C1429.65 824.24 1445.76 808.805 1458.57 790.779L1443.73 775.995C1434.8 788.213 1423.74 798.729 1411.09 807.04Z" fill="#B03A2E"/>
<path d="M1495.02 654.487L1470.97 677.23C1472.56 683.24 1473.34 689.436 1473.3 695.653C1473.24 702.764 1472.46 709.851 1470.97 716.804L1495.02 711.971C1497.29 701.834 1498.47 691.484 1498.54 681.097C1498.62 672.105 1497.43 663.148 1495.02 654.487Z" fill="#B03A2E"/>
<g opacity="0.2">
<path opacity="0.2" d="M1443.73 649.824L1458.63 617.642C1442.14 615.315 1425.36 618.728 1411.09 627.308V656.59C1420.95 650.852 1432.41 648.477 1443.73 649.824Z" fill="black"/>
<path opacity="0.2" d="M1468.75 671.601L1492.86 648.857C1490.54 642 1486.69 635.763 1481.59 630.619C1476.5 625.476 1470.3 621.563 1463.46 619.177L1448.62 651.359C1453.24 653.079 1457.43 655.779 1460.91 659.274C1464.38 662.768 1467.06 666.974 1468.75 671.601Z" fill="black"/>
<path opacity="0.2" d="M1372.09 817.332L1357.25 849.457C1373.7 851.891 1390.49 848.513 1404.73 839.905V810.679C1394.88 816.442 1383.4 818.781 1372.09 817.332Z" fill="black"/>
<path opacity="0.2" d="M1448.85 768.774L1463.69 783.785C1476.89 764.317 1486.82 742.826 1493.09 720.159L1468.75 724.822C1464.45 740.421 1457.74 755.251 1448.85 768.774Z" fill="black"/>
<path opacity="0.2" d="M1411.09 807.04V836.266C1429.65 824.24 1445.76 808.805 1458.57 790.779L1443.73 775.995C1434.8 788.213 1423.74 798.729 1411.09 807.04Z" fill="black"/>
<path opacity="0.2" d="M1495.02 654.487L1470.97 677.23C1472.56 683.24 1473.34 689.436 1473.3 695.653C1473.24 702.764 1472.46 709.851 1470.97 716.804L1495.02 711.971C1497.29 701.834 1498.47 691.484 1498.54 681.097C1498.62 672.105 1497.43 663.148 1495.02 654.487Z" fill="black"/>
</g>
<path d="M1404.78 660.116V630.89C1386.21 642.899 1370.1 658.337 1357.31 676.377L1372.15 691.388C1381.04 679.074 1392.1 668.477 1404.78 660.116Z" fill="#FAFAFA"/>
<path d="M1367.09 698.382L1352.25 683.371C1339.02 702.804 1329.09 724.281 1322.85 746.94L1346.9 742.107C1351.29 726.563 1358.1 711.807 1367.09 698.382Z" fill="#FAFAFA"/>
<path d="M1342.58 771.276C1342.66 764.163 1343.46 757.076 1344.97 750.124L1320.92 755.014C1318.65 765.132 1317.47 775.463 1317.39 785.832C1317.3 794.899 1318.49 803.933 1320.92 812.669L1344.97 789.926C1343.34 783.844 1342.54 777.571 1342.58 771.276Z" fill="#FAFAFA"/>
<path d="M1346.9 795.555L1322.85 818.299C1325.16 825.153 1329.01 831.388 1334.11 836.523C1339.2 841.658 1345.41 845.557 1352.25 847.922L1367.09 815.797C1362.46 814.084 1358.26 811.387 1354.77 807.892C1351.29 804.397 1348.6 800.188 1346.9 795.555Z" fill="#FAFAFA"/>
<path d="M1353.89 764.623C1353.89 730.11 1378.12 688.204 1407.97 670.976C1437.82 653.747 1462.04 667.678 1462.04 702.192C1462.04 736.705 1437.82 778.611 1407.97 795.839C1378.12 813.067 1353.89 799.251 1353.89 764.623Z" fill="#B03A2E"/>
<path opacity="0.2" d="M1353.89 764.623C1353.89 730.11 1378.12 688.204 1407.97 670.976C1437.82 653.747 1462.04 667.678 1462.04 702.192C1462.04 736.705 1437.82 778.611 1407.97 795.839C1378.12 813.067 1353.89 799.251 1353.89 764.623Z" fill="black"/>
<path d="M1402.62 715.781C1402.74 717.997 1402.74 720.217 1402.62 722.434C1402.52 724.262 1402.21 726.073 1401.71 727.835C1401.23 729.676 1400.48 731.438 1399.5 733.066C1397.38 736.713 1394.34 739.735 1390.68 741.823C1389.1 742.819 1387.35 743.495 1385.51 743.813C1384.27 744.06 1382.98 743.859 1381.87 743.244C1380.87 742.606 1380.09 741.672 1379.65 740.572C1379.11 739.193 1378.8 737.732 1378.74 736.25C1378.74 735.113 1378.74 734.033 1378.74 733.009C1378.74 731.986 1378.74 730.849 1378.74 729.541C1378.83 727.618 1379.14 725.711 1379.65 723.855C1380.17 722.045 1380.92 720.307 1381.87 718.681C1382.87 716.922 1384.1 715.298 1385.51 713.848C1387.05 712.314 1388.79 710.995 1390.68 709.924C1392.27 708.929 1394.02 708.235 1395.86 707.878C1397.11 707.675 1398.39 707.895 1399.5 708.503C1400.5 709.141 1401.27 710.075 1401.71 711.175C1402.26 712.652 1402.57 714.207 1402.62 715.781ZM1421.61 694.459C1421.9 693.795 1422.26 693.165 1422.69 692.582C1423.14 692.015 1423.7 691.55 1424.34 691.218L1430.6 687.636C1430.77 687.48 1430.98 687.372 1431.21 687.322C1431.44 687.272 1431.68 687.282 1431.91 687.351C1432.25 687.351 1432.42 687.806 1432.42 688.318C1432.44 688.469 1432.44 688.622 1432.42 688.773C1432.44 689 1432.44 689.228 1432.42 689.455L1394.83 768.205C1394.51 768.846 1394.13 769.456 1393.7 770.025C1393.26 770.595 1392.72 771.077 1392.1 771.446L1385.85 775.028C1385.64 775.125 1385.42 775.175 1385.2 775.175C1384.97 775.175 1384.75 775.125 1384.54 775.028C1384.2 775.028 1384.03 774.574 1384.03 774.062C1384.03 773.55 1384.03 773.778 1384.03 773.55C1384.03 773.323 1384.03 773.152 1384.03 772.925L1421.61 694.459ZM1387.5 730.678C1387.48 731.737 1387.75 732.781 1388.29 733.692C1388.69 734.203 1389.49 734.09 1390.63 733.692C1391.63 733.147 1392.43 732.288 1392.9 731.247C1393.41 729.997 1393.69 728.67 1393.75 727.323C1393.86 725.43 1393.86 723.531 1393.75 721.637C1393.76 720.59 1393.47 719.561 1392.9 718.681C1392.5 718.169 1391.71 718.226 1390.63 718.681C1389.59 719.205 1388.77 720.068 1388.29 721.126C1387.81 722.379 1387.54 723.706 1387.5 725.049C1387.36 726.867 1387.38 728.693 1387.55 730.508L1387.5 730.678ZM1437.82 726.129C1437.93 728.364 1437.93 730.604 1437.82 732.839C1437.7 734.643 1437.42 736.432 1436.97 738.184C1435.96 741.952 1434 745.398 1431.28 748.191C1429.76 749.759 1428.01 751.1 1426.11 752.171C1424.53 753.167 1422.77 753.844 1420.93 754.161C1419.69 754.435 1418.39 754.232 1417.29 753.592C1416.29 752.955 1415.52 752.02 1415.07 750.92C1414.53 749.541 1414.22 748.08 1414.17 746.599C1414.17 745.462 1414.17 744.381 1414.17 743.415C1414.17 742.448 1414.17 741.197 1414.17 739.889C1414.27 738.08 1414.58 736.288 1415.07 734.545C1415.6 732.717 1416.34 730.96 1417.29 729.313C1418.28 727.564 1419.51 725.957 1420.93 724.537C1422.46 722.969 1424.2 721.628 1426.11 720.557C1427.68 719.561 1429.44 718.884 1431.28 718.567C1432.52 718.293 1433.82 718.496 1434.92 719.136C1435.92 719.773 1436.69 720.708 1437.14 721.808C1437.62 723.197 1437.87 724.658 1437.88 726.129H1437.82ZM1422.75 741.083C1422.75 742.121 1423.03 743.14 1423.55 744.04C1424 744.552 1424.74 744.495 1425.88 744.04C1426.9 743.499 1427.72 742.641 1428.21 741.595C1428.67 740.334 1428.94 739.012 1429.01 737.672C1429.11 735.778 1429.11 733.88 1429.01 731.986C1429 730.948 1428.73 729.929 1428.21 729.029C1427.75 728.517 1427.02 728.574 1425.88 729.029C1424.86 729.571 1424.04 730.429 1423.55 731.474C1423.09 732.735 1422.82 734.058 1422.75 735.397C1422.61 737.291 1422.62 739.193 1422.81 741.083H1422.75Z" fill="#FAFAFA"/>
<path d="M1636.09 765.192V438.534L1918.91 275.234V601.892L1636.09 765.192ZM1641.77 441.832V755.298L1913.22 598.594V285.128L1641.77 441.832Z" fill="#FAFAFA"/>
<path d="M1774.37 446.722V417.781C1755.78 429.784 1739.65 445.223 1726.84 463.268L1741.73 478.336C1750.59 465.894 1761.65 455.179 1774.37 446.722Z" fill="#FAFAFA"/>
<path d="M1736.62 485.045L1721.77 470.035C1708.54 489.461 1698.61 510.94 1692.38 533.603L1716.43 528.713C1720.86 513.201 1727.67 498.469 1736.62 485.045Z" fill="#FAFAFA"/>
<path d="M1813.26 436.488L1828.16 404.248C1811.67 401.921 1794.89 405.334 1780.62 413.914V443.083C1790.48 437.353 1801.95 435.034 1813.26 436.488Z" fill="#B03A2E"/>
<path d="M1838.34 458.208L1862.39 435.464C1860.07 428.613 1856.21 422.383 1851.12 417.249C1846.02 412.115 1839.82 408.213 1832.99 405.84L1818.15 437.966C1822.78 439.679 1826.98 442.376 1830.47 445.871C1833.95 449.365 1836.64 453.575 1838.34 458.208Z" fill="#B03A2E"/>
<path d="M1741.68 603.939L1726.84 636.121C1740.48 638.907 1756.8 636.121 1774.37 626.512V597.343C1764.5 603.086 1753 605.405 1741.68 603.939Z" fill="#B03A2E"/>
<path d="M1864.55 441.093L1840.5 463.837C1842.11 469.863 1842.91 476.078 1842.89 482.316C1842.8 489.429 1842 496.516 1840.5 503.468L1864.55 498.635C1866.81 488.497 1868 478.148 1868.07 467.76C1868.15 458.75 1866.96 449.774 1864.55 441.093Z" fill="#B03A2E"/>
<path d="M1818.38 555.381L1833.22 570.391C1846.44 550.959 1856.37 529.482 1862.62 506.823L1838.56 511.713C1834.14 527.225 1827.33 541.957 1818.38 555.381Z" fill="#B03A2E"/>
<path d="M1712.11 557.939C1712.19 550.826 1712.99 543.739 1714.5 536.788L1690.45 541.621C1688.18 551.758 1687 562.108 1686.92 572.495C1686.83 581.544 1688.02 590.56 1690.45 599.276L1714.5 576.532C1712.88 570.468 1712.08 564.215 1712.11 557.939Z" fill="#B03A2E"/>
<path d="M1716.43 582.161L1692.38 604.905C1694.7 611.756 1698.55 617.986 1703.65 623.12C1708.74 628.254 1714.94 632.156 1721.77 634.529L1736.62 602.403C1731.99 600.69 1727.79 597.993 1724.3 594.498C1720.82 591.004 1718.13 586.795 1716.43 582.161Z" fill="#B03A2E"/>
<path d="M1780.62 593.704V622.873C1799.19 610.953 1815.32 595.613 1828.16 577.669L1813.32 562.602C1804.38 574.853 1793.31 585.389 1780.62 593.704Z" fill="#B03A2E"/>
<g opacity="0.2">
<path opacity="0.2" d="M1813.26 436.488L1828.16 404.248C1811.67 401.921 1794.89 405.334 1780.62 413.914V443.083C1790.48 437.353 1801.95 435.034 1813.26 436.488Z" fill="black"/>
<path opacity="0.2" d="M1838.34 458.208L1862.39 435.464C1860.07 428.613 1856.21 422.383 1851.12 417.249C1846.02 412.115 1839.82 408.213 1832.99 405.84L1818.15 437.966C1822.78 439.679 1826.98 442.376 1830.47 445.871C1833.95 449.365 1836.64 453.575 1838.34 458.208Z" fill="black"/>
<path opacity="0.2" d="M1741.68 603.939L1726.84 636.121C1740.48 638.907 1756.8 636.121 1774.37 626.512V597.343C1764.5 603.086 1753 605.405 1741.68 603.939Z" fill="black"/>
<path opacity="0.2" d="M1864.55 441.093L1840.5 463.837C1842.11 469.864 1842.91 476.078 1842.89 482.316C1842.8 489.429 1842 496.516 1840.5 503.468L1864.55 498.635C1866.81 488.497 1868 478.148 1868.07 467.76C1868.15 458.75 1866.96 449.774 1864.55 441.093Z" fill="black"/>
<path opacity="0.2" d="M1818.38 555.381L1833.22 570.391C1846.44 550.959 1856.37 529.482 1862.62 506.823L1838.56 511.713C1834.14 527.226 1827.33 541.957 1818.38 555.381Z" fill="black"/>
<path opacity="0.2" d="M1712.11 557.939C1712.19 550.826 1712.99 543.739 1714.5 536.788L1690.45 541.621C1688.18 551.758 1687 562.108 1686.92 572.495C1686.83 581.544 1688.02 590.56 1690.45 599.276L1714.5 576.532C1712.88 570.468 1712.08 564.215 1712.11 557.939Z" fill="black"/>
<path opacity="0.2" d="M1716.43 582.161L1692.38 604.905C1694.7 611.756 1698.55 617.986 1703.65 623.12C1708.74 628.254 1714.94 632.156 1721.77 634.529L1736.62 602.403C1731.99 600.69 1727.79 597.993 1724.3 594.498C1720.82 591.004 1718.13 586.795 1716.43 582.161Z" fill="black"/>
<path opacity="0.2" d="M1780.62 593.704V622.873C1799.19 610.953 1815.32 595.613 1828.16 577.669L1813.32 562.602C1804.38 574.853 1793.31 585.389 1780.62 593.704Z" fill="black"/>
</g>
<path d="M1723.42 551.4C1723.42 516.944 1747.65 475.038 1777.5 457.753C1807.35 440.468 1831.57 454.512 1831.57 488.969C1831.57 523.426 1807.35 565.615 1777.5 582.673C1747.65 599.731 1723.42 585.914 1723.42 551.4Z" fill="#B03A2E"/>
<path opacity="0.2" d="M1723.42 551.4C1723.42 516.944 1747.65 475.038 1777.5 457.753C1807.35 440.468 1831.57 454.512 1831.57 488.969C1831.57 523.426 1807.35 565.615 1777.5 582.673C1747.65 599.731 1723.42 585.914 1723.42 551.4Z" fill="black"/>
<path d="M1772.15 502.444C1772.27 504.661 1772.27 506.881 1772.15 509.097C1772.03 510.92 1771.75 512.728 1771.3 514.499C1770.77 516.304 1770.02 518.041 1769.08 519.673C1768.05 521.43 1766.81 523.053 1765.39 524.506C1763.84 526.039 1762.1 527.359 1760.21 528.429C1758.62 529.415 1756.87 530.109 1755.04 530.476C1753.8 530.696 1752.51 530.496 1751.4 529.908C1750.4 529.27 1749.62 528.335 1749.18 527.235C1748.64 525.836 1748.33 524.357 1748.27 522.857C1748.22 521.796 1748.22 520.734 1748.27 519.673C1748.27 518.649 1748.27 517.512 1748.27 516.204C1748.38 514.376 1748.68 512.566 1749.18 510.803C1749.71 508.979 1750.46 507.223 1751.4 505.572C1752.39 503.822 1753.61 502.215 1755.04 500.796C1756.58 499.262 1758.32 497.942 1760.21 496.872C1761.8 495.886 1763.55 495.193 1765.39 494.825C1766.63 494.606 1767.91 494.806 1769.02 495.394C1770.02 496.032 1770.8 496.966 1771.24 498.066C1771.79 499.465 1772.09 500.945 1772.15 502.444ZM1791.14 481.122C1791.45 480.469 1791.81 479.842 1792.22 479.246C1792.68 478.691 1793.24 478.228 1793.87 477.881L1800.13 474.242C1800.51 473.979 1800.98 473.877 1801.43 473.958C1801.78 473.958 1801.95 474.413 1801.95 474.981C1801.95 475.55 1801.95 474.981 1801.95 475.436C1801.97 475.663 1801.97 475.892 1801.95 476.119L1764.42 554.812C1764.11 555.465 1763.75 556.092 1763.34 556.688C1762.89 557.256 1762.33 557.721 1761.69 558.053L1755.44 561.692C1755.25 561.825 1755.04 561.919 1754.81 561.968C1754.59 562.017 1754.35 562.02 1754.13 561.976C1753.79 561.976 1753.62 561.521 1753.62 560.953C1753.6 560.802 1753.6 560.649 1753.62 560.498C1753.59 560.271 1753.59 560.042 1753.62 559.816L1791.14 481.122ZM1757.03 517.342C1757.02 518.381 1757.29 519.404 1757.82 520.298C1758.28 520.81 1759.02 520.753 1760.15 520.298C1761.17 519.723 1761.98 518.85 1762.49 517.796C1762.94 516.555 1763.21 515.252 1763.28 513.93C1763.39 512.036 1763.39 510.138 1763.28 508.244C1763.29 507.204 1763.02 506.182 1762.49 505.287C1762.03 504.776 1761.29 504.833 1760.15 505.287C1759.14 505.862 1758.33 506.736 1757.82 507.789C1757.37 509.031 1757.1 510.334 1757.03 511.656C1756.94 513.55 1756.96 515.449 1757.08 517.342H1757.03ZM1807.35 512.793C1807.52 515.007 1807.52 517.231 1807.35 519.445C1807.25 521.364 1806.97 523.269 1806.5 525.131C1805.95 526.952 1805.21 528.706 1804.28 530.362C1803.26 532.112 1802.02 533.718 1800.58 535.139C1799.03 536.674 1797.29 538.01 1795.41 539.119C1793.82 540.1 1792.07 540.775 1790.23 541.109C1788.99 541.356 1787.7 541.155 1786.59 540.54C1785.59 539.902 1784.82 538.968 1784.38 537.868C1783.87 536.479 1783.56 535.024 1783.47 533.547C1783.47 532.409 1783.47 531.329 1783.47 530.306C1783.47 529.282 1783.47 528.145 1783.47 526.837C1783.6 525.012 1783.91 523.204 1784.38 521.435C1784.91 519.612 1785.65 517.856 1786.59 516.204C1787.61 514.474 1788.84 512.87 1790.23 511.428C1791.79 509.908 1793.52 508.59 1795.41 507.505C1797 506.519 1798.75 505.825 1800.58 505.458C1801.82 505.239 1803.1 505.439 1804.22 506.027C1805.22 506.664 1806 507.599 1806.44 508.699C1806.97 510.007 1807.29 511.387 1807.41 512.793H1807.35ZM1792.28 527.69C1792.27 528.73 1792.55 529.753 1793.08 530.647C1793.53 531.159 1794.33 531.102 1795.41 530.647C1796.45 530.101 1797.27 529.219 1797.74 528.145C1798.23 526.912 1798.5 525.604 1798.53 524.278C1798.7 522.387 1798.7 520.484 1798.53 518.593C1798.57 517.55 1798.29 516.521 1797.74 515.636C1797.28 515.124 1796.54 515.181 1795.41 515.636C1794.39 516.211 1793.58 517.084 1793.08 518.138C1792.62 519.381 1792.36 520.683 1792.28 522.004C1792.19 523.899 1792.21 525.797 1792.34 527.69H1792.28Z" fill="#FAFAFA"/>
<path d="M899.815 1267.09V1587.15L1177 1427.09V1107.09L899.815 1267.09Z" fill="#B03A2E"/>
<path opacity="0.7" d="M899.815 1267.09V1587.15L1177 1427.09V1107.09L899.815 1267.09Z" fill="#FAFAFA"/>
<path d="M899.815 1351.7C909.197 1355.34 921.308 1353.86 934.499 1346.01C964.35 1328.95 988.572 1286.82 988.572 1252.36C989.294 1241.16 985.553 1230.12 978.167 1221.66L899.815 1266.86V1351.7Z" fill="#B03A2E"/>
<path d="M1021.89 1359.6C1024.62 1350.62 1030.02 1350.22 1033.95 1358.8L1073.07 1444.09L1131.35 1223.42C1133.79 1214.32 1137.83 1214.27 1140.33 1223.42L1177 1353.69V1427.15L963.952 1550.19L1021.89 1359.6Z" fill="#B03A2E"/>
<g opacity="0.2">
<path opacity="0.2" d="M899.815 1351.7C909.197 1355.34 921.308 1353.86 934.499 1346.01C964.35 1328.95 988.572 1286.82 988.572 1252.36C989.294 1241.16 985.553 1230.12 978.167 1221.66L899.815 1266.86V1351.7Z" fill="black"/>
<path opacity="0.2" d="M1021.89 1359.6C1024.62 1350.62 1030.02 1350.22 1033.95 1358.8L1073.07 1444.09L1131.35 1223.42C1133.79 1214.32 1137.83 1214.27 1140.33 1223.42L1177 1353.69V1427.15L963.952 1550.19L1021.89 1359.6Z" fill="black"/>
</g>
<path d="M1171.32 1117.15V1424.19L905.501 1577.71V1270.67L1171.32 1117.15ZM1177 1107.31L899.815 1267.32V1587.38L1177 1427.32V1107.09V1107.31Z" fill="#B03A2E"/>
<path opacity="0.7" d="M1171.32 1117.15V1424.19L905.501 1577.71V1270.67L1171.32 1117.15ZM1177 1107.31L899.815 1267.32V1587.38L1177 1427.32V1107.09V1107.31Z" fill="#FAFAFA"/>
<path d="M1269.4 1053.75V1373.76L1546.53 1213.76V893.751L1269.4 1053.75Z" fill="#B03A2E"/>
<path opacity="0.7" d="M1269.4 1053.75V1373.76L1546.53 1213.76V893.751L1269.4 1053.75Z" fill="#FAFAFA"/>
<path d="M1269.4 1138.36C1278.78 1142 1290.84 1140.46 1304.03 1132.67C1333.88 1115.62 1358.1 1073.48 1358.1 1038.97C1358.81 1027.78 1355.07 1016.76 1347.7 1008.32L1269.4 1053.53V1138.36Z" fill="#B03A2E"/>
<path d="M1391.42 1146.26C1394.21 1137.22 1399.61 1136.88 1403.53 1145.41L1442.6 1230.7L1500.93 1010.03C1503.32 1000.93 1507.36 1000.87 1509.92 1010.03L1546.53 1140.24V1213.81L1333.48 1336.8L1391.42 1146.26Z" fill="#B03A2E"/>
<g opacity="0.2">
<path opacity="0.2" d="M1269.4 1138.36C1278.78 1142 1290.84 1140.46 1304.03 1132.67C1333.88 1115.62 1358.1 1073.48 1358.1 1038.97C1358.81 1027.78 1355.07 1016.76 1347.7 1008.32L1269.4 1053.53V1138.36Z" fill="black"/>
<path opacity="0.2" d="M1391.42 1146.26C1394.21 1137.22 1399.61 1136.88 1403.53 1145.41L1442.6 1230.7L1500.93 1010.03C1503.32 1000.93 1507.36 1000.87 1509.92 1010.03L1546.53 1140.24V1213.81L1333.48 1336.8L1391.42 1146.26Z" fill="black"/>
</g>
<path d="M1540.85 903.588V1210.63L1275.09 1364.15V1057.11L1540.85 903.588ZM1546.53 893.694L1269.4 1053.75V1373.76L1546.53 1213.81V893.694Z" fill="#B03A2E"/>
<path opacity="0.7" d="M1540.85 903.588V1210.63L1275.09 1364.15V1057.11L1540.85 903.588ZM1546.53 893.694L1269.4 1053.75V1373.76L1546.53 1213.81V893.694Z" fill="#FAFAFA"/>
<path d="M1638.93 840.36V1160.42L1916.06 1000.42V680.357L1638.93 840.36Z" fill="#B03A2E"/>
<path opacity="0.7" d="M1638.93 840.36V1160.42L1916.06 1000.42V680.357L1638.93 840.36Z" fill="#FAFAFA"/>
<path d="M1638.93 925.024C1648.31 928.663 1660.37 927.127 1673.56 919.338C1703.41 902.28 1727.63 860.204 1727.63 825.69C1728.34 814.485 1724.6 803.452 1717.23 794.986L1638.93 840.189V925.024Z" fill="#B03A2E"/>
<path d="M1760.95 932.87C1763.74 923.886 1769.14 923.545 1773.06 932.074L1812.12 1017.36L1870.46 796.635C1872.85 787.538 1876.89 787.538 1879.45 796.635L1916.06 926.9V1000.42L1703.01 1123.41L1760.95 932.87Z" fill="#B03A2E"/>
<g opacity="0.2">
<path opacity="0.2" d="M1638.93 925.024C1648.31 928.663 1660.37 927.128 1673.56 919.338C1703.41 902.28 1727.63 860.204 1727.63 825.69C1728.34 814.485 1724.6 803.452 1717.23 794.986L1638.93 840.189V925.024Z" fill="black"/>
<path opacity="0.2" d="M1760.95 932.87C1763.74 923.886 1769.14 923.545 1773.06 932.074L1812.12 1017.36L1870.46 796.635C1872.85 787.538 1876.89 787.538 1879.45 796.635L1916.06 926.9V1000.42L1703.01 1123.41L1760.95 932.87Z" fill="black"/>
</g>
<path d="M1910.38 690.194V997.235L1644.62 1150.76V843.715L1910.38 690.194ZM1916.06 680.357L1638.93 840.36V1160.42L1916.06 1000.42V680.357Z" fill="#B03A2E"/>
<path opacity="0.7" d="M1910.38 690.194V997.235L1644.62 1150.76V843.715L1910.38 690.194ZM1916.06 680.357L1638.93 840.36V1160.42L1916.06 1000.42V680.357Z" fill="#FAFAFA"/>
<path d="M1881.44 789.869L1963.09 811.646L1935.57 827.169L1985.49 863.729L1979.01 873.736L1927.61 836.948L1920.78 866.97L1881.44 789.869Z" fill="#263238"/>
<path d="M2305.49 588.757L2127.18 691.673C2122.88 694.474 2119.3 698.251 2116.73 702.697C2114.16 707.143 2112.68 712.132 2112.4 717.259V861.284L2066.91 908.25C2060.37 915.016 2062.65 919.622 2071.97 918.485L2112.17 913.765V976.652C2112.17 986.034 2118.77 989.9 2126.95 985.181L2305.27 882.208C2309.57 879.41 2313.16 875.634 2315.72 871.188C2318.29 866.741 2319.78 861.75 2320.05 856.622V597.286C2320.28 587.847 2313.68 584.038 2305.49 588.757Z" fill="#37474F"/>
<path d="M2171.82 746.03L2164.31 745.462C2154.42 744.666 2142.65 740.742 2142.65 726.584C2142.93 721.371 2144.44 716.298 2147.05 711.775C2149.66 707.251 2153.29 703.404 2157.66 700.543C2164.14 696.847 2169.66 698.382 2171.76 703.727C2173.9 695.729 2178.92 688.804 2185.86 684.281C2194.16 679.505 2200.87 683.371 2200.87 692.98C2200.87 706.854 2189.16 724.424 2179.32 736.705L2171.82 746.03Z" fill="#FAFAFA"/>
<path d="M2242.66 664.835L2282.46 642.091C2290.6 637.372 2297.25 639.533 2297.25 646.924C2296.63 651.457 2294.98 655.786 2292.41 659.573C2289.85 663.361 2286.44 666.504 2282.46 668.758L2242.66 691.502C2234.48 696.221 2227.88 694.061 2227.88 686.669C2228.48 682.132 2230.13 677.798 2232.7 674.009C2235.26 670.22 2238.67 667.079 2242.66 664.835Z" fill="#FAFAFA"/>
<path d="M2157.37 792.314L2197.18 769.57C2205.36 764.851 2211.96 767.011 2211.96 774.346C2211.37 778.893 2209.72 783.238 2207.15 787.038C2204.59 790.838 2201.17 793.987 2197.18 796.237L2157.37 818.981C2149.24 823.7 2142.65 821.539 2142.65 814.205C2143.24 809.666 2144.88 805.327 2147.44 801.529C2149.99 797.731 2153.39 794.577 2157.37 792.314Z" fill="#FAFAFA"/>
<path d="M2157.37 847.922L2282.46 775.768C2290.6 771.048 2297.25 773.209 2297.25 780.544C2296.64 785.086 2294.99 789.427 2292.43 793.225C2289.86 797.022 2286.45 800.175 2282.46 802.435L2157.37 874.589C2149.24 879.309 2142.65 877.148 2142.65 869.813C2143.24 865.274 2144.88 860.936 2147.44 857.138C2149.99 853.34 2153.39 850.185 2157.37 847.922Z" fill="#FAFAFA"/>
<path d="M2157.37 899.835L2282.46 827.68C2290.6 822.961 2297.25 825.122 2297.25 832.513C2296.63 837.046 2294.98 841.375 2292.41 845.162C2289.85 848.95 2286.44 852.093 2282.46 854.347L2157.37 926.502C2149.24 931.221 2142.65 929.061 2142.65 921.726C2143.24 917.187 2144.88 912.849 2147.44 909.05C2149.99 905.252 2153.39 902.098 2157.37 899.835Z" fill="#FAFAFA"/>
<path d="M287.78 1940.36L564.913 2100.36L842.102 1940.36L564.913 1780.3L287.78 1940.36Z" fill="#B03A2E"/>
<path opacity="0.7" d="M287.78 1940.36L564.913 2100.36L842.102 1940.36L564.913 1780.3L287.78 1940.36Z" fill="#FAFAFA"/>
<path d="M361.072 1982.67C377.574 1982.12 393.726 1977.76 408.265 1969.93C438.116 1952.87 438.116 1924.44 408.265 1907.38C395.25 1900.29 380.861 1896.08 366.075 1895.05L287.78 1940.36L361.072 1982.67Z" fill="#B03A2E"/>
<path d="M550.982 1951.39C547.286 1946.05 555.076 1944.34 568.381 1947.47L701.148 1978.86L597.493 1851.66C593.229 1846.43 599.199 1845.24 610.912 1849.05L778.704 1903.63L842.33 1940.36L629.277 2063.35L550.982 1951.39Z" fill="#B03A2E"/>
<g opacity="0.2">
<path opacity="0.2" d="M361.072 1982.67C377.574 1982.12 393.726 1977.76 408.265 1969.93C438.116 1952.87 438.116 1924.44 408.265 1907.38C395.25 1900.29 380.861 1896.08 366.075 1895.05L287.78 1940.36L361.072 1982.67Z" fill="black"/>
<path opacity="0.2" d="M550.982 1951.39C547.286 1946.05 555.076 1944.34 568.381 1947.47L701.148 1978.86L597.493 1851.66C593.229 1846.43 599.199 1845.24 610.912 1849.05L778.704 1903.63L842.33 1940.36L629.277 2063.35L550.982 1951.39Z" fill="black"/>
</g>
<path d="M564.685 1786.9L830.503 1940.42L564.685 2093.94L298.924 1940.42L564.685 1786.9ZM564.685 1780.36L287.78 1940.36L564.685 2100.36L841.875 1940.36L564.685 1780.36Z" fill="#B03A2E"/>
<path opacity="0.7" d="M564.685 1786.9L830.503 1940.42L564.685 2093.94L298.924 1940.42L564.685 1786.9ZM564.685 1780.36L287.78 1940.36L564.685 2100.36L841.875 1940.36L564.685 1780.36Z" fill="#FAFAFA"/>
<path d="M287.78 1940.36V1967.03L564.913 2127.03V2100.36L287.78 1940.36Z" fill="#B03A2E"/>
<path opacity="0.6" d="M287.78 1940.36V1967.03L564.913 2127.03V2100.36L287.78 1940.36Z" fill="#FAFAFA"/>
<path d="M842.102 1940.36L564.913 2100.36V2127.03L842.102 1967.03V1940.36Z" fill="#B03A2E"/>
<path opacity="0.1" d="M842.102 1940.36L564.913 2100.36V2127.03L842.102 1967.03V1940.36Z" fill="#FAFAFA"/>
<path d="M2435.76 1340.72L2158.57 1180.72L1881.44 1340.72L2158.57 1500.73L2435.76 1340.72Z" fill="#263238"/>
<path d="M2158.57 1180.72L1881.44 1340.72V1554.06L2158.57 1714.12V1180.72Z" fill="#263238"/>
<path d="M1950.75 1594.09L1904.58 1274.08L2181.71 1114.08L2227.94 1434.09L1950.75 1594.09Z" fill="#B03A2E"/>
<path opacity="0.7" d="M1950.75 1594.09L1904.58 1274.08L2181.71 1114.08L2227.94 1434.09L1950.75 1594.09Z" fill="#FAFAFA"/>
<path d="M1904.58 1274.08L1877.85 1268.28L1922.54 1577.83L1950.75 1594.09L1904.58 1274.08Z" fill="#B03A2E"/>
<path opacity="0.1" d="M1904.58 1274.08L1877.85 1268.28L1922.54 1577.83L1950.75 1594.09L1904.58 1274.08Z" fill="#FAFAFA"/>
<path d="M2155.04 1108.28L2181.71 1114.08L1904.58 1274.08L1877.85 1268.28L2155.04 1108.28Z" fill="#B03A2E"/>
<path opacity="0.6" d="M2155.04 1108.28L2181.71 1114.08L1904.58 1274.08L1877.85 1268.28L2155.04 1108.28Z" fill="#FAFAFA"/>
<path d="M1987.25 1271.7C1985.82 1265.01 1982.93 1258.72 1978.79 1253.28C1974.66 1247.83 1969.37 1243.37 1963.31 1240.2L1904.58 1274.31L1913.33 1334.92C1918.9 1337.76 1924.97 1339.45 1931.2 1339.91C1937.43 1340.37 1943.69 1339.58 1949.61 1337.6C1962.9 1333.17 1974.09 1324.01 1981.03 1311.84C1987.98 1299.68 1990.19 1285.39 1987.25 1271.7Z" fill="#B03A2E"/>
<path opacity="0.2" d="M1987.25 1271.7C1985.82 1265.01 1982.93 1258.72 1978.79 1253.28C1974.66 1247.83 1969.37 1243.37 1963.31 1240.2L1904.58 1274.31L1913.33 1334.92C1918.9 1337.76 1924.97 1339.45 1931.2 1339.91C1937.43 1340.37 1943.69 1339.58 1949.61 1337.6C1962.9 1333.17 1974.09 1324.01 1981.03 1311.84C1987.98 1299.68 1990.19 1285.39 1987.25 1271.7Z" fill="black"/>
<path d="M2049.97 1285.06C2051.73 1275.79 2056.51 1275.16 2060.66 1283.64L2101.48 1367.33L2132.64 1188.17C2134.23 1178.9 2139.12 1178.1 2143.56 1186.41L2210.14 1310.87L2227.94 1433.97L1996.97 1567.42C1996.52 1564.92 2037.97 1347.72 2049.97 1285.06Z" fill="#B03A2E"/>
<path opacity="0.2" d="M2049.97 1285.06C2051.73 1275.79 2056.51 1275.16 2060.66 1283.64L2101.48 1367.33L2132.64 1188.17C2134.23 1178.9 2139.12 1178.1 2143.56 1186.41L2210.14 1310.87L2227.94 1433.97L1996.97 1567.42C1996.52 1564.92 2037.97 1347.72 2049.97 1285.06Z" fill="black"/>
<path d="M2177.27 1123.18L2221.74 1431.07L1955.18 1584.99L1910.72 1277.1L2177.27 1123.18ZM2181.71 1114.08L1904.58 1274.08L1950.75 1594.09L2227.94 1434.09L2181.71 1114.08Z" fill="#B03A2E"/>
<path opacity="0.7" d="M2177.27 1123.18L2221.74 1431.07L1955.18 1584.99L1910.72 1277.1L2177.27 1123.18ZM2181.71 1114.08L1904.58 1274.08L1950.75 1594.09L2227.94 1434.09L2181.71 1114.08Z" fill="#FAFAFA"/>
<path d="M2043.14 1647.42L1996.92 1327.42L2274.11 1167.42L2320.28 1487.42L2043.14 1647.42Z" fill="#B03A2E"/>
<path opacity="0.7" d="M2043.14 1647.42L1996.92 1327.42L2274.11 1167.42L2320.28 1487.42L2043.14 1647.42Z" fill="#FAFAFA"/>
<path d="M1996.92 1327.42L1970.25 1321.62L2014.94 1631.16L2043.14 1647.42L1996.92 1327.42Z" fill="#B03A2E"/>
<path opacity="0.1" d="M1996.92 1327.42L1970.25 1321.62L2014.94 1631.16L2043.14 1647.42L1996.92 1327.42Z" fill="#FAFAFA"/>
<path d="M2247.38 1161.62L2274.11 1167.42L1996.92 1327.42L1970.25 1321.62L2247.38 1161.62Z" fill="#B03A2E"/>
<path opacity="0.6" d="M2247.38 1161.62L2274.11 1167.42L1996.92 1327.42L1970.25 1321.62L2247.38 1161.62Z" fill="#FAFAFA"/>
<path d="M2079.59 1325.03C2078.17 1318.33 2075.29 1312.03 2071.15 1306.58C2067.01 1301.12 2061.72 1296.65 2055.65 1293.47L1996.92 1327.59L2005.67 1388.2C2011.24 1391.03 2017.31 1392.73 2023.54 1393.19C2029.77 1393.65 2036.03 1392.86 2041.95 1390.87C2055.23 1386.45 2066.41 1377.29 2073.35 1365.14C2080.3 1353 2082.52 1338.71 2079.59 1325.03Z" fill="#B03A2E"/>
<path opacity="0.2" d="M2079.59 1325.03C2078.17 1318.33 2075.29 1312.03 2071.15 1306.58C2067.01 1301.12 2061.72 1296.65 2055.65 1293.47L1996.92 1327.59L2005.67 1388.2C2011.24 1391.03 2017.31 1392.73 2023.54 1393.19C2029.77 1393.65 2036.03 1392.86 2041.95 1390.87C2055.23 1386.45 2066.41 1377.29 2073.35 1365.14C2080.3 1353 2082.52 1338.71 2079.59 1325.03Z" fill="black"/>
<path d="M2142.36 1338.39C2144.13 1329.12 2148.9 1328.5 2153.05 1336.97L2193.88 1420.72L2224.98 1241.62C2226.57 1232.29 2231.52 1231.55 2235.95 1239.85L2302.54 1364.32L2320.28 1487.42L2089.31 1620.76C2088.86 1618.25 2130.37 1401.05 2142.36 1338.39Z" fill="#B03A2E"/>
<path opacity="0.2" d="M2142.36 1338.39C2144.13 1329.12 2148.9 1328.5 2153.05 1336.97L2193.88 1420.72L2224.98 1241.62C2226.57 1232.29 2231.52 1231.55 2235.95 1239.85L2302.54 1364.32L2320.28 1487.42L2089.31 1620.76C2088.86 1618.25 2130.37 1401.05 2142.36 1338.39Z" fill="black"/>
<path d="M2269.67 1176.51L2314.14 1484.41L2047.58 1638.33L2003.23 1330.43L2269.79 1176.51H2269.67ZM2274.22 1167.42L1996.92 1327.53L2043.03 1647.42L2320.16 1487.42L2273.99 1167.42H2274.22Z" fill="#B03A2E"/>
<path opacity="0.7" d="M2269.67 1176.51L2314.14 1484.41L2047.58 1638.33L2003.23 1330.43L2269.79 1176.51H2269.67ZM2274.22 1167.42L1996.92 1327.53L2043.03 1647.42L2320.16 1487.42L2273.99 1167.42H2274.22Z" fill="#FAFAFA"/>
<path d="M2158.57 1714.12L2435.76 1554.12V1340.72L2158.57 1500.73V1714.12Z" fill="#37474F"/>
<path d="M2158.63 1500.73L1881.44 1340.72V1554.06L2158.63 1714.18V1500.73ZM2039.9 1485.54L2000.1 1462.8C1996.11 1460.55 1992.69 1457.4 1990.12 1453.6C1987.56 1449.8 1985.91 1445.46 1985.32 1440.91C1985.32 1433.52 1991.91 1431.41 2000.1 1436.08L2039.9 1458.82C2043.89 1461.08 2047.3 1464.23 2049.86 1468.03C2052.43 1471.83 2054.08 1476.17 2054.69 1480.71C2054.69 1488.1 2048.03 1490.26 2039.9 1485.54Z" fill="#455A64"/>
<path d="M2435.79 1340.7L2158.61 1500.73L2227.89 1620.73L2505.08 1460.7L2435.79 1340.7Z" fill="#455A64"/>
<path d="M1881.44 1394.06L1858.35 1407.42L1881.44 1340.72V1394.06Z" fill="#263238"/>
<path d="M890.547 350.004L872.693 356.884V317.481C872.693 286.265 847.732 278.76 820.666 294.396C793.601 309.975 771.711 348.014 771.711 379.23V384.916C767.901 383.739 763.873 383.445 759.932 384.055C755.991 384.666 752.242 386.166 748.967 388.441C738.685 395.118 730.128 404.13 723.991 414.742C717.855 425.355 714.314 437.267 713.657 449.508V452.124L688.753 466.509C681.981 470.901 676.344 476.833 672.302 483.819C668.26 490.806 665.928 498.649 665.497 506.709C665.497 521.549 675.902 527.519 688.753 520.128L890.547 403.623C897.326 399.225 902.968 393.285 907.01 386.288C911.052 379.291 913.38 371.436 913.802 363.366C913.802 348.64 903.397 342.613 890.547 350.004Z" fill="#F0F0F0"/>
<path d="M1287.82 1872.98L1286.8 1838.58L1315.23 1833.69L1316.88 1863.03C1318.24 1869.86 1323.08 1872.07 1324.33 1875.94C1325.58 1879.81 1304.88 1919.15 1293.28 1927.85C1281.68 1936.55 1262.8 1925.41 1260.99 1921.26C1259.17 1917.11 1276.51 1920.18 1279.35 1914.15C1283.22 1906.08 1287.82 1872.98 1287.82 1872.98Z" fill="#FFA8A7"/>
<path d="M1319.44 1868.72C1315.68 1871.85 1312.84 1879.75 1307.67 1890.55C1302.49 1901.36 1295.16 1918.98 1287.14 1921.31C1277.82 1924.27 1259.51 1918.93 1271.16 1918.02C1273.72 1918.02 1278.21 1916.88 1279.41 1914.15C1279.87 1913.2 1280.23 1912.21 1280.49 1911.19C1276.45 1912.29 1272.26 1912.67 1268.09 1912.33C1265 1911.85 1261.83 1912.25 1258.96 1913.49C1256.08 1914.73 1253.61 1916.75 1251.83 1919.32C1249.9 1922.22 1253.02 1927.11 1253.02 1927.11C1256.61 1931.49 1263.26 1935.87 1278.61 1937.01C1293.96 1938.14 1303.06 1935.93 1308.58 1925.64C1315.68 1914.13 1323.47 1903.06 1331.89 1892.49C1337.63 1883.67 1328.36 1871.05 1319.44 1868.72Z" fill="#263238"/>
<path d="M1280.32 1911.82C1279.41 1914.15 1272.64 1914.89 1269.29 1915.34C1265.93 1915.8 1264.28 1918.93 1269.74 1920.69C1279.18 1921.66 1283.84 1911.65 1280.32 1911.82Z" fill="#FFA8A7"/>
<path d="M1557.39 1761.77L1533.74 1736.92L1551.82 1714.18L1572.52 1735.04C1578.2 1739.25 1583.21 1737.72 1586.68 1739.76C1590.14 1741.81 1600.83 1785.25 1598.05 1799.24C1595.26 1813.22 1573.66 1817.6 1569.62 1815.67C1565.58 1813.74 1580.54 1804.58 1578.66 1798.21C1575.87 1789.57 1557.39 1761.77 1557.39 1761.77Z" fill="#FFA8A7"/>
<path d="M1578.2 1737.6C1577.46 1742.43 1580.54 1750.22 1583.89 1761.71C1587.24 1773.2 1593.33 1791.22 1588.95 1798.38C1583.95 1806.74 1566.72 1814.93 1574.85 1806.52C1576.61 1804.64 1579.34 1800.83 1578.43 1798.16C1578.15 1797.14 1577.76 1796.15 1577.29 1795.2C1574.97 1798.7 1572.07 1801.78 1568.71 1804.3C1566.07 1805.97 1563.97 1808.37 1562.65 1811.2C1561.33 1814.03 1560.85 1817.18 1561.26 1820.28C1561.71 1823.74 1567.29 1825.34 1567.29 1825.34C1572.97 1826.25 1580.76 1825.05 1592.99 1815.78C1605.21 1806.52 1610.56 1798.73 1607.77 1787.35C1605.47 1774.03 1603.93 1760.59 1603.17 1747.1C1601.74 1736.92 1586.39 1733.39 1578.2 1737.6Z" fill="#263238"/>
<path d="M1577.52 1795.77C1578.38 1798.16 1573.77 1803.16 1571.55 1805.78C1569.33 1808.39 1570.19 1811.75 1575.48 1809.41C1583.21 1803.9 1580.02 1793.32 1577.52 1795.77Z" fill="#FFA8A7"/>
<path d="M1365.78 1234.96C1373.34 1208.7 1368.56 1192.72 1362.76 1169.97C1352.07 1128.35 1341.95 1086.56 1341.95 1086.56C1341.95 1086.56 1334.39 928.037 1334.05 913.595C1333.65 896.537 1330.35 886.985 1328.93 872.542C1328.14 864.355 1322.28 863.502 1322.85 863.786V895.855C1317.61 891.173 1312.65 886.179 1308.01 880.901C1302.66 874.476 1297.26 875.215 1295.56 878.456C1293.85 881.697 1302.66 888.008 1306.93 896.366C1311.73 904.718 1317.07 912.752 1322.91 920.418V1007.07L1300.16 1020.26L1295.73 1103.05L1331.09 1231.84L1365.78 1234.96Z" fill="#FFA8A7"/>
<path d="M1262.58 1180.55L1267.47 1223.65L1309.94 1228.54L1303.8 1171.34L1262.58 1180.55Z" fill="#FFA8A7"/>
<path d="M1045.66 847.069V1167.07L1322.85 1007.07V687.01L1045.66 847.069Z" fill="#B03A2E"/>
<path opacity="0.7" d="M1045.66 847.069V1167.07L1322.85 1007.07V687.01L1045.66 847.069Z" fill="#FAFAFA"/>
<path d="M1045.66 931.676C1055.04 935.315 1067.15 933.78 1080.34 925.99C1110.19 908.932 1134.42 866.8 1134.42 832.286C1135.11 821.082 1131.38 810.054 1124.01 801.582L1045.66 847.069V931.676Z" fill="#B03A2E"/>
<path opacity="0.2" d="M1045.66 931.676C1055.04 935.315 1067.15 933.78 1080.34 925.99C1110.19 908.932 1134.42 866.8 1134.42 832.286C1135.11 821.082 1131.38 810.054 1124.01 801.582L1045.66 847.069V931.676Z" fill="black"/>
<path d="M1167.74 939.58C1170.47 930.539 1175.87 930.198 1179.79 938.727L1218.91 1024.02L1277.25 803.345C1279.64 794.247 1283.67 794.19 1286.17 803.345L1322.85 933.609V1007.13L1109.8 1130.12L1167.74 939.58Z" fill="#B03A2E"/>
<path opacity="0.2" d="M1167.74 939.58C1170.47 930.539 1175.87 930.198 1179.79 938.727L1218.91 1024.02L1277.25 803.345C1279.64 794.247 1283.67 794.19 1286.17 803.345L1322.85 933.609V1007.13L1109.8 1130.12L1167.74 939.58Z" fill="black"/>
<path d="M1317.16 696.904V1003.94L1051.34 1157.46V850.424L1317.16 696.904ZM1322.85 687.01L1045.66 847.069V1167.07L1322.85 1007.07V687.01Z" fill="#B03A2E"/>
<path opacity="0.7" d="M1317.16 696.904V1003.94L1051.34 1157.46V850.424L1317.16 696.904ZM1322.85 687.01L1045.66 847.069V1167.07L1322.85 1007.07V687.01Z" fill="#FAFAFA"/>
<path d="M1045.66 1167.07L1022.57 1153.77V833.707L1045.66 847.069V1167.07Z" fill="#B03A2E"/>
<path opacity="0.1" d="M1045.66 1167.07L1022.57 1153.77V833.707L1045.66 847.069V1167.07Z" fill="#FAFAFA"/>
<path d="M1022.57 833.707L1299.71 673.705L1322.85 687.01L1045.66 847.069L1022.57 833.707Z" fill="#B03A2E"/>
<path opacity="0.6" d="M1022.57 833.707L1299.71 673.705L1322.85 687.01L1045.66 847.069L1022.57 833.707Z" fill="#FAFAFA"/>
<path d="M1365.78 1234.96C1365.04 1238.66 1363.33 1245.94 1360.09 1258.22C1353.84 1280.96 1344.4 1313.2 1340.36 1323.95C1340.36 1324.4 1340.02 1324.8 1339.85 1325.14L1356.62 1352.44C1356.62 1352.44 1345.25 1366.37 1311.93 1376.09C1278.61 1385.81 1238.01 1366.08 1238.01 1366.08C1238.01 1366.08 1229.43 1321.05 1227.84 1308.43C1227.84 1307.69 1227.84 1306.55 1227.38 1305.24C1227.04 1302.57 1226.7 1300.18 1226.19 1297.96C1226.19 1297.96 1226.19 1297.57 1226.19 1297.34C1225.56 1294.61 1225.11 1290.97 1224.31 1286.93C1223.41 1279.98 1220.87 1273.33 1216.91 1267.54C1212.94 1261.75 1207.67 1256.98 1201.51 1253.61C1196.79 1251.06 1098.82 1212.28 1083.36 1202.84C1079.4 1200.8 1075.95 1197.91 1073.23 1194.38C1070.52 1190.85 1068.62 1186.77 1067.66 1182.43C1065.5 1176.46 1035.71 1078.09 1032.18 1068.31C1029.2 1060.16 1024.19 1052.9 1017.63 1047.21C1009.89 1038.91 1007.17 1037.04 1004.78 1029.59C1002.39 1022.14 1005.4 1020.32 1006.6 1016.62C1008.25 1011.51 1006.6 1007.92 1007.51 1004.06C1008.93 999.225 1011.88 997.974 1012.62 995.814C1012.99 991.977 1013.66 988.175 1014.61 984.442C1016.16 980.847 1018.95 977.923 1022.46 976.197V987.569C1026.72 1005.02 1045.89 1013.61 1048.33 1012.36C1050.78 1011.11 1054.36 1000.99 1059.7 996.78C1065.05 992.573 1072.44 992.971 1069.71 998.259C1068.18 1001.33 1064.65 1012.76 1062.83 1017.82C1061.01 1022.88 1055.61 1033.51 1056.8 1041.64C1058.34 1052.5 1108.83 1164.46 1108.83 1164.46C1108.83 1164.46 1163.7 1182.43 1207.25 1195.96C1234.26 1204.37 1256.49 1209.55 1256.49 1209.55L1269.97 1207.16L1275.03 1206.25L1340.65 1194.2L1343.03 1193.74C1345.19 1193.46 1347.36 1193.46 1349.52 1193.74C1352.53 1194.63 1355.32 1196.14 1357.71 1198.18C1360.1 1200.22 1362.04 1202.73 1363.39 1205.57C1367.62 1214.78 1368.47 1225.19 1365.78 1234.96Z" fill="#FFA8A7"/>
<path d="M1270.71 1389C1270.71 1389 1353.27 1590.62 1360.77 1609.04C1365.51 1622.51 1374.83 1633.88 1387.1 1641.17C1398.13 1648.84 1541.93 1747.84 1541.93 1747.84C1563.93 1738.68 1564.39 1724.35 1564.39 1724.35C1564.39 1724.35 1490.13 1629.68 1474.44 1616.04C1458.74 1602.39 1429.69 1595.45 1429.69 1595.45L1393.13 1441.93C1388.24 1418.39 1391.25 1392.35 1356.22 1352.27L1270.71 1389Z" fill="#37474F"/>
<path d="M1296.52 1377.74C1313.58 1401.39 1329.22 1422.2 1333.65 1449.44C1342.98 1507.04 1320.4 1577.31 1317.67 1620.3C1325.87 1633.27 1330.86 1648.01 1332.23 1663.29C1333.03 1680.97 1317.45 1843.76 1317.45 1843.76C1307.82 1849.07 1296.71 1851.07 1285.83 1849.44C1285.83 1849.44 1251.15 1614.22 1244.5 1537.74C1237.84 1461.26 1237.67 1366.31 1237.67 1366.31L1296.52 1377.74Z" fill="#37474F"/>
<path d="M1235.17 1116.47C1232.96 1110.4 1232.32 1103.87 1233.32 1097.49C1234.31 1091.1 1236.91 1085.08 1240.86 1079.97C1257.06 1058.07 1287.88 1048.75 1320.46 1060.06C1336.67 1065.75 1356.45 1084.17 1355.94 1124.15C1355.6 1148.65 1286.34 1161.84 1286.69 1178.67L1235.17 1116.47Z" fill="#263238"/>
<path d="M1233.07 1125.62C1233.07 1125.62 1222.78 1139.78 1223.97 1141.43C1226.15 1143 1228.6 1144.18 1231.19 1144.9L1233.07 1125.62Z" fill="#F28F8F"/>
<path d="M1264.62 1080.65C1255.02 1085.08 1238.41 1093.33 1232.67 1127.73C1226.98 1163.09 1232.67 1174.69 1237.16 1179.58C1240.29 1182.88 1257.91 1183.68 1266.79 1181.35C1278.16 1178.39 1303.18 1169.97 1315.17 1151.95C1329.27 1130.97 1333.25 1102.37 1318.58 1090.43C1311.14 1084.38 1302.3 1080.31 1292.86 1078.6C1283.43 1076.89 1273.71 1077.6 1264.62 1080.65Z" fill="#FFA8A7"/>
<path d="M1237.67 1366.14L1356.45 1352.44C1364.81 1366.14 1384.88 1389.56 1380.62 1412.08C1375.44 1439.32 1360.77 1458.48 1315.91 1471.84" fill="#37474F"/>
<path d="M1355.03 1275.68C1349 1298.02 1344.06 1313.77 1340.25 1323.95C1340.25 1324.4 1339.91 1324.8 1339.74 1325.14L1356.51 1352.44C1356.51 1352.44 1345.14 1366.37 1311.82 1376.09C1278.5 1385.81 1237.9 1366.08 1237.9 1366.08C1237.9 1366.08 1229.31 1321.05 1227.72 1308.43C1227.72 1307.69 1227.72 1306.55 1227.27 1305.24C1226.81 1303.93 1226.53 1300.58 1226.07 1297.96C1226.07 1297.96 1226.07 1297.57 1226.07 1297.34C1225.33 1292.85 1224.54 1288.47 1224.2 1286.93C1267.01 1267.83 1256.95 1209.38 1256.95 1209.38L1270.42 1206.99L1275.48 1206.08C1295.1 1202.61 1309.09 1200 1326.66 1196.53C1327.34 1196.36 1364.81 1239.29 1355.03 1275.68Z" fill="#FAFAFA"/>
<path d="M1343.66 1313.6C1330.04 1322.31 1315.68 1329.79 1300.73 1335.95C1314.41 1335.66 1327.8 1331.95 1339.68 1325.14L1343.66 1313.6Z" fill="#F0F0F0"/>
<path d="M1261.78 1082.01C1261.78 1082.01 1252.17 1114.02 1261.04 1134.95C1261.04 1134.95 1267.35 1122.55 1278.1 1126.7C1288.85 1130.85 1287.25 1145.35 1278.1 1152.4C1275.82 1154.44 1273 1155.79 1269.98 1156.29C1266.96 1156.79 1263.86 1156.43 1261.04 1155.25C1261.51 1165.64 1265.3 1175.6 1271.85 1183.68C1283.1 1187.51 1295.21 1188.09 1306.78 1185.34C1318.35 1182.6 1328.9 1176.64 1337.23 1168.15C1364.7 1141.26 1363.56 1090.83 1325.41 1076.21C1287.25 1061.6 1261.78 1082.01 1261.78 1082.01Z" fill="#263238"/>
<path d="M1330.87 1535.98L1340.59 1457.8C1340.59 1457.8 1369.02 1446.99 1381.24 1430.28C1375.75 1444.78 1365.79 1457.16 1352.81 1465.64C1350.88 1468.09 1335.76 1548.26 1335.76 1548.26L1330.87 1535.98Z" fill="#263238"/>
<path d="M1373.96 1114.14C1360.77 1119.82 1350.82 1109.36 1343.6 1092.65C1336.38 1075.93 1334.79 1059.21 1347.92 1053.53C1361.06 1047.84 1376.92 1058.53 1384.09 1075.25C1391.25 1091.96 1387.1 1108.45 1373.96 1114.14Z" fill="#263238"/>
<path d="M1322.85 895.855C1318.95 893.597 1315.6 890.487 1313.07 886.757C1309.09 881.071 1303.4 878.342 1299.99 880.275C1297.49 881.64 1300.45 885.961 1302.32 889.543C1305.09 896.486 1308.92 902.952 1313.69 908.705C1318.98 913.595 1322.79 914.789 1322.79 920.418C1325.69 917.134 1327.22 912.858 1327.06 908.478C1327 903.934 1325.53 899.52 1322.85 895.855Z" fill="#FFA8A7"/>
</svg>
