<svg width="2516" height="2386" viewBox="0 0 2516 2386" fill="none" xmlns="http://www.w3.org/2000/svg">
<path d="M1295.67 1193.74H196.749V57.1582H1295.67V1193.74ZM219.68 1170.81H1272.73V80.0894H219.68V1170.81Z" fill="#EBEBEB"/>
<path d="M748.758 86.0508H725.827V1182.22H748.758V86.0508Z" fill="#EBEBEB"/>
<path d="M1316.48 103.535H175.938V135.467H1316.48V103.535Z" fill="#EBEBEB"/>
<path d="M1316.48 139.424H175.938V171.355H1316.48V139.424Z" fill="#EBEBEB"/>
<path d="M1316.48 175.367H175.938V207.299H1316.48V175.367Z" fill="#EBEBEB"/>
<path d="M1316.48 211.256H175.938V243.187H1316.48V211.256Z" fill="#EBEBEB"/>
<path d="M1316.48 247.199H175.938V279.131H1316.48V247.199Z" fill="#EBEBEB"/>
<path d="M1316.48 283.145H175.938V315.076H1316.48V283.145Z" fill="#EBEBEB"/>
<path d="M1316.48 319.031H175.938V350.963H1316.48V319.031Z" fill="#EBEBEB"/>
<path d="M1316.48 354.976H175.938V386.907H1316.48V354.976Z" fill="#EBEBEB"/>
<path d="M1316.48 390.92H175.938V422.852H1316.48V390.92Z" fill="#EBEBEB"/>
<path d="M1248.37 97.0566H1242.64V833.088H1248.37V97.0566Z" fill="#263238"/>
<path d="M1255.71 859.747H1235.36L1240.46 830.51H1250.61L1255.71 859.747Z" fill="#263238"/>
<path d="M1269.07 97.0566H1263.33V1161.81H1269.07V97.0566Z" fill="#263238"/>
<path d="M1276.35 1183.31H1255.99L1261.1 1154.07H1271.24L1276.35 1183.31Z" fill="#263238"/>
<path d="M1352.08 52.6855H140.395V119.472H1352.08V52.6855Z" fill="#DBDBDB"/>
<path d="M1962.9 208.389C1962.9 203.574 1963.53 190.847 1963.53 185.458C1963.53 162.126 1955.28 151.577 1933.55 151.061C1923.29 150.431 1917.21 144.354 1917.21 135.698C1917.21 127.041 1923.29 121.022 1933.55 120.391C1955.28 119.417 1963.53 108.926 1963.53 85.5358C1963.53 79.803 1962.9 67.3055 1962.9 62.6047C1962.9 31.5903 1976.03 11.7549 2025.56 0.919923C2028.96 0.0438205 2032.57 0.493679 2035.64 2.17817C2038.72 3.86266 2041.05 6.65552 2042.14 9.9898C2043.23 13.3241 2043.02 16.9499 2041.54 20.1311C2040.06 23.3124 2037.42 25.8106 2034.16 27.1187C2003.21 36.6925 1998.73 46.6102 1998.73 68.3374C1998.73 74.7582 1999.36 85.5358 1999.36 92.0138C1999.36 116.894 1987.21 129.048 1966.11 135.755C1987.56 142.806 1999.36 154.616 1999.36 179.553C1999.36 186.261 1998.73 196.752 1998.73 203.173C1998.73 224.9 2003.21 234.817 2034.16 244.391C2037.59 245.575 2040.41 248.058 2042.03 251.306C2043.64 254.553 2043.91 258.305 2042.78 261.75C2041.65 265.196 2039.22 268.06 2035.99 269.724C2032.77 271.389 2029.03 271.72 2025.56 270.647C1976.03 259.526 1962.9 239.69 1962.9 208.389Z" fill="#EBEBEB"/>
<path d="M2150.19 62.3745C2150.19 67.1327 2149.56 79.9168 2149.56 85.3057C2149.56 108.982 2158.16 119.186 2179.89 120.161C2181.98 120.033 2184.08 120.335 2186.05 121.047C2188.02 121.76 2189.83 122.869 2191.36 124.306C2192.88 125.742 2194.1 127.476 2194.93 129.401C2195.76 131.325 2196.19 133.4 2196.19 135.496C2196.19 137.593 2195.76 139.667 2194.93 141.592C2194.1 143.516 2192.88 145.25 2191.36 146.687C2189.83 148.123 2188.02 149.232 2186.05 149.945C2184.08 150.658 2181.98 150.959 2179.89 150.831C2158.16 151.462 2149.56 162.01 2149.56 185.228C2149.56 190.961 2150.19 203.401 2150.19 208.159C2150.19 239.46 2137.07 259.296 2087.53 270.188C2084.05 271.29 2080.28 270.964 2077.03 269.282C2073.79 267.599 2071.35 264.698 2070.25 261.216C2069.15 257.734 2069.47 253.957 2071.16 250.716C2072.84 247.474 2075.74 245.034 2079.22 243.932C2109.89 234.358 2114.36 224.44 2114.36 202.713C2114.36 196.35 2113.73 185.515 2113.73 179.094C2113.73 154.156 2125.89 142.003 2146.98 135.296C2125.54 128.302 2113.73 116.435 2113.73 91.5544C2113.73 84.8471 2114.36 74.3561 2114.36 67.878C2114.36 46.1508 2109.89 36.233 2079.22 26.6593C2075.91 25.4304 2073.19 22.9727 2071.64 19.796C2070.09 16.6193 2069.82 12.9674 2070.89 9.59769C2071.96 6.22802 2074.29 3.39918 2077.38 1.69793C2080.48 -0.0033256 2084.12 -0.446444 2087.53 0.460481C2137.07 11.6394 2150.19 31.3602 2150.19 62.3745Z" fill="#EBEBEB"/>
<path d="M2143.83 1178.09C2145.66 1179.98 2146.9 1182.36 2147.39 1184.94C2147.89 1187.52 2147.62 1190.19 2146.62 1192.63C2145.63 1195.06 2143.94 1197.15 2141.78 1198.64C2139.61 1200.13 2137.06 1200.96 2134.43 1201.02C2130.75 1201.05 2127.21 1199.68 2124.51 1197.18L2064.2 1135.95C2063.57 1135.95 2063.34 1135.32 2063.11 1134.69C2062.93 1134.5 2062.72 1134.35 2062.48 1134.23C2062.19 1133.69 2061.98 1133.11 2061.85 1132.51C2061.68 1132.44 2061.53 1132.32 2061.42 1132.17C2061.31 1132.01 2061.24 1131.84 2061.22 1131.65C2061.22 1131.25 2061.22 1130.62 2060.76 1130.39C2060.3 1130.16 2060.36 1129.53 2060.36 1129.3V1127.81C2060.36 1127.41 2060.36 1127.18 2060.36 1126.55C2060.36 1125.92 2060.36 1125.69 2060.36 1125.46V1123.97C2060.36 1123.51 2060.76 1123.28 2060.76 1123.11C2060.76 1122.94 2060.76 1122.02 2061.22 1121.39C2061.68 1120.76 2061.22 1121.39 2061.22 1120.93C2061.52 1120.28 2061.86 1119.64 2062.25 1119.04C2062.25 1118.92 2062.3 1118.8 2062.39 1118.72C2062.47 1118.63 2062.59 1118.58 2062.71 1118.58C2062.99 1117.98 2063.43 1117.47 2063.97 1117.09L2124.28 1055.92C2126.88 1053.44 2130.34 1052.05 2133.94 1052.05C2137.54 1052.05 2141 1053.44 2143.6 1055.92C2144.88 1057.19 2145.89 1058.69 2146.59 1060.35C2147.28 1062.01 2147.63 1063.79 2147.63 1065.58C2147.63 1067.38 2147.28 1069.16 2146.59 1070.82C2145.89 1072.47 2144.88 1073.98 2143.6 1075.24L2092.75 1126.84L2143.83 1178.09Z" fill="#EBEBEB"/>
<path d="M2198.58 1184.91L2251.21 1059.76C2251.82 1058.33 2252.72 1057.03 2253.84 1055.94C2254.96 1054.85 2256.29 1053.99 2257.74 1053.41C2259.2 1052.84 2260.75 1052.56 2262.32 1052.58C2263.88 1052.61 2265.42 1052.95 2266.86 1053.57C2268.26 1054.17 2269.54 1055.03 2270.61 1056.12C2271.67 1057.22 2272.51 1058.51 2273.07 1059.93C2273.64 1061.35 2273.91 1062.87 2273.87 1064.4C2273.84 1065.92 2273.5 1067.43 2272.88 1068.82L2220.25 1194.14C2219.32 1196.27 2217.79 1198.08 2215.85 1199.35C2213.9 1200.61 2211.62 1201.27 2209.3 1201.25C2207.84 1201.27 2206.39 1200.98 2205.06 1200.39C2203.58 1199.84 2202.23 1199 2201.1 1197.91C2199.96 1196.82 2199.06 1195.51 2198.45 1194.06C2197.84 1192.61 2197.54 1191.05 2197.56 1189.47C2197.58 1187.9 2197.93 1186.35 2198.58 1184.91V1184.91Z" fill="#EBEBEB"/>
<path d="M2515.66 621.206C2515.66 632.613 2511.35 643.598 2503.58 651.956C2495.82 660.314 2485.19 665.426 2473.81 666.266V666.266H2218.01C2204.36 666.266 2191.23 661.007 2181.36 651.58C2171.48 642.154 2165.62 629.285 2164.98 615.648C2164.35 602.01 2168.99 588.653 2177.95 578.35C2186.91 568.047 2199.49 561.591 2213.08 560.324C2213.76 539.592 2221.63 519.741 2235.34 504.17C2249.04 488.6 2267.73 478.278 2288.21 474.972C2308.69 471.666 2329.68 475.582 2347.59 486.049C2365.5 496.516 2379.21 512.883 2386.38 532.348C2393.73 528.597 2401.87 526.633 2410.12 526.615C2423.64 526.618 2436.64 531.771 2446.49 541.026C2456.35 550.281 2462.3 562.942 2463.15 576.433C2465.57 576.036 2468.03 575.844 2470.48 575.86C2476.43 575.852 2482.33 577.021 2487.82 579.299C2493.32 581.578 2498.31 584.92 2502.51 589.135C2506.7 593.349 2510.03 598.353 2512.29 603.857C2514.54 609.361 2515.69 615.257 2515.66 621.206V621.206Z" fill="#DBDBDB"/>
<path d="M204.603 2114.19L467.279 2112.76L729.955 2112.3L1255.25 2111.33L1780.54 2112.3L2043.22 2112.76L2305.9 2114.19L2043.22 2115.57L1780.54 2116.09L1255.25 2117.06L729.955 2116.09L467.279 2115.57L204.603 2114.19Z" fill="#263238"/>
<path d="M315.532 2385.13C455.728 2385.13 569.379 2363.31 569.379 2336.4C569.379 2309.48 455.728 2287.67 315.532 2287.67C175.336 2287.67 61.6841 2309.48 61.6841 2336.4C61.6841 2363.31 175.336 2385.13 315.532 2385.13Z" fill="#EBEBEB"/>
<path d="M1335.34 2363.46C1887.57 2363.46 2335.25 2314.92 2335.25 2255.05C2335.25 2195.18 1887.57 2146.64 1335.34 2146.64C783.1 2146.64 335.425 2195.18 335.425 2255.05C335.425 2314.92 783.1 2363.46 1335.34 2363.46Z" fill="#EBEBEB"/>
<path d="M1883.51 55.1523H1429.98V344.486H1883.51V55.1523Z" fill="white"/>
<path d="M1886.37 347.351H1427.23V52.2852H1886.49L1886.37 347.351ZM1432.85 341.619H1880.64V58.0179H1432.97L1432.85 341.619Z" fill="#EBEBEB"/>
<path d="M1883.51 55.1523H1429.98V109.843H1883.51V55.1523Z" fill="#B03A2E"/>
<path d="M1886.37 112.766H1427.23V52.2852H1886.49L1886.37 112.766ZM1432.85 107.033H1880.64V58.0179H1432.97L1432.85 107.033Z" fill="#EBEBEB"/>
<path d="M1481.29 82.8985C1481.26 85.6048 1480.43 88.2409 1478.9 90.477C1477.38 92.713 1475.23 94.4497 1472.72 95.4697C1470.21 96.4897 1467.46 96.7476 1464.81 96.2113C1462.16 95.6749 1459.72 94.3681 1457.81 92.4543C1455.89 90.5405 1454.59 88.1049 1454.05 85.4521C1453.51 82.7993 1453.77 80.0472 1454.79 77.5403C1455.81 75.0334 1457.55 72.883 1459.78 71.3582C1462.02 69.8334 1464.66 69.0019 1467.36 68.9679C1469.2 68.9448 1471.02 69.2893 1472.72 69.9812C1474.42 70.6731 1475.97 71.6984 1477.26 72.9966C1478.56 74.2948 1479.59 75.8397 1480.28 77.5403C1480.97 79.2409 1481.32 81.0627 1481.29 82.8985V82.8985Z" fill="#A6A6A6"/>
<path d="M1537.53 82.8993C1537.53 85.6205 1536.72 88.2806 1535.21 90.5432C1533.7 92.8058 1531.55 94.5693 1529.04 95.6107C1526.52 96.652 1523.76 96.9245 1521.09 96.3936C1518.42 95.8627 1515.97 94.5524 1514.04 92.6282C1512.12 90.704 1510.81 88.2524 1510.28 85.5835C1509.75 82.9146 1510.02 80.1482 1511.06 77.6341C1512.1 75.12 1513.87 72.9712 1516.13 71.4594C1518.39 69.9476 1521.05 69.1406 1523.77 69.1406C1527.42 69.1406 1530.92 70.5902 1533.5 73.1704C1536.08 75.7507 1537.53 79.2503 1537.53 82.8993V82.8993Z" fill="#EBEBEB"/>
<path d="M1593.77 82.8993C1593.77 85.6205 1592.96 88.2806 1591.45 90.5432C1589.94 92.8058 1587.79 94.5693 1585.28 95.6107C1582.76 96.652 1580 96.9245 1577.33 96.3936C1574.66 95.8627 1572.21 94.5524 1570.28 92.6282C1568.36 90.704 1567.05 88.2524 1566.52 85.5835C1565.99 82.9146 1566.26 80.1482 1567.3 77.6341C1568.34 75.12 1570.11 72.9712 1572.37 71.4594C1574.63 69.9476 1577.29 69.1406 1580.01 69.1406C1583.66 69.1406 1587.16 70.5902 1589.74 73.1704C1592.32 75.7507 1593.77 79.2503 1593.77 82.8993Z" fill="white"/>
<path d="M1508.24 218.019C1508.51 203.374 1514.52 189.421 1524.97 179.161C1535.42 168.901 1549.48 163.154 1564.13 163.156C1576.82 163.138 1589.16 167.331 1599.22 175.081C1600.96 176.555 1602.08 178.631 1602.35 180.894C1602.63 183.158 1602.04 185.442 1600.71 187.291C1599.28 189.077 1597.23 190.247 1594.96 190.556C1592.7 190.866 1590.4 190.292 1588.55 188.954C1581.59 183.362 1572.89 180.399 1563.96 180.584C1553.77 180.621 1543.97 184.536 1536.56 191.534C1529.54 198.564 1525.61 208.089 1525.61 218.019C1525.6 222.952 1526.58 227.837 1528.49 232.386C1530.4 236.935 1533.2 241.055 1536.73 244.504C1544.13 251.523 1553.93 255.459 1564.13 255.511C1573.06 255.646 1581.76 252.667 1588.73 247.084C1590.61 245.831 1592.89 245.314 1595.13 245.631C1597.37 245.948 1599.42 247.077 1600.88 248.804C1602.21 250.669 1602.77 252.97 1602.46 255.239C1602.16 257.507 1600.99 259.573 1599.22 261.015C1589.13 268.824 1576.72 273.022 1563.96 272.939C1549.32 272.926 1535.28 267.161 1524.85 256.887C1514.43 246.613 1508.46 232.653 1508.24 218.019V218.019Z" fill="#EBEBEB"/>
<path d="M1627.08 246.684C1628.43 245.089 1630.35 244.087 1632.43 243.894C1634.51 243.701 1636.58 244.332 1638.2 245.652C1646.42 252.503 1656.63 256.524 1667.32 257.118C1674.1 257.207 1680.75 255.205 1686.35 251.385C1688.26 250.221 1689.85 248.61 1690.99 246.692C1692.13 244.773 1692.78 242.606 1692.89 240.378C1692.94 238.66 1692.48 236.965 1691.57 235.505C1690.41 233.667 1688.84 232.118 1686.99 230.976C1680.54 227.296 1673.46 224.847 1666.12 223.753H1665.77C1659.01 222.669 1652.4 220.743 1646.11 218.02C1640.36 215.495 1635.44 211.378 1631.95 206.153C1629.63 202.402 1628.41 198.069 1628.45 193.656C1628.59 189.248 1629.77 184.936 1631.89 181.07C1634.01 177.205 1637.02 173.896 1640.66 171.413C1648.39 166.014 1657.61 163.186 1667.04 163.329C1679.07 163.946 1690.64 168.182 1700.23 175.483C1701.94 176.647 1703.12 178.437 1703.51 180.465C1703.91 182.493 1703.49 184.596 1702.35 186.318C1701.81 187.194 1701.09 187.951 1700.25 188.544C1699.41 189.136 1698.46 189.553 1697.45 189.767C1696.44 189.981 1695.4 189.989 1694.39 189.791C1693.38 189.592 1692.42 189.191 1691.57 188.611C1684.57 182.954 1676.01 179.556 1667.04 178.865C1660.9 178.735 1654.88 180.54 1649.84 184.025C1648.18 185.056 1646.8 186.468 1645.8 188.144C1644.8 189.819 1644.22 191.709 1644.1 193.656C1644 195.15 1644.39 196.637 1645.19 197.898C1646.27 199.479 1647.65 200.825 1649.26 201.854C1655.12 205.328 1661.61 207.607 1668.35 208.561H1668.64C1675.89 209.839 1682.95 211.995 1689.68 214.982C1695.85 217.663 1701.13 222.061 1704.87 227.651C1707.27 231.524 1708.55 235.992 1708.54 240.55C1708.36 245.189 1707.09 249.721 1704.83 253.776C1702.57 257.831 1699.38 261.294 1695.53 263.882C1687.27 269.655 1677.4 272.683 1667.32 272.539C1653 271.842 1639.29 266.488 1628.28 257.29C1626.84 255.963 1625.92 254.16 1625.7 252.212C1625.48 250.263 1625.97 248.3 1627.08 246.684V246.684Z" fill="#EBEBEB"/>
<path d="M1727.23 246.684C1728.58 245.089 1730.5 244.087 1732.58 243.894C1734.66 243.701 1736.73 244.332 1738.35 245.652C1746.55 252.503 1756.75 256.524 1767.42 257.118C1774.22 257.208 1780.88 255.207 1786.51 251.385C1788.4 250.21 1789.98 248.596 1791.12 246.68C1792.26 244.764 1792.92 242.603 1793.04 240.378C1793.07 238.654 1792.59 236.959 1791.67 235.505C1790.5 233.667 1788.93 232.118 1787.08 230.976C1780.63 227.296 1773.56 224.847 1766.21 223.753H1765.93C1759.16 222.669 1752.55 220.743 1746.26 218.02C1740.5 215.512 1735.58 211.391 1732.1 206.153C1729.76 202.407 1728.53 198.074 1728.55 193.656C1728.7 189.251 1729.88 184.944 1732 181.08C1734.13 177.217 1737.12 173.905 1740.76 171.413C1748.48 166.014 1757.71 163.186 1767.13 163.329C1779.16 163.946 1790.73 168.182 1800.32 175.483C1802.04 176.638 1803.23 178.424 1803.64 180.452C1804.05 182.481 1803.64 184.589 1802.5 186.318C1801.95 187.196 1801.24 187.954 1800.39 188.547C1799.54 189.141 1798.58 189.557 1797.57 189.771C1796.56 189.985 1795.51 189.993 1794.5 189.793C1793.49 189.594 1792.52 189.192 1791.67 188.611C1784.66 182.955 1776.11 179.556 1767.13 178.865C1761 178.735 1754.98 180.54 1749.93 184.025C1748.28 185.056 1746.89 186.468 1745.89 188.144C1744.9 189.819 1744.32 191.709 1744.2 193.656C1744.12 195.148 1744.5 196.626 1745.29 197.898C1746.37 199.492 1747.78 200.84 1749.42 201.854C1755.26 205.321 1761.72 207.6 1768.45 208.561H1768.73C1775.99 209.822 1783.05 211.979 1789.77 214.982C1795.96 217.662 1801.25 222.059 1805.02 227.651C1807.43 231.524 1808.7 235.992 1808.69 240.55C1808.5 245.193 1807.22 249.727 1804.95 253.781C1802.68 257.836 1799.48 261.296 1795.62 263.882C1787.37 269.666 1777.49 272.695 1767.42 272.539C1753.1 271.855 1739.41 266.498 1728.43 257.29C1726.97 255.977 1726.03 254.171 1725.81 252.216C1725.59 250.261 1726.09 248.292 1727.23 246.684Z" fill="#EBEBEB"/>
<path d="M2196.51 320.178H1577.09V758.793H2196.51V320.178Z" fill="white"/>
<path d="M2199.44 761.661H1574.22V317.312H2199.44V761.661ZM1579.95 755.928H2193.71V323.045H1579.95V755.928Z" fill="#EBEBEB"/>
<path d="M2196.51 320.178H1577.09V374.868H2196.51V320.178Z" fill="#B03A2E"/>
<path d="M2199.44 377.793H1574.22V317.312H2199.44V377.793ZM1579.95 372.061H2193.71V323.045H1579.95V372.061Z" fill="#EBEBEB"/>
<path d="M1628.45 347.925C1628.45 350.646 1627.65 353.306 1626.13 355.569C1624.62 357.831 1622.47 359.595 1619.96 360.636C1617.45 361.677 1614.68 361.95 1612.01 361.419C1609.34 360.888 1606.89 359.578 1604.97 357.654C1603.04 355.729 1601.73 353.278 1601.2 350.609C1600.67 347.94 1600.94 345.174 1601.98 342.659C1603.02 340.145 1604.79 337.997 1607.05 336.485C1609.31 334.973 1611.97 334.166 1614.69 334.166C1616.5 334.166 1618.29 334.522 1619.96 335.213C1621.63 335.905 1623.15 336.918 1624.42 338.196C1625.7 339.473 1626.71 340.99 1627.41 342.659C1628.1 344.329 1628.45 346.118 1628.45 347.925V347.925Z" fill="#A6A6A6"/>
<path d="M1684.69 347.925C1684.7 350.662 1683.9 353.341 1682.39 355.622C1680.87 357.903 1678.72 359.683 1676.19 360.735C1673.66 361.788 1670.88 362.067 1668.2 361.535C1665.51 361.004 1663.04 359.687 1661.11 357.751C1659.17 355.816 1657.85 353.349 1657.32 350.663C1656.79 347.978 1657.07 345.195 1658.12 342.668C1659.18 340.142 1660.96 337.984 1663.24 336.471C1665.52 334.957 1668.2 334.155 1670.93 334.166C1672.74 334.166 1674.53 334.522 1676.2 335.213C1677.87 335.905 1679.39 336.918 1680.66 338.196C1681.94 339.474 1682.95 340.99 1683.65 342.66C1684.34 344.329 1684.69 346.118 1684.69 347.925V347.925Z" fill="#EBEBEB"/>
<path d="M1740.93 347.925C1740.94 350.66 1740.14 353.337 1738.63 355.616C1737.12 357.896 1734.97 359.675 1732.44 360.73C1729.92 361.784 1727.14 362.066 1724.45 361.54C1721.77 361.013 1719.3 359.702 1717.37 357.772C1715.43 355.842 1714.11 353.38 1713.57 350.699C1713.03 348.017 1713.3 345.236 1714.35 342.708C1715.39 340.18 1717.16 338.019 1719.43 336.499C1721.71 334.978 1724.38 334.166 1727.11 334.166C1728.93 334.159 1730.72 334.509 1732.4 335.197C1734.07 335.885 1735.6 336.897 1736.88 338.176C1738.16 339.454 1739.18 340.973 1739.88 342.646C1740.57 344.319 1740.93 346.113 1740.93 347.925V347.925Z" fill="white"/>
<path d="M1665.03 483.734H1635.79V494.397H1665.03V483.734Z" fill="#EBEBEB"/>
<path d="M1885 483.734H1686.35V494.397H1885V483.734Z" fill="#EBEBEB"/>
<path d="M1958.49 483.734H1902.94V494.397H1958.49V483.734Z" fill="#B03A2E"/>
<path d="M2085.59 626.71H2030.03V637.373H2085.59V626.71Z" fill="#EBEBEB"/>
<path d="M2066.61 483.734H1970.59V494.397H2066.61V483.734Z" fill="#A6A6A6"/>
<path d="M1694.27 512.341H1665.03V523.004H1694.27V512.341Z" fill="#EBEBEB"/>
<path d="M1843.83 512.341H1714.9V523.004H1843.83V512.341Z" fill="#A6A6A6"/>
<path d="M2016.85 626.71H1887.92V637.373H2016.85V626.71Z" fill="#A6A6A6"/>
<path d="M1805.42 598.104H1686.35V608.766H1805.42V598.104Z" fill="#A6A6A6"/>
<path d="M1771.2 540.947H1714.9V551.61H1771.2V540.947Z" fill="#B03A2E"/>
<path d="M1996.44 569.555H1940.15V580.218H1996.44V569.555Z" fill="#A6A6A6"/>
<path d="M1977.52 540.947H1787.54V551.61H1977.52V540.947Z" fill="#A6A6A6"/>
<path d="M1876.34 626.71H1686.35V637.373H1876.34V626.71Z" fill="#B03A2E"/>
<path d="M2116.83 512.341H1964.39V523.004H2116.83V512.341Z" fill="#B03A2E"/>
<path d="M1952.36 512.341H1857.65V523.004H1952.36V512.341Z" fill="#EBEBEB"/>
<path d="M2083.29 540.947H1988.59V551.61H2083.29V540.947Z" fill="#EBEBEB"/>
<path d="M1694.27 540.947H1665.03V551.61H1694.27V540.947Z" fill="#EBEBEB"/>
<path d="M1665.03 569.555H1635.79V580.218H1665.03V569.555Z" fill="#A6A6A6"/>
<path d="M1767.93 569.555H1686.35V580.218H1767.93V569.555Z" fill="#EBEBEB"/>
<path d="M1796.48 655.316H1714.9V665.979H1796.48V655.316Z" fill="#EBEBEB"/>
<path d="M2031.75 683.923H1900.3V694.586H2031.75V683.923Z" fill="#B03A2E"/>
<path d="M1938.25 655.316H1810.53V665.979H1938.25V655.316Z" fill="#B03A2E"/>
<path d="M1885.17 683.923H1779.91V694.586H1885.17V683.923Z" fill="#EBEBEB"/>
<path d="M2116.83 655.316H1953.22V665.979H2116.83V655.316Z" fill="#A6A6A6"/>
<path d="M1764.95 683.923H1714.9V694.586H1764.95V683.923Z" fill="#A6A6A6"/>
<path d="M1958.49 598.104H1817.29V608.766H1958.49V598.104Z" fill="#EBEBEB"/>
<path d="M2089.48 598.104H1970.59V608.766H2089.48V598.104Z" fill="#B03A2E"/>
<path d="M1926.5 569.555H1785.53V580.218H1926.5V569.555Z" fill="#B03A2E"/>
<path d="M1665.03 598.104H1635.79V608.766H1665.03V598.104Z" fill="#EBEBEB"/>
<path d="M1665.03 626.71H1635.79V637.373H1665.03V626.71Z" fill="#EBEBEB"/>
<path d="M1694.27 655.316H1665.03V665.979H1694.27V655.316Z" fill="#A6A6A6"/>
<path d="M1694.27 683.923H1665.03V694.586H1694.27V683.923Z" fill="#EBEBEB"/>
<path d="M1664.11 456.905L1673.91 433.458C1674.16 432.931 1674.61 432.519 1675.15 432.306C1675.69 432.093 1676.3 432.095 1676.84 432.312C1677.36 432.55 1677.77 432.981 1677.99 433.515C1678.2 434.049 1678.2 434.644 1677.98 435.178L1668.01 458.797C1667.84 459.185 1667.55 459.515 1667.2 459.748C1666.84 459.982 1666.43 460.109 1666 460.116C1665.74 460.175 1665.47 460.175 1665.2 460.116C1664.89 460.013 1664.6 459.839 1664.37 459.607C1664.14 459.376 1663.96 459.094 1663.86 458.782C1663.75 458.471 1663.72 458.139 1663.76 457.813C1663.81 457.488 1663.93 457.177 1664.11 456.905V456.905Z" fill="#B03A2E"/>
<path d="M1697.42 447.331L1697.13 447.617L1685.67 459.083C1685.44 459.323 1685.16 459.513 1684.86 459.641C1684.55 459.769 1684.22 459.833 1683.89 459.828C1683.55 459.834 1683.21 459.771 1682.9 459.643C1682.58 459.515 1682.29 459.324 1682.05 459.083C1681.58 458.601 1681.32 457.952 1681.32 457.277C1681.32 456.602 1681.58 455.953 1682.05 455.471L1691.57 445.897L1682.05 436.266C1681.58 435.784 1681.32 435.136 1681.32 434.46C1681.32 433.785 1681.58 433.137 1682.05 432.655C1682.55 432.208 1683.19 431.96 1683.86 431.96C1684.53 431.96 1685.17 432.208 1685.67 432.655L1697.13 444.12H1697.42V444.522V444.866V445.897C1697.43 446.031 1697.43 446.165 1697.42 446.299C1697.32 446.451 1697.26 446.631 1697.26 446.815C1697.26 446.999 1697.32 447.178 1697.42 447.331V447.331Z" fill="#B03A2E"/>
<path d="M2482.75 720.441H2029.23V1009.77H2482.75V720.441Z" fill="white"/>
<path d="M2485.62 1012.58H2026.37V717.574H2485.62V1012.58ZM2032.1 1006.85H2479.89V723.307H2032.1V1006.85Z" fill="#EBEBEB"/>
<path d="M2482.75 720.441H2029.23V775.132H2482.75V720.441Z" fill="#B03A2E"/>
<path d="M2485.62 777.998H2026.37V717.574H2485.62V777.998ZM2032.1 772.265H2479.89V723.307H2032.1V772.265Z" fill="#EBEBEB"/>
<path d="M2080.77 748.187C2080.78 750.922 2079.98 753.599 2078.47 755.879C2076.96 758.158 2074.8 759.938 2072.28 760.993C2069.76 762.047 2066.98 762.329 2064.29 761.802C2061.61 761.276 2059.14 759.964 2057.21 758.034C2055.27 756.105 2053.95 753.643 2053.41 750.961C2052.87 748.28 2053.14 745.499 2054.18 742.971C2055.23 740.443 2057 738.282 2059.27 736.761C2061.55 735.241 2064.22 734.429 2066.95 734.429C2068.77 734.421 2070.56 734.772 2072.24 735.46C2073.91 736.148 2075.44 737.16 2076.72 738.438C2078 739.717 2079.02 741.236 2079.72 742.909C2080.41 744.582 2080.77 746.376 2080.77 748.187V748.187Z" fill="#A6A6A6"/>
<path d="M2136.78 748.187C2136.78 750.909 2135.97 753.569 2134.46 755.831C2132.95 758.094 2130.8 759.858 2128.29 760.899C2125.77 761.94 2123.01 762.213 2120.34 761.682C2117.67 761.151 2115.22 759.841 2113.29 757.916C2111.37 755.992 2110.06 753.541 2109.53 750.872C2109 748.203 2109.27 745.436 2110.31 742.922C2111.35 740.408 2113.11 738.259 2115.38 736.748C2117.64 735.236 2120.3 734.429 2123.02 734.429C2124.83 734.421 2126.62 734.772 2128.29 735.461C2129.97 736.149 2131.49 737.163 2132.77 738.442C2134.05 739.721 2135.06 741.241 2135.75 742.913C2136.44 744.586 2136.79 746.379 2136.78 748.187V748.187Z" fill="#EBEBEB"/>
<path d="M2193.02 748.187C2193.02 750.909 2192.21 753.569 2190.7 755.831C2189.19 758.094 2187.04 759.858 2184.52 760.899C2182.01 761.94 2179.24 762.213 2176.58 761.682C2173.91 761.151 2171.45 759.841 2169.53 757.916C2167.61 755.992 2166.3 753.541 2165.76 750.872C2165.23 748.203 2165.51 745.436 2166.55 742.922C2167.59 740.408 2169.35 738.259 2171.62 736.748C2173.88 735.236 2176.54 734.429 2179.26 734.429C2181.07 734.421 2182.86 734.772 2184.53 735.461C2186.21 736.149 2187.73 737.163 2189 738.442C2190.28 739.721 2191.3 741.241 2191.99 742.913C2192.67 744.586 2193.03 746.379 2193.02 748.187V748.187Z" fill="white"/>
<path d="M2113.91 883.31C2114.19 868.67 2120.2 854.725 2130.65 844.468C2141.1 834.211 2155.16 828.459 2169.8 828.447C2182.54 828.354 2194.94 832.555 2205 840.371C2206.66 841.845 2207.69 843.891 2207.9 846.1C2208.11 848.308 2207.48 850.513 2206.13 852.272C2204.77 854.03 2202.81 855.211 2200.62 855.577C2198.43 855.943 2196.19 855.467 2194.34 854.244C2187.4 848.636 2178.72 845.652 2169.8 845.817C2159.6 845.87 2149.8 849.805 2142.4 856.824C2138.89 860.291 2136.11 864.415 2134.2 868.959C2132.29 873.504 2131.3 878.381 2131.28 883.31C2131.26 888.252 2132.24 893.147 2134.15 897.705C2136.06 902.264 2138.87 906.394 2142.4 909.852C2149.81 916.85 2159.61 920.765 2169.8 920.802C2178.71 920.969 2187.39 918.007 2194.34 912.432C2196.22 911.169 2198.51 910.64 2200.76 910.946C2203.01 911.253 2205.07 912.373 2206.55 914.095C2207.89 915.946 2208.47 918.238 2208.19 920.506C2207.9 922.774 2206.76 924.847 2205 926.305C2194.92 934.082 2182.53 938.259 2169.8 938.172C2155.14 938.219 2141.05 932.487 2130.59 922.217C2120.13 911.948 2114.13 897.968 2113.91 883.31V883.31Z" fill="#EBEBEB"/>
<path d="M2260.03 892.94H2238.36C2236.14 892.94 2234.02 892.059 2232.45 890.489C2230.88 888.919 2229.99 886.79 2229.99 884.571C2230.01 882.35 2230.89 880.224 2232.46 878.648C2234.02 877.073 2236.14 876.173 2238.36 876.143H2260.03V854.989C2260.02 853.846 2260.23 852.71 2260.66 851.65C2261.09 850.59 2261.73 849.626 2262.53 848.814C2263.34 848.003 2264.3 847.36 2265.36 846.924C2266.41 846.488 2267.55 846.268 2268.69 846.276C2271 846.276 2273.22 847.194 2274.85 848.828C2276.49 850.462 2277.4 852.678 2277.4 854.989V876.143H2299.02C2301.24 876.173 2303.36 877.073 2304.92 878.648C2306.49 880.224 2307.37 882.35 2307.39 884.571C2307.39 886.79 2306.51 888.919 2304.94 890.489C2303.37 892.059 2301.24 892.94 2299.02 892.94H2277.4V914.094C2277.4 916.405 2276.49 918.622 2274.85 920.256C2273.22 921.89 2271 922.808 2268.69 922.808C2267.55 922.816 2266.41 922.595 2265.36 922.16C2264.3 921.724 2263.34 921.081 2262.53 920.27C2261.73 919.458 2261.09 918.494 2260.66 917.434C2260.23 916.373 2260.02 915.238 2260.03 914.094V892.94Z" fill="#EBEBEB"/>
<path d="M2354.51 892.94H2333.01C2330.79 892.94 2328.66 892.059 2327.09 890.489C2325.52 888.919 2324.64 886.79 2324.64 884.571C2324.66 882.35 2325.54 880.224 2327.11 878.648C2328.67 877.073 2330.79 876.173 2333.01 876.143H2354.68V854.989C2354.67 853.846 2354.88 852.71 2355.31 851.65C2355.74 850.59 2356.37 849.626 2357.18 848.814C2357.99 848.003 2358.95 847.36 2360 846.924C2361.06 846.488 2362.2 846.268 2363.34 846.276C2365.65 846.291 2367.85 847.214 2369.48 848.844C2371.11 850.475 2372.04 852.683 2372.05 854.989V876.143H2393.67C2395.89 876.173 2398.01 877.073 2399.57 878.648C2401.14 880.224 2402.02 882.35 2402.04 884.571C2402.04 886.79 2401.15 888.919 2399.58 890.489C2398.01 892.059 2395.88 892.94 2393.67 892.94H2372.05V914.094C2372.04 916.401 2371.11 918.609 2369.48 920.239C2367.85 921.87 2365.65 922.793 2363.34 922.808C2362.2 922.816 2361.06 922.595 2360 922.16C2358.95 921.724 2357.99 921.081 2357.18 920.27C2356.37 919.458 2355.74 918.494 2355.31 917.434C2354.88 916.373 2354.67 915.238 2354.68 914.094L2354.51 892.94Z" fill="#EBEBEB"/>
<path d="M2410.41 239.748H2101.47V354.117H2410.41V239.748Z" fill="#455A64"/>
<path d="M2146.07 320.693V269.958C2146.06 269.331 2146.18 268.709 2146.41 268.128C2146.65 267.547 2147 267.019 2147.44 266.576C2147.89 266.133 2148.41 265.782 2148.99 265.546C2149.58 265.31 2150.2 265.192 2150.82 265.2C2151.45 265.192 2152.08 265.309 2152.66 265.545C2153.25 265.781 2153.78 266.13 2154.23 266.573C2154.67 267.015 2155.03 267.542 2155.27 268.124C2155.52 268.705 2155.64 269.328 2155.64 269.958V290.596H2177.88V269.958C2177.88 269.331 2177.99 268.709 2178.23 268.128C2178.47 267.547 2178.82 267.019 2179.26 266.576C2179.7 266.133 2180.23 265.782 2180.81 265.546C2181.39 265.31 2182.01 265.192 2182.64 265.2C2183.27 265.192 2183.9 265.309 2184.48 265.545C2185.06 265.781 2185.6 266.13 2186.04 266.573C2186.49 267.015 2186.85 267.542 2187.09 268.124C2187.33 268.705 2187.46 269.328 2187.46 269.958V320.693C2187.45 321.318 2187.32 321.935 2187.07 322.509C2186.83 323.084 2186.47 323.604 2186.02 324.041C2185.58 324.477 2185.05 324.821 2184.47 325.054C2183.89 325.286 2183.27 325.401 2182.64 325.394C2182.02 325.409 2181.4 325.299 2180.82 325.069C2180.24 324.839 2179.71 324.494 2179.26 324.055C2178.82 323.616 2178.47 323.092 2178.23 322.514C2177.99 321.937 2177.88 321.317 2177.88 320.693V300.055H2155.64V320.693C2155.63 321.318 2155.5 321.935 2155.26 322.509C2155.01 323.084 2154.65 323.604 2154.21 324.041C2153.76 324.477 2153.23 324.821 2152.65 325.054C2152.07 325.286 2151.45 325.401 2150.82 325.394C2150.2 325.409 2149.58 325.299 2149 325.069C2148.42 324.839 2147.89 324.494 2147.45 324.055C2147 323.616 2146.65 323.092 2146.41 322.514C2146.18 321.937 2146.06 321.317 2146.07 320.693V320.693Z" fill="white"/>
<path d="M2243.87 274.773H2230.17V320.636C2230.17 321.255 2230.06 321.87 2229.82 322.444C2229.59 323.017 2229.24 323.539 2228.81 323.977C2228.37 324.415 2227.85 324.761 2227.27 324.994C2226.7 325.228 2226.08 325.344 2225.46 325.336C2224.21 325.337 2223.01 324.843 2222.12 323.963C2221.23 323.083 2220.72 321.888 2220.71 320.636V274.773H2206.89C2206.27 274.766 2205.65 274.635 2205.07 274.389C2204.5 274.143 2203.98 273.786 2203.54 273.339C2203.11 272.892 2202.76 272.363 2202.53 271.783C2202.3 271.203 2202.18 270.583 2202.19 269.958C2202.17 269.334 2202.29 268.713 2202.52 268.132C2202.75 267.552 2203.09 267.023 2203.53 266.579C2203.97 266.135 2204.49 265.784 2205.07 265.547C2205.65 265.31 2206.27 265.192 2206.89 265.2H2243.64C2244.26 265.2 2244.88 265.323 2245.45 265.563C2246.02 265.803 2246.55 266.154 2246.98 266.597C2247.42 267.039 2247.76 267.564 2248 268.141C2248.23 268.718 2248.35 269.336 2248.34 269.958C2248.34 271.178 2247.88 272.353 2247.05 273.247C2246.22 274.141 2245.08 274.686 2243.87 274.773V274.773Z" fill="white"/>
<path d="M2314.55 269.96V320.695C2314.52 321.952 2314 323.148 2313.1 324.026C2312.2 324.904 2310.99 325.396 2309.74 325.396C2309.11 325.403 2308.5 325.287 2307.92 325.054C2307.34 324.822 2306.82 324.476 2306.38 324.039C2305.93 323.602 2305.58 323.081 2305.34 322.507C2305.1 321.933 2304.98 321.317 2304.98 320.695V284.464L2292.6 301.662C2292.17 302.287 2291.6 302.797 2290.93 303.147C2290.26 303.497 2289.51 303.676 2288.76 303.668V303.668C2287.98 303.68 2287.22 303.504 2286.53 303.154C2285.84 302.805 2285.25 302.292 2284.8 301.662L2272.47 284.464V320.695C2272.47 321.957 2271.97 323.167 2271.08 324.059C2270.19 324.952 2268.98 325.453 2267.72 325.453C2266.45 325.453 2265.24 324.952 2264.35 324.059C2263.46 323.167 2262.96 321.957 2262.96 320.695V269.96C2262.96 268.708 2263.45 267.506 2264.33 266.615C2265.21 265.724 2266.41 265.217 2267.66 265.201H2267.95C2268.69 265.203 2269.43 265.386 2270.09 265.736C2270.74 266.086 2271.31 266.591 2271.73 267.208L2288.93 290.942L2306.13 267.208C2306.55 266.583 2307.12 266.072 2307.79 265.722C2308.46 265.372 2309.21 265.193 2309.97 265.201V265.201C2311.18 265.286 2312.33 265.819 2313.17 266.698C2314.02 267.577 2314.51 268.739 2314.55 269.96Z" fill="white"/>
<path d="M2335.36 320.695V269.959C2335.36 268.707 2335.86 267.506 2336.74 266.615C2337.62 265.724 2338.81 265.216 2340.06 265.201C2341.33 265.201 2342.55 265.701 2343.45 266.591C2344.35 267.482 2344.86 268.692 2344.88 269.959V315.822H2368.21C2369.47 315.822 2370.68 316.323 2371.58 317.215C2372.47 318.108 2372.97 319.318 2372.97 320.58C2372.97 321.842 2372.47 323.052 2371.58 323.944C2370.68 324.837 2369.47 325.338 2368.21 325.338H2340.06C2338.83 325.338 2337.64 324.851 2336.76 323.982C2335.88 323.112 2335.38 321.931 2335.36 320.695V320.695Z" fill="white"/>
<path d="M1628.4 610.314H1373.8V724.684H1628.4V610.314Z" fill="#455A64"/>
<path d="M1449.53 672.63H1438.98V691.261C1438.86 692.44 1438.3 693.53 1437.41 694.322C1436.53 695.114 1435.38 695.552 1434.2 695.552C1433.01 695.552 1431.87 695.114 1430.98 694.322C1430.1 693.53 1429.54 692.44 1429.41 691.261V640.526C1429.43 639.274 1429.93 638.078 1430.82 637.198C1431.72 636.318 1432.92 635.825 1434.17 635.825H1449.53C1451.95 635.825 1454.34 636.301 1456.58 637.226C1458.81 638.151 1460.84 639.506 1462.55 641.215C1464.25 642.924 1465.61 644.953 1466.53 647.185C1467.46 649.418 1467.94 651.811 1467.94 654.227C1467.94 656.644 1467.46 659.037 1466.53 661.27C1465.61 663.502 1464.25 665.531 1462.55 667.24C1460.84 668.949 1458.81 670.304 1456.58 671.229C1454.34 672.154 1451.95 672.63 1449.53 672.63V672.63ZM1438.98 663.056H1449.53C1450.76 663.154 1451.99 662.999 1453.15 662.598C1454.31 662.198 1455.37 661.561 1456.27 660.729C1457.17 659.897 1457.89 658.887 1458.39 657.763C1458.88 656.639 1459.13 655.426 1459.13 654.199C1459.13 652.972 1458.88 651.758 1458.39 650.634C1457.89 649.51 1457.17 648.5 1456.27 647.668C1455.37 646.836 1454.31 646.2 1453.15 645.799C1451.99 645.399 1450.76 645.243 1449.53 645.342H1438.98V663.056Z" fill="white"/>
<path d="M1479.57 691.261V640.526C1479.57 639.264 1480.07 638.054 1480.97 637.161C1481.86 636.269 1483.07 635.768 1484.33 635.768C1485.59 635.768 1486.8 636.269 1487.7 637.161C1488.59 638.054 1489.09 639.264 1489.09 640.526V661.164H1511.39V640.526C1511.38 639.901 1511.5 639.282 1511.74 638.704C1511.97 638.127 1512.33 637.603 1512.77 637.164C1513.21 636.725 1513.74 636.38 1514.32 636.15C1514.9 635.92 1515.52 635.809 1516.15 635.825C1516.77 635.817 1517.39 635.933 1517.97 636.165C1518.55 636.397 1519.08 636.741 1519.53 637.178C1519.98 637.614 1520.33 638.135 1520.58 638.709C1520.83 639.284 1520.96 639.901 1520.96 640.526V691.261C1520.96 691.891 1520.84 692.514 1520.6 693.095C1520.35 693.676 1520 694.203 1519.55 694.646C1519.1 695.088 1518.57 695.438 1517.99 695.674C1517.4 695.909 1516.78 696.027 1516.15 696.019C1515.52 696.027 1514.9 695.909 1514.32 695.673C1513.74 695.436 1513.21 695.086 1512.77 694.643C1512.32 694.199 1511.97 693.672 1511.74 693.091C1511.5 692.51 1511.38 691.888 1511.39 691.261V670.91H1489.09V691.548C1489.09 692.81 1488.59 694.02 1487.7 694.912C1486.8 695.805 1485.59 696.306 1484.33 696.306C1483.07 696.306 1481.86 695.805 1480.97 694.912C1480.07 694.02 1479.57 692.81 1479.57 691.548V691.261Z" fill="white"/>
<path d="M1560.69 672.63H1550.09V691.261C1550.07 692.528 1549.56 693.739 1548.66 694.629C1547.75 695.52 1546.54 696.02 1545.27 696.019C1544.02 696.004 1542.82 695.496 1541.94 694.606C1541.06 693.715 1540.57 692.513 1540.57 691.261V640.526C1540.57 639.279 1541.07 638.084 1541.95 637.202C1542.83 636.32 1544.02 635.825 1545.27 635.825H1560.69C1563.11 635.825 1565.5 636.301 1567.73 637.226C1569.97 638.151 1572 639.506 1573.7 641.215C1575.41 642.924 1576.77 644.953 1577.69 647.185C1578.62 649.418 1579.09 651.811 1579.09 654.227C1579.09 656.644 1578.62 659.037 1577.69 661.27C1576.77 663.502 1575.41 665.531 1573.7 667.24C1572 668.949 1569.97 670.304 1567.73 671.229C1565.5 672.154 1563.11 672.63 1560.69 672.63V672.63ZM1550.09 663.056H1560.69C1561.91 663.154 1563.15 662.999 1564.31 662.598C1565.46 662.198 1566.53 661.561 1567.43 660.729C1568.33 659.897 1569.05 658.887 1569.54 657.763C1570.04 656.639 1570.29 655.426 1570.29 654.199C1570.29 652.972 1570.04 651.758 1569.54 650.634C1569.05 649.51 1568.33 648.5 1567.43 647.668C1566.53 646.836 1565.46 646.2 1564.31 645.799C1563.15 645.399 1561.91 645.243 1560.69 645.342H1550.09V663.056Z" fill="white"/>
<path d="M1298.25 1561.96L1313.04 1650.87L1413.47 2193.25H1429.7L1356.66 1650.87L1345.83 1561.96H1298.25Z" fill="#A6A6A6"/>
<path d="M1345.83 1561.96H1298.25L1313.04 1650.87H1356.66L1345.83 1561.96Z" fill="#263238"/>
<path d="M982.827 2193.25H999.051L1099.43 1650.87L1114.28 1561.96H1066.64L1055.86 1650.87L982.827 2193.25Z" fill="#A6A6A6"/>
<path d="M1066.64 1561.96L1055.86 1650.87H1099.43L1114.28 1561.96H1066.64Z" fill="#263238"/>
<path d="M681.627 2193.25H697.793L798.232 1650.87L813.022 1561.96H765.44L754.663 1650.87L681.627 2193.25Z" fill="#A6A6A6"/>
<path d="M754.663 1650.87H798.232L813.022 1561.96H765.44L754.663 1650.87Z" fill="#263238"/>
<path d="M707.252 1603.75H1443.23V1526.18H1167.71L1075.13 872.818H735.343L707.252 1603.75Z" fill="#A6A6A6"/>
<path d="M707.252 1603.75H747.382L773.523 872.818H735.343L707.252 1603.75Z" fill="#DBDBDB"/>
<path d="M1189.95 924.357L1175.74 922.866C1176.14 904.579 1167.48 875.628 1168.97 889.903C1169.71 900.643 1169.23 911.432 1167.54 922.064L950.494 899.82C950.494 872.188 967.292 828.505 967.292 828.505C951.068 849.716 942.411 881.189 938.628 898.617L915.696 896.266C915.066 879.698 923.665 852.41 923.665 852.41C916.327 862.787 910.48 882.966 907.441 895.464L881.586 892.769C885.267 858.519 899.261 826.193 921.716 800.07C941.838 775.706 950.38 754.552 953.819 697.969C957.718 630.036 1005.07 611.175 1012.41 603.665C1077.25 537.107 1184.05 604.296 1173.39 688.682C1165.36 752.201 1157.91 759.081 1181.3 819.218C1198.95 864.392 1189.95 924.357 1189.95 924.357Z" fill="#263238"/>
<path d="M1047.78 896.151C1080.63 1015.85 1108.03 1108.61 1142.31 1131.19C1170 1149.37 1208.87 1162.15 1248.83 1171.32C1291.57 1180.28 1334.85 1186.47 1378.39 1189.84C1391.8 1190.93 1402.98 1191.62 1410.89 1192.19C1430.5 1193.45 1462.49 1064.01 1448.73 1048.24C1445.52 1044.63 1432.62 1041.82 1414.33 1039.53C1353.34 1031.9 1233.18 1030.07 1226.01 1023.25C1218.85 1016.42 1180.15 964.887 1127.41 897.527C1091.18 850.977 1061.48 837.275 1049.33 850.174C1042.68 857.225 1041.47 873.048 1047.78 896.151Z" fill="#EB9481"/>
<path d="M1371.57 1178.84C1390.51 1187.27 1409.99 1194.45 1429.87 1200.33C1445.75 1204.29 1491.67 1214.49 1497.75 1197.47C1501.93 1186 1475.62 1176.66 1457.16 1169.78C1447.47 1166.17 1435.26 1156.53 1437.9 1150.29C1442.42 1139.34 1467.48 1149.25 1484.04 1158.08C1516.03 1175.28 1559.03 1206.35 1577.6 1189.78C1584.6 1183.48 1575.77 1172.87 1563.1 1162.55C1583.51 1174.36 1605.18 1183.82 1613.2 1177.17C1615.29 1175.46 1616.65 1173.02 1616.99 1170.34C1617.33 1167.67 1616.63 1164.96 1615.04 1162.78C1617.6 1163.88 1620.42 1164.18 1623.15 1163.65C1625.88 1163.12 1628.39 1161.78 1630.35 1159.8C1636.59 1152.81 1633.04 1142.89 1625.59 1132.86C1626.8 1132.69 1627.95 1132.23 1628.95 1131.52C1629.94 1130.81 1630.76 1129.87 1631.32 1128.79C1644.28 1107.35 1573.3 1049.73 1549.34 1045.03C1478.77 1030.99 1404.59 1039.76 1404.59 1039.76C1377.93 1062.75 1371.51 1178.78 1371.57 1178.84Z" fill="#EB9481"/>
<path d="M1472.06 1109.81C1488.84 1111.67 1504.99 1117.24 1519.36 1126.09C1536.1 1136.7 1549.63 1151.55 1565.22 1163.64C1565.68 1163.99 1565.22 1164.62 1564.7 1164.27C1557.37 1157.97 1549.34 1152.41 1541.77 1146.39C1534.21 1140.37 1527.1 1134.41 1519.3 1129.19C1505.2 1119.36 1489.04 1112.88 1472.06 1110.21C1472.06 1110.21 1471.83 1109.81 1472.06 1109.81Z" fill="#263238"/>
<path d="M1483.99 1079.66C1502.83 1083.4 1521.25 1089.02 1538.96 1096.46C1558 1105.28 1573.36 1120.3 1588.09 1134.69C1597.04 1143.33 1605.81 1152.18 1614.41 1161.24C1614.75 1161.58 1614.41 1162.21 1613.83 1161.87C1598.55 1146.96 1582.95 1132.53 1567.06 1118.58C1552.29 1105.55 1535.08 1095.58 1516.43 1089.23C1505.77 1085.56 1494.82 1082.81 1483.93 1080C1483.7 1079.94 1483.76 1079.66 1483.99 1079.66Z" fill="#263238"/>
<path d="M1502.68 1053C1520.68 1055.98 1536.38 1058.73 1552.55 1067.56C1570.71 1078.72 1587.43 1092.09 1602.31 1107.35C1610.45 1115.43 1618.31 1123.8 1626.05 1132.23C1626.39 1132.57 1625.76 1133.14 1625.47 1132.8C1607.78 1114.28 1588.89 1096.93 1568.95 1080.86C1559.59 1073.04 1549.07 1066.73 1537.76 1062.17C1526.33 1058.15 1514.57 1055.12 1502.62 1053.11C1502.62 1053.11 1502.56 1053 1502.68 1053Z" fill="#263238"/>
<path d="M1047.78 896.151C1080.63 1015.85 1108.03 1108.61 1142.31 1131.2C1170 1149.37 1208.87 1162.15 1248.83 1171.32L1049.5 850.289C1042.68 857.226 1041.47 873.048 1047.78 896.151Z" fill="#263238"/>
<path d="M1037.4 875.972C1040.84 912.433 1064.75 975.149 1064.75 975.149L1191.27 964.429C1191.27 964.429 1142.37 892.769 1091.46 852.009C1086.69 848.142 1081.43 844.923 1075.81 842.435C1053.63 832.919 1034.19 841.805 1037.4 875.972Z" fill="#B03A2E"/>
<path d="M1037.4 875.972C1037.4 877.864 1037.8 879.87 1038.15 881.705C1038.49 883.539 1038.72 884.858 1039.07 886.52C1045.29 916.636 1053.87 946.213 1064.75 974.977L1069.79 974.576L1074.72 974.175L1114.51 970.792L1120.24 970.276L1159.86 966.894L1164.96 966.493L1179.52 965.231L1075.81 842.435C1053.63 832.919 1033.91 841.862 1037.4 875.972Z" fill="#263238"/>
<path d="M1955.97 2192.96C1942.32 2197.49 1541.77 2194.17 1526.98 2184.59C1525.21 2183.56 1524.75 2147.33 1524.92 2097.74V2096.77C1524.49 2061.76 1522.19 2026.8 1518.04 1992.03L1517.35 1986.3C1506.8 1893.83 1488.69 1803.94 1488.69 1803.94L1739.38 1803.02L1773.78 1986.47L1774.41 1992.2L1781.46 2060.54C1781.46 2060.54 1835.46 2083.47 1882.47 2106C1911.48 2119.87 1936.65 2132.54 1942.44 2137.18C1957.74 2149.28 1969.61 2188.55 1955.97 2192.96Z" fill="#EB9481"/>
<path d="M1955.97 2192.96C1942.32 2197.49 1541.77 2194.17 1526.98 2184.59C1525.21 2183.56 1524.75 2147.33 1524.92 2097.74V2096.77C1524.49 2061.76 1522.19 2026.8 1518.04 1992.03L1517.35 1986.3H1773.95L1774.58 1992.03L1781.63 2060.37C1781.63 2060.37 1835.64 2083.3 1882.64 2105.83C1911.65 2119.7 1936.82 2132.37 1942.61 2137.01C1957.74 2149.28 1969.61 2188.55 1955.97 2192.96Z" fill="#EBEBEB"/>
<path d="M1957.63 2194.51C1943.58 2199.04 1542.52 2194.51 1527.33 2184.88C1521.59 2181.21 1516.21 2119.3 1522.4 2050.96L1780.95 2054.06C1780.95 2054.06 1928.79 2124.4 1944.33 2136.95C1959.87 2149.51 1971.85 2190.1 1957.63 2194.51Z" fill="#B03A2E"/>
<path d="M1952.07 2178.63C1884.82 2176.22 1613.55 2172.9 1546.93 2175.77C1546.36 2175.77 1546.36 2176.17 1546.93 2176.17C1613.49 2180.01 1884.82 2181.04 1952.01 2179.72C1953.44 2179.44 1953.44 2178.63 1952.07 2178.63Z" fill="#263238"/>
<path d="M1918.65 2122.22C1911.22 2121.98 1903.82 2123.27 1896.91 2126.03C1890.01 2128.78 1883.74 2132.93 1878.52 2138.22C1868.95 2147.7 1863.42 2160.52 1863.1 2173.99C1863.1 2174.39 1863.84 2174.39 1863.9 2173.99C1866.32 2160.7 1872.99 2148.55 1882.9 2139.37C1892.81 2130.19 1905.44 2124.48 1918.88 2123.08C1918.97 2123.03 1919.04 2122.95 1919.08 2122.86C1919.12 2122.77 1919.12 2122.66 1919.1 2122.56C1919.07 2122.46 1919.01 2122.38 1918.93 2122.31C1918.85 2122.25 1918.75 2122.22 1918.65 2122.22V2122.22Z" fill="#263238"/>
<path d="M1801.98 2061C1775.1 2060.37 1743.8 2069.54 1726.83 2091.32C1726.2 2092.18 1727.4 2093.1 1728.2 2092.7C1751.86 2080.6 1776.75 2071.09 1802.44 2064.32C1802.81 2064.18 1803.12 2063.93 1803.32 2063.59C1803.52 2063.26 1803.6 2062.86 1803.54 2062.48C1803.49 2062.09 1803.31 2061.73 1803.02 2061.46C1802.74 2061.19 1802.37 2061.03 1801.98 2061V2061Z" fill="#263238"/>
<path d="M1822.79 2069.36C1795.91 2068.68 1764.61 2077.85 1747.64 2099.69C1746.95 2100.49 1748.21 2101.41 1749.01 2101.01C1772.67 2088.95 1797.53 2079.44 1823.2 2072.63C1823.58 2072.53 1823.92 2072.29 1824.14 2071.96C1824.37 2071.62 1824.46 2071.22 1824.41 2070.82C1824.37 2070.43 1824.17 2070.06 1823.88 2069.79C1823.58 2069.52 1823.19 2069.37 1822.79 2069.36V2069.36Z" fill="#263238"/>
<path d="M1843.38 2077.68C1816.43 2076.99 1785.13 2086.16 1768.22 2108C1767.53 2108.81 1768.73 2109.78 1769.54 2109.38C1793.28 2097.26 1818.27 2087.75 1844.06 2081C1844.44 2080.86 1844.76 2080.58 1844.96 2080.22C1845.15 2079.86 1845.22 2079.45 1845.13 2079.05C1845.05 2078.65 1844.83 2078.29 1844.51 2078.04C1844.18 2077.79 1843.78 2077.66 1843.38 2077.68V2077.68Z" fill="#263238"/>
<path d="M1864.07 2085.99C1837.13 2085.3 1805.83 2094.48 1788.91 2116.32C1788.23 2117.18 1789.43 2118.09 1790.23 2117.69C1813.89 2105.59 1838.78 2096.08 1864.47 2089.32C1864.84 2089.18 1865.15 2088.93 1865.35 2088.6C1865.55 2088.27 1865.64 2087.88 1865.59 2087.49C1865.54 2087.11 1865.37 2086.75 1865.09 2086.48C1864.82 2086.21 1864.46 2086.03 1864.07 2085.99V2085.99Z" fill="#263238"/>
<path d="M1564.82 2111.84C1534.67 2111.84 1534.21 2158.57 1564.48 2158.8C1594.74 2159.03 1594.97 2112.13 1564.82 2111.84Z" fill="#263238"/>
<path d="M1831.85 1989.45C1818.32 1977.99 1801.07 1988.88 1792.53 2000.52C1778.21 2020.82 1769.53 2044.56 1767.36 2069.31C1767.35 2069.41 1767.36 2069.52 1767.4 2069.62C1767.44 2069.72 1767.5 2069.81 1767.58 2069.88C1767.65 2069.95 1767.75 2070.01 1767.85 2070.04C1767.95 2070.07 1768.06 2070.07 1768.16 2070.05C1768.26 2070.56 1768.48 2071.04 1768.79 2071.45C1769.11 2071.86 1769.53 2072.19 1770 2072.41C1770.47 2072.63 1770.98 2072.73 1771.5 2072.71C1772.02 2072.69 1772.53 2072.54 1772.98 2072.29C1792.3 2059.28 1814.54 2047.7 1829.27 2029.12C1837.87 2018.11 1844.64 2000.34 1831.85 1989.45ZM1798.2 2046.32C1788.86 2052.97 1779.28 2059.1 1770.17 2066.1C1775.16 2052.74 1779.46 2039.21 1785.76 2026.37C1788.7 2020.13 1792.05 2014.1 1795.79 2008.31C1801.53 1999.48 1828.41 1977.3 1830.76 2006.59C1832.08 2022.82 1809.32 2038.47 1798.2 2046.38V2046.32Z" fill="#263238"/>
<path d="M1700.4 2078.37C1723.79 2082.21 1748.04 2075.84 1771.08 2072.63C1771.59 2072.51 1772.06 2072.27 1772.45 2071.93C1772.85 2071.59 1773.16 2071.17 1773.36 2070.69C1773.56 2070.21 1773.64 2069.69 1773.61 2069.17C1773.57 2068.65 1773.41 2068.15 1773.15 2067.7C1773.23 2067.64 1773.3 2067.56 1773.35 2067.46C1773.39 2067.37 1773.42 2067.26 1773.42 2067.16C1773.42 2067.05 1773.39 2066.95 1773.35 2066.86C1773.3 2066.76 1773.23 2066.68 1773.15 2066.61C1754.89 2049.86 1732.55 2038.2 1708.37 2032.79C1694.27 2029.92 1673.97 2033.48 1671.85 2051.08C1669.79 2067.53 1686.76 2076.13 1700.4 2078.37ZM1684.29 2062.89C1666.35 2039.61 1701.03 2038.12 1711.35 2040.64C1718 2042.43 1724.53 2044.65 1730.9 2047.29C1744.2 2052.57 1756.47 2059.62 1769.14 2066.16C1757.67 2067.13 1746.49 2069.02 1735.08 2070.4C1721.5 2072 1694.21 2075.73 1684.29 2062.89Z" fill="#263238"/>
<path d="M1794.76 1966.52L1504.05 1965.26C1504.05 1965.26 1403.33 1577.61 1379.71 1550.49C1335.97 1500.27 988.273 1524.58 893.854 1420.41C802.13 1319.52 893.854 1136.87 893.854 1136.87H1151.31C1154.39 1169.79 1159.29 1202.52 1165.99 1234.9C1165.99 1234.9 1489.95 1286.5 1586.15 1386.19C1659.58 1462.03 1794.76 1966.52 1794.76 1966.52Z" fill="#37474F"/>
<path d="M1774.75 1920.66C1756.81 1919.22 1738.98 1917.39 1721.04 1916.64C1703.09 1915.9 1685.04 1915.55 1667.03 1915.27C1631.26 1914.69 1595.51 1914.69 1559.77 1915.27C1539.59 1915.67 1519.64 1916.53 1499.18 1916.64C1498.66 1916.64 1498.78 1917.56 1499.18 1917.56C1535.47 1917.56 1571.87 1918.99 1608.1 1919.91C1644.33 1920.83 1679.13 1921.98 1714.67 1922.55C1734.68 1922.84 1754.8 1922.26 1774.58 1922.09C1775.61 1922.32 1775.61 1920.66 1774.75 1920.66Z" fill="#263238"/>
<path d="M1463.69 1675.24C1452.23 1637.94 1439.75 1600.94 1426.26 1564.25C1420.53 1548.6 1415.82 1530.71 1404.59 1517.93C1393.35 1505.15 1377.01 1501.3 1361.48 1497.92C1286.95 1481.47 1210.82 1474.99 1135.78 1461.98C1098.6 1455.88 1061.89 1447.16 1025.94 1435.89C1008.3 1430.54 991.251 1423.43 975.031 1414.68C960.38 1406.38 947.285 1395.6 936.335 1382.81C915.83 1357.86 902.582 1327.75 898.04 1295.78C893.152 1257.95 896.575 1219.51 908.072 1183.13C910.709 1174.25 913.805 1165.42 917.072 1156.76C917.072 1156.25 916.442 1156.02 916.213 1156.76C891.103 1222.06 880.784 1297.45 916.213 1361.08C923.809 1374.82 933.477 1387.31 944.876 1398.11C957.432 1409.73 971.8 1419.22 987.414 1426.2C1020.95 1441.86 1057.87 1451.14 1093.93 1458.94C1168.45 1474.99 1244.99 1481.35 1320.2 1494.71C1338.54 1497.61 1356.71 1501.44 1374.66 1506.18C1383.17 1508.2 1391.1 1512.12 1397.88 1517.64C1404.2 1523.73 1409.08 1531.15 1412.16 1539.37C1419.49 1556.85 1425.34 1575.09 1431.59 1593.03C1437.84 1610.97 1444.43 1630.18 1450.51 1648.81C1474.81 1723.53 1496.22 1799.08 1514.72 1875.48L1521.42 1903.4C1521.42 1904.32 1522.97 1903.92 1522.8 1903C1506.99 1826.12 1487.26 1750.1 1463.69 1675.24V1675.24Z" fill="#263238"/>
<path d="M1518.38 2260.61C1504.28 2263.53 1107 2212.74 1093.41 2201.51C1091.81 2200.24 1096.05 2164.3 1101.67 2115C1104.94 2086.33 1111.47 2050.39 1118.87 2013.81C1139.33 1916.64 1168.34 1813.17 1168.34 1813.17L1428.78 1856.62L1376.1 2041.68L1358.04 2104.74C1358.04 2104.74 1411.58 2137.13 1455.5 2165.16C1482.61 2182.36 1506.17 2197.95 1511.33 2203.23C1525.38 2217.44 1532.49 2257.8 1518.38 2260.61Z" fill="#EB9481"/>
<path d="M1518.38 2260.61C1504.28 2263.53 1107 2212.74 1093.41 2201.51C1091.81 2200.24 1096.05 2164.3 1101.67 2115C1104.94 2086.33 1111.47 2050.39 1118.87 2013.81L1376.1 2041.62L1358.04 2104.68C1358.04 2104.68 1411.58 2137.07 1455.5 2165.1C1482.61 2182.3 1506.17 2197.89 1511.33 2203.17C1525.38 2217.44 1532.49 2257.8 1518.38 2260.61Z" fill="#EBEBEB"/>
<path d="M1520.05 2261.99C1505.54 2264.91 1107.63 2214.63 1093.64 2203.11C1088.37 2198.75 1094.27 2137.13 1108.26 2070L1359.07 2102.27C1359.07 2102.27 1499.41 2189.06 1513.22 2203.28C1527.04 2217.5 1534.49 2258.89 1520.05 2261.99Z" fill="#B03A2E"/>
<path d="M1516.32 2245.36C1449.82 2235.27 1180.67 2200.99 1114.17 2196.06C1113.65 2196.06 1113.59 2196.4 1114.17 2196.52C1179.81 2207.98 1449.25 2240.03 1516.21 2246.45C1517.58 2246.57 1517.75 2245.59 1516.32 2245.36Z" fill="#263238"/>
<path d="M1489.61 2185.74C1482.2 2184.63 1474.64 2185.07 1467.41 2187.05C1460.19 2189.02 1453.45 2192.48 1447.64 2197.21C1437.09 2205.54 1430.14 2217.61 1428.21 2230.92C1428.21 2231.32 1428.95 2231.43 1429.07 2230.92C1432.99 2217.99 1441 2206.69 1451.9 2198.71C1462.79 2190.73 1475.98 2186.5 1489.49 2186.66C1489.61 2186.67 1489.73 2186.64 1489.83 2186.56C1489.93 2186.49 1489.99 2186.38 1490.01 2186.26C1490.02 2186.14 1489.99 2186.01 1489.91 2185.92C1489.84 2185.82 1489.73 2185.76 1489.61 2185.74V2185.74Z" fill="#263238"/>
<path d="M1380.74 2111.56C1354.08 2107.83 1321.92 2113.34 1302.6 2133.06C1301.8 2133.86 1302.95 2134.89 1303.75 2134.6C1328.64 2125.32 1354.45 2118.71 1380.74 2114.88C1381.18 2114.88 1381.6 2114.71 1381.92 2114.4C1382.23 2114.08 1382.4 2113.66 1382.4 2113.22C1382.4 2112.78 1382.23 2112.36 1381.92 2112.05C1381.6 2111.73 1381.18 2111.56 1380.74 2111.56V2111.56Z" fill="#263238"/>
<path d="M1400.29 2122.22C1373.69 2118.44 1341.53 2124 1322.15 2143.72C1321.41 2144.46 1322.49 2145.55 1323.35 2145.21C1348.24 2135.92 1374.05 2129.33 1400.35 2125.55C1400.79 2125.54 1401.21 2125.36 1401.51 2125.04C1401.82 2124.72 1401.99 2124.3 1401.98 2123.86C1401.97 2123.41 1401.79 2122.99 1401.47 2122.69C1401.16 2122.38 1400.73 2122.21 1400.29 2122.22V2122.22Z" fill="#263238"/>
<path d="M1419.89 2132.77C1393.24 2129.04 1361.13 2134.55 1341.76 2154.27C1341.01 2155.07 1342.1 2156.1 1342.96 2155.82C1367.84 2146.52 1393.66 2139.93 1419.95 2136.15C1420.35 2136.07 1420.7 2135.86 1420.95 2135.54C1421.2 2135.23 1421.34 2134.84 1421.33 2134.44C1421.32 2134.04 1421.18 2133.65 1420.91 2133.34C1420.65 2133.04 1420.29 2132.84 1419.89 2132.77V2132.77Z" fill="#263238"/>
<path d="M1439.5 2143.49C1412.84 2139.71 1380.74 2145.27 1361.36 2164.99C1360.62 2165.73 1361.71 2166.82 1362.57 2166.48C1387.45 2157.18 1413.26 2150.59 1439.56 2146.81C1440 2146.81 1440.42 2146.62 1440.73 2146.31C1441.03 2145.99 1441.2 2145.56 1441.19 2145.12C1441.18 2144.68 1441 2144.26 1440.68 2143.96C1440.37 2143.65 1439.94 2143.48 1439.5 2143.49V2143.49Z" fill="#263238"/>
<path d="M1139.16 2134.89C1109.24 2131.16 1103.45 2177.71 1133.43 2181.44C1163.41 2185.17 1169.26 2138.5 1139.16 2134.89Z" fill="#263238"/>
<path d="M1418.58 2043.97C1406.48 2031.07 1388.08 2039.84 1378.45 2050.45C1361.9 2068.88 1350.5 2091.34 1345.37 2115.57C1345.34 2115.68 1345.34 2115.79 1345.36 2115.9C1345.39 2116.01 1345.44 2116.11 1345.51 2116.2C1345.59 2116.28 1345.68 2116.35 1345.78 2116.39C1345.89 2116.43 1346 2116.44 1346.11 2116.43C1346.16 2116.95 1346.32 2117.44 1346.59 2117.89C1346.86 2118.33 1347.23 2118.7 1347.67 2118.97C1348.11 2119.24 1348.61 2119.41 1349.13 2119.46C1349.64 2119.5 1350.16 2119.43 1350.64 2119.24C1371.34 2108.46 1394.73 2099.52 1411.52 2082.78C1421.5 2073.03 1430.04 2056.18 1418.58 2043.97ZM1378.45 2096.6C1368.36 2102.33 1358.15 2107.09 1348.29 2112.99C1354.77 2100.32 1360.62 2087.42 1368.36 2075.33C1371.96 2069.47 1375.99 2063.87 1380.4 2058.59C1387.27 2050.5 1416.28 2031.47 1415.31 2060.88C1414.96 2077.05 1390.6 2089.95 1378.68 2096.6H1378.45Z" fill="#263238"/>
<path d="M1277.78 2117.18C1300.71 2123.65 1325.42 2120.1 1348.69 2119.41C1349.21 2119.36 1349.7 2119.18 1350.13 2118.9C1350.56 2118.62 1350.92 2118.24 1351.18 2117.79C1351.44 2117.34 1351.59 2116.84 1351.61 2116.33C1351.64 2115.81 1351.54 2115.3 1351.33 2114.83C1351.41 2114.76 1351.48 2114.67 1351.53 2114.57C1351.58 2114.47 1351.6 2114.36 1351.6 2114.25C1351.6 2114.14 1351.58 2114.04 1351.53 2113.94C1351.48 2113.84 1351.41 2113.75 1351.33 2113.68C1335.13 2094.96 1314.29 2080.82 1290.91 2072.69C1277.21 2068.22 1256.85 2069.48 1252.55 2086.62C1248.26 2103.76 1264.48 2113.34 1277.78 2117.18ZM1263.62 2099.98C1248.43 2074.81 1283.05 2077.05 1293.03 2081C1299.43 2083.52 1305.65 2086.47 1311.66 2089.83C1323.98 2096.86 1335.94 2104.52 1347.49 2112.76C1336.02 2112.36 1324.56 2112.76 1313.09 2112.76C1299.51 2113.28 1271.99 2113.79 1263.62 2099.92V2099.98Z" fill="#263238"/>
<path d="M1440.99 2030.61L1123.97 1992.03C1123.97 1992.03 1234.44 1555.65 1229.45 1549.12C1211.97 1526.53 944.475 1535.64 853.266 1444.95C756.669 1348.93 849.368 1136.64 849.368 1136.64L1090.15 1137.56C1090.15 1137.56 1091.75 1232.72 1102.59 1241.67C1109.75 1247.4 1442.37 1303.75 1496.48 1374.38C1578.98 1482.27 1440.99 2030.61 1440.99 2030.61Z" fill="#37474F"/>
<path d="M1518.96 1413.31C1514.44 1401.25 1507.97 1390.01 1499.81 1380.06C1490.64 1369.4 1479.87 1360.23 1467.88 1352.88C1442.56 1337.56 1415.84 1324.68 1388.08 1314.41C1359.76 1303.19 1330.87 1293.48 1301.51 1285.35C1271.76 1276.98 1241.61 1269.93 1211.39 1263.45C1181.18 1256.97 1150.97 1251.98 1120.7 1246.25L1106.43 1243.62C1122.02 1237.42 1137.5 1230.89 1153.09 1224.47C1153.25 1224.38 1153.36 1224.23 1153.43 1224.07C1153.49 1223.9 1153.5 1223.71 1153.45 1223.54C1153.39 1223.37 1153.29 1223.22 1153.14 1223.12C1152.99 1223.02 1152.81 1222.97 1152.63 1222.98C1121.12 1228.98 1091.06 1240.97 1064.06 1258.29C1063.66 1258.29 1064.06 1259.27 1064.4 1259.09C1077.93 1254.68 1091.23 1249.63 1104.53 1244.42C1131.99 1250.15 1159.28 1256.28 1186.63 1262.36C1216.21 1268.95 1245.68 1275.95 1274.8 1284.2C1332.58 1300.6 1390.03 1319.86 1443.46 1347.61C1467.65 1360.16 1490.52 1375.87 1504.11 1400.18C1516.72 1422.71 1520.5 1449.08 1521.31 1474.7C1521.33 1503.44 1519.7 1532.15 1516.43 1560.7C1513.53 1593.03 1510.13 1625.3 1506.23 1657.52C1502.27 1689.74 1479.63 1858.63 1477.05 1865.85C1476.71 1866.83 1478.37 1867.51 1478.83 1866.54C1482.15 1859.66 1521.31 1615.67 1524.23 1582.88C1526.93 1552.67 1529.96 1522.29 1530.31 1491.96C1531.57 1465.26 1527.72 1438.56 1518.96 1413.31Z" fill="#263238"/>
<path d="M1264.88 1514.03C1256.46 1511.78 1247.87 1510.25 1239.2 1509.44L1210.53 1504.92L1153.49 1495.86C1116.97 1490.12 1080.34 1484.74 1043.94 1478.32C981.853 1467.31 914.378 1447.3 878.663 1390.83C870.407 1377.82 864.743 1363.34 861.98 1348.18C859.18 1329.59 857.896 1310.8 858.139 1292C857.552 1254.13 859.987 1216.26 865.42 1178.78C866.738 1169.55 868.401 1160.43 870.178 1151.32C870.178 1150.74 869.433 1150.51 869.318 1151.32C862.137 1187.88 857.634 1224.92 855.846 1262.13C855.043 1280.71 855.043 1299.28 855.846 1317.85C855.839 1334.94 858.429 1351.94 863.528 1368.25C883.937 1427.12 943.787 1458.94 1000.6 1473.5C1035.63 1482.5 1071.69 1487.09 1107.4 1492.65L1219.94 1510.3L1248.03 1514.72C1255.59 1515.92 1269.29 1515.64 1270.96 1525.38C1271.32 1529.35 1270.93 1533.36 1269.81 1537.19C1268.72 1542.12 1267.69 1546.99 1266.6 1551.92L1260.41 1580.59C1252.31 1617.85 1244.34 1655.13 1236.5 1692.43C1220.51 1767.53 1205.49 1842.86 1189.95 1918.08L1184.22 1946.05C1184.22 1946.51 1184.85 1946.74 1184.97 1946.05C1201.42 1871.13 1218.22 1796.2 1234.5 1721.21C1242.75 1683.45 1250.82 1645.66 1258.69 1607.82C1262.64 1589.13 1266.54 1570.5 1270.15 1551.81C1272.53 1543.8 1274.01 1535.55 1274.57 1527.22C1274.6 1524.27 1273.67 1521.39 1271.92 1519.01C1270.17 1516.63 1267.7 1514.89 1264.88 1514.03Z" fill="#263238"/>
<path d="M1434.23 1991.63C1415.71 1987.73 1397.25 1983.43 1378.56 1980.16C1359.87 1976.89 1341.07 1974.03 1322.27 1971.28C1284.96 1965.74 1247.53 1960.82 1209.96 1956.54C1188.81 1954.08 1167.54 1952.13 1146.38 1949.49C1145.81 1949.49 1145.81 1950.29 1146.38 1950.35C1184.39 1955.17 1222.23 1961.82 1260.06 1967.84C1297.9 1973.86 1334.13 1979.76 1371.28 1985.04C1392.15 1988.13 1413.07 1990.31 1434 1992.95C1434.91 1993.35 1435.09 1991.86 1434.23 1991.63Z" fill="#263238"/>
<path d="M1166.91 1189.55C1150.21 1192.86 1133.35 1195.25 1116.4 1196.72C1089.74 1199.36 1052.54 1201.77 1004.5 1201.71H1000.6H981.968C937.538 1200.96 884.969 1198.27 824.144 1192.13C824.144 1192.13 894.543 932.726 966.432 848.168C968.037 846.218 969.699 844.384 971.362 842.435L972.336 841.403C977.91 835.466 984.393 830.454 991.541 826.555C992.802 825.867 994.064 825.237 995.382 824.663C1023.07 811.936 1052.31 822.485 1073.41 840.543C1080.11 846.276 1155.9 944.88 1162.61 982.487C1168.34 1015.68 1145.98 1051.28 1145.98 1051.28L1166.91 1189.55Z" fill="#B03A2E"/>
<path d="M1004.5 1201.71H1000.6H981.968C937.538 1200.96 884.969 1198.27 824.144 1192.14C824.144 1192.14 894.543 932.727 966.432 848.168C968.037 846.219 969.699 844.385 971.362 842.436L972.336 841.404C977.91 835.467 984.393 830.455 991.541 826.556C992.802 825.868 994.064 825.237 995.382 824.664L1004.5 1201.71Z" fill="#263238"/>
<path d="M946.138 872.073C882.618 969.015 807.748 1135.27 853.954 1163.93C929.57 1210.88 1133.08 1216.84 1179.52 1216.33C1199.58 1216.33 1222.11 1081.89 1206.69 1066.93C1191.27 1051.97 979.101 1068.02 975.891 1055.47C974.114 1048.24 990.911 981.57 1001.17 900.68C1012.81 806.834 964.139 844.671 946.138 872.073Z" fill="#EB9481"/>
<path d="M1170.63 1060.74C1170.63 1060.74 1231 1052.31 1270.78 1048.64C1292.97 1046.64 1331.32 1046.52 1348.29 1052.43C1373.69 1061.37 1474.41 1114.8 1461.8 1139.51C1450.34 1161.81 1370.08 1105.11 1370.08 1105.11C1370.08 1105.11 1456.41 1155.39 1437.9 1179.64C1419.38 1203.89 1336.94 1127.64 1336.94 1127.64C1336.94 1127.64 1424.54 1181.24 1401.49 1203.37C1384.29 1220.05 1305.47 1155.1 1305.47 1155.1C1305.47 1155.1 1380.4 1201.71 1363.25 1219.65C1344.28 1239.54 1267.98 1184.11 1267.98 1184.11C1216.38 1222.4 1176.25 1219.65 1148.16 1214.32C1141.22 1212.83 1170.63 1060.74 1170.63 1060.74Z" fill="#EB9481"/>
<path d="M1341.24 1085.56C1351.62 1091.3 1362.11 1096.63 1371.97 1102.76C1381.83 1108.9 1391.4 1116 1400.63 1123.28C1412.83 1132.62 1423.91 1143.33 1433.65 1155.22C1414.79 1135.44 1379.99 1111.82 1370.13 1105.4C1360.27 1098.98 1350.87 1092.04 1341.01 1085.62C1340.72 1085.73 1341.24 1085.45 1341.24 1085.56Z" fill="#263238"/>
<path d="M1317.34 1120.65C1330.29 1128.27 1343.36 1135.38 1355.97 1143.58C1368.59 1151.78 1385.67 1163.81 1397.59 1172.81C1398.51 1173.5 1397.88 1175.11 1396.96 1174.48C1384.7 1165.94 1366.58 1154.47 1354.2 1146.1C1341.81 1137.73 1329.78 1128.9 1317.16 1120.93C1316.93 1120.82 1317.16 1120.53 1317.34 1120.65Z" fill="#263238"/>
<path d="M1291.42 1147.08C1311.53 1158.32 1330.43 1171.59 1347.83 1186.69C1348.69 1187.38 1347.83 1187.66 1346.86 1186.69C1328.34 1173.16 1313.95 1162.38 1291.08 1147.48C1290.74 1147.53 1291.02 1146.73 1291.42 1147.08Z" fill="#263238"/>
<path d="M1170.23 1059.94C1197.75 1056.1 1270.44 1045.2 1298.19 1043.66C1321.41 1041.53 1344.78 1045.71 1365.83 1055.75C1398.73 1071.52 1428.73 1092.72 1454.58 1118.47C1459.62 1124.2 1467.13 1132.97 1462.37 1140.54C1456.64 1149.77 1430.04 1145.01 1400.06 1124.32C1398.97 1123.57 1399.49 1122.94 1400.58 1123.57C1442.25 1149.14 1456.81 1143.64 1460.02 1137.9C1462.15 1134.18 1458.93 1128.67 1456.07 1124.49C1451.53 1118.51 1446.26 1113.14 1440.36 1108.49C1420.65 1092.25 1399.35 1078.03 1376.78 1066.07C1352.42 1052.46 1324.68 1046.03 1296.81 1047.55C1268.15 1048.93 1198.72 1059.99 1170.23 1060.97C1169.66 1061.03 1169.6 1059.99 1170.23 1059.94Z" fill="#263238"/>
<path d="M1440.76 1166.74C1437.37 1159.53 1432.62 1153.05 1426.77 1147.65C1420.52 1140.51 1413.57 1134.02 1406.02 1128.27C1405.68 1128.27 1405.22 1128.27 1405.56 1128.79C1412.12 1134.68 1418.33 1140.96 1424.14 1147.59C1427.23 1151.24 1430.1 1155.07 1432.74 1159.06C1435.82 1162.76 1437.62 1167.37 1437.84 1172.18C1437.04 1181.41 1425.63 1182.68 1418.58 1181.19C1414 1180.09 1409.53 1178.6 1405.22 1176.71C1399.25 1173.96 1393.5 1170.76 1388.02 1167.14C1387.56 1166.8 1386.53 1167.14 1386.99 1167.43C1398.45 1175.68 1419.95 1193.05 1434.51 1183.71C1437.37 1182.05 1439.56 1179.45 1440.7 1176.35C1441.84 1173.25 1441.86 1169.85 1440.76 1166.74V1166.74Z" fill="#263238"/>
<path d="M859.114 977.901L993.089 976.468L1006.68 876.889C1012.87 831.027 1009.37 802.076 955.539 852.582C918.219 887.609 859.114 977.901 859.114 977.901Z" fill="#B03A2E"/>
<path d="M1017.28 819.16C991.025 826.67 993.662 856.193 1003.47 876.946C1013.27 897.699 1032.53 921.719 1046.58 921.031C1060.62 920.343 1063.26 885.029 1063.26 885.029C1063.26 885.029 1083.27 906.929 1093.76 899.304C1104.25 891.679 1083.21 851.378 1068.25 838.88C1046.58 820.708 1031.15 815.147 1017.28 819.16Z" fill="white"/>
<path d="M1003.01 835.842C1004.15 842.148 1032.19 883.998 1060.74 883.94C1070.08 883.94 1072.2 833.033 1072.2 833.033L1073.18 829.307L1087.28 777.253L1027.31 734.888L1018.6 729.155C1018.6 729.155 1015.68 743.659 1012.24 761.775L1011.72 764.355C1011.72 765.386 1011.32 766.304 1011.15 767.278C1010.57 769.973 1010.06 773.011 1009.54 775.476C1009.03 777.941 1008.8 779.604 1008.45 781.84C1008.11 784.075 1007.77 786.196 1007.36 788.432C1004.83 804.117 1003.37 819.958 1003.01 835.842V835.842Z" fill="#EB9481"/>
<path d="M1012.06 761.832C1016.71 776.831 1024.57 790.638 1035.09 802.29C1045.62 813.943 1058.55 823.163 1073 829.307L1087.11 777.253L1027.14 734.888L1018.43 729.155C1018.43 729.155 1015.5 743.717 1012.06 761.832Z" fill="#263238"/>
<path d="M1162.49 696.421C1166.85 790.954 1110.9 804.312 1090.32 805.343C1071.8 806.146 1008.68 806.662 994.522 713.046C980.362 619.429 1023.19 587.498 1065.21 583.37C1107.23 579.242 1158.08 602.116 1162.49 696.421Z" fill="#EB9481"/>
<path d="M1148.39 680.713C1146.23 680.428 1144.09 680.026 1141.97 679.509C1139.64 679.402 1137.4 678.537 1135.61 677.044C1135.16 676.449 1134.92 675.724 1134.92 674.98C1134.92 674.236 1135.16 673.512 1135.61 672.916C1136.65 671.876 1137.96 671.131 1139.39 670.759C1140.82 670.386 1142.32 670.399 1143.75 670.795C1146.78 671.169 1149.57 672.637 1151.6 674.923C1152.03 675.481 1152.28 676.152 1152.33 676.853C1152.39 677.553 1152.23 678.254 1151.89 678.869C1151.55 679.483 1151.04 679.985 1150.42 680.313C1149.79 680.64 1149.09 680.78 1148.39 680.713V680.713Z" fill="#263238"/>
<path d="M1087.79 682.376C1089.94 681.994 1092.07 681.497 1094.16 680.885C1096.47 680.65 1098.65 679.663 1100.35 678.076C1100.81 677.498 1101.06 676.78 1101.06 676.041C1101.06 675.302 1100.81 674.584 1100.35 674.006C1099.25 673.004 1097.91 672.312 1096.46 672C1095.01 671.688 1093.5 671.767 1092.09 672.229C1089.09 672.771 1086.38 674.379 1084.47 676.758C1084.09 677.324 1083.87 677.988 1083.85 678.672C1083.83 679.355 1084.01 680.03 1084.35 680.619C1084.7 681.207 1085.21 681.685 1085.82 681.996C1086.43 682.307 1087.11 682.439 1087.79 682.376V682.376Z" fill="#263238"/>
<path d="M1099.66 704.963C1099.66 704.676 1099.15 705.249 1099.2 705.536C1099.72 711.957 1099.2 719.41 1093.47 721.817C1093.47 721.817 1093.47 722.219 1093.47 722.161C1100.46 720.843 1101.15 711.04 1099.66 704.963Z" fill="#263238"/>
<path d="M1093.58 698.485C1083.21 698.199 1083.38 719.009 1093.01 719.295C1102.64 719.582 1102.3 698.715 1093.58 698.485Z" fill="#263238"/>
<path d="M1089.51 699.574C1087.68 700.778 1085.96 702.842 1083.78 703.071C1081.6 703.3 1079.31 701.179 1077.65 699.115H1077.3C1077.3 703.128 1078.85 707.198 1083.04 707.772C1087.22 708.345 1089.69 704.733 1090.66 700.72C1090.89 700.262 1090.2 699.173 1089.51 699.574Z" fill="#263238"/>
<path d="M1134.86 703.301C1134.86 703.014 1135.38 703.301 1135.38 703.874C1135.38 710.295 1136.01 717.69 1141.85 719.869V720.213C1134.86 719.238 1133.66 709.378 1134.86 703.301Z" fill="#263238"/>
<path d="M1140.59 696.536C1150.97 695.734 1151.77 716.544 1142.2 717.289C1132.62 718.034 1131.94 697.224 1140.59 696.536Z" fill="#263238"/>
<path d="M1145.01 697.74C1146.67 698.772 1148.39 700.721 1150.34 700.778C1152.29 700.836 1154.24 698.485 1155.61 696.307C1155.9 700.32 1154.75 704.505 1150.97 705.422C1147.19 706.339 1144.84 702.957 1143.75 699.001C1143.8 698.485 1144.32 697.339 1145.01 697.74Z" fill="#263238"/>
<path d="M1125.23 733.971C1125.23 733.971 1126.72 743.545 1126.84 748.074C1126.84 748.532 1110.38 752.259 1102.93 741.252C1102.88 741.164 1102.85 741.061 1102.87 740.958C1102.88 740.856 1102.92 740.761 1103 740.688C1103.07 740.615 1103.16 740.569 1103.27 740.557C1103.37 740.545 1103.47 740.567 1103.56 740.621C1109.44 744.451 1116.39 746.281 1123.4 745.838C1123.68 744.577 1120.24 729.5 1120.93 729.442C1124.47 729.662 1127.96 730.376 1131.31 731.563C1128.73 711.499 1122.94 691.95 1120.64 671.942C1120.65 671.81 1120.69 671.682 1120.77 671.577C1120.85 671.472 1120.97 671.395 1121.09 671.357C1121.22 671.319 1121.36 671.321 1121.48 671.365C1121.61 671.408 1121.71 671.49 1121.79 671.598C1128.68 692.313 1133.47 713.671 1136.06 735.347C1136.47 737.984 1127.06 734.774 1125.23 733.971Z" fill="#263238"/>
<path d="M1130.22 707.256C1129.82 692.409 1137.44 680.14 1147.42 679.854C1157.39 679.567 1165.59 691.319 1165.99 706.225C1166.39 721.13 1158.77 733.341 1148.79 733.627C1138.82 733.914 1130.68 722.047 1130.22 707.256ZM1133.83 707.256C1134.23 720.098 1140.88 730.188 1148.68 730.188C1156.47 730.188 1162.61 719.353 1162.21 706.511C1161.8 693.67 1155.21 683.58 1147.36 683.58C1139.5 683.58 1133.49 694.3 1133.83 707.142V707.256Z" fill="#37474F"/>
<path d="M1062.63 709.148C1062.83 704.252 1064.46 699.521 1067.31 695.537C1070.17 691.553 1074.12 688.489 1078.69 686.72C1083.26 684.952 1088.25 684.556 1093.04 685.582C1097.83 686.607 1102.22 689.01 1105.67 692.494C1109.11 695.978 1111.47 700.392 1112.44 705.195C1113.41 709.998 1112.96 714.981 1111.14 719.531C1109.32 724.082 1106.22 728.002 1102.2 730.812C1098.19 733.621 1093.44 735.197 1088.54 735.347C1081.63 735.301 1075.02 732.517 1070.17 727.606C1065.31 722.694 1062.6 716.056 1062.63 709.148V709.148ZM1066.24 709.148C1066.7 713.309 1068.36 717.247 1071.02 720.481C1073.68 723.714 1077.22 726.104 1081.21 727.357C1085.21 728.61 1089.48 728.673 1093.51 727.538C1097.54 726.403 1101.15 724.119 1103.9 720.965C1106.66 717.811 1108.43 713.924 1109.01 709.778C1109.59 705.632 1108.95 701.406 1107.17 697.618C1105.39 693.829 1102.54 690.642 1098.98 688.444C1095.42 686.246 1091.29 685.134 1087.11 685.242C1084.16 685.425 1081.28 686.186 1078.62 687.484C1075.97 688.782 1073.6 690.59 1071.64 692.805C1069.69 695.02 1068.19 697.598 1067.23 700.393C1066.28 703.187 1065.88 706.143 1066.07 709.09L1066.24 709.148Z" fill="#37474F"/>
<path d="M1111.59 705.307C1124.94 700.205 1131.13 704.39 1131.19 704.447L1133.31 701.581C1133.31 701.581 1125.69 695.848 1110.38 701.925L1111.59 705.307Z" fill="#37474F"/>
<path d="M1064.4 706.797L1064.92 703.185C1062.57 702.841 1007.59 694.3 1001.46 694.128C995.325 693.956 980.706 702.555 979.101 703.587L980.936 706.625C987.128 702.613 993.921 699.614 1001.06 697.739H1001.34C1005.93 697.854 1044.57 703.701 1064.4 706.797Z" fill="#37474F"/>
<path d="M1001.69 716.085C1024.62 716.085 1034.08 644.941 1035.11 636.17C1034.71 641.902 1032.93 671.082 1035.11 672.343C1037.6 672.362 1040.08 671.975 1042.45 671.197C1042.58 667.674 1042.98 664.167 1043.65 660.706C1043.65 659.101 1044.17 664.26 1044.86 670.624L1049.16 669.592C1049.16 662.078 1050.16 654.598 1052.14 647.348C1052.88 644.597 1053.23 657.094 1055.52 668.101C1075.52 662.948 1096.04 660.044 1116.69 659.445C1121.76 659.38 1126.83 659.571 1131.88 660.018C1132.22 651.304 1131.54 642.074 1131.88 644.081C1133.43 649.376 1134.47 654.809 1134.98 660.305L1141.51 660.993C1142.54 648.782 1137.38 629.061 1139.22 632.329C1144.73 641.739 1148.4 652.107 1150.05 662.884C1158.37 664.776 1160.6 666.496 1160.89 664.318C1159.2 640.115 1148.94 617.308 1131.94 599.996C1103.85 571.676 1046.23 562.905 1012.18 603.894C1012.18 603.894 984.719 620.519 979.56 648.61C974.4 676.7 988.274 716.142 1001.69 716.085Z" fill="#263238"/>
<path d="M1009.89 712.415C1009.89 712.415 990.452 682.089 976.751 688.911C963.049 695.733 976.751 739.13 992.344 745.608C994.274 746.579 996.38 747.15 998.537 747.285C1000.69 747.42 1002.85 747.116 1004.89 746.393C1006.93 745.67 1008.79 744.542 1010.38 743.077C1011.97 741.612 1013.24 739.84 1014.13 737.869L1009.89 712.415Z" fill="#EB9481"/>
<path d="M981.05 701.236C981.05 701.236 980.706 701.58 981.05 701.638C991.885 706.568 997.274 717.059 1000.94 727.779C1000.34 726.655 999.5 725.674 998.482 724.904C997.465 724.133 996.294 723.591 995.048 723.313C993.802 723.036 992.512 723.03 991.264 723.296C990.015 723.562 988.839 724.094 987.815 724.855C987.528 724.855 987.815 725.486 987.815 725.429C989.778 724.909 991.853 725.004 993.76 725.701C995.666 726.398 997.313 727.664 998.478 729.327C1000.4 732.129 1002.01 735.127 1003.29 738.27C1003.81 739.302 1005.59 738.843 1005.24 737.697V737.41C1006.22 723.365 996.07 703.243 981.05 701.236Z" fill="#263238"/>
<path d="M1196.89 1179.75H863.013V1194.71H1196.89V1179.75Z" fill="#455A64"/>
<path d="M1196.89 1179.75H1028.86V1194.71H1196.89V1179.75Z" fill="#263238"/>
<path d="M1032.76 1194.71H707.367L661.391 973.771H986.783L1032.76 1194.71Z" fill="#37474F"/>
<path d="M872.3 1089.4C872.665 1092.14 872.431 1094.93 871.616 1097.58C870.8 1100.22 869.421 1102.65 867.574 1104.71C865.727 1106.77 863.456 1108.41 860.917 1109.51C858.378 1110.6 855.631 1111.14 852.865 1111.07C846.935 1110.94 841.251 1108.67 836.851 1104.7C832.452 1100.72 829.63 1095.29 828.902 1089.4C828.537 1086.66 828.771 1083.87 829.586 1081.23C830.402 1078.58 831.781 1076.15 833.628 1074.09C835.475 1072.03 837.746 1070.4 840.285 1069.3C842.824 1068.2 845.571 1067.67 848.337 1067.73C854.27 1067.85 859.961 1070.11 864.363 1074.09C868.765 1078.07 871.583 1083.51 872.3 1089.4V1089.4Z" fill="white"/>
<path d="M1667.09 1194.77H1395.93V1173.67L1667.09 1164.9V1194.77Z" fill="#37474F"/>
<path d="M1945.08 1102.42H1470.17L1545.67 748.817H2020.63L1945.08 1102.42Z" fill="#455A64"/>
<path d="M1962.67 1102.42H1487.71L1563.27 748.817H2038.23L1962.67 1102.42Z" fill="#37474F"/>
<path d="M1706.48 975.606H1695.35L1712.27 896.265H1723.45L1706.48 975.606Z" fill="#263238"/>
<path d="M1728.49 975.606H1717.37L1734.28 896.265H1745.4L1728.49 975.606Z" fill="#263238"/>
<path d="M1750.45 975.606H1739.33L1756.24 896.265H1767.36L1750.45 975.606Z" fill="#263238"/>
<path d="M1772.46 975.606H1761.28L1778.19 896.265H1789.37L1772.46 975.606Z" fill="#263238"/>
<path d="M1794.42 975.606H1783.3L1800.21 896.265H1811.33L1794.42 975.606Z" fill="#263238"/>
<path d="M1816.37 975.606H1805.25L1822.16 896.265H1833.29L1816.37 975.606Z" fill="#263238"/>
<path d="M1838.39 975.606H1827.21L1844.18 896.265H1855.3L1838.39 975.606Z" fill="#263238"/>
<path d="M1828.36 1194.77H1594.75V1176.6L1828.36 1169.03V1194.77Z" fill="#455A64"/>
<path d="M1891.88 1194.71H1766.44L1690.88 996.588H1816.32L1891.88 1194.71Z" fill="#455A64"/>
<path d="M1912.51 1194.71H1787.08L1711.52 996.588H1836.96L1912.51 1194.71Z" fill="#263238"/>
<path d="M526.441 1102.42H673.028L597.47 748.817H450.883L526.441 1102.42Z" fill="#455A64"/>
<path d="M508.841 1102.42H655.428L579.928 748.817H433.34L508.841 1102.42Z" fill="#37474F"/>
<path d="M528.849 975.606H530.913L514.001 896.265H511.937L528.849 975.606Z" fill="#263238"/>
<path d="M533.263 975.606H535.327L518.415 896.265H516.351L533.263 975.606Z" fill="#263238"/>
<path d="M537.677 975.606H539.798L522.887 896.265H520.823L537.677 975.606Z" fill="#263238"/>
<path d="M542.149 975.606H544.212L527.301 896.265H525.237L542.149 975.606Z" fill="#263238"/>
<path d="M546.563 975.606H548.684L531.773 896.265H529.651L546.563 975.606Z" fill="#263238"/>
<path d="M551.034 975.606H553.098L536.186 896.265H534.123L551.034 975.606Z" fill="#263238"/>
<path d="M555.449 975.606H557.513L540.601 896.265H538.537L555.449 975.606Z" fill="#263238"/>
<path d="M559.863 975.606H561.984L545.072 896.265H542.951L559.863 975.606Z" fill="#263238"/>
<path d="M506.032 1194.77H681.398V1176.6L506.032 1169.03V1194.77Z" fill="#455A64"/>
<path d="M442.513 1194.71H509.701L585.259 996.588H518.071L442.513 1194.71Z" fill="#455A64"/>
<path d="M442.513 1194.71H489.063L564.564 996.588H518.071L442.513 1194.71Z" fill="#263238"/>
<path d="M1369.91 1194.94H1191.04C1175.74 1194.94 1197.86 1151.43 1253.59 1134.81C1309.31 1118.18 1387.1 1178.6 1369.91 1194.94Z" fill="#37474F"/>
<path d="M1299.51 1194.94C1299.04 1189.9 1299.46 1184.82 1300.77 1179.92C1302 1175.01 1303.93 1170.3 1306.5 1165.93C1309.15 1161.58 1312.53 1157.7 1316.48 1154.47C1320.39 1151.21 1324.97 1148.84 1329.89 1147.53C1326.24 1150.7 1322.8 1154.08 1319.57 1157.68C1316.52 1161.25 1313.8 1165.09 1311.43 1169.14C1306.69 1177.37 1302.7 1186 1299.51 1194.94V1194.94Z" fill="#263238"/>
<path d="M1320.66 1153.55C1326.19 1154.68 1331.57 1156.43 1336.71 1158.77C1341.85 1161.11 1346.76 1163.91 1351.39 1167.14C1356.12 1170.4 1360.32 1174.39 1363.83 1178.95C1367.62 1183.41 1369.66 1189.09 1369.56 1194.94C1367.52 1189.96 1364.38 1185.49 1360.39 1181.87C1356.51 1178.21 1352.35 1174.85 1347.95 1171.84C1339.29 1165.53 1329.78 1159.97 1320.66 1153.55Z" fill="#263238"/>
<path d="M528.447 1901.74H376.586V1928.45H528.447V1901.74Z" fill="#455A64"/>
<path d="M610.77 2292.43H594.374L460.628 1668.07L453.004 1632.47L428.984 1520.39L420.04 1478.6L386.389 1321.75L374.637 1266.83H433.054L442.57 1321.75L448.819 1357.81L453.004 1381.83L476.967 1520.39L484.706 1564.99L610.77 2292.43Z" fill="#455A64"/>
<path d="M433.054 1266.83L442.57 1321.75H386.389L374.637 1266.83H433.054Z" fill="#263238"/>
<path d="M484.706 1564.99L460.628 1668.07L453.004 1632.47L428.983 1520.39L420.04 1478.6L448.819 1357.81L453.004 1381.83L476.967 1520.39L484.706 1564.99Z" fill="#263238"/>
<path d="M531.314 1266.83L519.562 1321.75L476.967 1520.39L453.004 1632.47L311.576 2292.43H295.238L428.984 1520.39L453.004 1381.83L463.38 1321.75L472.897 1266.83H531.314Z" fill="#455A64"/>
<path d="M531.314 1266.83L519.561 1321.75H463.38L472.897 1266.83H531.314Z" fill="#263238"/>
<path d="M2135.86 1266.83L1916.12 2292.43H1899.79L2077.45 1266.83H2135.86Z" fill="#455A64"/>
<path d="M1979.19 1266.83L2198.92 2292.43H2215.26L2037.6 1266.83H1979.19Z" fill="#455A64"/>
<path d="M2133 1901.74H1981.13V1928.45H2133V1901.74Z" fill="#455A64"/>
<path d="M2225.64 1194.77H284.861V1266.83H2225.64V1194.77Z" fill="#455A64"/>
<path d="M270.701 1832.66C228.737 1746.67 155.358 1702.12 72.5765 1726.6C-10.2049 1751.08 -23.161 1866.48 38.8104 1895.6C100.782 1924.73 162.352 1839.65 194.971 1822.17C227.591 1804.68 270.701 1832.66 270.701 1832.66Z" fill="#B03A2E"/>
<path d="M311.347 2062.26C311.347 2051.82 310.716 2041.45 310.315 2031.07C309.627 2010.32 308.901 1989.56 308.136 1968.81C306.703 1930.8 302.404 1893.54 286.925 1858.57C273.031 1826.84 249.818 1800.09 220.368 1781.86C209.431 1775.26 197.647 1770.17 185.34 1766.73C174.189 1755.47 160.01 1747.68 144.523 1744.32C125.358 1740.45 105.662 1739.98 86.3351 1742.94C85.6472 1742.94 85.6472 1744.09 86.3351 1744.03C104.776 1741.68 123.501 1743 141.427 1747.93C149.103 1750.03 156.538 1752.94 163.613 1756.58C168.095 1758.96 172.389 1761.69 176.454 1764.72C159.761 1761.27 142.52 1761.42 125.891 1765.18C119.901 1766.63 114.035 1768.54 108.349 1770.92C103.816 1769.91 99.1689 1769.53 94.533 1769.77C88.4962 1769.95 82.4978 1770.79 76.6467 1772.29C64.6608 1775.66 53.2006 1780.68 42.594 1787.2C41.9634 1787.54 42.594 1788.46 43.1672 1788.11C53.5958 1782.42 64.768 1778.22 76.3601 1775.62C82.0155 1774.31 87.767 1773.47 93.5584 1773.09C96.7282 1772.92 99.905 1772.92 103.075 1773.09C79.5106 1783.99 60.5633 1802.88 49.5879 1826.41C49.3013 1827.04 50.2186 1827.61 50.5052 1826.92C57.0358 1813.27 66.5614 1801.27 78.373 1791.81C90.1845 1782.35 103.978 1775.68 118.725 1772.29C120.502 1771.83 122.394 1771.6 124.458 1771.2C123.827 1773.9 123.942 1776.93 123.598 1779.57C123.025 1783.76 122.337 1787.94 121.477 1792.07C119.653 1800.67 117.298 1809.15 114.426 1817.47C111.622 1825.84 108.271 1834.01 104.393 1841.94C100.642 1850.32 95.9496 1858.25 90.4054 1865.56C89.8894 1866.14 90.864 1866.88 91.2653 1866.19C96.2528 1858.4 102.043 1851.23 106.572 1843.26C110.898 1835.53 114.635 1827.48 117.751 1819.19C120.927 1810.79 123.401 1802.14 125.146 1793.33C126.063 1788.69 126.809 1783.99 127.324 1779.29C127.897 1776.48 128.071 1773.6 127.84 1770.74C137.573 1769.24 147.461 1769.03 157.25 1770.11C153.581 1790.69 149.625 1812.13 138.102 1830.02C137.701 1830.59 138.733 1831.17 139.077 1830.54C144.446 1821.05 149.195 1811.23 153.294 1801.13C157.065 1791.23 159.42 1780.84 160.288 1770.28C177.375 1772.59 193.871 1778.12 208.902 1786.57C237.223 1803.08 259.81 1827.86 273.625 1857.59C288.302 1889.39 296.543 1923.78 297.875 1958.78C300.627 2002.86 301.2 2047.18 305.614 2091.15C305.614 2094.01 310.43 2094.99 311.003 2091.72C312.035 2081.93 312.15 2072.07 311.347 2062.26V2062.26Z" fill="#263238"/>
<path d="M214.348 1774.93C211.604 1771.57 208.4 1768.62 204.832 1766.16C201.392 1763.29 197.895 1760.43 194.169 1758.02C186.89 1753.03 178.83 1749.29 170.32 1746.95C169.632 1746.95 169.403 1747.87 170.32 1748.04C178.87 1750.18 186.877 1754.09 193.825 1759.51C197.322 1762.09 200.704 1764.84 203.972 1767.71C206.897 1770.74 210.124 1773.47 213.603 1775.85C214.004 1776.3 214.807 1775.56 214.348 1774.93Z" fill="#263238"/>
<path d="M80.4303 1806C73.4948 1814.09 67.0803 1822.61 61.2255 1831.51C55.4769 1840.45 50.6737 1849.96 46.8936 1859.89C46.8936 1860.18 47.2375 1860.35 47.4095 1859.89C57.0021 1841.12 68.3257 1823.29 81.2329 1806.63C81.6915 1806.4 80.8889 1805.66 80.4303 1806Z" fill="#263238"/>
<path d="M170.722 1797.69C169.817 1803.07 168.218 1808.31 165.963 1813.28C163.678 1818.09 161.013 1822.71 157.995 1827.1C157.949 1827.16 157.93 1827.23 157.94 1827.31C157.951 1827.38 157.991 1827.45 158.052 1827.5C158.113 1827.54 158.189 1827.56 158.265 1827.55C158.34 1827.54 158.408 1827.5 158.453 1827.44C165.7 1819.13 170.327 1808.85 171.754 1797.92C171.754 1797.23 170.836 1796.94 170.722 1797.69Z" fill="#263238"/>
<path d="M305.5 1834.66C305.5 1834.66 364.891 1760.14 479.547 1786.45C588.47 1811.62 638.803 2011.46 528.677 2035.37C418.55 2059.27 437.984 1874.34 397.855 1842.98C368.388 1820.05 326.08 1825.03 305.5 1834.66Z" fill="#B03A2E"/>
<path d="M568.118 1895.72C560.651 1889.17 552.761 1883.12 544.499 1877.6C536.701 1872.29 528.215 1868.07 519.275 1865.05C514.782 1858.35 509.759 1852.02 504.255 1846.13C494.233 1835.25 482.639 1825.94 469.858 1818.5H473.298C479.371 1818.18 485.456 1818.18 491.528 1818.5C503.754 1819.25 515.741 1822.22 526.899 1827.27C527.029 1827.33 527.177 1827.34 527.311 1827.29C527.446 1827.24 527.555 1827.14 527.616 1827.01C527.677 1826.88 527.684 1826.73 527.635 1826.6C527.587 1826.46 527.487 1826.36 527.358 1826.29C516.031 1821.41 504.183 1817.83 492.044 1815.63C486.122 1814.57 480.116 1814.06 474.101 1814.08C470.89 1814.08 467.68 1814.37 464.469 1814.66H462.635C452.142 1809.33 441.059 1805.25 429.614 1802.5L432.767 1801.64C438.443 1800.38 444.185 1799.45 449.966 1798.83C461.404 1797.5 472.968 1797.68 484.362 1799.35C485.05 1799.35 485.279 1798.38 484.362 1798.26C472.95 1796.9 461.449 1796.44 449.966 1796.89C440.311 1797.17 430.708 1798.42 421.302 1800.61C414.388 1799.35 407.397 1798.54 400.377 1798.2C360.247 1796.54 316.793 1811.5 292.199 1844.35C267.606 1877.2 262.102 1921 257.745 1960.79C251.034 2016.07 249.556 2071.87 253.331 2127.44C253.331 2130.76 258.204 2130.13 258.319 2127.04C259.809 2079.91 261.472 2032.79 266.001 1985.84C268.064 1964.05 270.357 1942.27 273.969 1920.71C276.598 1902.15 281.928 1884.07 289.792 1867.05C298.31 1849.69 311.773 1835.23 328.488 1825.49C345.294 1815.85 364.035 1810.08 383.351 1808.58C400.698 1807.16 418.16 1808.79 434.946 1813.4C434.429 1816.76 434.429 1820.18 434.946 1823.54C435.293 1827.81 436.14 1832.03 437.468 1836.1C438.708 1839.94 440.301 1843.67 442.226 1847.22C444.347 1851.17 447.042 1854.67 449.392 1858.68C449.794 1859.26 450.711 1858.68 450.309 1858.05C445.573 1851.33 442.525 1843.56 441.424 1835.41C440.688 1831.63 440.228 1827.79 440.048 1823.94C440.048 1820.96 440.048 1818.21 440.048 1815.06C458.24 1820.65 475.218 1829.62 490.095 1841.49C492.904 1843.72 495.828 1846.07 498.236 1848.48C494.438 1851.99 491.157 1856.03 488.49 1860.46C484.568 1866.19 481.154 1872.25 478.285 1878.58C472.992 1891.43 469.426 1904.92 467.68 1918.71C467.68 1919.39 468.712 1919.62 468.769 1918.71C470.717 1905.35 474.965 1892.43 481.324 1880.53C484.362 1874.73 487.751 1869.12 491.471 1863.73C493.42 1860.98 495.426 1858 497.204 1855.59C498.35 1854.21 499.554 1852.72 500.643 1851.23C514.141 1864.45 525.151 1879.98 533.148 1897.09V1897.09C527.71 1902.81 523.185 1909.32 519.733 1916.41C515.619 1923.79 512.037 1931.46 509.013 1939.34C503.45 1954.63 498.873 1970.25 495.312 1986.12C495.312 1986.81 496.229 1987.04 496.401 1986.12C499.891 1970.22 505.34 1954.82 512.625 1940.26C516.064 1933.1 519.676 1926.04 523.517 1919.05C527.48 1912.57 531.078 1905.87 534.295 1898.99C541.928 1915.71 546.361 1933.72 547.365 1952.07C547.365 1952.82 548.512 1952.7 548.455 1952.07C546.344 1923.26 537.53 1895.35 522.715 1870.55C529.709 1873.53 536.76 1876.28 543.525 1880.07C552.101 1884.58 560.091 1890.12 567.316 1896.58C567.946 1897.04 568.634 1896.18 568.118 1895.72Z" fill="#263238"/>
<path d="M484.018 1899.96C480.579 1911.43 476.222 1922.26 473.126 1933.73C469.965 1944.69 468.268 1956.03 468.081 1967.44C468.081 1967.44 468.597 1967.78 468.597 1967.44C471.717 1944.54 477.231 1922.04 485.05 1900.31C485.105 1900.23 485.141 1900.15 485.156 1900.06C485.172 1899.97 485.166 1899.88 485.139 1899.79C485.112 1899.7 485.064 1899.62 485.001 1899.56C484.937 1899.49 484.859 1899.45 484.773 1899.42C484.687 1899.39 484.595 1899.38 484.505 1899.39C484.415 1899.41 484.33 1899.44 484.256 1899.5C484.183 1899.55 484.123 1899.62 484.081 1899.7C484.04 1899.78 484.018 1899.87 484.018 1899.96V1899.96Z" fill="#263238"/>
<path d="M556.653 1871.87C552.142 1867.54 547.024 1863.89 541.461 1861.04C535.789 1858.45 529.9 1856.38 523.861 1854.84C523.23 1854.84 523.001 1855.76 523.861 1855.88C529.878 1857.44 535.661 1859.79 541.059 1862.87C546.479 1865.68 551.69 1868.88 556.653 1872.44C556.538 1872.73 556.997 1872.21 556.653 1871.87Z" fill="#263238"/>
<path d="M361.91 1735.09C361.91 1735.09 372.917 1600.94 472.61 1557.37C555.907 1521.02 603.547 1614.7 544.728 1672.03C497.089 1718.35 420.728 1697.42 361.91 1735.09Z" fill="#B03A2E"/>
<path d="M526.269 1583.45C511.08 1589.57 496.264 1596.58 481.897 1604.44C469.957 1611.34 458.469 1619 447.5 1627.37C449.106 1623.98 450.596 1620.43 452.259 1617.11C454.838 1611.89 457.647 1606.84 460.686 1601.91C466.844 1591.77 474.239 1582.43 482.7 1574.11C483.216 1573.65 482.356 1572.85 481.897 1573.36C473.545 1581.72 465.877 1590.73 458.966 1600.31C455.552 1605.19 452.395 1610.24 449.507 1615.44C446.573 1620.27 444.317 1625.48 442.8 1630.92L441.71 1631.72C424.284 1645.6 408.321 1661.21 394.071 1678.33C394.358 1677.01 394.644 1675.69 394.988 1674.49C396.823 1667.9 398.886 1661.42 400.721 1655C405.015 1641.22 411.086 1628.06 418.779 1615.84C419.123 1615.27 418.149 1614.7 417.805 1615.33C409.946 1627.54 402.973 1640.3 396.937 1653.51C394.159 1659.92 391.86 1666.53 390.058 1673.29C388.608 1677.68 387.515 1682.19 386.79 1686.76C382.433 1692.49 378.191 1697.82 374.121 1703.56C331.354 1764.5 309.856 1838.22 304.697 1912C303.22 1933.96 302.856 1955.98 303.608 1977.98C303.737 2000.19 305.654 2022.35 309.34 2044.25C309.34 2045.63 311.805 2045.23 311.748 2043.91C311.289 2024.53 309.283 2005.21 308.882 1985.84C308.48 1966.46 309.226 1946.91 310.774 1927.59C313.892 1888.88 321.176 1850.61 332.501 1813.45C344.105 1775.4 361.196 1739.25 383.236 1706.14C387.421 1705.28 391.606 1704.19 395.733 1703.1C399.861 1702.01 405.708 1700.52 410.639 1699.14C420.229 1696.69 429.546 1693.27 438.443 1688.94C439.073 1688.94 438.443 1687.68 437.869 1688.02C429.082 1692.83 419.547 1696.12 409.664 1697.77C401.867 1699.31 393.784 1700.35 385.93 1702.12C393.144 1691.57 400.894 1681.39 409.148 1671.62C428.152 1673.37 447.314 1671.94 465.845 1667.38C475.719 1665.02 485.428 1662.01 494.911 1658.38C504.886 1654.54 514.345 1649.55 524.205 1645.43C524.334 1645.36 524.434 1645.25 524.482 1645.12C524.531 1644.99 524.524 1644.84 524.463 1644.71C524.402 1644.58 524.292 1644.48 524.158 1644.43C524.024 1644.38 523.876 1644.39 523.746 1644.45C505.936 1654.15 486.512 1660.54 466.419 1663.31C448.63 1666.13 430.655 1667.6 412.645 1667.73C419.696 1659.59 427.034 1651.67 434.831 1644.22C461.03 1619.28 492.159 1596.35 526.555 1584.43C527.186 1584.26 527.186 1583.17 526.269 1583.45Z" fill="#263238"/>
<path d="M445.092 1583.86C440.62 1589.53 436.54 1595.51 432.882 1601.74C429.09 1608.29 426.106 1615.28 423.996 1622.55C423.996 1622.55 423.996 1622.9 424.397 1622.55C427.722 1616.02 430.531 1609.19 433.856 1602.6C437.184 1596.16 441.18 1590.09 445.78 1584.49C446.354 1584.08 445.551 1583.28 445.092 1583.86Z" fill="#263238"/>
<path d="M537.849 1628.28C531.348 1631.85 524.487 1634.71 517.383 1636.83C510.564 1639.14 503.615 1641.05 496.573 1642.56C496.229 1642.56 496.573 1643.19 496.573 1643.13C503.911 1642.37 511.14 1640.8 518.128 1638.43C525.153 1635.87 532.008 1632.86 538.652 1629.43C539.053 1629.14 538.652 1628.28 537.849 1628.28Z" fill="#263238"/>
<path d="M284.403 1710.95C283.772 1716.68 269.325 1662.22 184.996 1613.84C108.693 1569.92 16.9684 1455.67 92.1252 1383.44C152.721 1325.19 312.379 1452.23 284.403 1710.95Z" fill="#B03A2E"/>
<path d="M342.476 2023.39C341.221 1966.65 336.742 1910.04 329.061 1853.81C322.409 1802.15 310.48 1751.3 293.461 1702.07C287.154 1684.35 279.988 1666.87 272.249 1649.73C272.681 1643.04 272.566 1636.33 271.905 1629.66C271.447 1621.06 270.701 1612.46 269.899 1603.92C269.096 1595.38 268.236 1586.72 267.204 1578.29C266.173 1569.87 264.395 1561.1 264.051 1552.73C264.08 1552.64 264.087 1552.55 264.073 1552.46C264.059 1552.37 264.024 1552.28 263.971 1552.21C263.918 1552.14 263.848 1552.08 263.767 1552.04C263.687 1552 263.597 1551.97 263.507 1551.97C263.416 1551.97 263.327 1552 263.246 1552.04C263.165 1552.08 263.096 1552.14 263.042 1552.21C262.989 1552.28 262.954 1552.37 262.94 1552.46C262.926 1552.55 262.934 1552.64 262.962 1552.73C264.665 1561.67 265.681 1570.74 266.001 1579.84C266.631 1588.1 267.09 1596.41 267.376 1604.67C267.663 1612.92 267.376 1621.29 267.376 1629.6C267.376 1632.58 267.376 1635.74 267.376 1638.95C259.465 1622.21 250.923 1605.7 241.751 1589.65C247.484 1554.68 240.031 1518.16 232.922 1483.93C232.922 1483.25 231.718 1483.59 231.833 1484.28C235.406 1502.12 237.325 1520.26 237.566 1538.45C237.91 1552.78 237.222 1567.12 237.165 1581.51C235.158 1578.07 233.152 1574.63 231.088 1571.24C220.004 1553.47 208.252 1536.18 195.831 1519.36C196.807 1511.07 196.517 1502.68 194.971 1494.48C193.646 1485.17 191.634 1475.98 188.952 1466.96C186.277 1458.02 183.162 1449.23 179.607 1440.59C175.938 1431.76 171.066 1423.4 167.569 1414.45C167.539 1414.39 167.496 1414.33 167.444 1414.28C167.391 1414.24 167.33 1414.2 167.264 1414.17C167.197 1414.15 167.127 1414.14 167.056 1414.14C166.985 1414.15 166.916 1414.16 166.852 1414.19C166.788 1414.22 166.731 1414.27 166.683 1414.32C166.635 1414.37 166.599 1414.43 166.575 1414.5C166.551 1414.57 166.54 1414.64 166.543 1414.71C166.547 1414.78 166.564 1414.85 166.594 1414.91C171.064 1423.31 174.601 1432.17 177.142 1441.34C179.918 1449.96 182.214 1458.72 184.022 1467.59C185.799 1476.48 187.289 1485.37 188.493 1494.31C189.353 1500.04 189.869 1506.41 190.901 1512.43C172.844 1488.15 153.113 1465.16 131.853 1443.63C131.337 1443.12 130.65 1443.92 131.108 1444.43C163.232 1480.56 191.924 1519.6 216.813 1561.04L219.508 1565.74C214.864 1562.82 209.533 1560.52 205.176 1558.12C197.035 1553.61 188.837 1549.1 180.582 1544.59C172.327 1540.08 164.377 1535.72 156.734 1531.52C152.606 1529.28 148.593 1526.87 144.408 1524.75C139.435 1522.52 134.659 1519.88 130.134 1516.84C129.503 1516.38 128.815 1517.36 129.503 1517.7C137.586 1522.17 144.809 1528.82 152.434 1533.81C160.059 1538.8 168.314 1543.67 176.512 1548.26C191.532 1556.62 207.813 1562.64 222.374 1571.19C232.636 1589.07 242.037 1607.47 251.038 1626.16C242.095 1620.43 232.922 1614.7 223.635 1609.77C217.902 1606.44 211.711 1603.18 205.634 1599.96C199.541 1597.19 193.774 1593.75 188.436 1589.7C188.326 1589.62 188.189 1589.58 188.051 1589.59C187.914 1589.6 187.784 1589.66 187.687 1589.76C187.589 1589.85 187.53 1589.98 187.52 1590.12C187.51 1590.26 187.551 1590.4 187.633 1590.51C197.473 1599.31 208.35 1606.87 220.024 1613.04C230.859 1619.34 241.808 1625.48 253.102 1630.98C262.083 1650.74 270.205 1670.86 277.466 1691.35C313.009 1791.84 326.023 1898.53 332.271 2004.47C334.106 2036.06 335.081 2067.53 335.482 2099.23C335.883 2130.94 334.163 2162.29 334.278 2194C334.278 2194.91 335.768 2195.14 335.94 2194C339.724 2165.96 340.355 2137.47 341.673 2109.27C342.992 2081.06 343.106 2052.05 342.476 2023.39Z" fill="#263238"/>
<path d="M189.239 1568.43C173.845 1561.64 158.892 1553.88 144.466 1545.22C129.799 1537.01 115.598 1527.99 101.928 1518.21C101.928 1518.21 101.412 1518.21 101.928 1518.62C114.854 1529.1 128.493 1538.68 142.746 1547.28C157.681 1555.58 173.113 1562.95 188.952 1569.35C189.353 1569.64 189.927 1568.66 189.239 1568.43Z" fill="#263238"/>
<path d="M213.717 1454.81C212.456 1449.94 210.908 1445.12 209.246 1440.31C209.303 1440.22 209.333 1440.12 209.333 1440.02C209.333 1439.92 209.303 1439.82 209.246 1439.73L206.15 1431.65C206.062 1431.31 205.927 1430.98 205.749 1430.68C205.749 1430.16 205.348 1429.64 205.118 1429.13C204.889 1428.61 205.118 1429.13 205.118 1429.13C205.118 1429.13 205.634 1431.02 205.921 1431.94C205.953 1432.42 206.03 1432.9 206.15 1433.37C211.692 1452.15 215.869 1471.31 218.648 1490.7C218.648 1491.27 219.68 1491.33 219.622 1490.7C218.771 1478.58 216.794 1466.56 213.717 1454.81V1454.81Z" fill="#263238"/>
<path d="M431.563 2043.74L425.544 2115.06L407.142 2332.56H209.819L191.417 2115.06L185.398 2043.74H431.563Z" fill="#37474F"/>
<path d="M431.563 2043.74L425.544 2115.06H191.417L185.398 2043.74H431.563Z" fill="#263238"/>
<path d="M450.883 2015.13H166.021V2083.52H450.883V2015.13Z" fill="#37474F"/>
</svg>
