<svg width="3897" height="2904" viewBox="0 0 3897 2904" fill="none" xmlns="http://www.w3.org/2000/svg">
<path d="M3896.35 2551.33H0V2553.28H3896.35V2551.33Z" fill="#EBEBEB"/>
<path d="M3505.94 2676.71H3247.84V2678.66H3505.94V2676.71Z" fill="#EBEBEB"/>
<path d="M2581.1 2697.91H2513.38V2699.86H2581.1V2697.91Z" fill="#EBEBEB"/>
<path d="M3240.05 2604.4H3090.51V2606.35H3240.05V2604.4Z" fill="#EBEBEB"/>
<path d="M745.372 2617.49H408.805V2619.44H745.372V2617.49Z" fill="#EBEBEB"/>
<path d="M864.132 2617.49H814.805V2619.44H864.132V2617.49Z" fill="#EBEBEB"/>
<path d="M1754.53 2650.38H1024.51V2652.32H1754.53V2650.38Z" fill="#EBEBEB"/>
<path d="M1846.87 2203.78H342.177C330.39 2203.76 319.092 2199.06 310.764 2190.72C302.436 2182.37 297.759 2171.07 297.759 2159.28V44.1067C297.862 32.3867 302.584 21.1804 310.901 12.922C319.218 4.66361 330.457 0.020077 342.177 0H1846.87C1858.67 0 1869.99 4.68799 1878.33 13.0327C1886.68 21.3774 1891.37 32.6952 1891.37 44.4963V2159.28C1891.37 2171.08 1886.68 2182.4 1878.33 2190.74C1869.99 2199.09 1858.67 2203.78 1846.87 2203.78V2203.78ZM342.177 1.55855C330.906 1.57919 320.104 6.07102 312.142 14.0481C304.179 22.0252 299.707 32.8357 299.707 44.1067V2159.28C299.707 2170.55 304.179 2181.36 312.142 2189.34C320.104 2197.32 330.906 2201.81 342.177 2201.83H1846.87C1858.15 2201.81 1868.96 2197.32 1876.93 2189.34C1884.91 2181.37 1889.4 2170.56 1889.42 2159.28V44.1067C1889.4 32.8285 1884.91 22.0182 1876.93 14.0434C1868.96 6.06849 1858.15 1.57915 1846.87 1.55855H342.177Z" fill="#EBEBEB"/>
<path d="M3532.51 2203.78H2027.74C2015.94 2203.76 2004.64 2199.06 1996.3 2190.72C1987.96 2182.38 1983.26 2171.07 1983.24 2159.28V44.1067C1983.37 32.3796 1988.11 21.1734 1996.43 12.9171C2004.76 4.66088 2016.01 0.0198581 2027.74 0H3532.51C3544.22 0.0405571 3555.44 4.69315 3563.74 12.9493C3572.04 21.2055 3576.75 32.4001 3576.85 44.1067V2159.28C3576.85 2171.05 3572.18 2182.35 3563.87 2190.69C3555.56 2199.03 3544.28 2203.73 3532.51 2203.78V2203.78ZM2027.74 1.55855C2016.46 1.57915 2005.65 6.06849 1997.68 14.0434C1989.7 22.0182 1985.21 32.8285 1985.19 44.1067V2159.28C1985.21 2170.56 1989.7 2181.37 1997.68 2189.34C2005.65 2197.32 2016.46 2201.81 2027.74 2201.83H3532.51C3543.79 2201.81 3554.6 2197.32 3562.57 2189.34C3570.55 2181.37 3575.04 2170.56 3575.06 2159.28V44.1067C3575.04 32.8285 3570.55 22.0182 3562.57 14.0434C3554.6 6.06849 3543.79 1.57915 3532.51 1.55855H2027.74Z" fill="#EBEBEB"/>
<path d="M868.029 2551.33L868.029 1448.74H514.474V2551.33H868.029Z" fill="#F0F0F0"/>
<path d="M848.625 1800.97V1476.41H533.878V1800.97H848.625Z" fill="#E6E6E6"/>
<path d="M848.625 2154.68V1830.12H533.878V2154.68H848.625Z" fill="#E6E6E6"/>
<path d="M848.547 2508.39V2183.83H533.8V2508.39H848.547Z" fill="#E6E6E6"/>
<path d="M848.625 1800.97V1476.41H724.799V1800.97H848.625Z" fill="#E0E0E0"/>
<path d="M848.625 2154.68V1830.12H724.799V2154.68H848.625Z" fill="#E0E0E0"/>
<path d="M801.401 1671.3H715.682V1800.97H801.401V1671.3Z" fill="#F0F0F0"/>
<path d="M679.368 1800.97H715.604V1671.3H679.368V1800.97Z" fill="#E0E0E0"/>
<path d="M697.524 1705.04H587.414V1800.97H697.524V1705.04Z" fill="#F0F0F0"/>
<path d="M540.891 1800.97H587.414V1705.04H540.891V1800.97Z" fill="#E0E0E0"/>
<path d="M848.547 2508.31V2183.75H724.721V2508.31H848.547Z" fill="#E0E0E0"/>
<path d="M514.474 2551.33L514.474 1448.74H418.468L418.468 2551.33H514.474Z" fill="#F5F5F5"/>
<path d="M813.402 2318.09H579.621V2508.39H813.402V2318.09Z" fill="#F0F0F0"/>
<path d="M533.878 2508.31H579.621V2318.02H533.878V2508.31Z" fill="#E0E0E0"/>
<path d="M772.334 2003.66H564.581V2154.68H772.334V2003.66Z" fill="#FAFAFA"/>
<path d="M533.956 2154.68H564.659V2003.66H533.956V2154.68Z" fill="#F0F0F0"/>
<path d="M3478.74 2551.33V1448.74H3125.18V2551.33H3478.74Z" fill="#F0F0F0"/>
<path d="M3459.26 1800.97V1476.41H3144.51V1800.97H3459.26Z" fill="#E6E6E6"/>
<path d="M3459.26 2154.68V1830.12H3144.51V2154.68H3459.26Z" fill="#E6E6E6"/>
<path d="M3459.26 2508.39V2183.83H3144.51V2508.39H3459.26Z" fill="#E6E6E6"/>
<path d="M3459.26 1800.97V1476.41H3335.43V1800.97H3459.26Z" fill="#E0E0E0"/>
<path d="M3459.26 2154.68V1830.12H3335.43V2154.68H3459.26Z" fill="#E0E0E0"/>
<path d="M3280.03 2060.39H3194.31V2154.6H3280.03V2060.39Z" fill="#F0F0F0"/>
<path d="M3158.07 2154.68H3194.31V2060.47H3158.07V2154.68Z" fill="#E0E0E0"/>
<path d="M3357.64 1966.18H3271.92V2060.39H3357.64V1966.18Z" fill="#F0F0F0"/>
<path d="M3235.68 2060.47H3271.92V1966.25H3235.68V2060.47Z" fill="#E0E0E0"/>
<path d="M3418.58 2060.39H3332.86V2154.6H3418.58V2060.39Z" fill="#F0F0F0"/>
<path d="M3296.62 2154.68H3332.86V2060.47H3296.62V2154.68Z" fill="#E0E0E0"/>
<path d="M3459.26 2508.39V2183.83H3335.43V2508.39H3459.26Z" fill="#E0E0E0"/>
<path d="M3125.19 2551.33V1448.74H3029.18V2551.33H3125.19Z" fill="#F5F5F5"/>
<path d="M3375.72 2250.69H3182.38V2508.39H3375.72V2250.69Z" fill="#F0F0F0"/>
<path d="M3144.59 2508.31H3182.38V2250.61H3144.59V2508.31Z" fill="#E0E0E0"/>
<path d="M3437.91 1596.41H3182.38V1800.97H3437.91V1596.41Z" fill="#FAFAFA"/>
<path d="M3144.59 1800.97H3182.38V1596.41H3144.59V1800.97Z" fill="#F0F0F0"/>
<path d="M2823.14 207.129H1018.74V1392.32H2823.14V207.129Z" fill="#E6E6E6"/>
<path d="M2847.53 207.129H1043.13V1392.32H2847.53V207.129Z" fill="#F5F5F5"/>
<path d="M2803.81 1343.23V256.225L1086.77 256.225V1343.23H2803.81Z" fill="white"/>
<path d="M2803.81 1343.23V256.225H2785.42V1343.23H2803.81Z" fill="#E6E6E6"/>
<path d="M2829.45 1002.69H1061.21V1068.61H2829.45V1002.69Z" fill="#F5F5F5"/>
<path d="M2895.22 125.852H971.126C970.24 125.842 969.36 126.007 968.538 126.34C967.716 126.672 966.968 127.164 966.337 127.787C965.706 128.41 965.206 129.153 964.864 129.971C964.523 130.789 964.347 131.667 964.347 132.554C964.367 134.338 965.091 136.043 966.36 137.297C967.629 138.552 969.342 139.256 971.126 139.255H2895.22C2896.99 139.235 2898.69 138.523 2899.94 137.27C2901.19 136.018 2901.9 134.325 2901.92 132.554V132.554C2901.92 130.776 2901.22 129.072 2899.96 127.815C2898.7 126.558 2897 125.852 2895.22 125.852Z" fill="#E6E6E6"/>
<path d="M2918.76 132.475C2918.76 135.804 2917.77 139.058 2915.92 141.826C2914.07 144.594 2911.44 146.752 2908.37 148.026C2905.29 149.3 2901.91 149.633 2898.64 148.984C2895.37 148.334 2892.38 146.731 2890.02 144.377C2887.67 142.023 2886.06 139.024 2885.42 135.759C2884.77 132.494 2885.1 129.109 2886.37 126.033C2887.65 122.958 2889.8 120.329 2892.57 118.479C2895.34 116.63 2898.6 115.643 2901.92 115.643C2904.13 115.643 2906.32 116.078 2908.37 116.924C2910.41 117.77 2912.26 119.01 2913.83 120.573C2915.39 122.136 2916.63 123.991 2917.48 126.033C2918.32 128.076 2918.76 130.264 2918.76 132.475V132.475Z" fill="#E6E6E6"/>
<path d="M1027.86 170.271C1025.45 170.251 1023.14 169.284 1021.43 167.578C1019.73 165.873 1018.76 163.566 1018.74 161.154V141.594C1018.74 139.176 1019.7 136.857 1021.41 135.147C1023.12 133.437 1025.44 132.477 1027.86 132.477C1030.25 132.477 1032.55 133.429 1034.25 135.124C1035.94 136.819 1036.9 139.119 1036.9 141.516V161.076C1036.91 162.273 1036.68 163.461 1036.23 164.571C1035.78 165.681 1035.12 166.692 1034.28 167.546C1033.44 168.4 1032.44 169.08 1031.34 169.547C1030.24 170.015 1029.05 170.261 1027.86 170.271V170.271Z" fill="#E6E6E6"/>
<path d="M2793.68 170.271C2791.28 170.251 2788.98 169.281 2787.29 167.573C2785.59 165.866 2784.64 163.558 2784.64 161.154V141.594C2784.63 140.4 2784.86 139.217 2785.31 138.111C2785.76 137.005 2786.42 135.999 2787.26 135.152C2788.1 134.304 2789.1 133.631 2790.21 133.172C2791.31 132.713 2792.49 132.477 2793.68 132.477C2796.09 132.476 2798.39 133.426 2800.1 135.119C2801.81 136.812 2802.78 139.112 2802.8 141.516V161.076C2802.8 163.501 2801.84 165.828 2800.13 167.55C2798.43 169.273 2796.11 170.251 2793.68 170.271V170.271Z" fill="#E6E6E6"/>
<path opacity="0.4" d="M2893.04 132.553H1061.21V1297.09H2893.04V132.553Z" fill="#E0E0E0"/>
<path d="M1152.85 132.475C1152.85 135.807 1151.86 139.065 1150.01 141.835C1148.16 144.604 1145.52 146.762 1142.44 148.033C1139.36 149.305 1135.97 149.634 1132.71 148.978C1129.44 148.322 1126.44 146.711 1124.09 144.349C1121.74 141.988 1120.14 138.981 1119.5 135.711C1118.86 132.441 1119.21 129.054 1120.49 125.979C1121.78 122.905 1123.95 120.282 1126.72 118.442C1129.5 116.601 1132.77 115.627 1136.1 115.643C1140.55 115.663 1144.81 117.446 1147.95 120.6C1151.09 123.755 1152.85 128.024 1152.85 132.475Z" fill="#E6E6E6"/>
<path d="M1269.98 1920.9L2924.44 1920.9V1852.95L1269.98 1852.95V1920.9Z" fill="#F0F0F0"/>
<path d="M1269.98 1852.95H1074.07V1920.9H1269.98V1852.95Z" fill="#E6E6E6"/>
<path d="M2897.25 1920.9H1104.3V1960.33H2897.25V1920.9Z" fill="#E0E0E0"/>
<path d="M2878 1951.68V2551.33H2897.25V1951.68H2878Z" fill="#E0E0E0"/>
<path d="M1269.98 1951.68V2551.33H1289.22V1951.68H1269.98Z" fill="#E0E0E0"/>
<path d="M1104.3 1951.68V2551.33H1123.47V1951.68H1104.3Z" fill="#E0E0E0"/>
<path d="M2712.41 1951.68V2551.33H2731.65V1951.68H2712.41Z" fill="#E0E0E0"/>
<path d="M2336.64 1229.53L2403.11 1348.14C2401.09 1604.21 2423.84 1619.01 2424.08 1663.04H2353.94C2347.32 1448.59 2305.86 1466.82 2336.64 1229.53Z" fill="#E0E0E0"/>
<path d="M2387.92 1540.07C2364.54 1293.12 1975.53 1332.63 1938.59 1448.66C1901.65 1564.7 2401.48 1682.13 2387.92 1540.07Z" fill="#E0E0E0"/>
<path d="M2358.54 1439.86C2409.89 1257.66 2175.88 1223.3 2071.38 1276.21C2009.82 1337.85 2329 1544.67 2358.54 1439.86Z" fill="#E0E0E0"/>
<path d="M2294.09 1324.76C2414.57 1285.8 2336.56 1159.24 2264.64 1126.82C2205.33 1118.88 2224.82 1347.59 2294.09 1324.76Z" fill="#E0E0E0"/>
<path d="M2426.49 1444.92C2290.2 1341.75 2455.48 1242.7 2565.12 1243.17C2646.01 1263.82 2504.89 1503.99 2426.49 1444.92Z" fill="#E0E0E0"/>
<path d="M2402.02 1341.12C2220.37 1295.3 2329 1165.87 2434.13 1134.7C2521.56 1128.38 2506.44 1367.54 2402.02 1341.12Z" fill="#E0E0E0"/>
<path d="M2368.98 1555.03C2335.08 1332.24 2700.72 1342.92 2730.33 1431.29C2759.94 1519.65 2388.07 1683.22 2368.98 1555.03Z" fill="#E0E0E0"/>
<path d="M2349.5 1852.95C2217.02 1852.95 2105.51 1847.1 2078.39 1721.56C2071.82 1688.26 2062.35 1655.58 2050.1 1623.92L2048 1618.86H2650.92L2648.82 1623.92C2636.56 1655.57 2627.12 1688.25 2620.61 1721.56C2593.41 1846.87 2481.82 1852.95 2349.5 1852.95Z" fill="#FAFAFA"/>
<path d="M2689.96 1630.31H2008.96L1989.48 1573.5H2709.44L2689.96 1630.31Z" fill="#F0F0F0"/>
<path d="M1948.18 2903.25C2782.64 2903.25 3459.1 2863.75 3459.1 2815.04C3459.1 2766.32 2782.64 2726.82 1948.18 2726.82C1113.71 2726.82 437.249 2766.32 437.249 2815.04C437.249 2863.75 1113.71 2903.25 1948.18 2903.25Z" fill="#F5F5F5"/>
<path d="M2965.12 2750.9L2902.62 2749.97L2902.39 2604.87L2964.81 2605.8L2965.12 2750.9Z" fill="#FFB573"/>
<path d="M3282.44 2751.13H3219.87L3201.32 2606.27H3263.89L3282.44 2751.13Z" fill="#FFB573"/>
<path d="M3213.32 2743.89H3289.61C3290.83 2743.89 3292.02 2744.31 3292.96 2745.1C3293.9 2745.88 3294.53 2746.97 3294.75 2748.17L3304.73 2803.81C3304.94 2805.19 3304.86 2806.6 3304.47 2807.94C3304.09 2809.28 3303.42 2810.52 3302.5 2811.57C3301.59 2812.62 3300.46 2813.47 3299.19 2814.04C3297.92 2814.61 3296.54 2814.9 3295.14 2814.88C3270.6 2814.49 3252.75 2813.01 3221.81 2813.01C3202.8 2813.01 3145.45 2815.03 3119.18 2815.03C3092.92 2815.03 3090.58 2789.09 3101.42 2786.67C3150.04 2776.15 3187.14 2761.65 3202.72 2747.71C3205.65 2745.16 3209.43 2743.79 3213.32 2743.89Z" fill="#263238"/>
<path d="M2899.59 2743.03L2967.85 2744.12C2969.07 2744.11 2970.25 2744.55 2971.17 2745.36C2972.09 2746.16 2972.68 2747.27 2972.84 2748.49L2981.41 2804.2C2981.6 2805.59 2981.49 2806.99 2981.09 2808.33C2980.68 2809.66 2979.99 2810.9 2979.07 2811.94C2978.14 2812.98 2977 2813.81 2975.72 2814.38C2974.45 2814.94 2973.06 2815.22 2971.67 2815.19C2947.04 2814.41 2911.59 2812.39 2880.65 2811.92C2844.49 2811.37 2840.44 2812.85 2798.05 2811.92C2772.41 2811.53 2766.88 2785.5 2777.94 2783.32C2827.58 2773.34 2840.28 2772.8 2884.23 2747.39C2888.87 2744.6 2894.17 2743.09 2899.59 2743.03V2743.03Z" fill="#263238"/>
<path d="M2927.33 889.381C2910.54 934.5 2891.42 978.718 2870.05 1021.86C2859.38 1043.36 2848.15 1064.79 2835.84 1085.83C2823.63 1107.33 2810.26 1128.14 2795.79 1148.18L2784.02 1163.76C2776.78 1172.99 2767.74 1180.65 2757.45 1186.28C2746.71 1192.09 2734.74 1195.24 2722.54 1195.48C2712.55 1195.79 2702.57 1194.47 2693 1191.58C2678.09 1187.06 2663.97 1180.25 2651.15 1171.4C2640.22 1163.85 2629.8 1155.57 2619.98 1146.62C2583.92 1112.85 2552.47 1074.46 2526.47 1032.46L2563.57 1003.54C2579.54 1019.13 2596.37 1034.71 2613.36 1049.37C2629.76 1063.89 2647.01 1077.42 2665.03 1089.89C2673.25 1095.68 2681.87 1100.89 2690.82 1105.47C2697.77 1109.14 2705.23 1111.77 2712.95 1113.27C2714.61 1113.74 2716.36 1113.74 2718.02 1113.27C2718.56 1112.88 2717.47 1112.8 2716.54 1113.27C2715.6 1113.73 2715.37 1113.27 2715.91 1112.64L2724.09 1099.63C2746.82 1061.4 2767.25 1021.84 2785.27 981.179C2804.05 940.112 2822.13 897.33 2838.88 856.028L2927.33 889.381Z" fill="#FFB573"/>
<path d="M2950.71 848.547C2971.36 904.654 2863.04 1068.53 2863.04 1068.53L2738.35 999.492C2757.57 948.39 2782.23 899.507 2811.92 853.69C2857.04 788.154 2928.19 787.063 2950.71 848.547Z" fill="#B03A2E"/>
<path opacity="0.5" d="M2950.71 848.547C2971.36 904.654 2863.04 1068.53 2863.04 1068.53L2738.35 999.492C2757.57 948.39 2782.23 899.507 2811.92 853.69C2857.04 788.154 2928.19 787.063 2950.71 848.547Z" fill="white"/>
<path opacity="0.2" d="M2881.58 910.031C2857.74 922.11 2803.66 981.49 2787.37 1026.53L2863.04 1068.53C2888.89 1028.72 2911.75 987.041 2931.46 943.851C2914.47 927.331 2894.21 903.953 2881.58 910.031Z" fill="#B03A2E"/>
<path d="M2567.62 1004.56L2529.59 970.113L2493.66 1031.6C2493.66 1031.6 2530.21 1074.46 2570.66 1053.65L2576.11 1038.07C2578.16 1032.27 2578.45 1025.99 2576.94 1020.03C2575.42 1014.06 2572.18 1008.68 2567.62 1004.56V1004.56Z" fill="#FFB573"/>
<path d="M2468.18 944.241L2457.66 1004.01L2493.66 1031.6L2529.59 970.113L2468.18 944.241Z" fill="#FFB573"/>
<path opacity="0.2" d="M2902.39 2604.87L2902.55 2679.68L2964.97 2680.69L2964.89 2605.88L2902.39 2604.87Z" fill="black"/>
<path opacity="0.2" d="M3263.89 2606.35H3201.32L3210.98 2681H3273.48L3263.89 2606.35Z" fill="black"/>
<path d="M3227.35 804.986C3175.6 1046.56 3205.61 1297.25 3202.88 1348.6L2868.34 1345.64C2801.4 993.257 2876.91 804.986 2876.91 804.986C2876.91 804.986 2898.03 799.453 2926.94 794.544C2935.98 792.985 2945.8 791.504 2956.01 790.336C2961.62 789.634 2967.38 789.089 2973.23 788.543C3020.62 786.279 3068.1 786.721 3115.44 789.868C3124.41 790.336 3133.52 791.115 3142.33 791.972C3151.13 792.829 3158.62 793.764 3166.17 794.777C3200.62 799.297 3227.35 804.986 3227.35 804.986Z" fill="#B03A2E"/>
<path opacity="0.5" d="M3227.35 804.986C3175.6 1046.56 3205.61 1297.25 3202.88 1348.6L2868.34 1345.64C2801.4 993.257 2876.91 804.986 2876.91 804.986C2876.91 804.986 2898.03 799.453 2926.94 794.544C2935.98 792.985 2945.8 791.504 2956.01 790.336C2961.62 789.634 2967.38 789.089 2973.23 788.543C3020.62 786.279 3068.1 786.721 3115.44 789.868C3124.41 790.336 3133.52 791.115 3142.33 791.972C3151.13 792.829 3158.62 793.764 3166.17 794.777C3200.62 799.297 3227.35 804.986 3227.35 804.986Z" fill="white"/>
<path opacity="0.2" d="M3162.98 911.746C3158.46 935.124 3172.17 1039.31 3197.81 1063.55C3198.83 1029.81 3200.93 994.583 3204.36 958.424L3162.98 911.746Z" fill="black"/>
<path d="M3102.74 629.572C3093.39 675.237 3083.65 759.009 3115.44 789.868C3090.35 814.337 3057.54 842.625 3003.23 844.027C2948.91 845.43 2958.65 808.181 2973.23 788.543C3024.35 776.854 3023.41 738.982 3014.84 703.369L3102.74 629.572Z" fill="#FFB573"/>
<path d="M3106.17 772.334C3106.17 772.334 3089.65 815.661 3001.05 844.027C3015.35 850.737 3026.96 862.077 3034.01 876.211C3034.01 876.211 3137.58 849.871 3129.7 784.335C3122.43 779.297 3114.52 775.26 3106.17 772.334Z" fill="white"/>
<path d="M2967.23 872.782C2975.02 859.78 2986.92 849.745 3001.05 844.261C2991.07 835.143 2974.94 806.7 2982.03 784.569C2975.01 784.381 2968 785.221 2961.23 787.062C2961.23 787.062 2924.21 822.441 2967.23 872.782Z" fill="white"/>
<path d="M2998.55 894.446C2997.85 900.68 2994.66 905.356 2991.31 904.966C2987.96 904.576 2985.85 899.355 2986.47 893.121C2987.1 886.887 2990.45 882.289 2993.72 882.601C2996.99 882.913 2999.25 888.368 2998.55 894.446Z" fill="white"/>
<path d="M2992.4 958.502C2992.4 964.736 2989.44 969.724 2986.09 969.646C2982.73 969.568 2980.09 964.503 2980.24 958.269C2980.4 952.034 2983.2 947.047 2986.55 947.125C2989.9 947.203 2992.4 952.346 2992.4 958.502Z" fill="white"/>
<path opacity="0.2" d="M3066.9 659.652L3014.84 703.292C3016.97 711.594 3018.35 720.07 3018.97 728.618C3038.53 725.968 3065.73 704.772 3067.75 684.355C3068.96 676.137 3068.67 667.767 3066.9 659.652Z" fill="black"/>
<path d="M3010.32 525.384C3000.01 536.032 2992.37 548.967 2988 563.132C2983.64 577.297 2982.69 592.293 2985.23 606.895C2970.81 619.364 2944.71 617.104 2944.71 617.104L2936.45 608.844C2932.51 604.864 2929.47 600.082 2927.55 594.824C2925.63 589.566 2924.86 583.955 2925.3 578.374C2926.78 560.139 2930.91 532.475 2942.45 514.941C2961.23 486.966 3010.32 525.384 3010.32 525.384Z" fill="#263238"/>
<path d="M3108.82 561.074C3104.46 623.416 3105.08 659.496 3073.52 690.978C3025.98 738.436 2949.77 709.369 2935.51 647.339C2922.73 591.544 2932 499.278 2992.86 475.9C3006.23 470.521 3020.75 468.645 3035.05 470.449C3049.34 472.252 3062.94 477.676 3074.55 486.206C3086.17 494.736 3095.41 506.09 3101.41 519.192C3107.4 532.294 3109.95 546.71 3108.82 561.074V561.074Z" fill="#FFB573"/>
<path d="M3057.08 523.201C3067.42 546.366 3068.46 572.625 3059.96 596.53C3059.04 598.946 3058.62 601.523 3058.73 604.105C3058.84 606.687 3059.47 609.221 3060.58 611.552C3061.7 613.884 3063.27 615.965 3065.21 617.669C3067.16 619.373 3069.43 620.665 3071.88 621.467C3077.27 623.07 3082.87 623.833 3088.48 623.727L3118.33 618.038C3118.33 618.038 3130.87 573.62 3122.69 541.124C3114.51 508.629 3057.08 523.201 3057.08 523.201Z" fill="#263238"/>
<path d="M3056.84 531.383C3011.07 535.525 2964.95 533.138 2919.85 524.292C2919.85 524.292 2934.5 477.536 2967.38 461.95C3000.27 446.365 3069.78 447.378 3091.21 456.418C3112.64 465.457 3140.61 493.043 3130.17 560.372C3107.96 584.452 3056.84 531.383 3056.84 531.383Z" fill="#263238"/>
<path d="M3139.45 550.399C3139.45 550.399 2964.97 525.072 2892.65 512.37C2891.56 512.17 2890.57 511.592 2889.86 510.738C2889.14 509.883 2888.75 508.807 2888.75 507.695C2888.75 506.583 2889.14 505.506 2889.86 504.651C2890.57 503.797 2891.56 503.22 2892.65 503.019C2922.9 500.138 2953.41 501.502 2983.28 507.071L3139.45 550.399Z" fill="#B03A2E"/>
<path d="M2921.09 503.097C2924.21 487.511 2951.17 407.013 3064.32 431.482C3169.14 454.081 3139.45 550.399 3139.45 550.399L2921.09 503.097Z" fill="#B03A2E"/>
<path d="M2992.01 433.897L3029.88 422.676L3075.55 426.416V434.287L3046.56 440.989L2992.01 433.897Z" fill="#B03A2E"/>
<path opacity="0.2" d="M2997.7 511.2C2997.31 511.211 2996.93 511.144 2996.57 511.004C2996.21 510.863 2995.88 510.653 2995.61 510.384C2995.33 510.115 2995.11 509.794 2994.96 509.439C2994.81 509.084 2994.74 508.702 2994.74 508.317C2994.74 507.694 2995.59 445.04 3069.78 428.364C3070.17 428.243 3070.58 428.204 3070.99 428.251C3071.4 428.298 3071.79 428.429 3072.15 428.636C3072.5 428.843 3072.81 429.122 3073.05 429.454C3073.29 429.787 3073.46 430.165 3073.55 430.567C3073.64 430.968 3073.64 431.383 3073.56 431.786C3073.47 432.188 3073.31 432.569 3073.07 432.904C3072.83 433.239 3072.53 433.521 3072.18 433.732C3071.83 433.944 3071.43 434.079 3071.03 434.131C3001.59 449.716 3000.89 505.901 3000.89 508.317C3000.89 508.723 3000.81 509.126 3000.65 509.498C3000.48 509.869 3000.24 510.202 2999.94 510.475C2999.64 510.747 2999.28 510.952 2998.9 511.077C2998.51 511.202 2998.1 511.244 2997.7 511.2V511.2Z" fill="black"/>
<path d="M3135.32 623.883C3127.36 637.332 3114.42 647.104 3099.31 651.08C3079.29 656.145 3069.78 638.066 3075.93 619.441C3081.31 602.609 3098.3 579.699 3118.25 582.971C3138.2 586.244 3144.82 607.285 3135.32 623.883Z" fill="#FFB573"/>
<path d="M2883.3 2665.1L2989.2 2666.74C2989.2 2666.74 3017.88 2247.73 3014.68 2052.83C3013.75 1993.53 3020.22 1910.07 3030.27 1820.45C3042.66 1707.54 3049.21 1662.42 3065.49 1519.65C3077.1 1417.88 3088.87 1348.21 3088.87 1348.21L2868.96 1346.27C2868.96 1346.27 2840.83 1856.69 2846.6 2047.61C2852.13 2245.31 2883.3 2665.1 2883.3 2665.1Z" fill="#263238"/>
<path opacity="0.2" d="M3019.98 1485.99C2987.1 1586.52 3001.28 1816.09 3023.65 1879.52C3025.52 1860.2 3027.62 1840.56 3029.8 1820.3C3042.19 1707.3 3048.82 1662.18 3065.1 1519.5C3065.1 1516.62 3065.73 1513.89 3066.04 1511.16C3052.28 1500.13 3036.69 1491.61 3019.98 1485.99Z" fill="black"/>
<path d="M2987.02 1346.73C2987.02 1346.73 3061.67 1872.04 3088.33 2053.38C3117.47 2251.93 3181.84 2666.51 3181.84 2666.51H3296.31C3296.31 2666.51 3274.81 2275.78 3250.1 2081.66C3222.05 1860.51 3202.64 1348.68 3202.64 1348.68L2987.02 1346.73Z" fill="#263238"/>
<path d="M3168.28 2669H3303.17V2628.71L3152.38 2626.14L3168.28 2669Z" fill="#B03A2E"/>
<path d="M2867.17 2667.13L2993.1 2669.08L2998.87 2628.32L2858.36 2623.96L2867.17 2667.13Z" fill="#B03A2E"/>
<path d="M3014.68 577.206C3014.68 582.271 3011.96 586.323 3008.61 586.323C3005.26 586.323 3002.68 582.193 3002.76 577.128C3002.84 572.062 3005.49 568.01 3008.84 568.088C3012.19 568.166 3014.76 572.218 3014.68 577.206Z" fill="#263238"/>
<path d="M2957.64 576.659C2957.64 581.725 2954.91 585.777 2951.64 585.699C2948.37 585.621 2945.72 581.569 2945.72 576.581C2945.72 571.594 2948.45 567.464 2951.8 567.464C2955.15 567.464 2957.72 571.672 2957.64 576.659Z" fill="#263238"/>
<path d="M2974.08 582.037C2967.92 597.388 2959.66 611.812 2949.54 624.897C2952.96 627.393 2956.89 629.111 2961.05 629.932C2965.21 630.753 2969.5 630.657 2973.62 629.651L2974.08 582.037Z" fill="#ED893E"/>
<path d="M2996.53 644.69C3002.15 644.071 3007.59 642.307 3012.51 639.506C3017.43 636.705 3021.72 632.927 3025.13 628.403C3025.27 628.085 3025.3 627.727 3025.2 627.391C3025.11 627.055 3024.9 626.764 3024.61 626.568C3024.32 626.373 3023.97 626.285 3023.62 626.322C3023.28 626.358 3022.95 626.515 3022.71 626.767C3018.85 631.736 3013.88 635.734 3008.19 638.44C3002.51 641.146 2996.27 642.486 2989.98 642.352C2989.59 642.352 2989.21 642.508 2988.93 642.786C2988.66 643.064 2988.5 643.44 2988.5 643.833C2988.5 644.225 2988.66 644.602 2988.93 644.88C2989.21 645.157 2989.59 645.313 2989.98 645.313C2992.17 645.227 2994.36 645.018 2996.53 644.69V644.69Z" fill="#263238"/>
<path d="M3032.45 558.97C3032.95 558.892 3033.43 558.706 3033.85 558.425C3034.48 557.958 3034.9 557.262 3035.02 556.488C3035.14 555.714 3034.94 554.926 3034.48 554.294C3031.75 550.449 3028.14 547.311 3023.95 545.142C3019.76 542.974 3015.11 541.837 3010.4 541.826C3010.01 541.846 3009.63 541.943 3009.29 542.111C3008.94 542.28 3008.63 542.516 3008.37 542.807C3008.12 543.098 3007.93 543.437 3007.81 543.804C3007.69 544.171 3007.64 544.558 3007.67 544.943C3007.69 545.332 3007.79 545.714 3007.95 546.065C3008.12 546.417 3008.36 546.732 3008.65 546.993C3008.94 547.253 3009.28 547.454 3009.64 547.584C3010.01 547.714 3010.4 547.77 3010.79 547.749V547.749C3014.52 547.792 3018.18 548.727 3021.48 550.476C3024.77 552.225 3027.6 554.737 3029.72 557.801C3030.02 558.239 3030.43 558.582 3030.92 558.789C3031.4 558.996 3031.93 559.059 3032.45 558.97V558.97Z" fill="#263238"/>
<path d="M2933.25 556.866C2933.74 556.814 2934.2 556.645 2934.61 556.374C2935.02 556.102 2935.35 555.737 2935.59 555.308C2937.13 551.918 2939.47 548.947 2942.4 546.643C2945.33 544.339 2948.76 542.767 2952.42 542.06C2953.21 541.967 2953.92 541.566 2954.41 540.945C2954.9 540.324 2955.12 539.534 2955.03 538.748C2954.94 537.963 2954.54 537.247 2953.92 536.757C2953.29 536.268 2952.5 536.045 2951.72 536.138C2947.08 536.96 2942.71 538.892 2938.98 541.768C2935.25 544.645 2932.26 548.381 2930.29 552.658C2930.1 553.004 2929.99 553.384 2929.96 553.775C2929.92 554.165 2929.97 554.559 2930.1 554.931C2930.22 555.303 2930.42 555.646 2930.68 555.938C2930.94 556.231 2931.26 556.467 2931.61 556.633C2932.13 556.86 2932.69 556.941 2933.25 556.866V556.866Z" fill="#263238"/>
<path d="M3192.2 2754.88C3197.75 2754.72 3203.26 2753.96 3208.64 2752.62C3208.93 2752.53 3209.19 2752.37 3209.4 2752.15C3209.6 2751.93 3209.74 2751.66 3209.81 2751.37C3209.85 2751.09 3209.82 2750.8 3209.71 2750.54C3209.6 2750.28 3209.42 2750.06 3209.19 2749.89C3207.01 2748.49 3187.29 2736.1 3180.28 2739.6C3179.5 2740.01 3178.84 2740.61 3178.36 2741.34C3177.88 2742.08 3177.6 2742.93 3177.55 2743.81C3177.31 2745.23 3177.44 2746.69 3177.92 2748.06C3178.39 2749.42 3179.2 2750.64 3180.28 2751.6C3183.76 2754.02 3187.97 2755.17 3192.2 2754.88V2754.88ZM3204.44 2750.51C3193.68 2752.62 3185.58 2752.23 3182.23 2749.34C3181.5 2748.69 3180.97 2747.85 3180.67 2746.92C3180.37 2745.99 3180.31 2745 3180.51 2744.04C3180.49 2743.68 3180.57 2743.31 3180.75 2743C3180.93 2742.68 3181.2 2742.42 3181.53 2742.25C3185.19 2740.38 3196.41 2745.76 3204.44 2750.82V2750.51Z" fill="#B03A2E"/>
<path d="M3208.25 2752.62C3208.53 2752.7 3208.83 2752.7 3209.11 2752.62C3209.33 2752.47 3209.51 2752.27 3209.63 2752.04C3209.75 2751.81 3209.82 2751.55 3209.81 2751.29C3209.81 2750.51 3209.03 2732.43 3202.02 2726.51C3201.18 2725.77 3200.18 2725.22 3199.11 2724.89C3198.03 2724.57 3196.9 2724.48 3195.79 2724.64C3194.67 2724.66 3193.6 2725.04 3192.72 2725.73C3191.85 2726.42 3191.23 2727.38 3190.95 2728.46C3189.32 2735.47 3201.24 2749.19 3207.55 2752.69L3208.25 2752.62ZM3196.72 2727.45C3197.34 2727.43 3197.95 2727.54 3198.53 2727.77C3199.1 2728 3199.63 2728.34 3200.07 2728.77C3204.26 2734.44 3206.55 2741.28 3206.62 2748.33C3200.38 2743.42 3192.9 2732.74 3193.84 2729C3193.84 2728.61 3193.84 2727.68 3196.1 2727.45H3196.72Z" fill="#B03A2E"/>
<path d="M2892.88 2751.29C2893.15 2751.19 2893.38 2751.02 2893.55 2750.8C2893.73 2750.58 2893.85 2750.32 2893.9 2750.04C2893.96 2749.75 2893.93 2749.45 2893.8 2749.18C2893.68 2748.91 2893.46 2748.7 2893.2 2748.56C2890.47 2747 2866.23 2733.91 2858.36 2737.96C2857.63 2738.36 2856.99 2738.93 2856.52 2739.62C2856.05 2740.31 2855.74 2741.11 2855.63 2741.94C2855.4 2743.24 2855.49 2744.58 2855.88 2745.84C2856.28 2747.1 2856.97 2748.25 2857.89 2749.19C2864.36 2755.34 2882.44 2753.16 2892.65 2751.29H2892.88ZM2860.15 2740.38C2864.99 2738.82 2878.23 2744.2 2887.9 2749.11C2873.87 2751.21 2863.66 2750.43 2860.08 2747C2859.43 2746.4 2858.95 2745.63 2858.69 2744.79C2858.43 2743.94 2858.4 2743.04 2858.6 2742.17C2858.6 2741.84 2858.69 2741.52 2858.87 2741.24C2859.05 2740.97 2859.31 2740.75 2859.61 2740.61L2860.15 2740.38Z" fill="#B03A2E"/>
<path d="M2892.88 2751.29C2893.09 2751.14 2893.27 2750.94 2893.39 2750.71C2893.51 2750.48 2893.58 2750.23 2893.59 2749.97C2893.59 2749.27 2893.04 2732.35 2885.79 2725.73C2884.75 2724.77 2883.52 2724.04 2882.18 2723.58C2880.84 2723.12 2879.41 2722.95 2878 2723.08V2723.08C2873.95 2723.08 2872.62 2725.42 2872.23 2727.13C2870.6 2734.15 2884.62 2747.94 2891.95 2751.45C2892.27 2751.48 2892.59 2751.43 2892.88 2751.29V2751.29ZM2876.44 2726.04H2877.92C2879 2725.95 2880.08 2726.09 2881.1 2726.43C2882.11 2726.78 2883.05 2727.34 2883.84 2728.07C2888.16 2733.64 2890.58 2740.43 2890.78 2747.47C2883.38 2742.72 2873.95 2731.89 2875.19 2727.68C2875.04 2727.45 2875.51 2726.43 2876.44 2726.04Z" fill="#B03A2E"/>
<path d="M3138.82 773.737C3134.89 773.225 3130.89 773.666 3127.16 775.022C3123.43 776.378 3120.08 778.61 3117.39 781.53C3095.88 804.908 3044.61 876.367 3034.01 1043.13C3025.56 1169.08 3037.16 1295.57 3068.38 1417.88L3201.63 1380.01C3205.91 1378.81 3209.61 1376.13 3212.08 1372.45C3214.56 1368.76 3215.63 1364.31 3215.11 1359.9C3211.53 1328.73 3203.81 1253.69 3201.63 1169.76C3200.15 1110.69 3204.59 1057.47 3204.36 1033.31C3189.71 1004.64 3163.37 957.801 3173.19 906.759C3183.79 849.794 3215.11 842.001 3236.47 831.559C3239.23 830.115 3241.54 827.931 3243.14 825.249C3244.74 822.568 3245.56 819.495 3245.51 816.375C3245.46 813.254 3244.54 810.209 3242.86 807.579C3241.19 804.948 3238.81 802.836 3236 801.479C3205.15 787.507 3172.4 778.159 3138.82 773.737V773.737Z" fill="#B03A2E"/>
<path d="M2951.25 1417.65L2859.92 1388.97C2856.5 1387.89 2853.45 1385.84 2851.16 1383.08C2848.87 1380.32 2847.42 1376.95 2846.99 1373.39C2839.19 1313.07 2806.62 1036.19 2848.7 830.623C2850.1 823.684 2853.27 817.226 2857.92 811.885C2862.56 806.543 2868.52 802.501 2875.19 800.154C2901.49 791.23 2928.7 785.296 2956.32 782.465C2957.12 782.378 2957.94 782.493 2958.69 782.798C2959.44 783.104 2960.11 783.591 2960.62 784.217C2961.14 784.842 2961.5 785.586 2961.66 786.382C2961.81 787.177 2961.77 788 2961.54 788.777C2944.24 852.287 2915.41 1200.08 2951.25 1417.65Z" fill="#B03A2E"/>
<path d="M2831.48 1205.69C2833.11 1234.83 2835.22 1261.72 2837.32 1285.33C2870.44 1289.07 2904.34 1291.64 2938 1293.12C2936.45 1267.33 2935.35 1240.91 2934.81 1214.34C2899.9 1212.62 2865.14 1209.82 2831.48 1205.69Z" fill="white"/>
<path d="M2935.67 1068.22C2898.65 1066.66 2862.26 1063.78 2827.66 1059.34C2827.66 1086.3 2827.66 1112.8 2828.52 1138.28C2862.88 1142.49 2898.65 1145.22 2934.26 1146.7C2934.34 1120.12 2934.89 1093.78 2935.67 1068.22Z" fill="white"/>
<path d="M3202.8 1209.27C3154.1 1214.03 3096.2 1217.06 3035.26 1217.06C3037.44 1245.66 3040.4 1272 3043.75 1295.46C3103.37 1295.46 3159.71 1291.95 3208.02 1287.2C3206.23 1263.43 3204.36 1236.94 3202.8 1209.27Z" fill="white"/>
<path d="M3203.66 1059.81C3151.84 1065.18 3092.92 1068.85 3032.61 1069.63C3031.52 1096.82 3031.36 1123.08 3031.91 1148.1C3091.52 1147.32 3149.5 1143.81 3201.4 1138.59C3201.47 1108.2 3202.8 1080.69 3203.66 1059.81Z" fill="white"/>
<path d="M3448.27 1465.03L3094.25 1524.1C3091.97 1524.52 3089.63 1524.46 3087.38 1523.91C3085.14 1523.36 3083.03 1522.34 3081.2 1520.92C3079.38 1519.5 3077.87 1517.71 3076.79 1515.66C3075.71 1513.62 3075.07 1511.37 3074.92 1509.06L3058.01 1289.61C3057.72 1284.7 3059.24 1279.84 3062.29 1275.96C3065.33 1272.09 3069.68 1269.46 3074.53 1268.57L3428.79 1209.51C3431.06 1209.07 3433.41 1209.12 3435.66 1209.67C3437.92 1210.21 3440.03 1211.22 3441.86 1212.65C3443.69 1214.07 3445.19 1215.87 3446.27 1217.92C3447.35 1219.97 3447.98 1222.23 3448.11 1224.55L3465.02 1443.99C3465.31 1448.94 3463.75 1453.82 3460.66 1457.71C3457.57 1461.59 3453.16 1464.19 3448.27 1465.03V1465.03Z" fill="#B03A2E"/>
<path opacity="0.4" d="M3448.27 1465.03L3102.43 1522.69C3100.15 1523.13 3097.81 1523.08 3095.56 1522.53C3093.3 1521.99 3091.19 1520.98 3089.36 1519.55C3087.53 1518.13 3086.03 1516.33 3084.95 1514.28C3083.87 1512.23 3083.24 1509.97 3083.1 1507.65L3066.19 1288.21C3065.9 1283.29 3067.42 1278.44 3070.47 1274.56C3073.51 1270.69 3077.87 1268.06 3082.71 1267.17L3428.55 1209.51C3430.83 1209.07 3433.17 1209.12 3435.43 1209.67C3437.68 1210.21 3439.79 1211.22 3441.62 1212.65C3443.45 1214.07 3444.96 1215.87 3446.04 1217.92C3447.12 1219.97 3447.74 1222.23 3447.88 1224.55L3464.79 1443.99C3465.08 1448.91 3463.56 1453.76 3460.52 1457.64C3457.47 1461.51 3453.12 1464.14 3448.27 1465.03V1465.03Z" fill="black"/>
<path d="M3241.76 844.729C3261.48 889.614 3278.93 934.267 3294.75 980.399C3302.55 1003.31 3310.34 1026.53 3317.28 1049.91C3320.78 1061.68 3324.13 1073.29 3327.33 1085.45L3329.74 1094.33L3332.24 1104.62C3334.03 1111.63 3335.04 1118.64 3336.29 1125.58C3342.33 1178.31 3337.64 1231.73 3322.5 1282.6C3315.77 1306.83 3307.54 1330.61 3297.87 1353.83C3292.96 1365.36 3287.82 1376.66 3282.29 1387.88C3276.75 1399.1 3271.3 1409.86 3264.6 1421.31L3222.13 1401.13C3228.91 1380.01 3235.76 1357.25 3240.83 1335.05C3245.89 1312.84 3250.8 1290.24 3254.15 1268.03C3257.44 1246.18 3259.21 1224.12 3259.45 1202.02C3259.9 1181.29 3257.94 1160.58 3253.61 1140.31C3252.28 1135.63 3251.43 1130.72 3249.79 1126.28L3247.53 1119.27L3244.65 1111.47C3240.83 1100.56 3236.85 1089.73 3232.57 1078.82C3224.78 1056.92 3215.66 1035.1 3207.09 1013.21L3154.41 882.289L3241.76 844.729Z" fill="#FFB573"/>
<path d="M3227.27 804.986C3283.45 826.026 3319.69 987.257 3319.69 987.257L3195.4 1072.98C3195.4 1072.98 3157.21 977.516 3136.17 903.096C3113.5 822.13 3159.32 780.049 3227.27 804.986Z" fill="#B03A2E"/>
<path opacity="0.5" d="M3227.27 804.986C3283.45 826.026 3319.69 987.257 3319.69 987.257L3195.4 1072.98C3195.4 1072.98 3157.21 977.516 3136.17 903.096C3113.5 822.13 3159.32 780.049 3227.27 804.986Z" fill="white"/>
<path d="M3217.06 1410.95L3206.23 1458.87L3281.12 1456.69C3281.12 1456.69 3287.12 1398.79 3257.74 1389.67L3234.36 1394.11C3230.16 1394.94 3226.28 1396.98 3223.21 1399.96C3220.14 1402.95 3218 1406.77 3217.06 1410.95Z" fill="#FFB573"/>
<path d="M3229.68 1518.72L3274.73 1509.52C3277.37 1508.98 3279.73 1507.5 3281.37 1505.35C3283 1503.2 3283.8 1500.53 3283.61 1497.84L3281.12 1456.69L3206.23 1458.87L3216.51 1509.91C3217.1 1512.83 3218.81 1515.39 3221.28 1517.04C3223.75 1518.69 3226.77 1519.29 3229.68 1518.72V1518.72Z" fill="#FFB573"/>
<path d="M2575.33 467.563H1230.08C1226.28 467.572 1222.53 468.341 1219.03 469.823C1215.54 471.306 1212.38 473.473 1209.74 476.196C1207.09 478.919 1205.02 482.144 1203.64 485.68C1202.27 489.216 1201.61 492.992 1201.71 496.786L1256.26 2349.5C1256.48 2356.89 1259.58 2363.91 1264.89 2369.06C1270.2 2374.21 1277.31 2377.09 1284.71 2377.09H2629.57C2633.38 2377.09 2637.15 2376.33 2640.66 2374.84C2644.16 2373.36 2647.34 2371.19 2649.99 2368.46C2652.64 2365.72 2654.72 2362.49 2656.1 2358.93C2657.48 2355.38 2658.13 2351.59 2658.01 2347.79L2603.46 495.15C2603.26 487.803 2600.22 480.821 2594.97 475.675C2589.72 470.529 2582.68 467.621 2575.33 467.563V467.563Z" fill="#B03A2E"/>
<path opacity="0.2" d="M2575.33 467.563H1230.08C1226.28 467.572 1222.53 468.341 1219.03 469.823C1215.54 471.306 1212.38 473.473 1209.74 476.196C1207.09 478.919 1205.02 482.144 1203.64 485.68C1202.27 489.216 1201.61 492.992 1201.71 496.786L1256.26 2349.5C1256.48 2356.89 1259.58 2363.91 1264.89 2369.06C1270.2 2374.21 1277.31 2377.09 1284.71 2377.09H2629.57C2633.38 2377.09 2637.15 2376.33 2640.66 2374.84C2644.16 2373.36 2647.34 2371.19 2649.99 2368.46C2652.64 2365.72 2654.72 2362.49 2656.1 2358.93C2657.48 2355.38 2658.13 2351.59 2658.01 2347.79L2603.46 495.15C2603.26 487.803 2600.22 480.821 2594.97 475.675C2589.72 470.529 2582.68 467.621 2575.33 467.563V467.563Z" fill="black"/>
<path d="M1525.5 440.522H1399.26V448.315H1525.5V440.522Z" fill="#B03A2E"/>
<path d="M1354.22 440.522H1322.19V448.315H1354.22V440.522Z" fill="#B03A2E"/>
<path d="M2588.27 467.563H1243.09C1239.29 467.562 1235.53 468.323 1232.02 469.801C1228.52 471.279 1225.35 473.444 1222.7 476.168C1220.05 478.892 1217.97 482.121 1216.59 485.662C1215.2 489.203 1214.54 492.986 1214.65 496.786L1269.2 2349.5C1269.44 2356.89 1272.54 2363.89 1277.85 2369.04C1283.15 2374.19 1290.25 2377.07 1297.64 2377.09H2642.58C2646.39 2377.08 2650.15 2376.31 2653.65 2374.82C2657.14 2373.33 2660.31 2371.16 2662.95 2368.43C2665.6 2365.7 2667.67 2362.46 2669.04 2358.92C2670.41 2355.37 2671.06 2351.59 2670.95 2347.79L2616.4 495.15C2616.18 487.809 2613.13 480.839 2607.88 475.697C2602.64 470.555 2595.61 467.641 2588.27 467.563V467.563Z" fill="#B03A2E"/>
<path opacity="0.2" d="M1272.31 568.166L1322.81 2293.7C1323.07 2301.13 1326.19 2308.18 1331.52 2313.36C1336.85 2318.54 1343.98 2321.47 1351.41 2321.52H2569.57C2573.18 2321.54 2576.76 2320.82 2580.09 2319.41C2583.42 2318.01 2586.43 2315.94 2588.94 2313.35C2591.45 2310.75 2593.41 2307.67 2594.7 2304.29C2595.99 2300.92 2596.59 2297.32 2596.45 2293.7L2545.95 568.166C2545.69 560.744 2542.57 553.711 2537.24 548.539C2531.91 543.368 2524.78 540.46 2517.35 540.424H1299.2C1295.59 540.401 1292.01 541.109 1288.68 542.505C1285.35 543.902 1282.34 545.959 1279.83 548.551C1277.32 551.144 1275.36 554.219 1274.06 557.59C1272.77 560.961 1272.18 564.559 1272.31 568.166V568.166Z" fill="black"/>
<path d="M1280.73 559.75L1331.23 2285.29C1331.49 2292.71 1334.61 2299.74 1339.94 2304.92C1345.27 2310.09 1352.4 2312.99 1359.83 2313.03H2577.98C2581.59 2313.05 2585.17 2312.35 2588.5 2310.95C2591.83 2309.55 2594.84 2307.5 2597.35 2304.9C2599.86 2302.31 2601.82 2299.24 2603.12 2295.86C2604.41 2292.49 2605 2288.9 2604.87 2285.29L2554.37 559.75C2554.11 552.328 2550.98 545.295 2545.65 540.123C2540.32 534.952 2533.2 532.044 2525.77 532.008H1307.62C1304.01 531.985 1300.43 532.693 1297.1 534.089C1293.77 535.486 1290.76 537.543 1288.25 540.135C1285.73 542.728 1283.77 545.803 1282.48 549.174C1281.19 552.545 1280.59 556.143 1280.73 559.75V559.75Z" fill="white"/>
<path d="M1655.25 1115.53H1421.16L1414.3 881.355H1648.39L1655.25 1115.53Z" fill="#F5F5F5"/>
<path d="M2417.37 974.322H1755.46L1754.22 930.683H2416.13L2417.37 974.322Z" fill="#E0E0E0"/>
<path d="M2276.09 1066.2H1758.19L1756.86 1022.56H2274.85L2276.09 1066.2Z" fill="#E0E0E0"/>
<path d="M1667.56 1535.47H1433.47L1426.61 1301.38H1660.7L1667.56 1535.47Z" fill="#F5F5F5"/>
<path d="M2010.98 1394.35H1767.77L1766.53 1350.63H2009.66L2010.98 1394.35Z" fill="#E0E0E0"/>
<path d="M2241.26 1394.35H2062.42L2061.09 1350.63H2240.01L2241.26 1394.35Z" fill="#E0E0E0"/>
<path d="M2349.66 1486.22H1770.42L1769.18 1442.51H2348.41L2349.66 1486.22Z" fill="#E0E0E0"/>
<path d="M1679.87 1955.5H1445.78L1438.92 1721.33H1673.02L1679.87 1955.5Z" fill="#F5F5F5"/>
<path d="M2443.4 1862.46H1781.49L1782.74 1906.17H2444.65L2443.4 1862.46Z" fill="#E0E0E0"/>
<path d="M2296.74 1770.66H1778.76L1780.09 1814.3H2297.99L2296.74 1770.66Z" fill="#E0E0E0"/>
<path d="M1549.81 1054.67C1548.82 1056.06 1547.5 1057.18 1545.97 1057.93C1544.43 1058.68 1542.73 1059.03 1541.03 1058.95C1539.32 1058.87 1537.66 1058.37 1536.2 1057.48C1534.74 1056.6 1533.53 1055.36 1532.67 1053.89V1053.89C1517.08 1028.95 1488.41 1006.19 1471.73 994.895C1469.56 993.457 1468.01 991.257 1467.39 988.731C1466.77 986.204 1467.12 983.537 1468.38 981.258V981.258C1469.08 980.057 1470.02 979.015 1471.14 978.198C1472.26 977.381 1473.54 976.808 1474.9 976.514C1476.26 976.221 1477.66 976.214 1479.02 976.494C1480.38 976.774 1481.67 977.335 1482.8 978.141C1501.26 990.534 1518.18 1005.08 1533.21 1021.47C1534.16 1022.63 1535.35 1023.56 1536.69 1024.2C1538.04 1024.84 1539.52 1025.17 1541.01 1025.17C1542.5 1025.17 1543.97 1024.84 1545.32 1024.2C1546.67 1023.56 1547.86 1022.63 1548.8 1021.47C1583.78 979.966 1623.68 942.885 1667.64 911.046C1669.83 909.442 1672.57 908.771 1675.26 909.18C1677.94 909.588 1680.36 911.044 1681.98 913.228C1682.8 914.28 1683.41 915.485 1683.76 916.772C1684.12 918.06 1684.21 919.405 1684.05 920.731C1683.88 922.056 1683.45 923.336 1682.79 924.495C1682.13 925.655 1681.24 926.672 1680.18 927.488C1620.34 972.764 1577.79 1014.45 1550.2 1054.67H1549.81Z" fill="#B03A2E"/>
<path d="M1562.13 1474.69C1561.12 1476.06 1559.79 1477.16 1558.25 1477.89C1556.71 1478.62 1555.02 1478.96 1553.32 1478.87C1551.62 1478.79 1549.97 1478.28 1548.52 1477.4C1547.06 1476.53 1545.85 1475.3 1544.98 1473.83V1473.83C1529.79 1448.9 1500.72 1426.14 1483.96 1414.92C1481.81 1413.47 1480.28 1411.27 1479.67 1408.74C1479.06 1406.22 1479.43 1403.55 1480.69 1401.28V1401.28C1481.41 1400.1 1482.37 1399.07 1483.5 1398.27C1484.63 1397.46 1485.92 1396.9 1487.28 1396.62C1488.64 1396.33 1490.04 1396.33 1491.4 1396.61C1492.76 1396.89 1494.05 1397.45 1495.19 1398.25C1513.64 1410.59 1530.54 1425.11 1545.53 1441.49C1546.48 1442.64 1547.67 1443.56 1549.02 1444.19C1550.36 1444.82 1551.83 1445.15 1553.32 1445.15C1554.81 1445.15 1556.28 1444.82 1557.62 1444.19C1558.97 1443.56 1560.16 1442.64 1561.11 1441.49C1596 1400.04 1635.8 1362.98 1679.64 1331.15C1680.72 1330.35 1681.95 1329.76 1683.26 1329.44C1684.57 1329.11 1685.93 1329.05 1687.26 1329.25C1688.6 1329.45 1689.88 1329.92 1691.03 1330.62C1692.18 1331.32 1693.18 1332.24 1693.98 1333.33V1333.33C1695.62 1335.45 1696.35 1338.14 1696.01 1340.79C1695.67 1343.45 1694.3 1345.87 1692.19 1347.51C1632.34 1392.87 1589.79 1434.56 1562.2 1474.77L1562.13 1474.69Z" fill="#B03A2E"/>
<path d="M1574.13 1895.58C1573.12 1896.95 1571.79 1898.05 1570.25 1898.78C1568.72 1899.5 1567.02 1899.84 1565.32 1899.76C1563.63 1899.67 1561.97 1899.17 1560.52 1898.29C1559.06 1897.41 1557.85 1896.18 1556.98 1894.72C1541.4 1869.78 1512.72 1847.03 1496.04 1835.81C1493.89 1834.36 1492.35 1832.16 1491.73 1829.63C1491.11 1827.11 1491.46 1824.45 1492.69 1822.17V1822.17C1493.39 1820.97 1494.33 1819.92 1495.45 1819.11C1496.57 1818.29 1497.86 1817.72 1499.21 1817.42C1500.57 1817.13 1501.97 1817.12 1503.33 1817.4C1504.69 1817.68 1505.98 1818.25 1507.11 1819.05C1525.56 1831.44 1542.48 1845.95 1557.53 1862.3C1558.48 1863.44 1559.67 1864.37 1561.02 1865C1562.36 1865.63 1563.83 1865.96 1565.32 1865.96C1566.81 1865.96 1568.28 1865.63 1569.62 1865C1570.97 1864.37 1572.16 1863.44 1573.11 1862.3C1607.95 1820.82 1647.73 1783.77 1691.56 1751.96C1692.64 1751.15 1693.88 1750.57 1695.18 1750.24C1696.49 1749.92 1697.85 1749.85 1699.19 1750.06C1700.52 1750.26 1701.8 1750.73 1702.95 1751.43C1704.1 1752.13 1705.11 1753.05 1705.9 1754.14V1754.14C1706.73 1755.18 1707.35 1756.38 1707.71 1757.66C1708.07 1758.94 1708.17 1760.29 1708 1761.61C1707.83 1762.93 1707.4 1764.2 1706.73 1765.36C1706.06 1766.51 1705.17 1767.52 1704.11 1768.32C1644.34 1813.67 1601.71 1855.36 1574.13 1895.58V1895.58Z" fill="#B03A2E"/>
<path d="M2115.02 2208.22C2088.88 2208.46 2063.47 2199.65 2043.09 2183.28C2026.88 2172.06 2011.92 2161.54 1981.29 2161.54C1959.13 2161.13 1937.59 2168.87 1920.75 2183.28C1901.1 2199.71 1876.22 2208.56 1850.61 2208.22C1824.45 2208.47 1799.01 2199.66 1778.61 2183.28C1762.4 2172.06 1747.44 2161.54 1716.81 2161.54C1694.67 2161.11 1673.14 2168.85 1656.34 2183.28C1636.69 2199.7 1611.81 2208.54 1586.2 2208.22C1560.07 2208.46 1534.66 2199.65 1514.28 2183.28C1498.07 2172.06 1483.11 2161.54 1452.48 2161.54L1451.94 2144.01C1478.1 2143.76 1503.54 2152.57 1523.94 2168.94C1541.32 2183.26 1563.22 2190.97 1585.74 2190.69C1607.88 2191.11 1629.41 2183.37 1646.21 2168.94C1665.96 2152.43 1690.99 2143.58 1716.73 2144.01C1742.87 2143.77 1768.28 2152.58 1788.66 2168.94C1804.87 2180.17 1819.83 2190.69 1850.46 2190.69C1872.6 2191.11 1894.12 2183.37 1910.93 2168.94C1930.69 2152.45 1955.71 2143.61 1981.45 2144.01C2007.61 2143.76 2033.05 2152.57 2053.46 2168.94C2069.66 2180.17 2084.63 2190.69 2115.25 2190.69L2115.02 2208.22Z" fill="#EBEBEB"/>
<path d="M2230.97 521.177H2229.49C2211.49 464.056 2168.32 426.184 2121.17 426.184H2025.17C2017.74 425.905 2010.57 423.327 2004.67 418.804C1998.76 414.282 1994.41 408.038 1992.2 400.935C1979.35 364.543 1947.79 338.594 1911.55 338.594C1875.31 338.594 1845.16 364.543 1834.17 400.935C1832.33 407.999 1828.26 414.278 1822.56 418.831C1816.85 423.383 1809.82 425.963 1802.53 426.184H1706.6C1659.46 426.184 1618.23 464.056 1603.27 521.177H1601.87C1599.13 521.362 1596.45 522.095 1594 523.331C1591.55 524.566 1589.37 526.281 1587.59 528.372C1585.81 530.464 1584.47 532.891 1583.64 535.509C1582.81 538.128 1582.52 540.886 1582.78 543.62C1582.64 549.235 1584.67 554.687 1588.44 558.85C1592.21 563.012 1597.44 565.567 1603.04 565.985H2232.3C2235.04 565.809 2237.71 565.086 2240.17 563.859C2242.63 562.633 2244.81 560.927 2246.6 558.843C2248.38 556.759 2249.73 554.338 2250.57 551.724C2251.41 549.109 2251.71 546.354 2251.47 543.62C2251.62 537.954 2249.57 532.449 2245.75 528.264C2241.93 524.078 2236.63 521.538 2230.97 521.177V521.177Z" fill="#263238"/>
<path d="M1517.4 714.201L1521.53 716.929L1525.42 718.721L1521.14 727.995C1518.7 726.849 1516.36 725.52 1514.12 724.02C1512.45 722.934 1510.84 721.763 1509.29 720.514C1504.97 722.271 1500.32 723.094 1495.65 722.929C1488.59 723.318 1481.63 721.037 1476.17 716.539C1473.26 713.861 1470.97 710.59 1469.43 706.946C1467.9 703.302 1467.17 699.372 1467.29 695.421C1466.76 691.732 1467.08 687.971 1468.22 684.424C1469.36 680.877 1471.3 677.638 1473.89 674.955C1476.47 672.271 1479.64 670.213 1483.14 668.939C1486.64 667.665 1490.39 667.207 1494.09 667.601C1497.85 667.363 1501.61 667.866 1505.17 669.083C1508.72 670.3 1512 672.206 1514.82 674.692C1519.44 680.128 1522.18 686.906 1522.64 694.022C1523.11 701.137 1521.27 708.213 1517.4 714.201V714.201ZM1504.54 705.707C1505.96 702.368 1506.52 698.723 1506.17 695.109C1506.38 690.998 1505.2 686.935 1502.82 683.576C1501.76 682.411 1500.46 681.493 1499 680.887C1497.55 680.281 1495.98 680.002 1494.41 680.069C1492.92 680.021 1491.44 680.319 1490.09 680.941C1488.73 681.564 1487.55 682.492 1486.61 683.654C1484.34 686.866 1483.37 690.819 1483.89 694.72C1483.6 699.083 1484.78 703.418 1487.24 707.032C1488.27 708.194 1489.54 709.112 1490.97 709.718C1492.4 710.325 1493.95 710.605 1495.5 710.539C1496.56 710.662 1497.63 710.662 1498.69 710.539C1496.72 708.859 1494.44 707.564 1491.99 706.72L1494.41 700.798C1495.59 700.943 1496.74 701.258 1497.84 701.733C1499.53 702.673 1501.17 703.714 1502.74 704.85L1504.54 705.707Z" fill="#263238"/>
<path d="M1565.63 668.459H1581.92L1582.85 700.409C1583.04 703.35 1582.73 706.302 1581.92 709.137C1581.09 711.923 1579.59 714.464 1577.55 716.54C1575.73 718.485 1573.49 720.002 1571.01 720.981C1567.3 722.255 1563.4 722.862 1559.48 722.774C1556.64 722.769 1553.8 722.587 1550.98 722.228C1548.28 721.959 1545.64 721.221 1543.19 720.046C1540.99 718.866 1539.01 717.31 1537.34 715.449C1535.74 713.648 1534.5 711.559 1533.68 709.292C1532.64 706.385 1532.04 703.338 1531.89 700.253L1530.95 668.303H1547.48L1548.41 700.954C1548.37 702.217 1548.58 703.476 1549.03 704.654C1549.49 705.833 1550.18 706.907 1551.06 707.812C1551.96 708.664 1553.03 709.324 1554.19 709.752C1555.36 710.181 1556.6 710.369 1557.84 710.305C1559.06 710.371 1560.27 710.183 1561.41 709.753C1562.55 709.324 1563.59 708.663 1564.46 707.812C1565.9 705.977 1566.57 703.66 1566.33 701.344L1565.63 668.459Z" fill="#263238"/>
<path d="M1624.78 713.189H1606L1603.66 721.995H1586.75L1605.3 668.459H1623.3L1645.04 721.995H1627.66L1624.78 713.189ZM1620.88 701.344L1614.41 682.096L1609.19 701.344H1620.88Z" fill="#263238"/>
<path d="M1648.7 668.459H1665.22L1666.39 708.825H1692.26L1692.65 721.995H1650.26L1648.7 668.459Z" fill="#263238"/>
<path d="M1699.2 668.459H1715.8L1717.36 721.995H1700.76L1699.2 668.459Z" fill="#263238"/>
<path d="M1723.9 668.459H1774.16L1774.55 681.707H1757.72L1758.89 721.995H1742.37L1741.12 681.707H1724.29L1723.9 668.459Z" fill="#263238"/>
<path d="M1776.27 668.459H1794.66L1805.96 686.538L1816.25 668.459H1834.48L1814.61 699.63L1815.23 721.995H1798.63L1798.01 699.63L1776.27 668.459Z" fill="#263238"/>
<path d="M1898.93 713.189H1880.15L1877.81 721.995H1860.98L1879.52 668.459H1897.52L1919.19 721.995H1901.89L1898.93 713.189ZM1895.19 701.344L1888.72 682.096L1883.42 701.344H1895.19Z" fill="#263238"/>
<path d="M1921.06 704.305L1936.64 703.292C1936.88 705.391 1937.63 707.399 1938.82 709.137C1939.76 710.271 1940.96 711.161 1942.32 711.731C1943.68 712.301 1945.15 712.534 1946.62 712.41C1948.58 712.572 1950.53 711.987 1952.07 710.773C1952.64 710.294 1953.09 709.697 1953.4 709.024C1953.71 708.351 1953.87 707.618 1953.86 706.877C1953.82 706.152 1953.62 705.445 1953.28 704.801C1952.95 704.157 1952.48 703.59 1951.92 703.136C1949.31 701.526 1946.38 700.49 1943.34 700.097C1937.71 699.16 1932.37 696.919 1927.76 693.551C1925.16 691.401 1923.44 688.375 1922.93 685.044C1922.41 681.713 1923.13 678.308 1924.95 675.472C1926.62 672.852 1929.07 670.832 1931.97 669.706C1936.14 668.119 1940.6 667.402 1945.06 667.602C1950.52 667.273 1955.95 668.604 1960.64 671.42C1962.56 672.841 1964.16 674.652 1965.33 676.734C1966.5 678.815 1967.21 681.121 1967.42 683.499L1951.84 684.434C1951.57 682.426 1950.61 680.576 1949.11 679.213C1947.5 678.061 1945.55 677.485 1943.58 677.576C1942.03 677.456 1940.49 677.868 1939.21 678.745C1938.77 679.096 1938.42 679.548 1938.19 680.064C1937.96 680.579 1937.86 681.143 1937.89 681.706C1937.9 682.166 1938.02 682.617 1938.24 683.023C1938.45 683.428 1938.76 683.778 1939.14 684.044C1940.85 685.085 1942.76 685.749 1944.75 685.992C1950.11 686.96 1955.34 688.555 1960.33 690.746C1963.18 692.029 1965.6 694.08 1967.35 696.668C1968.8 699.013 1969.61 701.702 1969.68 704.461C1969.79 707.79 1968.89 711.075 1967.11 713.89C1965.28 716.867 1962.55 719.186 1959.32 720.514C1955.23 722.138 1950.86 722.907 1946.46 722.774C1939.66 723.463 1932.84 721.572 1927.37 717.475C1923.79 713.956 1921.56 709.297 1921.06 704.305V704.305Z" fill="#263238"/>
<path d="M1975.06 704.305L1990.65 703.292C1990.9 705.399 1991.68 707.408 1992.91 709.137C1993.8 710.216 1994.94 711.072 1996.22 711.64C1997.51 712.208 1998.91 712.471 2000.31 712.41C2002.27 712.572 2004.22 711.988 2005.76 710.773C2006.33 710.295 2006.78 709.697 2007.09 709.024C2007.4 708.351 2007.56 707.618 2007.56 706.877C2007.51 706.152 2007.31 705.445 2006.98 704.801C2006.64 704.157 2006.17 703.59 2005.61 703.136C2003 701.526 2000.08 700.49 1997.04 700.097C1991.4 699.175 1986.06 696.932 1981.45 693.551C1979.9 692.318 1978.65 690.754 1977.79 688.974C1976.93 687.194 1976.47 685.243 1976.46 683.265C1976.37 680.516 1977.1 677.802 1978.57 675.472C1980.28 672.865 1982.76 670.85 1985.66 669.706C1989.83 668.119 1994.29 667.403 1998.75 667.602C2004.21 667.288 2009.64 668.618 2014.34 671.42C2016.25 672.841 2017.85 674.652 2019.02 676.734C2020.19 678.815 2020.9 681.121 2021.12 683.499L2005.53 684.434C2005.27 682.407 2004.27 680.546 2002.72 679.213C2001.13 678.039 1999.17 677.46 1997.19 677.576C1995.67 677.467 1994.16 677.88 1992.91 678.745C1992.47 679.104 1992.11 679.556 1991.87 680.068C1991.63 680.58 1991.5 681.14 1991.5 681.707C1991.55 682.167 1991.69 682.612 1991.92 683.014C1992.15 683.416 1992.46 683.767 1992.83 684.044C1994.54 685.085 1996.45 685.749 1998.44 685.993C2003.8 686.96 2009.03 688.555 2014.02 690.746C2016.85 692.049 2019.28 694.096 2021.04 696.668C2022.49 699.013 2023.3 701.702 2023.38 704.461C2023.48 707.791 2022.58 711.075 2020.8 713.89C2018.98 716.874 2016.25 719.196 2013.01 720.514C2008.95 722.138 2004.6 722.908 2000.23 722.774C1993.43 723.464 1986.61 721.572 1981.14 717.475C1977.65 713.921 1975.5 709.267 1975.06 704.305V704.305Z" fill="#263238"/>
<path d="M2065.69 668.458H2082.21L2083.15 700.408C2083.25 703.42 2082.83 706.426 2081.9 709.292C2081.07 712.078 2079.57 714.62 2077.53 716.695C2075.71 718.641 2073.47 720.158 2070.99 721.137C2067.28 722.404 2063.38 723.011 2059.46 722.929C2056.62 722.927 2053.78 722.745 2050.96 722.384C2048.26 722.115 2045.62 721.376 2043.17 720.202C2040.97 719.021 2038.99 717.465 2037.32 715.604C2035.77 713.692 2034.61 711.495 2033.9 709.136C2032.85 706.228 2032.25 703.182 2032.1 700.096L2031.17 668.146H2047.61L2048.62 700.798C2048.54 703.334 2049.46 705.8 2051.2 707.655C2052.12 708.502 2053.2 709.158 2054.38 709.586C2055.55 710.014 2056.8 710.206 2058.05 710.149C2059.27 710.214 2060.49 710.026 2061.63 709.597C2062.77 709.168 2063.81 708.507 2064.68 707.655C2065.51 706.733 2066.13 705.645 2066.51 704.462C2066.88 703.28 2067 702.03 2066.86 700.798L2065.69 668.458Z" fill="#263238"/>
<path d="M2094.91 721.994L2093.35 668.459H2120.94C2124.91 668.328 2128.87 668.775 2132.71 669.783C2135.4 670.674 2137.75 672.392 2139.41 674.693C2141.15 677.242 2142.1 680.253 2142.14 683.343C2142.3 686.05 2141.71 688.749 2140.42 691.135C2139.22 693.289 2137.47 695.089 2135.36 696.357C2133.56 697.371 2131.61 698.082 2129.59 698.461C2131.14 698.882 2132.61 699.539 2133.95 700.409C2135.91 702.244 2137.64 704.312 2139.1 706.565L2147.59 722.15H2128.89L2119.61 705.786C2118.83 704.237 2117.77 702.839 2116.5 701.655C2115.27 700.859 2113.83 700.427 2112.37 700.409H2110.89L2111.59 722.15L2094.91 721.994ZM2110.5 690.2H2117.43C2118.91 690.094 2120.37 689.833 2121.8 689.421C2122.85 689.207 2123.78 688.627 2124.45 687.784C2125.07 686.865 2125.39 685.777 2125.38 684.667C2125.4 683.913 2125.24 683.165 2124.93 682.478C2124.62 681.79 2124.17 681.18 2123.59 680.693C2121.75 679.566 2119.58 679.073 2117.43 679.29H2110.11L2110.5 690.2Z" fill="#263238"/>
<path d="M2185.54 713.189H2166.76L2164.42 721.995H2147.51L2166.06 668.459H2184.06L2205.8 721.995H2188.42L2185.54 713.189ZM2181.96 701.344L2175.49 682.096L2170.27 701.344H2181.96Z" fill="#263238"/>
<path d="M2209.54 668.459H2225.13L2246.09 698.071L2245.23 668.459H2260.82L2262.38 721.995H2246.79L2225.91 692.616L2226.76 721.995H2211.18L2209.54 668.459Z" fill="#263238"/>
<path d="M2308.28 700.097L2322.93 704.461C2322.25 708.132 2320.79 711.615 2318.64 714.669C2316.62 717.358 2313.93 719.478 2310.85 720.826C2307.12 722.355 2303.11 723.072 2299.08 722.93C2294.17 723.105 2289.28 722.228 2284.74 720.358C2280.88 718.32 2277.67 715.243 2275.47 711.474C2272.48 706.543 2270.91 700.878 2270.95 695.11C2270.6 691.447 2271 687.751 2272.11 684.244C2273.22 680.736 2275.02 677.488 2277.42 674.693C2280.05 672.211 2283.17 670.3 2286.57 669.08C2289.98 667.859 2293.6 667.356 2297.21 667.601C2302.85 667.292 2308.45 668.705 2313.26 671.654C2317.48 674.803 2320.61 679.188 2322.23 684.2L2307.73 687.473C2307.3 686.216 2306.72 685.013 2306.02 683.888C2305.08 682.676 2303.88 681.691 2302.51 681.005C2301.11 680.287 2299.56 679.913 2297.99 679.914C2296.3 679.852 2294.63 680.237 2293.13 681.031C2291.64 681.825 2290.39 682.998 2289.5 684.434C2287.85 687.71 2287.18 691.386 2287.55 695.032C2287.24 699.304 2288.3 703.563 2290.59 707.188C2291.55 708.303 2292.75 709.184 2294.1 709.765C2295.45 710.345 2296.91 710.61 2298.38 710.539C2299.69 710.632 2301 710.436 2302.23 709.964C2303.45 709.493 2304.56 708.758 2305.47 707.812C2307.08 705.537 2308.05 702.873 2308.28 700.097V700.097Z" fill="#263238"/>
<path d="M2330.02 668.459H2374.36V679.914H2346.62V688.408H2372.33V699.318H2346.62V709.916H2375.22V721.995H2330.1L2330.02 668.459Z" fill="#263238"/>
<path d="M979.932 1342.14C979.932 1342.14 957.801 1827.08 953.592 2023.45C949.151 2227.78 947.202 2704.85 947.202 2704.85H895.693C895.693 2704.85 813.402 2308.35 837.793 2023.45C800.933 1804.71 776.075 1342.14 776.075 1342.14H979.932Z" fill="#FF8B7B"/>
<path d="M911.746 1342.14C911.746 1342.14 788.933 1849.99 738.748 2039.9C685.758 2239.31 614.532 2690.04 614.065 2704.85H569.491C569.491 2704.85 555.464 2184.14 626.066 2007.09C626.066 1785.23 718.331 1342.14 718.331 1342.14H911.746Z" fill="#FF8B7B"/>
<path d="M568.4 2677.81C559.906 2687.47 552.814 2737.5 565.906 2759.78C578.998 2782.07 565.906 2815.03 608.766 2815.03C651.626 2815.03 655.522 2805.68 645.002 2785.73C634.482 2765.79 621.624 2728.3 622.091 2704.85C622.559 2674.61 634.17 2659.03 568.4 2677.81Z" fill="#263238"/>
<path d="M563.101 2729.94C562.165 2755.65 562.711 2797.66 562.711 2797.66H569.491C569.491 2797.66 574.556 2751.68 578.842 2734.61L563.101 2729.94Z" fill="#263238"/>
<path d="M1023.8 1031.91C1029.34 1071.5 1034.25 1111.08 1038.77 1150.75C1043.29 1190.41 1047.73 1230.16 1052.01 1270.21C1053.03 1280.11 1053.81 1290.55 1055.52 1298.81C1056.22 1303.1 1057.08 1307.54 1058.09 1312.29C1059.11 1317.04 1059.89 1321.56 1061.05 1326.16C1065.26 1344.71 1070.64 1363.33 1076.64 1381.96C1082.64 1400.58 1088.41 1419.21 1095.26 1437.68C1102.12 1456.14 1108.98 1474.85 1116.15 1492.85L1087.39 1508.43C1064.92 1473.7 1045.27 1437.21 1028.64 1399.34C1020.25 1380.25 1012.87 1360.74 1006.51 1340.89C1004.79 1335.98 1003.39 1330.76 1001.91 1325.69C1000.43 1320.63 998.946 1315.49 997.699 1310.11C995.258 1299.95 993.333 1289.68 991.933 1279.33C985.699 1239.58 979.828 1199.79 974.321 1159.94C968.555 1120.12 963.256 1080.3 958.736 1040.33L1023.8 1031.91Z" fill="#FF8B7B"/>
<path d="M1012.51 974.087C1028.87 1004.71 1037.36 1125.58 1051.08 1208.57C1051.52 1211.5 1050.93 1214.49 1049.41 1217.04C1047.89 1219.58 1045.53 1221.52 1042.74 1222.52C1024.45 1229.79 1007.54 1240.12 992.712 1253.07C991.041 1254.49 989.025 1255.46 986.865 1255.87C984.706 1256.28 982.476 1256.12 980.398 1255.4C978.32 1254.69 976.465 1253.44 975.016 1251.79C973.567 1250.13 972.576 1248.13 972.139 1245.97L933.176 1065.88L950.086 1031.75C954.26 1017.39 962.269 1004.43 973.252 994.266C984.236 984.107 997.779 977.131 1012.43 974.087H1012.51Z" fill="#263238"/>
<path d="M1114.9 1486.3L1171.63 1518.17L1110.3 1541.55C1110.3 1541.55 1079.13 1514.67 1084.67 1488.48L1114.9 1486.3Z" fill="#FF8B7B"/>
<path d="M1192.44 1568.2L1140.07 1584.65L1110.3 1541.16L1171.63 1518.17L1192.44 1568.2Z" fill="#FF8B7B"/>
<path d="M1089.89 1554.33L1690.39 1483.5L1691.09 1489.18L1091.6 1567.97L1089.89 1554.33Z" fill="#263238"/>
<path d="M1018.27 996.53C1019.29 1043.29 1016.4 1175.14 983.595 1376.97H710.149C714.591 1270.21 727.916 1168.9 677.03 950.709C711.976 943.592 747.399 939.06 783.011 937.149C822.574 934.341 862.286 934.341 901.849 937.149C927.409 939.487 954.684 943.617 975.568 947.202C987.293 949.217 997.957 955.234 1005.74 964.228C1013.53 973.222 1017.96 984.638 1018.27 996.53V996.53Z" fill="#263238"/>
<path opacity="0.2" d="M878.003 1377.91C877.756 1377.85 877.535 1377.71 877.379 1377.51C877.223 1377.31 877.14 1377.07 877.146 1376.81C902.083 1144.83 880.185 1052.33 879.952 1051.39C879.902 1051.14 879.947 1050.89 880.076 1050.67C880.206 1050.45 880.412 1050.29 880.653 1050.22C880.776 1050.17 880.908 1050.15 881.039 1050.16C881.171 1050.17 881.298 1050.22 881.411 1050.28C881.524 1050.35 881.62 1050.44 881.691 1050.56C881.763 1050.67 881.807 1050.79 881.822 1050.92C881.822 1051.86 904.031 1144.44 879.094 1377.05C879.085 1377.18 879.049 1377.31 878.988 1377.42C878.927 1377.54 878.842 1377.64 878.739 1377.72C878.637 1377.8 878.518 1377.86 878.391 1377.89C878.264 1377.92 878.132 1377.93 878.003 1377.91V1377.91Z" fill="white"/>
<path d="M901.849 936.916H783.011C783.011 936.916 823.844 1005.49 878.004 1041.65C898.169 1010.69 906.625 973.553 901.849 936.916Z" fill="#E0E0E0"/>
<path d="M834.443 768.049C861.171 813.168 850.495 868.886 810.597 892.732C770.698 916.578 717.084 898.81 690.044 853.768C663.003 808.727 673.991 752.463 713.889 729.085C753.788 705.707 807.714 722.851 834.443 768.049Z" fill="#263238"/>
<path d="M666.587 817.376C665.129 792.416 672.832 767.781 688.251 748.099C695.231 738.835 704.163 731.22 714.414 725.793C724.665 720.366 735.984 717.26 747.569 716.695C759.154 716.129 770.722 718.119 781.452 722.523C792.182 726.926 801.813 733.636 809.661 742.176C826.978 760.337 837.065 784.197 838.027 809.272H834.131C833.214 785.134 823.515 762.161 806.856 744.67C799.397 736.517 790.232 730.11 780.013 725.905C769.794 721.701 758.773 719.802 747.736 720.345C736.699 720.889 725.918 723.86 716.161 729.048C706.404 734.236 697.912 741.512 691.29 750.359C676.332 769.294 668.821 793.049 670.172 817.142L666.587 817.376Z" fill="#263238"/>
<path d="M972.982 839.7C994.179 795.93 977.638 744.115 936.037 723.969C894.436 703.822 843.528 722.973 822.331 766.743C801.134 810.513 817.675 862.328 859.276 882.475C900.877 902.621 951.785 883.471 972.982 839.7Z" fill="#263238"/>
<path d="M794.855 803.193C802.648 841.378 809.817 911.434 783.088 936.916C783.088 936.916 803.739 977.36 864.834 991.465C902.784 968.087 901.927 936.916 901.927 936.916C859.301 926.708 860.392 895.147 867.795 865.457L794.855 803.193Z" fill="#FF8B7B"/>
<path d="M839.819 983.595L786.595 920.863L768.204 930.604L765.165 1021.31L804.596 969.568L839.819 983.595Z" fill="white"/>
<path d="M875.899 983.594L893.199 927.175L914.941 936.916L938.787 1013.28L903.252 969.567L875.899 983.594Z" fill="white"/>
<path opacity="0.2" d="M824.546 828.598L867.717 865.379C865.862 872.294 864.637 879.362 864.055 886.497C847.768 884.16 825.091 866.236 823.689 849.17C822.666 842.321 822.957 835.339 824.546 828.598V828.598Z" fill="black"/>
<path d="M754.489 733.059C769.451 795.4 774.517 821.818 811.922 848.469C868.263 888.523 941.28 856.261 945.177 791.114C948.683 732.279 923.591 640.559 857.665 626.455C843.144 623.276 828.052 623.862 813.822 628.157C799.592 632.452 786.696 640.313 776.358 650.994C766.021 661.675 758.585 674.821 754.758 689.184C750.93 703.547 750.838 718.65 754.489 733.059Z" fill="#FF8B7B"/>
<path d="M768.672 761.736C807.635 738.358 802.492 668.224 802.492 668.224C869.899 667.367 896.005 668.224 916.499 671.107C936.994 673.99 924.292 646.56 894.29 624.351C864.288 602.142 782.932 608.766 757.606 651.236C726.435 663.704 696.667 734.462 768.672 761.736Z" fill="#263238"/>
<path d="M715.76 701.343C715.76 701.343 935.124 654.586 981.257 641.261C981.257 613.753 868.419 647.807 868.419 647.807L715.76 701.343Z" fill="#B03A2E"/>
<path d="M930.449 639.625C926.24 624.039 893.901 545.723 782.387 577.829C679.679 607.831 715.76 701.343 715.76 701.343L930.449 639.625Z" fill="#B03A2E"/>
<path d="M855.015 575.335L815.974 565.594L771.166 573.542L771.711 581.413L801.09 586.166L855.015 575.335Z" fill="#B03A2E"/>
<path opacity="0.4" d="M854.392 653.885C853.41 653.888 852.463 653.521 851.741 652.856C851.019 652.192 850.574 651.279 850.495 650.301C850.495 647.885 845.586 592.557 775.997 581.881C774.983 581.708 774.075 581.149 773.464 580.32C772.854 579.492 772.589 578.459 772.724 577.439C772.914 576.433 773.478 575.537 774.302 574.93C775.126 574.322 776.149 574.05 777.166 574.166C853.067 585.855 858.21 649.132 858.288 649.755C858.32 650.267 858.25 650.78 858.083 651.265C857.916 651.75 857.655 652.197 857.314 652.581C856.974 652.964 856.561 653.277 856.1 653.501C855.638 653.725 855.137 653.855 854.625 653.885H854.392Z" fill="black"/>
<path opacity="0.2" d="M955.073 1964.85L824.779 1933.06C821.194 1905.39 817.922 1875.94 814.727 1845.62L958.112 1870.72C956.943 1904.38 955.93 1936.25 955.073 1964.85Z" fill="black"/>
<path opacity="0.2" d="M639.937 1815.15L789.089 1841.18C782.309 1868.38 775.685 1894.64 769.451 1919.58L632.456 1885.83C634.56 1863.16 637.053 1839.08 639.937 1815.15Z" fill="black"/>
<path d="M864.444 733.76C865.301 738.903 868.808 742.566 872.237 741.942C875.666 741.319 877.614 736.721 876.679 731.578C875.744 726.435 872.315 722.85 868.886 723.785C865.457 724.72 863.509 728.617 864.444 733.76Z" fill="#263238"/>
<path d="M922.266 723.552C923.123 728.617 926.63 732.28 930.059 731.734C933.488 731.189 935.436 726.513 934.501 721.37C933.565 716.227 930.137 712.564 926.708 713.577C923.279 714.59 921.331 718.409 922.266 723.552Z" fill="#263238"/>
<path d="M925.227 713.734L936.916 708.045C936.916 708.045 932.318 718.721 925.227 713.734Z" fill="#263238"/>
<path d="M908.551 735.007C915.16 745.882 923.236 755.794 932.552 764.463C930.274 766.78 927.519 768.573 924.477 769.717C921.436 770.861 918.181 771.329 914.941 771.087L908.551 735.007Z" fill="#FF5652"/>
<path d="M884.316 794.855C887.242 794.856 890.163 794.595 893.043 794.076C893.239 794.047 893.427 793.98 893.596 793.878C893.765 793.776 893.912 793.641 894.028 793.481C894.144 793.321 894.227 793.14 894.272 792.948C894.317 792.755 894.324 792.556 894.29 792.361C894.214 791.96 893.984 791.605 893.649 791.372C893.314 791.138 892.9 791.046 892.498 791.115C886.159 792.366 879.615 792.116 873.39 790.383C867.166 788.651 861.433 785.486 856.652 781.14C856.383 780.851 856.01 780.68 855.616 780.665C855.221 780.65 854.837 780.793 854.548 781.062C854.258 781.331 854.087 781.703 854.073 782.098C854.058 782.492 854.201 782.877 854.47 783.166C862.5 790.825 873.219 795.023 884.316 794.855V794.855Z" fill="#263238"/>
<path d="M745.839 768.516C748.242 774.194 751.744 779.342 756.144 783.662C760.544 787.982 765.755 791.388 771.477 793.686C787.063 799.764 796.102 786.595 793.375 771.321C790.881 757.606 780.049 737.812 764.074 738.202C760.548 738.29 757.101 739.266 754.053 741.041C751.004 742.815 748.453 745.33 746.634 748.352C744.816 751.375 743.79 754.808 743.651 758.332C743.512 761.857 744.265 765.359 745.839 768.516V768.516Z" fill="#FF8B7B"/>
<path d="M838.962 710.46C839.374 710.419 839.773 710.294 840.135 710.093C840.497 709.892 840.813 709.619 841.066 709.291C843.381 706.24 846.375 703.771 849.811 702.08C853.247 700.389 857.03 699.523 860.86 699.55C861.259 699.594 861.663 699.557 862.048 699.443C862.434 699.329 862.792 699.14 863.104 698.886C863.416 698.632 863.674 698.319 863.864 697.965C864.054 697.611 864.172 697.223 864.21 696.823C864.276 696.008 864.018 695.2 863.493 694.574C862.969 693.947 862.219 693.551 861.405 693.472C856.565 693.353 851.765 694.386 847.402 696.486C843.04 698.586 839.238 701.693 836.313 705.551C835.823 706.188 835.599 706.989 835.686 707.788C835.773 708.586 836.165 709.32 836.78 709.837C837.41 710.298 838.184 710.519 838.962 710.46V710.46Z" fill="#263238"/>
<path d="M933.02 691.524C933.765 691.277 934.382 690.745 934.734 690.043C934.919 689.681 935.03 689.286 935.06 688.88C935.089 688.474 935.037 688.067 934.906 687.682C934.776 687.296 934.569 686.941 934.298 686.638C934.028 686.334 933.699 686.088 933.332 685.913C929.031 683.692 924.262 682.533 919.422 682.533C914.582 682.533 909.812 683.692 905.512 685.913C904.818 686.334 904.315 687.01 904.111 687.796C903.908 688.581 904.019 689.416 904.421 690.121C904.622 690.473 904.891 690.78 905.213 691.026C905.535 691.272 905.903 691.451 906.295 691.552C906.687 691.654 907.095 691.676 907.496 691.618C907.897 691.559 908.282 691.421 908.629 691.212C912.037 689.449 915.818 688.529 919.655 688.529C923.493 688.529 927.274 689.449 930.682 691.212C931.024 691.436 931.411 691.58 931.815 691.634C932.22 691.688 932.632 691.65 933.02 691.524V691.524Z" fill="#263238"/>
<path d="M867.405 723.942L879.094 718.253C879.094 718.253 874.497 728.929 867.405 723.942Z" fill="#263238"/>
<path d="M983.595 1376.97L972.373 1919.58L622.559 1869.7C608.532 1585.97 657.626 1437.05 710.149 1376.97H983.595Z" fill="#263238"/>
<path opacity="0.2" d="M891.797 1694.44L808.493 1594.23V1515.13L891.797 1694.44Z" fill="black"/>
<path d="M711.318 1020.84C700.875 1052.01 690.823 1084.59 681.316 1116.46C671.809 1148.33 663.392 1180.83 656.613 1212.85C653.418 1228.44 650.301 1244.8 648.82 1260.31V1263.27V1264.68C648.82 1265.14 648.82 1264.68 648.82 1264.68C648.647 1265.77 648.839 1266.89 649.366 1267.87C651.653 1272.73 654.824 1277.11 658.717 1280.81C669.258 1291.3 680.942 1300.58 693.55 1308.47C706.954 1317.04 721.682 1325.3 735.865 1332.71L725.89 1363.88C708.071 1360.47 690.578 1355.54 673.601 1349.15C655.459 1342.56 638.331 1333.45 622.715 1322.11C613.283 1315.08 605.182 1306.42 598.791 1296.55C594.795 1290.18 591.922 1283.16 590.297 1275.82C589.42 1271.75 588.976 1267.59 588.972 1263.43V1258.75V1255.25C589.518 1246.05 590.297 1236.86 591.388 1227.97C592.479 1219.09 593.804 1210.21 595.128 1201.4C601.014 1166.82 608.661 1132.57 618.039 1098.77C622.455 1081.94 627.312 1065.24 632.611 1048.66C637.832 1032.06 643.053 1015.78 649.21 998.945L711.318 1020.84Z" fill="#FF8B7B"/>
<path d="M913.772 1236.47L871.691 1205.38L775.296 1349.62L665.497 1483.96L707.655 1515.13L803.973 1370.81L913.772 1236.47Z" fill="#FAFAFA"/>
<path d="M871.614 1205.38C881.108 1220.82 896.218 1232 913.772 1236.55C904.278 1221.1 889.168 1209.92 871.614 1205.38V1205.38Z" fill="#E6E6E6"/>
<path d="M665.497 1483.96C674.991 1499.41 690.101 1510.59 707.655 1515.13C698.16 1499.68 683.051 1488.51 665.497 1483.96V1483.96Z" fill="#E6E6E6"/>
<path d="M728.696 1330.37L798.129 1334.97L752.697 1382.11C752.697 1382.11 712.799 1371.36 706.72 1345.33L728.696 1330.37Z" fill="#FF8B7B"/>
<path d="M820.649 1371.51L801.09 1399.1C799.375 1401.5 796.839 1403.18 793.965 1403.82C791.091 1404.47 788.08 1404.04 785.504 1402.61L742.956 1378.76L798.284 1335.04L819.402 1355.93C821.424 1357.96 822.659 1360.64 822.888 1363.49C823.116 1366.35 822.323 1369.19 820.649 1371.51V1371.51Z" fill="#FF8B7B"/>
<path d="M733.371 1008.22C728.462 978.062 705.941 960.294 677.03 950.476C634.482 981.257 613.675 1082.95 590.141 1201.56C589.529 1204.99 590.087 1208.53 591.726 1211.61C593.365 1214.69 595.99 1217.13 599.181 1218.54C617.805 1226.34 633.702 1234.13 644.378 1239.12C646.236 1240.06 648.269 1240.6 650.347 1240.71C652.426 1240.82 654.505 1240.5 656.453 1239.77C658.402 1239.04 660.177 1237.91 661.667 1236.46C663.156 1235 664.328 1233.25 665.107 1231.32L741.164 1042.59L733.371 1008.22Z" fill="#263238"/>
<path d="M1045.16 2802.33C1037.25 2796.58 1028.46 2792.16 1019.13 2789.24V2789.24C1019.13 2789.24 972.997 2763.14 948.995 2684.82L895.693 2671.49C894.367 2671.16 892.986 2671.12 891.641 2671.36C890.296 2671.6 889.018 2672.13 887.891 2672.9C886.765 2673.68 885.815 2674.68 885.104 2675.85C884.394 2677.01 883.939 2678.32 883.77 2679.68C883.225 2683.88 882.913 2688.71 882.368 2692.61C881.861 2701.1 881.861 2709.61 882.368 2718.09C882.835 2744.51 885.796 2803.81 885.796 2803.81H892.031C892.03 2785.76 893.123 2767.73 895.304 2749.81C898.343 2732.35 910.889 2753 917.591 2772.72C924.292 2792.44 952.268 2813.55 992.557 2814.49C1039.7 2815.89 1058.87 2813.79 1045.16 2802.33Z" fill="#263238"/>
</svg>
